/* XPM */
static char * frame20_xpm[] = {
"64 64 24 1",
" 	c #510000",
".	c #242424",
"+	c #444444",
"@	c #5B0000",
"#	c #720000",
"$	c #900000",
"%	c #B40000",
"&	c #E20000",
"*	c #4D4D4D",
"=	c #D6D6D6",
"-	c #FFFFFF",
";	c #CFCFCF",
">	c #363636",
",	c #E9E9E9",
"'	c #F9F9F9",
")	c #DEDEDE",
"!	c #E7E7E7",
"~	c #FAFAFA",
"{	c #CDCDCD",
"]	c #FF0202",
"^	c #F6F6F6",
"/	c #E3E3E3",
"(	c #E8E8E8",
"_	c #DFDFDF",
" .............................................................. ",
" .+++++.++++++++++++.++++++++++++++++.++++++++++++.+++++++++++. ",
" .+++++.++++++++++++.++++++++++++++++.++++++++++++.+++++++++++. ",
" .+++++.++++++++++++.++++++++++++++++.++++++++++++.+++++++++++. ",
" .+++++.++++++++++++.++++++++++++++++..+++++++++++.+++++++++++. ",
" .+++++..+++++++++++..++++++++++++++++.+++++++++++.+++++++++++. ",
" .++++++.++++++++++++.++++++++++++++++.+++++++++...+++++++++++. ",
" .++++++.++++++++++++.++++++++++++++++.+++++++++.+++++++++++++. ",
"@.++++...++++++++++++.++++++++++++++++.+++++++++.+++++++++++++.@",
"#.++++.++++++++++++++.++++++++++++++...+++++++++.+++++++++++++.#",
"$.++++.++++++++++++++...++++++++++++.+++++++++++.+++++++++++++.$",
"%.++++.++++++++++++++++.++++++++++++.++++++++++..+++++++++++++.%",
"&.++++.++++++++++++++++.++++++++++++.++++++++++.++++++++++++++.&",
"&.++++....+++++++++++++.++++++++++++.++++++++++.++++++++++++++.&",
"&.+++++++.++++++++++....++++++++++++...++++++++.++++++++++++++.&",
"%.+++++++.++++++++++.+++++++++++++++++.++++++++.++++++++++++++.%",
"$.+++++++.++++++++++.++++++++++++++....++++++++..+++++++++++++.$",
"#.+++++++.++++++++++.++++++++++++++.++++++++++++.+++++++++++++.#",
"@.+++++++.++++++++++.++++++++++++++.++++++++++++.+++++++++++++.@",
" .+++++++.++++++++++..+++++++++++++.++++++++++++.+++++++++++++. ",
" .+++++++.+++++++++++.+++++++++++++...++++++++++.+++++++++++++. ",
" .+++++...+++++++++++.+++++++++++++++.++++++++++.+++++++++++++. ",
" .+++++.++++++++++++........................++++..++++++++++++. ",
" .+++++.+++++++++++..........................++++.++++++++++++. ",
" .+++++.++++++++++...**********************...+++.++++++++++++. ",
" .+++++.++++++++++..***********=-;**********..+++.++++++++++++. ",
" .+++++.++++++++++..**>>>*******-;**********..+++.++++++++++++. ",
" .+++++.++++++++++..**> >*******-;**********..+++.++++++++++++. ",
" .+++++..+++++++++..**>>>*******-;**********..+++...++++++++++. ",
" .++++++.+++++++++..************-;**********..+++++.++++++++++. ",
" .++++++.+++++++++..************************..+++++.++++++++++. ",
" .++++++.+++++++++............................+++...++++++++++. ",
" .++++++..++++++++............................+++.++++++++++++. ",
" .+++++++.++++++++..************************..+++.++++++++++++. ",
" .+++++++.++++++++..***********,')**********..+++.++++++++++++. ",
" .+++++++.++++++++..**>>>*****!~*-{*********..+++...++++++++++. ",
" .+++++...++++++++..**>]>*****~^*-/*********..+++++.++++++++++. ",
" .+++++.++++++++++..**>>>*****(~*-{*********..+++++.++++++++++. ",
" .+++++.++++++++++..***********,'_**********..+++++.++++++++++. ",
" .+++++.++++++++++...**********************...+++...++++++++++. ",
" .+++++.+++++++++++..........................++++.++++++++++++. ",
" .+++++......+++++++........................+++++.++++++++++++. ",
" .++++++++++.+++++++++++.+++++++++++.++++++++++++.++++++++++++. ",
" .++++++++++.+++++++++++.+++++++++++.++++++++++++.++++++++++++. ",
" .++++++++++.+++++++++++.++++++++++..++++++++++++.++++++++++++. ",
" .++++++++++.+++++++++++.++++++++++.+++++++++++++.....++++++++. ",
" .++++++++++.++++++++++..++++++++++.+++++++++++++++++.++++++++. ",
" .++++++++...++++++++++.+++++++++++......++++++++++++.++++++++. ",
" .++++++++.++++++++++++.++++++++++++++++.++++++++++++.++++++++. ",
" .++++++++.+++++++++++..++++++++++++++++.++++++++++++..+++++++. ",
" .++++++++.+++++++++++.+++++++++++++++++.+++++++++++++.+++++++. ",
" .++++++++.+++++++++++.+++++++++++++++++.+++++++++++++.+++++++. ",
" .+++++++..+++++++++++.+++++++++++++++...+++++++++++...+++++++. ",
" .+++++++.++++++++++++.+++++++++++++++.+++++++++++++.+++++++++. ",
" .+++++++.++++++++++++...+++++++++++++.+++++++++++++.+++++++++. ",
" .+++++++.++++++++++++++.+++++++++++++.+++++++++++++.+++++++++. ",
" .+++++++.++++++++++++++.+++++++++++++.+++++++++++++.+++++++++. ",
" .+++++++..++++++++++++..++++++++++++..+++++++++++++....++++++. ",
" .++++++++.++++++++++++.+++++++++++++.+++++++++++++++++.++++++. ",
" .++++++++.++++++++++++.+++++++++++++.+++++++++++++++++.++++++. ",
" .++++++++.++++++++++++..++++++++++++.+++++++++++++++++.++++++. ",
" .++++++++.+++++++++++++.++++++++++++.+++++++++++++++++.++++++. ",
" .++++++++.+++++++++++++.++++++++++++.+++++++++++++++++.++++++. ",
" .............................................................. "};
