/* XPM */
static char * wall_26x26_xpm[] = {
"26 26 197 2",
"  	c #575757",
". 	c #5A5A5A",
"+ 	c #545454",
"@ 	c #5D5D5D",
"# 	c #363636",
"$ 	c #232122",
"% 	c #2C292A",
"& 	c #676465",
"* 	c #555354",
"= 	c #5C5A59",
"- 	c #5B5958",
"; 	c #5C5756",
"> 	c #5B5655",
", 	c #B0B0B0",
"' 	c #B4B4B4",
") 	c #B9B9B9",
"! 	c #A4A4A4",
"~ 	c #696969",
"{ 	c #4D4B4C",
"] 	c #ACA9AA",
"^ 	c #B5B2B3",
"/ 	c #B6B4B2",
"( 	c #B7B5B4",
"_ 	c #BAB6B5",
": 	c #BBB7B6",
"< 	c #B3B3B3",
"[ 	c #A7A6A7",
"} 	c #767676",
"| 	c #4F4F4F",
"1 	c #333031",
"2 	c #525050",
"3 	c #AEACAC",
"4 	c #B3B1AF",
"5 	c #B4B2B0",
"6 	c #B7B2B1",
"7 	c #B8B3B2",
"8 	c #8F8F8F",
"9 	c #969696",
"0 	c #808080",
"a 	c #4D4D4D",
"b 	c #585858",
"c 	c #2A2829",
"d 	c #4E4C4D",
"e 	c #B4B1B2",
"f 	c #C2BFC0",
"g 	c #8E8C8B",
"h 	c #8D8B8A",
"i 	c #8E8989",
"j 	c #8D8887",
"k 	c #7A7A7A",
"l 	c #787878",
"m 	c #6D6D6D",
"n 	c #555555",
"o 	c #272425",
"p 	c #545253",
"q 	c #B0AEAF",
"r 	c #898785",
"s 	c #7C7A78",
"t 	c #7B7977",
"u 	c #7C7877",
"v 	c #282626",
"w 	c #7B7B7B",
"x 	c #6F6F6F",
"y 	c #656565",
"z 	c #222021",
"A 	c #BBB8B9",
"B 	c #CAC7C8",
"C 	c #8B8987",
"D 	c #7D7B79",
"E 	c #7A7776",
"F 	c #807B7B",
"G 	c #777777",
"H 	c #5B5B5B",
"I 	c #525152",
"J 	c #363434",
"K 	c #494647",
"L 	c #A6A3A4",
"M 	c #B8B6B7",
"N 	c #6F6D6B",
"O 	c #716F6E",
"P 	c #757170",
"Q 	c #535353",
"R 	c #505050",
"S 	c #5C5A5B",
"T 	c #A3A1A2",
"U 	c #777576",
"V 	c #52504E",
"W 	c #4A4846",
"X 	c #514F4D",
"Y 	c #545251",
"Z 	c #544F4E",
"` 	c #2E2B2C",
" .	c #474546",
"..	c #7E7C7D",
"+.	c #4B4947",
"@.	c #555352",
"#.	c #585453",
"$.	c #2D2A2B",
"%.	c #292929",
"&.	c #2A2827",
"*.	c #292726",
"=.	c #2F2D2B",
"-.	c #2A2524",
";.	c #383332",
">.	c #282423",
",.	c #2C2827",
"'.	c #322D2D",
").	c #332E2E",
"!.	c #2F2D2D",
"~.	c #4A4748",
"{.	c #585556",
"].	c #565656",
"^.	c #504D4E",
"/.	c #4E4C4B",
"(.	c #4D4B4A",
"_.	c #53514F",
":.	c #55504F",
"<.	c #4F4A4A",
"[.	c #575352",
"}.	c #4E4948",
"|.	c #231E1D",
"1.	c #636162",
"2.	c #AFADAD",
"3.	c #B1AFB0",
"4.	c #B6B4B4",
"5.	c #B5B3B1",
"6.	c #BBB9B7",
"7.	c #BCB8B7",
"8.	c #B3AFAE",
"9.	c #A5A1A0",
"0.	c #6B6666",
"a.	c #BDBBBB",
"b.	c #BAB7B8",
"c.	c #B2B2B2",
"d.	c #B8B6B5",
"e.	c #B5B1B0",
"f.	c #B4B0AF",
"g.	c #ABA6A6",
"h.	c #767271",
"i.	c #3F3A39",
"j.	c #5C5758",
"k.	c #B7B2B3",
"l.	c #B5B1B2",
"m.	c #8D8889",
"n.	c #888385",
"o.	c #868485",
"p.	c #858585",
"q.	c #858384",
"r.	c #8B8989",
"s.	c #8A8788",
"t.	c #7C797A",
"u.	c #595757",
"v.	c #535152",
"w.	c #7C7779",
"x.	c #7B7879",
"y.	c #797979",
"z.	c #7A7778",
"A.	c #7F7D7E",
"B.	c #706E6F",
"C.	c #5D5658",
"D.	c #BDB6B8",
"E.	c #B2ABAD",
"F.	c #8E8789",
"G.	c #7F787A",
"H.	c #7D797A",
"I.	c #787677",
"J.	c #7D7B7B",
"K.	c #737071",
"L.	c #747172",
"M.	c #302E2F",
"N.	c #B5ADB0",
"O.	c #B9B2B4",
"P.	c #8D8688",
"Q.	c #716F70",
"R.	c #635E5F",
"S.	c #BBB6B8",
"T.	c #ABA6A8",
"U.	c #807B7D",
"V.	c #716C6D",
"W.	c #6F6D6D",
"X.	c #6C696A",
"Y.	c #6A6869",
"Z.	c #767474",
"`.	c #4F4A4C",
" +	c #B1ACAD",
".+	c #757072",
"++	c #555052",
"@+	c #5B5657",
"#+	c #5A5858",
"$+	c #575455",
"%+	c #514E4F",
"&+	c #353233",
"*+	c #292728",
"=+	c #343132",
"-+	c #333333",
";+	c #393738",
">+	c #373536",
"                . + @ # $ % & * = = = - ; > > > > > ",
", , , , , , , , ' ) ! ~ % { ] ^ / / ( ( _ _ : : : : ",
"< < < < < < < < [ ! } | 1 2 3 ^ 4 4 5 5 6 6 7 7 7 7 ",
"8 8 8 8 8 8 8 8 9 0 a b c d e f g g g h i j j j j j ",
"k k k k k k k k l m   n o p e q r s s t u u u u u u ",
"k k k k k k k k l m   n v p e q r s s t u u u u u u ",
"k k k k k k k k l m   n v p e q r s s t u u u u u u ",
"k k k k k k k k l m     v p e q r s s t u u u u u u ",
"k k k k k k k w l x y b z d A B C D s E F F F F F F ",
"G G G G G G G G y H I I J K L M t N O O P P P P P P ",
"Q Q Q Q Q Q Q Q I I R R c S T U V W X Y Z Z Z Z Z Z ",
"R R R R R R R R R R R R `  ...* X +.@.- #.#.#.#.#.#.",
"% $ c ` $.c c c %.%.%.%.c c c c &.*.=.&.-.;.>.,.'.).",
"!.~.d 2 {.{.{.{.].].n Q 2 ^.d d /.(._./.Z :.<.[.}.|.",
"1.2.3.q 4.4.4.4.' ' ' ' 4.4.4.4./ 5.6./ 7.6 8.9.0.).",
"{ a.a.b.e e e e c.c.c.c.e e e e 5 4 d.5 e.f.g.h.> i.",
"j.k.l.m.n.n.o.o.o.o.p.p.p.p.p.p.o.q.r.o.s.r.t.u.v.!.",
"j.k.l.m.w.w.x.x.x.x.y.y.y.y.y.y.x.z.A.x...A.B.{ v.!.",
"j.k.l.m.w.w.x.x.x.x.y.y.y.y.y.y.x.z.A.x...A.B.{ v.!.",
"j.k.l.m.w.w.w.x.x.x.y.y.y.y.y.y.x.z.A.x...A.B.{ v.!.",
"C.D.E.F.G.G.H.H.t.t.k k k k k k I.U J.I.K.t.L.p p M.",
"C.N.O.P.G.G.H.H.t.t.k k k k k k I.U J.I.A...Q.v.v.!.",
"R.S.T.U.V.V.V.W.W.W.m m m m m m X.Y.B.X.Z.W.& p p M.",
"`. +.+++@+@+u.u.u.u.            * p #+* {.v.$+v.v.!.",
" .L.^.d v.v.v.v.I I I I I I I I v.2 {.v.* %+p %+^.&+",
"*+J M.=+&+&+&+&+-+-+-+-+-+-+-+-+&+=+;+&+>+1 J 1 &+z "};
