/* XPM */
static char * a_xpm[] = {
"88 80 118 2",
"  	c #000000",
". 	c #383838",
"+ 	c #838383",
"@ 	c #AFAFAF",
"# 	c #CACACA",
"$ 	c #DBDBDB",
"% 	c #EAEAEA",
"& 	c #F3F3F3",
"* 	c #F8F8F8",
"= 	c #FCFCFC",
"- 	c #FFFFFF",
"; 	c #FDFDFD",
"> 	c #F9F9F9",
", 	c #F5F5F5",
"' 	c #EBEBEB",
") 	c #DDDDDD",
"! 	c #CBCBCB",
"~ 	c #AAAAAA",
"{ 	c #7C7C7C",
"] 	c #0D0D0D",
"^ 	c #707070",
"/ 	c #B6B6B6",
"( 	c #E1E1E1",
"_ 	c #F4F4F4",
": 	c #CECECE",
"< 	c #A7A7A7",
"[ 	c #E4E4E4",
"} 	c #E7E7E7",
"| 	c #8D8D8D",
"1 	c #B2B2B2",
"2 	c #D5D5D5",
"3 	c #494949",
"4 	c #9B9B9B",
"5 	c #F2F2F2",
"6 	c #F1F1F1",
"7 	c #585858",
"8 	c #DADADA",
"9 	c #757575",
"0 	c #EFEFEF",
"a 	c #B4B4B4",
"b 	c #161616",
"c 	c #C6C6C6",
"d 	c #989898",
"e 	c #CFCFCF",
"f 	c #E9E9E9",
"g 	c #C8C8C8",
"h 	c #8E8E8E",
"i 	c #BCBCBC",
"j 	c #C5C5C5",
"k 	c #999999",
"l 	c #FEFEFE",
"m 	c #727272",
"n 	c #262626",
"o 	c #2A2A2A",
"p 	c #5B5B5B",
"q 	c #C3C3C3",
"r 	c #797979",
"s 	c #828282",
"t 	c #E3E3E3",
"u 	c #939393",
"v 	c #474747",
"w 	c #A5A5A5",
"x 	c #858585",
"y 	c #1C1C1C",
"z 	c #E8E8E8",
"A 	c #D2D2D2",
"B 	c #454545",
"C 	c #F6F6F6",
"D 	c #3D3D3D",
"E 	c #BEBEBE",
"F 	c #9C9C9C",
"G 	c #535353",
"H 	c #C1C1C1",
"I 	c #F7F7F7",
"J 	c #3A3A3A",
"K 	c #B0B0B0",
"L 	c #CDCDCD",
"M 	c #E2E2E2",
"N 	c #8A8A8A",
"O 	c #4F4F4F",
"P 	c #FBFBFB",
"Q 	c #747474",
"R 	c #B3B3B3",
"S 	c #6F6F6F",
"T 	c #595959",
"U 	c #C0C0C0",
"V 	c #DEDEDE",
"W 	c #A4A4A4",
"X 	c #8B8B8B",
"Y 	c #FAFAFA",
"Z 	c #404040",
"` 	c #D3D3D3",
" .	c #A0A0A0",
"..	c #222222",
"+.	c #DCDCDC",
"@.	c #565656",
"#.	c #7E7E7E",
"$.	c #EDEDED",
"%.	c #BABABA",
"&.	c #676767",
"*.	c #C2C2C2",
"=.	c #ABABAB",
"-.	c #4D4D4D",
";.	c #D1D1D1",
">.	c #D8D8D8",
",.	c #323232",
"'.	c #CCCCCC",
").	c #5D5D5D",
"!.	c #898989",
"~.	c #B5B5B5",
"{.	c #7A7A7A",
"].	c #737373",
"^.	c #424242",
"/.	c #A3A3A3",
"(.	c #616161",
"_.	c #929292",
":.	c #B8B8B8",
"<.	c #ECECEC",
"                                                                                                                                                                                ",
"                                                                                                                                                                                ",
"                                                                                                                                                                                ",
"                                                                                  . + @ # $ % & * = - - - - - - - - - - - - - - - ; > , ' ) ! ~ { ]                             ",
"                                                                            ^ / ( ; - - - - - - - - - - - - - - - - - - - - - - - - - - - - - - - _ : +                         ",
"                                                                      . < [ - - - - - - - - - - - - - - - - - - - - - - - - - - - - - - - - - - - - - - } |                     ",
"                                                                  . 1 _ - - - - - - - - - - - - - - - - - - - - - - - - - - - - - - - - - - - - - - - - - - 2 3                 ",
"                                                                4 5 - - - - - - - - - - - - - - - - - - - - - - - - - - - - - - - - - - - - - - - - - - - - - 6 ^               ",
"                                                            7 8 - - - - - - - - - - - - - - - - - - - - - - - - - - - - - - - - - - - - - - - - - - - - - - - - , 9             ",
"                                                          | _ - - - - - - - - - - - - - - - - - - - - - - - - - - - - - - - - - - - - - - - - - - - - - - - - - - 0 3           ",
"                                                        a ; - - - - - - - - - - - - - - - - - - - - - - - - - - - - - - - - - - - - - - - - - - - - - - - - - - - - $ ]         ",
"                                                    b c - - - - - - - - - - - - - - - - - - - - - - - - - - - - - - - - - - - - - - - - - - - - - - - - - - - - - - - d         ",
"                                                  ] e - - - - - - - - - - - - - - - - - - - - - - - - - - - - - - - - - - - - - - - - - - - - - - - - - - - - - - - - f ]       ",
"                                                  g - - - - - - - - - - - - - - - - - - - - - - - - - - - - - - - - - - - - - - - - - - - - - - - - - - - - - - - - - - h       ",
"                                                i - - - - - - - - - - - - - - - - - - - - - - - - - - - - - - - - - - - - - - - - - - - - - - - - - - - - - - - - - - - j       ",
"                                              k l - - - - - - - - - - - - - - - - - - - - - - - - - - - - - - - - - - - - - - - - - - - - - - - - - - - - - - - - - - - '       ",
"                                            m > - - - - - - - - - - - - - - - - - - - - - - - - - - - - - - - - - - - - - - - - - - - - - - - - - - - - - - - - - - - - - n     ",
"                                          o f - - - - - - - - - - - - - - - - - - - - - - - - - - - - - - - - - - - - - - - - - - - - - - - - - - - - - - - - - - - - - - p     ",
"                                          q - - - - - - - - - - - - - - - - - - - - - - - - - - - - - - - - - - - - - - - - - - - - - - - - - - - - - - - - - - - - - - - r     ",
"                                        s l - - - - - - - - - - - - - - - - - - - - - - - - - t u v                   w - - - - - - - - - - - - - - - - - - - - - - - - - x     ",
"                                      y z - - - - - - - - - - - - - - - - - - - - - - - - - c b                       w - - - - - - - - - - - - - - - - - - - - - - - - - x     ",
"                                      @ - - - - - - - - - - - - - - - - - - - - - - - - - A                           w - - - - - - - - - - - - - - - - - - - - - - - - - x     ",
"                                    B C - - - - - - - - - - - - - - - - - - - - - - - - 6 D                           w - - - - - - - - - - - - - - - - - - - - - - - - - x     ",
"                                    E - - - - - - - - - - - - - - - - - - - - - - - - - F                             w - - - - - - - - - - - - - - - - - - - - - - - - - x     ",
"                                  G > - - - - - - - - - - - - - - - - - - - - - - - - % ]                             w - - - - - - - - - - - - - - - - - - - - - - - - - x     ",
"                                  H - - - - - - - - - - - - - - - - - - - - - - - - - <                               w - - - - - - - - - - - - - - - - - - - - - - - - - x     ",
"                                D I - - - - - - - - - - - - - - - - - - - - - - - - * J                               w - - - - - - - - - - - - - - - - - - - - - - - - - x     ",
"                                K - - - - - - - - - - - - - - - - - - - - - - - - - L     M - - - - - - - - - - - - - - - - - - - - - - - - - - - - - - - - - - - - - - - x     ",
"                              ] 0 - - - - - - - - - - - - - - - - - - - - - - - - - N     M - - - - - - - - - - - - - - - - - - - - - - - - - - - - - - - - - - - - - - - x     ",
"                              h - - - - - - - - - - - - - - - - - - - - - - - - - 6 b     M - - - - - - - - - - - - - - - - - - - - - - - - - - - - - - - - - - - - - - - x     ",
"                              2 - - - - - - - - - - - - - - - - - - - - - - - - - H       M - - - - - - - - - - - - - - - - - - - - - - - - - - - - - - - - - - - - - - - x     ",
"                            O P - - - - - - - - - - - - - - - - - - - - - - - - - Q       M - - - - - - - - - - - - - - - - - - - - - - - - - - - - - - - - - - - - - - - x     ",
"                            @ - - - - - - - - - - - - - - - - - - - - - - - - - z         M - - - - - - - - - - - - - - - - - - - - - - - - - - - - - - - - - - - - - - - x     ",
"                            } - - - - - - - - - - - - - - - - - - - - - - - - - R         M - - - - - - - - - - - - - - - - - - - - - - - - - - - - - - - - - - - - - - - x     ",
"                          S - - - - - - - - - - - - - - - - - - - - - - - - - ; T         M - - - - - - - - - - - - - - - - - - - - - - - - - - - - - - - - - - - - - - - x     ",
"                          U - - - - - - - - - - - - - - - - - - - - - - - - - V           M - - - - - - - - - - - - - - - - - - - - - - - - - - - - - - - - - - - - - - - x     ",
"                        ] 6 - - - - - - - - - - - - - - - - - - - - - - - - - W           M - - - - - - - - - - - - - - - - - - - - - - - - - - - - - - - - - - - - - - - x     ",
"                        X - - - - - - - - - - - - - - - - - - - - - - - - - Y Z           M - - - - - - - - - - - - - - - - - - - - - - - - - - - - - - - - - - - - - - - x     ",
"                        : - - - - - - - - - - - - - - - - - - - - - - - - - `             M - - - - - - - - - - - - - - - - - - - - - - - - - - - - - - - - - - - - - - - x     ",
"                      . * - - - - - - - - - - - - - - - - - - - - - - - - - u             M - - - - - - - - - - - - - - - - - - - - - - - - - - - - - - - - - - - - - - - x     ",
"                       .- - - - - - - - - - - - - - - - - - - - - - - - - , ..            M - - - - - - - - - - - - - - - - - - - - - - - - - - - - - - - - - - - - - - - x     ",
"                      +.- - - - - - - - - - - - - - - - - - - - - - - - - c               M - - - - - - - - - - - - - - - - - - - - - - - - - - - - - - - - - - - - - - - x     ",
"                    @.; - - - - - - - - - - - - - - - - - - - - - - - - - #.              M - - - - - - - - - - - - - - - - - - - - - - - - - - - - - - - - - - - - - - - x     ",
"                    1 - - - - - - - - - - - - - - - - - - - - - - - - - $.                                            w - - - - - - - - - - - - - - - - - - - - - - - - - x     ",
"                    z - - - - - - - - - - - - - - - - - - - - - - - - - %.                                            w - - - - - - - - - - - - - - - - - - - - - - - - - x     ",
"                  Q - - - - - - - - - - - - - - - - - - - - - - - - - - &.                                            w - - - - - - - - - - - - - - - - - - - - - - - - - x     ",
"                  *.- - - - - - - - - - - - - - - - - - - - - - - - - t                                               w - - - - - - - - - - - - - - - - - - - - - - - - - x     ",
"                b 5 - - - - - - - - - - - - - - - - - - - - - - - - - =.                                              w - - - - - - - - - - - - - - - - - - - - - - - - - x     ",
"                h - - - - - - - - - - - - - - - - - - - - - - - - - = -.                                              w - - - - - - - - - - - - - - - - - - - - - - - - - x     ",
"                ;.- - - - - - - - - - - - - - - - - - - - - - - - - >.                                                w - - - - - - - - - - - - - - - - - - - - - - - - - x     ",
"              D > - - - - - - - - - - - - - - - - - - - - - - - - - F                                                 w - - - - - - - - - - - - - - - - - - - - - - - - - x     ",
"              W - - - - - - - - - - - - - - - - - - - - - - - - - * ,.                                                w - - - - - - - - - - - - - - - - - - - - - - - - - x     ",
"              V - - - - - - - - - - - - - - - - - - - - - - - - - '.                                                  w - - - - - - - - - - - - - - - - - - - - - - - - - x     ",
"            ).; - - - - - - - - - - - - - - - - - - - - - - - - - !.                                                  w - - - - - - - - - - - - - - - - - - - - - - - - - x     ",
"            ~.- - - - - - - - - - - - - - - - - - - - - - - - - 6 ]                                                   w - - - - - - - - - - - - - - - - - - - - - - - - - x     ",
"            % - - - - - - - - - - - - - - - - - - - - - - - - - H                                                     w - - - - - - - - - - - - - - - - - - - - - - - - - x     ",
"          {.- - - - - - - - - - - - - - - - - - - - - - - - - - ].                                                    w - - - - - - - - - - - - - - - - - - - - - - - - - x     ",
"          j - - - - - - - - - - - - - - - - - - - - - - - - - z                                                       w - - - - - - - - - - - - - - - - - - - - - - - - - x     ",
"        .._ - - - - - - - - - - - - - - - - - - - - - - - - - 1                                                       w - - - - - - - - - - - - - - - - - - - - - - - - - x     ",
"        u - - - - - - - - - - - - - - - - - - - - - - - - - ; T                                                       w - - - - - - - - - - - - - - - - - - - - - - - - - x     ",
"        ` - - - - - - - - - - - - - - - - - - - - - - - - - V                                                         w - - - - - - - - - - - - - - - - - - - - - - - - - x     ",
"      ^.Y - - - - - - - - - - - - - - - - - - - - - - - - - /.                                                        w - - - - - - - - - - - - - - - - - - - - - - - - - x     ",
"      < - - - - - - - - - - - - - - - - - - - - - - - - - Y D                                                         w - - - - - - - - - - - - - - - - - - - - - - - - - x     ",
"      ( - - - - - - - - - - - - - - - - - - - - - - - - - A                                                           w - - - - - - - - - - - - - - - - - - - - - - - - - x     ",
"    (.l - - - - - - - - - - - - - - - - - - - - - - - - - _.                                                          w - - - - - - - - - - - - - - - - - - - - - - - - - x     ",
"    :.- - - - - - - - - - - - - - - - - - - - - - - - - _ ..                                                          w - - - - - - - - - - - - - - - - - - - - - - - - - x     ",
"    <.- - - - - - - - - - - - - - - - - - - - - - - - - c                                                             w - - - - - - - - - - - - - - - - - - - - - - - - - x     ",
"                                                                                                                                                                                ",
"                                                                                                                                                                                ",
"                                                                                                                                                                                ",
"                                                                                                                                                                                ",
"                                                                                                                                                                                ",
"                                                                                                                                                                                ",
"                                                                                                                                                                                ",
"                                                                                                                                                                                ",
"                                                                                                                                                                                ",
"                                                                                                                                                                                ",
"                                                                                                                                                                                ",
"                                                                                                                                                                                ",
"                                                                                                                                                                                "};
