/* XPM */
static char * c_xpm[] = {
"81 80 66 1",
" 	c #000000",
".	c #636363",
"+	c #9D9D9D",
"@	c #BCBCBC",
"#	c #CFCFCF",
"$	c #E1E1E1",
"%	c #EEEEEE",
"&	c #F3F3F3",
"*	c #F8F8F8",
"=	c #FCFCFC",
"-	c #FFFFFF",
";	c #E7E7E7",
">	c #454545",
",	c #A0A0A0",
"'	c #D5D5D5",
")	c #F5F5F5",
"!	c #898989",
"~	c #D7D7D7",
"{	c #989898",
"]	c #E9E9E9",
"^	c #797979",
"/	c #1C1C1C",
"(	c #B9B9B9",
"_	c #585858",
":	c #6B6B6B",
"<	c #EFEFEF",
"[	c #7C7C7C",
"}	c #BABABA",
"|	c #7A7A7A",
"1	c #999999",
"2	c #E4E4E4",
"3	c #949494",
"4	c #4B4B4B",
"5	c #8A8A8A",
"6	c #CBCBCB",
"7	c #222222",
"8	c #DADADA",
"9	c #161616",
"0	c #F6F6F6",
"a	c #535353",
"b	c #B3B3B3",
"c	c #474747",
"d	c #E2E2E2",
"e	c #666666",
"f	c #D0D0D0",
"g	c #9E9E9E",
"h	c #CACACA",
"i	c #BEBEBE",
"j	c #F4F4F4",
"k	c #9C9C9C",
"l	c #616161",
"m	c #D3D3D3",
"n	c #404040",
"o	c #FBFBFB",
"p	c #838383",
"q	c #E5E5E5",
"r	c #919191",
"s	c #DBDBDB",
"t	c #6F6F6F",
"u	c #B2B2B2",
"v	c #0D0D0D",
"w	c #DCDCDC",
"x	c #4D4D4D",
"y	c #ECECEC",
"z	c #F2F2F2",
"A	c #727272",
"                                                                                 ",
"                                                                                 ",
"                                                                                 ",
"                         .+@#$%&*=--------------------------------------------;  ",
"                     >,')-----------------------------------------------------;  ",
"                   !~=--------------------------------------------------------;  ",
"                 {]-----------------------------------------------------------;  ",
"               ^$-------------------------------------------------------------;  ",
"             /(=--------------------------------------------------------------;  ",
"            _$----------------------------------------------------------------;  ",
"           :<-----------------------------------------------------------------;  ",
"          [)------------------------------------------------------------------;  ",
"         :)-------------------------------------------------------------------;  ",
"        _<--------------------------------------------------------------------;  ",
"       /$---------------------------------------------------------------------;  ",
"       }----------------------------------------------------------------------;  ",
"      |=----------------------------------------------------------------------;  ",
"      $-----------------------------------------------------------------------;  ",
"     1------------------------------------------------------------------------;  ",
"     ]-------------------------234                                               ",
"    5-------------------------67                                                 ",
"    ~------------------------89                                                  ",
"   >=-----------------------0a                                                   ",
"   ,------------------------b                                                    ",
"   '-----------------------=c                                                    ",
"   )-----------------------d                                                     ",
"  e------------------------f                                                     ",
"  g------------------------h                                                     ",
"  i------------------------h                                                     ",
"  f------------------------h                                                     ",
"  $------------------------h                                                     ",
"  %------------------------h                                                     ",
"  j------------------------h                                                     ",
"  *------------------------h                                                     ",
"  =------------------------h                                                     ",
"  =------------------------h                                                     ",
"  *------------------------h                                                     ",
"  j------------------------h                                                     ",
"  %------------------------h                                                     ",
"  $------------------------h                                                     ",
"  f------------------------h                                                     ",
"  @------------------------h                                                     ",
"  k------------------------h                                                     ",
"  l------------------------f                                                     ",
"   j-----------------------d                                                     ",
"   m-----------------------=c                                                    ",
"   +------------------------b                                                    ",
"   no-----------------------0a                                                   ",
"    m------------------------89                                                  ",
"    p-------------------------67                                                 ",
"     q-------------------------234                                               ",
"     r------------------------------------------------------------------------;  ",
"      s-----------------------------------------------------------------------;  ",
"      to----------------------------------------------------------------------;  ",
"       u----------------------------------------------------------------------;  ",
"       vw---------------------------------------------------------------------;  ",
"        xy--------------------------------------------------------------------;  ",
"         lz-------------------------------------------------------------------;  ",
"          Az------------------------------------------------------------------;  ",
"           ly-----------------------------------------------------------------;  ",
"            xw----------------------------------------------------------------;  ",
"             vuo--------------------------------------------------------------;  ",
"               ts-------------------------------------------------------------;  ",
"                 rq-----------------------------------------------------------;  ",
"                   pmo--------------------------------------------------------;  ",
"                     n+mj-----------------------------------------------------;  ",
"                         lk@f$%j*=--------------------------------------------;  ",
"                                                                                 ",
"                                                                                 ",
"                                                                                 ",
"                                                                                 ",
"                                                                                 ",
"                                                                                 ",
"                                                                                 ",
"                                                                                 ",
"                                                                                 ",
"                                                                                 ",
"                                                                                 ",
"                                                                                 ",
"                                                                                 "};
