/* XPM */
static char * d_xpm[] = {
"88 80 86 1",
" 	c #000000",
".	c #FFFFFF",
"+	c #FDFDFD",
"@	c #F9F9F9",
"#	c #F4F4F4",
"$	c #EFEFEF",
"%	c #E3E3E3",
"&	c #D3D3D3",
"*	c #C1C1C1",
"=	c #A5A5A5",
"-	c #727272",
";	c #161616",
">	c #F8F8F8",
",	c #DCDCDC",
"'	c #ACACAC",
")	c #5B5B5B",
"!	c #FEFEFE",
"~	c #E2E2E2",
"{	c #9C9C9C",
"]	c #222222",
"^	c #F1F1F1",
"/	c #AEAEAE",
"(	c #ECECEC",
"_	c #949494",
":	c #CFCFCF",
"<	c #3D3D3D",
"[	c #EEEEEE",
"}	c #797979",
"|	c #8E8E8E",
"1	c #FCFCFC",
"2	c #9F9F9F",
"3	c #929292",
"4	c #FAFAFA",
"5	c #7E7E7E",
"6	c #F2F2F2",
"7	c #4D4D4D",
"8	c #D7D7D7",
"9	c #F3F3F3",
"0	c #BEBEBE",
"a	c #858585",
"b	c #474747",
"c	c #B0B0B0",
"d	c #B2B2B2",
"e	c #E8E8E8",
"f	c #868686",
"g	c #C4C4C4",
"h	c #EDEDED",
"i	c #C8C8C8",
"j	c #606060",
"k	c #9B9B9B",
"l	c #CACACA",
"m	c #AAAAAA",
"n	c #DBDBDB",
"o	c #EBEBEB",
"p	c #454545",
"q	c #6A6A6A",
"r	c #767676",
"s	c #757575",
"t	c #EAEAEA",
"u	c #DADADA",
"v	c #B3B3B3",
"w	c #989898",
"x	c #808080",
"y	c #0D0D0D",
"z	c #3A3A3A",
"A	c #B8B8B8",
"B	c #F0F0F0",
"C	c #353535",
"D	c #D1D1D1",
"E	c #424242",
"F	c #747474",
"G	c #FBFBFB",
"H	c #888888",
"I	c #959595",
"J	c #F6F6F6",
"K	c #848484",
"L	c #6F6F6F",
"M	c #C9C9C9",
"N	c #E9E9E9",
"O	c #8B8B8B",
"P	c #A8A8A8",
"Q	c #DFDFDF",
"R	c #565656",
"S	c #F5F5F5",
"T	c #E4E4E4",
"U	c #707070",
"                                                                                        ",
"                                                                                        ",
"                                                                                        ",
"  ...................................................+@#$%&*=-;                         ",
"  ............................................................>,')                      ",
"  ...............................................................!~{]                   ",
"  ..................................................................^/]                 ",
"  ....................................................................(_                ",
"  ......................................................................:<              ",
"  .......................................................................[}             ",
"  ........................................................................@|            ",
"  .........................................................................12           ",
"  ..........................................................................13          ",
"  ...........................................................................45         ",
"  ............................................................................67        ",
"  .............................................................................8        ",
"  ..............................................................................=       ",
"  ..............................................................................9<      ",
"  ...............................................................................0      ",
"                                                     <a8.........................@b     ",
"                                                        c.........................d     ",
"                                                         *........................$;    ",
"                                                         ]e........................f    ",
"                                                          |........................g    ",
"                                                           h.......................$    ",
"                                                           i........................j   ",
"                                                           d........................k   ",
"  .........................l                               m........................*   ",
"  .........................l                               m........................n   ",
"  .........................l                               m........................o   ",
"  .........................l                               m........................@   ",
"  .........................l                               m.........................p  ",
"  .........................l                               m.........................)  ",
"  .........................l                               m.........................q  ",
"  .........................l                               m.........................r  ",
"  .........................l                               m.........................s  ",
"  .........................l                               m.........................q  ",
"  .........................l                               m.........................)  ",
"  .........................l                               m.........................p  ",
"  .........................l                               m........................@   ",
"  .........................l                               m........................t   ",
"  .........................l                               m........................u   ",
"  .........................l                               m........................*   ",
"  .........................l                               v........................w   ",
"  .........................l                               i........................)   ",
"  .........................l                               h.......................h    ",
"  .........................l                              |........................*    ",
"  .........................l                             ]e........................x    ",
"  .........................l                             *........................[y    ",
"  .........................l                            c........................./     ",
"  .........................l                         za8.........................><     ",
"  ...............................................................................A      ",
"  ..............................................................................BC      ",
"  ..............................................................................{       ",
"  .............................................................................D        ",
"  ............................................................................[E        ",
"  ...........................................................................>F         ",
"  ..........................................................................GH          ",
"  .........................................................................4I           ",
"  ........................................................................JK            ",
"  .......................................................................tL             ",
"  ......................................................................MC              ",
"  ....................................................................NO                ",
"  ..................................................................$P;                 ",
"  ...............................................................+Qw;                   ",
"  ............................................................>nmR                      ",
"  ...................................................+@SBT&*=U;                         ",
"                                                                                        ",
"                                                                                        ",
"                                                                                        ",
"                                                                                        ",
"                                                                                        ",
"                                                                                        ",
"                                                                                        ",
"                                                                                        ",
"                                                                                        ",
"                                                                                        ",
"                                                                                        ",
"                                                                                        ",
"                                                                                        "};
