/* XPM */
static char * e_xpm[] = {
"81 80 65 1",
" 	c #000000",
".	c #636363",
"+	c #9D9D9D",
"@	c #BCBCBC",
"#	c #CFCFCF",
"$	c #E1E1E1",
"%	c #EEEEEE",
"&	c #F3F3F3",
"*	c #F8F8F8",
"=	c #FCFCFC",
"-	c #FFFFFF",
";	c #E7E7E7",
">	c #454545",
",	c #A0A0A0",
"'	c #D5D5D5",
")	c #F5F5F5",
"!	c #898989",
"~	c #D7D7D7",
"{	c #989898",
"]	c #E9E9E9",
"^	c #797979",
"/	c #1C1C1C",
"(	c #B9B9B9",
"_	c #585858",
":	c #6B6B6B",
"<	c #EFEFEF",
"[	c #7C7C7C",
"}	c #BABABA",
"|	c #7A7A7A",
"1	c #999999",
"2	c #E4E4E4",
"3	c #949494",
"4	c #4B4B4B",
"5	c #8A8A8A",
"6	c #CBCBCB",
"7	c #222222",
"8	c #DADADA",
"9	c #161616",
"0	c #F6F6F6",
"a	c #535353",
"b	c #B3B3B3",
"c	c #474747",
"d	c #E2E2E2",
"e	c #666666",
"f	c #D0D0D0",
"g	c #9E9E9E",
"h	c #BEBEBE",
"i	c #F4F4F4",
"j	c #9C9C9C",
"k	c #616161",
"l	c #D3D3D3",
"m	c #404040",
"n	c #FBFBFB",
"o	c #838383",
"p	c #E5E5E5",
"q	c #919191",
"r	c #DBDBDB",
"s	c #6F6F6F",
"t	c #B2B2B2",
"u	c #0D0D0D",
"v	c #DCDCDC",
"w	c #4D4D4D",
"x	c #ECECEC",
"y	c #F2F2F2",
"z	c #727272",
"                                                                                 ",
"                                                                                 ",
"                                                                                 ",
"                         .+@#$%&*=--------------------------------------------;  ",
"                     >,')-----------------------------------------------------;  ",
"                   !~=--------------------------------------------------------;  ",
"                 {]-----------------------------------------------------------;  ",
"               ^$-------------------------------------------------------------;  ",
"             /(=--------------------------------------------------------------;  ",
"            _$----------------------------------------------------------------;  ",
"           :<-----------------------------------------------------------------;  ",
"          [)------------------------------------------------------------------;  ",
"         :)-------------------------------------------------------------------;  ",
"        _<--------------------------------------------------------------------;  ",
"       /$---------------------------------------------------------------------;  ",
"       }----------------------------------------------------------------------;  ",
"      |=----------------------------------------------------------------------;  ",
"      $-----------------------------------------------------------------------;  ",
"     1------------------------------------------------------------------------;  ",
"     ]-------------------------234                                               ",
"    5-------------------------67                                                 ",
"    ~------------------------89                                                  ",
"   >=-----------------------0a                                                   ",
"   ,------------------------b                                                    ",
"   '-----------------------=c                                                    ",
"   )-----------------------d                                                     ",
"  e------------------------f                                                     ",
"  g-----------------------------------------------------------;                  ",
"  h-----------------------------------------------------------;                  ",
"  f-----------------------------------------------------------;                  ",
"  $-----------------------------------------------------------;                  ",
"  %-----------------------------------------------------------;                  ",
"  i-----------------------------------------------------------;                  ",
"  *-----------------------------------------------------------;                  ",
"  =-----------------------------------------------------------;                  ",
"  =-----------------------------------------------------------;                  ",
"  *-----------------------------------------------------------;                  ",
"  i-----------------------------------------------------------;                  ",
"  %-----------------------------------------------------------;                  ",
"  $-----------------------------------------------------------;                  ",
"  f-----------------------------------------------------------;                  ",
"  @-----------------------------------------------------------;                  ",
"  j-----------------------------------------------------------;                  ",
"  k------------------------f                                                     ",
"   i-----------------------d                                                     ",
"   l-----------------------=c                                                    ",
"   +------------------------b                                                    ",
"   mn-----------------------0a                                                   ",
"    l------------------------89                                                  ",
"    o-------------------------67                                                 ",
"     p-------------------------234                                               ",
"     q------------------------------------------------------------------------;  ",
"      r-----------------------------------------------------------------------;  ",
"      sn----------------------------------------------------------------------;  ",
"       t----------------------------------------------------------------------;  ",
"       uv---------------------------------------------------------------------;  ",
"        wx--------------------------------------------------------------------;  ",
"         ky-------------------------------------------------------------------;  ",
"          zy------------------------------------------------------------------;  ",
"           kx-----------------------------------------------------------------;  ",
"            wv----------------------------------------------------------------;  ",
"             utn--------------------------------------------------------------;  ",
"               sr-------------------------------------------------------------;  ",
"                 qp-----------------------------------------------------------;  ",
"                   oln--------------------------------------------------------;  ",
"                     m+li-----------------------------------------------------;  ",
"                         kj@f$%i*=--------------------------------------------;  ",
"                                                                                 ",
"                                                                                 ",
"                                                                                 ",
"                                                                                 ",
"                                                                                 ",
"                                                                                 ",
"                                                                                 ",
"                                                                                 ",
"                                                                                 ",
"                                                                                 ",
"                                                                                 ",
"                                                                                 ",
"                                                                                 "};
