/* XPM */
static char * f_xpm[] = {
"68 80 44 1",
" 	c #000000",
".	c #636363",
"+	c #9D9D9D",
"@	c #BCBCBC",
"#	c #CFCFCF",
"$	c #E1E1E1",
"%	c #EEEEEE",
"&	c #F3F3F3",
"*	c #F8F8F8",
"=	c #FCFCFC",
"-	c #FFFFFF",
";	c #454545",
">	c #A0A0A0",
",	c #D5D5D5",
"'	c #F5F5F5",
")	c #898989",
"!	c #D7D7D7",
"~	c #989898",
"{	c #E9E9E9",
"]	c #797979",
"^	c #1C1C1C",
"/	c #B9B9B9",
"(	c #585858",
"_	c #6B6B6B",
":	c #EFEFEF",
"<	c #7C7C7C",
"[	c #BABABA",
"}	c #7A7A7A",
"|	c #999999",
"1	c #C7C7C7",
"2	c #7D7D7D",
"3	c #424242",
"4	c #8A8A8A",
"5	c #828282",
"6	c #FEFEFE",
"7	c #8D8D8D",
"8	c #D2D2D2",
"9	c #DADADA",
"0	c #666666",
"a	c #D0D0D0",
"b	c #9E9E9E",
"c	c #BEBEBE",
"d	c #F4F4F4",
"e	c #CACACA",
"                                                                    ",
"                                                                    ",
"                                                                    ",
"                         .+@#$%&*=--------------------------------  ",
"                     ;>,'-----------------------------------------  ",
"                   )!=--------------------------------------------  ",
"                 ~{-----------------------------------------------  ",
"               ]$-------------------------------------------------  ",
"             ^/=--------------------------------------------------  ",
"            ($----------------------------------------------------  ",
"           _:-----------------------------------------------------  ",
"          <'------------------------------------------------------  ",
"         _'-------------------------------------------------------  ",
"        (:--------------------------------------------------------  ",
"       ^$---------------------------------------------------------  ",
"       [----------------------------------------------------------  ",
"      }=----------------------------------------------------------  ",
"      $-----------------------------------------------------------  ",
"     |------------------------------------------------------------  ",
"     {------------------------=123                                  ",
"    4------------------------*5                                     ",
"    !-----------------------67                                      ",
"   ;=-----------------------8                                       ",
"   >------------------------2                                       ",
"   ,-----------------------&                                        ",
"   '-----------------------9                                        ",
"  0------------------------a                                        ",
"  b-----------------------------------------------                  ",
"  c-----------------------------------------------                  ",
"  a-----------------------------------------------                  ",
"  $-----------------------------------------------                  ",
"  %-----------------------------------------------                  ",
"  d-----------------------------------------------                  ",
"  *-----------------------------------------------                  ",
"  =-----------------------------------------------                  ",
"  ------------------------------------------------                  ",
"  ------------------------------------------------                  ",
"  ------------------------------------------------                  ",
"  ------------------------------------------------                  ",
"  ------------------------------------------------                  ",
"  ------------------------------------------------                  ",
"  ------------------------------------------------                  ",
"  ------------------------------------------------                  ",
"  -------------------------e                                        ",
"  -------------------------e                                        ",
"  -------------------------e                                        ",
"  -------------------------e                                        ",
"  -------------------------e                                        ",
"  -------------------------e                                        ",
"  -------------------------e                                        ",
"  -------------------------e                                        ",
"  -------------------------e                                        ",
"  -------------------------e                                        ",
"  -------------------------e                                        ",
"  -------------------------e                                        ",
"  -------------------------e                                        ",
"  -------------------------e                                        ",
"  -------------------------e                                        ",
"  -------------------------e                                        ",
"  -------------------------e                                        ",
"  -------------------------e                                        ",
"  -------------------------e                                        ",
"  -------------------------e                                        ",
"  -------------------------e                                        ",
"  -------------------------e                                        ",
"  -------------------------e                                        ",
"  -------------------------e                                        ",
"                                                                    ",
"                                                                    ",
"                                                                    ",
"                                                                    ",
"                                                                    ",
"                                                                    ",
"                                                                    ",
"                                                                    ",
"                                                                    ",
"                                                                    ",
"                                                                    ",
"                                                                    ",
"                                                                    "};
