/* XPM */
static char * g_xpm[] = {
"88 80 67 1",
" 	c #000000",
".	c #636363",
"+	c #9D9D9D",
"@	c #BCBCBC",
"#	c #CFCFCF",
"$	c #E1E1E1",
"%	c #EEEEEE",
"&	c #F3F3F3",
"*	c #F8F8F8",
"=	c #FCFCFC",
"-	c #FFFFFF",
";	c #7C7C7C",
">	c #454545",
",	c #A0A0A0",
"'	c #D5D5D5",
")	c #F5F5F5",
"!	c #898989",
"~	c #D7D7D7",
"{	c #989898",
"]	c #E9E9E9",
"^	c #797979",
"/	c #1C1C1C",
"(	c #B9B9B9",
"_	c #585858",
":	c #6B6B6B",
"<	c #EFEFEF",
"[	c #BABABA",
"}	c #7A7A7A",
"|	c #999999",
"1	c #E4E4E4",
"2	c #949494",
"3	c #4B4B4B",
"4	c #8A8A8A",
"5	c #CBCBCB",
"6	c #222222",
"7	c #DADADA",
"8	c #161616",
"9	c #F6F6F6",
"0	c #535353",
"a	c #B3B3B3",
"b	c #474747",
"c	c #E2E2E2",
"d	c #666666",
"e	c #D0D0D0",
"f	c #9E9E9E",
"g	c #CACACA",
"h	c #BEBEBE",
"i	c #323232",
"j	c #0D0D0D",
"k	c #AAAAAA",
"l	c #F4F4F4",
"m	c #9C9C9C",
"n	c #616161",
"o	c #D3D3D3",
"p	c #404040",
"q	c #FBFBFB",
"r	c #838383",
"s	c #E5E5E5",
"t	c #919191",
"u	c #DBDBDB",
"v	c #6F6F6F",
"w	c #B2B2B2",
"x	c #DCDCDC",
"y	c #4D4D4D",
"z	c #ECECEC",
"A	c #F2F2F2",
"B	c #727272",
"                                                                                        ",
"                                                                                        ",
"                                                                                        ",
"                         .+@#$%&*=---------------------------------------------------;  ",
"                     >,')------------------------------------------------------------;  ",
"                   !~=---------------------------------------------------------------;  ",
"                 {]------------------------------------------------------------------;  ",
"               ^$--------------------------------------------------------------------;  ",
"             /(=---------------------------------------------------------------------;  ",
"            _$-----------------------------------------------------------------------;  ",
"           :<------------------------------------------------------------------------;  ",
"          ;)-------------------------------------------------------------------------;  ",
"         :)--------------------------------------------------------------------------;  ",
"        _<---------------------------------------------------------------------------;  ",
"       /$----------------------------------------------------------------------------;  ",
"       [-----------------------------------------------------------------------------;  ",
"      }=-----------------------------------------------------------------------------;  ",
"      $------------------------------------------------------------------------------;  ",
"     |-------------------------------------------------------------------------------;  ",
"     ]-------------------------123                                                      ",
"    4-------------------------56                                                        ",
"    ~------------------------78                                                         ",
"   >=-----------------------90                                                          ",
"   ,------------------------a                                                           ",
"   '-----------------------=b                                                           ",
"   )-----------------------c                                                            ",
"  d------------------------e                                                            ",
"  f------------------------g                                                            ",
"  h------------------------g                                                            ",
"  e------------------------g                                                            ",
"  $------------------------g                               /iiiiiiiiiiiiiiiiiiiiiiiiij  ",
"  %------------------------g                               k-------------------------;  ",
"  l------------------------g                               k-------------------------;  ",
"  *------------------------g                               k-------------------------;  ",
"  =------------------------g                               k-------------------------;  ",
"  =------------------------g                               k-------------------------;  ",
"  *------------------------g                               k-------------------------;  ",
"  l------------------------g                               k-------------------------;  ",
"  %------------------------g                               k-------------------------;  ",
"  $------------------------g                               k-------------------------;  ",
"  e------------------------g                               k-------------------------;  ",
"  @------------------------g                               k-------------------------;  ",
"  m------------------------g                               k-------------------------;  ",
"  n------------------------e                               k-------------------------;  ",
"   l-----------------------c                               k-------------------------;  ",
"   o-----------------------=b                              k-------------------------;  ",
"   +------------------------a                              k-------------------------;  ",
"   pq-----------------------90                             k-------------------------;  ",
"    o------------------------78                            k-------------------------;  ",
"    r-------------------------56                           k-------------------------;  ",
"     s-------------------------123                         k-------------------------;  ",
"     t-------------------------------------------------------------------------------;  ",
"      u------------------------------------------------------------------------------;  ",
"      vq-----------------------------------------------------------------------------;  ",
"       w-----------------------------------------------------------------------------;  ",
"       jx----------------------------------------------------------------------------;  ",
"        yz---------------------------------------------------------------------------;  ",
"         nA--------------------------------------------------------------------------;  ",
"          BA-------------------------------------------------------------------------;  ",
"           nz------------------------------------------------------------------------;  ",
"            yx-----------------------------------------------------------------------;  ",
"             jwq---------------------------------------------------------------------;  ",
"               vu--------------------------------------------------------------------;  ",
"                 ts------------------------------------------------------------------;  ",
"                   roq---------------------------------------------------------------;  ",
"                     p+ol------------------------------------------------------------;  ",
"                         nm@e$%l*=---------------------------------------------------;  ",
"                                                                                        ",
"                                                                                        ",
"                                                                                        ",
"                                                                                        ",
"                                                                                        ",
"                                                                                        ",
"                                                                                        ",
"                                                                                        ",
"                                                                                        ",
"                                                                                        ",
"                                                                                        ",
"                                                                                        ",
"                                                                                        "};
