/* XPM */
static char * h_xpm[] = {
"88 80 13 1",
" 	c #000000",
".	c #F8F8F8",
"+	c #F9F9F9",
"@	c #FAFAFA",
"#	c #FBFBFB",
"$	c #FCFCFC",
"%	c #FDFDFD",
"&	c #FEFEFE",
"*	c #FFFFFF",
"=	c #C9C9C9",
"-	c #AAAAAA",
";	c #7C7C7C",
">	c #CACACA",
"                                                                                        ",
"                                                                                        ",
"                                                                                        ",
"  .....+++@@@@@###$$$$%%%&*=                               -*************************;  ",
"  *************************>                               -*************************;  ",
"  *************************>                               -*************************;  ",
"  *************************>                               -*************************;  ",
"  *************************>                               -*************************;  ",
"  *************************>                               -*************************;  ",
"  *************************>                               -*************************;  ",
"  *************************>                               -*************************;  ",
"  *************************>                               -*************************;  ",
"  *************************>                               -*************************;  ",
"  *************************>                               -*************************;  ",
"  *************************>                               -*************************;  ",
"  *************************>                               -*************************;  ",
"  *************************>                               -*************************;  ",
"  *************************>                               -*************************;  ",
"  *************************>                               -*************************;  ",
"  *************************>                               -*************************;  ",
"  *************************>                               -*************************;  ",
"  *************************>                               -*************************;  ",
"  *************************>                               -*************************;  ",
"  *************************>                               -*************************;  ",
"  *************************>                               -*************************;  ",
"  *************************>                               -*************************;  ",
"  *************************>                               -*************************;  ",
"  ***********************************************************************************;  ",
"  ***********************************************************************************;  ",
"  ***********************************************************************************;  ",
"  ***********************************************************************************;  ",
"  ***********************************************************************************;  ",
"  ***********************************************************************************;  ",
"  ***********************************************************************************;  ",
"  ***********************************************************************************;  ",
"  ***********************************************************************************;  ",
"  ***********************************************************************************;  ",
"  ***********************************************************************************;  ",
"  ***********************************************************************************;  ",
"  ***********************************************************************************;  ",
"  ***********************************************************************************;  ",
"  ***********************************************************************************;  ",
"  ***********************************************************************************;  ",
"  *************************>                               -*************************;  ",
"  *************************>                               -*************************;  ",
"  *************************>                               -*************************;  ",
"  *************************>                               -*************************;  ",
"  *************************>                               -*************************;  ",
"  *************************>                               -*************************;  ",
"  *************************>                               -*************************;  ",
"  *************************>                               -*************************;  ",
"  *************************>                               -*************************;  ",
"  *************************>                               -*************************;  ",
"  *************************>                               -*************************;  ",
"  *************************>                               -*************************;  ",
"  *************************>                               -*************************;  ",
"  *************************>                               -*************************;  ",
"  *************************>                               -*************************;  ",
"  *************************>                               -*************************;  ",
"  *************************>                               -*************************;  ",
"  *************************>                               -*************************;  ",
"  *************************>                               -*************************;  ",
"  *************************>                               -*************************;  ",
"  *************************>                               -*************************;  ",
"  *************************>                               -*************************;  ",
"  *************************>                               -*************************;  ",
"  *************************>                               -*************************;  ",
"                                                                                        ",
"                                                                                        ",
"                                                                                        ",
"                                                                                        ",
"                                                                                        ",
"                                                                                        ",
"                                                                                        ",
"                                                                                        ",
"                                                                                        ",
"                                                                                        ",
"                                                                                        ",
"                                                                                        ",
"                                                                                        "};
