/* XPM */
static char * i_xpm[] = {
"30 80 19 1",
" 	c #000000",
".	c #F0F0F0",
"+	c #F1F1F1",
"@	c #F2F2F2",
"#	c #F3F3F3",
"$	c #F4F4F4",
"%	c #F5F5F5",
"&	c #F6F6F6",
"*	c #F7F7F7",
"=	c #F8F8F8",
"-	c #F9F9F9",
";	c #FAFAFA",
">	c #FBFBFB",
",	c #FCFCFC",
"'	c #FDFDFD",
")	c #FEFEFE",
"!	c #C9C9C9",
"~	c #FFFFFF",
"{	c #CACACA",
"                              ",
"                              ",
"                              ",
"  ..+@@##$%%%&*==--;;>>,,')!  ",
"  ~~~~~~~~~~~~~~~~~~~~~~~~~{  ",
"  ~~~~~~~~~~~~~~~~~~~~~~~~~{  ",
"  ~~~~~~~~~~~~~~~~~~~~~~~~~{  ",
"  ~~~~~~~~~~~~~~~~~~~~~~~~~{  ",
"  ~~~~~~~~~~~~~~~~~~~~~~~~~{  ",
"  ~~~~~~~~~~~~~~~~~~~~~~~~~{  ",
"  ~~~~~~~~~~~~~~~~~~~~~~~~~{  ",
"  ~~~~~~~~~~~~~~~~~~~~~~~~~{  ",
"  ~~~~~~~~~~~~~~~~~~~~~~~~~{  ",
"  ~~~~~~~~~~~~~~~~~~~~~~~~~{  ",
"  ~~~~~~~~~~~~~~~~~~~~~~~~~{  ",
"  ~~~~~~~~~~~~~~~~~~~~~~~~~{  ",
"  ~~~~~~~~~~~~~~~~~~~~~~~~~{  ",
"  ~~~~~~~~~~~~~~~~~~~~~~~~~{  ",
"  ~~~~~~~~~~~~~~~~~~~~~~~~~{  ",
"  ~~~~~~~~~~~~~~~~~~~~~~~~~{  ",
"  ~~~~~~~~~~~~~~~~~~~~~~~~~{  ",
"  ~~~~~~~~~~~~~~~~~~~~~~~~~{  ",
"  ~~~~~~~~~~~~~~~~~~~~~~~~~{  ",
"  ~~~~~~~~~~~~~~~~~~~~~~~~~{  ",
"  ~~~~~~~~~~~~~~~~~~~~~~~~~{  ",
"  ~~~~~~~~~~~~~~~~~~~~~~~~~{  ",
"  ~~~~~~~~~~~~~~~~~~~~~~~~~{  ",
"  ~~~~~~~~~~~~~~~~~~~~~~~~~{  ",
"  ~~~~~~~~~~~~~~~~~~~~~~~~~{  ",
"  ~~~~~~~~~~~~~~~~~~~~~~~~~{  ",
"  ~~~~~~~~~~~~~~~~~~~~~~~~~{  ",
"  ~~~~~~~~~~~~~~~~~~~~~~~~~{  ",
"  ~~~~~~~~~~~~~~~~~~~~~~~~~{  ",
"  ~~~~~~~~~~~~~~~~~~~~~~~~~{  ",
"  ~~~~~~~~~~~~~~~~~~~~~~~~~{  ",
"  ~~~~~~~~~~~~~~~~~~~~~~~~~{  ",
"  ~~~~~~~~~~~~~~~~~~~~~~~~~{  ",
"  ~~~~~~~~~~~~~~~~~~~~~~~~~{  ",
"  ~~~~~~~~~~~~~~~~~~~~~~~~~{  ",
"  ~~~~~~~~~~~~~~~~~~~~~~~~~{  ",
"  ~~~~~~~~~~~~~~~~~~~~~~~~~{  ",
"  ~~~~~~~~~~~~~~~~~~~~~~~~~{  ",
"  ~~~~~~~~~~~~~~~~~~~~~~~~~{  ",
"  ~~~~~~~~~~~~~~~~~~~~~~~~~{  ",
"  ~~~~~~~~~~~~~~~~~~~~~~~~~{  ",
"  ~~~~~~~~~~~~~~~~~~~~~~~~~{  ",
"  ~~~~~~~~~~~~~~~~~~~~~~~~~{  ",
"  ~~~~~~~~~~~~~~~~~~~~~~~~~{  ",
"  ~~~~~~~~~~~~~~~~~~~~~~~~~{  ",
"  ~~~~~~~~~~~~~~~~~~~~~~~~~{  ",
"  ~~~~~~~~~~~~~~~~~~~~~~~~~{  ",
"  ~~~~~~~~~~~~~~~~~~~~~~~~~{  ",
"  ~~~~~~~~~~~~~~~~~~~~~~~~~{  ",
"  ~~~~~~~~~~~~~~~~~~~~~~~~~{  ",
"  ~~~~~~~~~~~~~~~~~~~~~~~~~{  ",
"  ~~~~~~~~~~~~~~~~~~~~~~~~~{  ",
"  ~~~~~~~~~~~~~~~~~~~~~~~~~{  ",
"  ~~~~~~~~~~~~~~~~~~~~~~~~~{  ",
"  ~~~~~~~~~~~~~~~~~~~~~~~~~{  ",
"  ~~~~~~~~~~~~~~~~~~~~~~~~~{  ",
"  ~~~~~~~~~~~~~~~~~~~~~~~~~{  ",
"  ~~~~~~~~~~~~~~~~~~~~~~~~~{  ",
"  ~~~~~~~~~~~~~~~~~~~~~~~~~{  ",
"  ~~~~~~~~~~~~~~~~~~~~~~~~~{  ",
"  ~~~~~~~~~~~~~~~~~~~~~~~~~{  ",
"  ~~~~~~~~~~~~~~~~~~~~~~~~~{  ",
"  ~~~~~~~~~~~~~~~~~~~~~~~~~{  ",
"                              ",
"                              ",
"                              ",
"                              ",
"                              ",
"                              ",
"                              ",
"                              ",
"                              ",
"                              ",
"                              ",
"                              ",
"                              "};
