/* XPM */
static char * j_xpm[] = {
"62 80 49 1",
" 	c #000000",
".	c #FFFFFF",
"+	c #CACACA",
"@	c #3A3A3A",
"#	c #747474",
"$	c #B2B2B2",
"%	c #161616",
"&	c #EEEEEE",
"*	c #C9C9C9",
"=	c #AEAEAE",
"-	c #C6C6C6",
";	c #737373",
">	c #F9F9F9",
",	c #C0C0C0",
"'	c #6D6D6D",
")	c #F0F0F0",
"!	c #B4B4B4",
"~	c #646464",
"{	c #B6B6B6",
"]	c #F8F8F8",
"^	c #9C9C9C",
"/	c #FEFEFE",
"(	c #D9D9D9",
"_	c #FDFDFD",
":	c #A5A5A5",
"<	c #424242",
"[	c #FCFCFC",
"}	c #C3C3C3",
"|	c #F7F7F7",
"1	c #4F4F4F",
"2	c #FBFBFB",
"3	c #ACACAC",
"4	c #FAFAFA",
"5	c #EAEAEA",
"6	c #474747",
"7	c #EDEDED",
"8	c #5B5B5B",
"9	c #E5E5E5",
"0	c #515151",
"a	c #C4C4C4",
"b	c #2A2A2A",
"c	c #E3E3E3",
"d	c #7D7D7D",
"e	c #D4D4D4",
"f	c #878787",
"g	c #F5F5F5",
"h	c #BDBDBD",
"i	c #919191",
"j	c #353535",
"                                                              ",
"                                                              ",
"                                                              ",
"                                  .........................+  ",
"                                  .........................+  ",
"                                  .........................+  ",
"                                  .........................+  ",
"                                  .........................+  ",
"                                  .........................+  ",
"                                  .........................+  ",
"                                  .........................+  ",
"                                  .........................+  ",
"                                  .........................+  ",
"                                  .........................+  ",
"                                  .........................+  ",
"                                  .........................+  ",
"                                  .........................+  ",
"                                  .........................+  ",
"                                  .........................+  ",
"                                  .........................+  ",
"                                  .........................+  ",
"                                  .........................+  ",
"                                  .........................+  ",
"                                  .........................+  ",
"                                  .........................+  ",
"                                  .........................+  ",
"                                  .........................+  ",
"                                  .........................+  ",
"                                  .........................+  ",
"                                  .........................+  ",
"                                  .........................+  ",
"                                  .........................+  ",
"                                  .........................+  ",
"                                  .........................+  ",
"                                  .........................+  ",
"                                  .........................+  ",
"                                  .........................+  ",
"                                  .........................+  ",
"                                  .........................+  ",
"                                  .........................+  ",
"                                  .........................+  ",
"                                  .........................+  ",
"                                  .........................+  ",
"                                 @.........................+  ",
"                                 #.........................+  ",
"                                 $.........................+  ",
"                                %&.........................*  ",
"                                =..........................-  ",
"                               ;>..........................,  ",
"                              ')...........................!  ",
"                           %~{]............................^  ",
"  .........................................................#  ",
"  ........................................................]%  ",
"  /.......................................................(   ",
"  _.......................................................:   ",
"  _......................................................]<   ",
"  [......................................................}    ",
"  [.....................................................|1    ",
"  2.....................................................3     ",
"  2....................................................(      ",
"  4...................................................56      ",
"  4..................................................78       ",
"  4.................................................90        ",
"  >.............................................../ab         ",
"  >..............................................cd           ",
"  ]...........................................>ef             ",
"  ].....................................2g5(hij               ",
"                                                              ",
"                                                              ",
"                                                              ",
"                                                              ",
"                                                              ",
"                                                              ",
"                                                              ",
"                                                              ",
"                                                              ",
"                                                              ",
"                                                              ",
"                                                              ",
"                                                              "};
