/* XPM */
static char * k_xpm[] = {
"94 80 83 1",
" 	c #000000",
".	c #FFFFFF",
"+	c #CACACA",
"@	c #9F9F9F",
"#	c #FCFCFC",
"$	c #D3D3D3",
"%	c #222222",
"&	c #AAAAAA",
"*	c #FDFDFD",
"=	c #CCCCCC",
"-	c #161616",
";	c #B5B5B5",
">	c #C4C4C4",
",	c #C0C0C0",
"'	c #BCBCBC",
")	c #C9C9C9",
"!	c #B2B2B2",
"~	c #D2D2D2",
"{	c #A8A8A8",
"]	c #323232",
"^	c #D9D9D9",
"/	c #9E9E9E",
"(	c #404040",
"_	c #E0E0E0",
":	c #FBFBFB",
"<	c #959595",
"[	c #4D4D4D",
"}	c #E5E5E5",
"|	c #F9F9F9",
"1	c #8B8B8B",
"2	c #595959",
"3	c #EAEAEA",
"4	c #F7F7F7",
"5	c #808080",
"6	c #666666",
"7	c #EFEFEF",
"8	c #F4F4F4",
"9	c #767676",
"0	c #727272",
"a	c #F2F2F2",
"b	c #F1F1F1",
"c	c #6D6D6D",
"d	c #7D7D7D",
"e	c #F6F6F6",
"f	c #EEEEEE",
"g	c #616161",
"h	c #898989",
"i	c #F8F8F8",
"j	c #585858",
"k	c #FAFAFA",
"l	c #E6E6E6",
"m	c #A0A0A0",
"n	c #E1E1E1",
"o	c #424242",
"p	c #ABABAB",
"q	c #DBDBDB",
"r	c #353535",
"s	c #B6B6B6",
"t	c #D5D5D5",
"u	c #2A2A2A",
"v	c #C1C1C1",
"w	c #D0D0D0",
"x	c #1C1C1C",
"y	c #C7C7C7",
"z	c #0D0D0D",
"A	c #262626",
"B	c #BFBFBF",
"C	c #DADADA",
"D	c #FEFEFE",
"E	c #A2A2A2",
"F	c #999999",
"G	c #8E8E8E",
"H	c #858585",
"I	c #F5F5F5",
"J	c #7C7C7C",
"K	c #7E7E7E",
"L	c #D6D6D6",
"M	c #515151",
"N	c #7A7A7A",
"O	c #797979",
"P	c #787878",
"Q	c #757575",
"R	c #747474",
"                                                                                              ",
"                                                                                              ",
"                                                                                              ",
"  .........................+                        @#..............................$%        ",
"  .........................+                       &*..............................=-         ",
"  .........................+                      ;...............................>           ",
"  .........................+                     ,...............................'            ",
"  .........................+                   -)...............................!             ",
"  .........................+                  %~..............................*{              ",
"  .........................+                 ]^..............................#/               ",
"  .........................+                (_..............................:<                ",
"  .........................+               [}..............................|1                 ",
"  .........................+              23..............................45                  ",
"  .........................+             67..............................89                   ",
"  .........................+            0a..............................bc                    ",
"  .........................+           de..............................fg                     ",
"  .........................+          hi..............................3j                      ",
"  .........................+         <k..............................l[                       ",
"  .........................+        m#..............................no                        ",
"  .........................+       p*..............................qr                         ",
"  .........................+      s...............................tu                          ",
"  .........................+     v...............................wx                           ",
"  .........................+   -+...............................yz                            ",
"  .........................+  A$...............................B                              ",
"  .........................+ ]C...............................;                               ",
"  .........................+(n..............................Dp                                ",
"  .........................tl..............................*E                                 ",
"  ........................................................:F                                  ",
"  .......................................................kG                                   ",
"  ......................................................iH                                    ",
"  .....................................................IJ                                     ",
"  .....................................................iK                                     ",
"  ......................................................iK                                    ",
"  .......................................................id                                   ",
"  ........................................................id                                  ",
"  .........................L3..............................id                                 ",
"  .........................+M3..............................4d                                ",
"  .........................+ M3..............................4J                               ",
"  .........................+  M3..............................4J                              ",
"  .........................+   M3..............................4J                             ",
"  .........................+    M3..............................4J                            ",
"  .........................+     M3..............................4J                           ",
"  .........................+      M3..............................eJ                          ",
"  .........................+       M3..............................eJ                         ",
"  .........................+        M3..............................eN                        ",
"  .........................+         M3..............................eN                       ",
"  .........................+          M3..............................eN                      ",
"  .........................+           M3..............................eN                     ",
"  .........................+            M3..............................eO                    ",
"  .........................+             M3..............................eO                   ",
"  .........................+              M3..............................eO                  ",
"  .........................+               M3..............................eP                 ",
"  .........................+                M3..............................eP                ",
"  .........................+                 M3..............................eP               ",
"  .........................+                  M3..............................IP              ",
"  .........................+                   M3..............................I9             ",
"  .........................+                    M3..............................I9            ",
"  .........................+                     M3..............................I9           ",
"  .........................+                      M3..............................IQ          ",
"  .........................+                       M3..............................IQ         ",
"  .........................+                        M3..............................IQ        ",
"  .........................+                         M3..............................IQ       ",
"  .........................+                          M3..............................IQ      ",
"  .........................+                           M3..............................IR     ",
"  .........................+                            M3..............................IR    ",
"  .........................+                             M3..............................IR   ",
"  .........................+                              M3..............................IR  ",
"                                                                                              ",
"                                                                                              ",
"                                                                                              ",
"                                                                                              ",
"                                                                                              ",
"                                                                                              ",
"                                                                                              ",
"                                                                                              ",
"                                                                                              ",
"                                                                                              ",
"                                                                                              ",
"                                                                                              ",
"                                                                                              "};
