/* XPM */
static char * l_xpm[] = {
"62 80 34 1",
" 	c #000000",
".	c #FFFFFF",
"+	c #CACACA",
"@	c #D0D0D0",
"#	c #E2E2E2",
"$	c #FCFCFC",
"%	c #474747",
"&	c #B3B3B3",
"*	c #F6F6F6",
"=	c #535353",
"-	c #F8F8F8",
";	c #DADADA",
">	c #161616",
",	c #EFEFEF",
"'	c #CBCBCB",
")	c #222222",
"!	c #E1E1E1",
"~	c #E4E4E4",
"{	c #949494",
"]	c #4B4B4B",
"^	c #A5A5A5",
"/	c #636363",
"(	c #E7E7E7",
"_	c #AEAEAE",
":	c #3D3D3D",
"<	c #F7F7F7",
"[	c #B4B4B4",
"}	c #2A2A2A",
"|	c #EBEBEB",
"1	c #767676",
"2	c #FBFBFB",
"3	c #9F9F9F",
"4	c #FEFEFE",
"5	c #ADADAD",
"                                                              ",
"                                                              ",
"                                                              ",
"  .........................+                                  ",
"  .........................+                                  ",
"  .........................+                                  ",
"  .........................+                                  ",
"  .........................+                                  ",
"  .........................+                                  ",
"  .........................+                                  ",
"  .........................+                                  ",
"  .........................+                                  ",
"  .........................+                                  ",
"  .........................+                                  ",
"  .........................+                                  ",
"  .........................+                                  ",
"  .........................+                                  ",
"  .........................+                                  ",
"  .........................+                                  ",
"  .........................+                                  ",
"  .........................+                                  ",
"  .........................+                                  ",
"  .........................+                                  ",
"  .........................+                                  ",
"  .........................+                                  ",
"  .........................+                                  ",
"  .........................+                                  ",
"  .........................+                                  ",
"  .........................+                                  ",
"  .........................+                                  ",
"  .........................+                                  ",
"  .........................+                                  ",
"  .........................+                                  ",
"  .........................+                                  ",
"  .........................+                                  ",
"  .........................+                                  ",
"  .........................+                                  ",
"  .........................+                                  ",
"  .........................+                                  ",
"  .........................+                                  ",
"  .........................+                                  ",
"  .........................+                                  ",
"  .........................+                                  ",
"  .........................@                                  ",
"  .........................#                                  ",
"  .........................$%                                 ",
"  ..........................&                                 ",
"  $.........................*=                                ",
"  -..........................;>                               ",
"  ,...........................')                              ",
"  !............................~{]                            ",
"  +........................................................+  ",
"  ^........................................................+  ",
"  /........................................................+  ",
"   (.......................................................+  ",
"   _.......................................................+  ",
"   :<......................................................+  ",
"    [......................................................+  ",
"    }|.....................................................+  ",
"     12....................................................+  ",
"      34...................................................+  ",
"       54..................................................+  ",
"        32.................................................+  ",
"         1|................................................+  ",
"          }[<..............................................+  ",
"            :_(............................................+  ",
"               /^+!,-$.....................................+  ",
"                                                              ",
"                                                              ",
"                                                              ",
"                                                              ",
"                                                              ",
"                                                              ",
"                                                              ",
"                                                              ",
"                                                              ",
"                                                              ",
"                                                              ",
"                                                              ",
"                                                              "};
