/* XPM */
static char * m_xpm[] = {
"94 80 79 1",
" 	c #000000",
".	c #0D0D0D",
"+	c #838383",
"@	c #BABABA",
"#	c #D9D9D9",
"$	c #EBEBEB",
"%	c #F7F7F7",
"&	c #FCFCFC",
"*	c #FAFAFA",
"=	c #EDEDED",
"-	c #D1D1D1",
";	c #9C9C9C",
">	c #2A2A2A",
",	c #5E5E5E",
"'	c #B5B5B5",
")	c #DFDFDF",
"!	c #F4F4F4",
"~	c #F3F3F3",
"{	c #E5E5E5",
"]	c #CECECE",
"^	c #A8A8A8",
"/	c #595959",
"(	c #404040",
"_	c #B6B6B6",
":	c #F1F1F1",
"<	c #FFFFFF",
"[	c #F5F5F5",
"}	c #383838",
"|	c #6F6F6F",
"1	c #D4D4D4",
"2	c #FDFDFD",
"3	c #FEFEFE",
"4	c #DDDDDD",
"5	c #8E8E8E",
"6	c #9E9E9E",
"7	c #999999",
"8	c #C3C3C3",
"9	c #DBDBDB",
"0	c #222222",
"a	c #CBCBCB",
"b	c #D2D2D2",
"c	c #424242",
"d	c #7D7D7D",
"e	c #F6F6F6",
"f	c #8C8C8C",
"g	c #D8D8D8",
"h	c #EEEEEE",
"i	c #757575",
"j	c #AAAAAA",
"k	c #FBFBFB",
"l	c #969696",
"m	c #7C7C7C",
"n	c #7F7F7F",
"o	c #EFEFEF",
"p	c #B7B7B7",
"q	c #C2C2C2",
"r	c #B8B8B8",
"s	c #545454",
"t	c #161616",
"u	c #F2F2F2",
"v	c #848484",
"w	c #B9B9B9",
"x	c #E9E9E9",
"y	c #BCBCBC",
"z	c #515151",
"A	c #DADADA",
"B	c #929292",
"C	c #ECECEC",
"D	c #7A7A7A",
"E	c #AFAFAF",
"F	c #F8F8F8",
"G	c #C0C0C0",
"H	c #C6C6C6",
"I	c #CACACA",
"J	c #BDBDBD",
"K	c #BEBEBE",
"L	c #BFBFBF",
"M	c #D6D6D6",
"N	c #EAEAEA",
"                                                                                              ",
"                                                                                              ",
"                                                                                              ",
"           .+@#$%&*=-;>                                                ,')!&*~{]^/            ",
"         (_:<<<<<<<<<<['}                                            |12<<<<<<<<<345          ",
"        6!<<<<<<<<<<<<<<:7                                         }8&<<<<<<<<<<<<<<9,        ",
"      0a<<<<<<<<<<<<<<<<<<bc                                      d=<<<<<<<<<<<<<<<<<ef       ",
"     0g<<<<<<<<<<<<<<<<<<<<hi                                    jk<<<<<<<<<<<<<<<<<<<kl      ",
"     a<<<<<<<<<<<<<<<<<<<<<<%m                                  _<<<<<<<<<<<<<<<<<<<<<<*n     ",
"    6<<<<<<<<<<<<<<<<<<<<<<<<%m                                _<<<<<<<<<<<<<<<<<<<<<<<<oc    ",
"   c!<<<<<<<<<<<<<<<<<<<<<<<<<%m                              p<<<<<<<<<<<<<<<<<<<<<<<<<<q    ",
"   p<<<<<<<<<<<<<<<<<<<<<<<<<<<%m                            r<<<<<<<<<<<<<<<<<<<<<<<<<<<ks   ",
"  tu<<<<<<<<<<<<<<<<<<<<<<<<<<<<%m                          r<<<<<<<<<<<<<<<<<<<<<<<<<<<<<r   ",
"  v<<<<<<<<<<<<<<<<<<<<<<<<<<<<<<em                        w<<<<<<<<<<<<<<<<<<<<<<<<<<<<<<x   ",
"  y<<<<<<<<<<<<<<<<<<<<<<<<<<<<<<<em                      @<<<<<<<<<<<<<<<<<<<<<<<<<<<<<<<<z  ",
"  A<<<<<<<<<<<<<<<<<<<<<<<<<<<<<<<<em                    @<<<<<<<<<<<<<<<<<<<<<<<<<<<<<<<<<B  ",
"  C<<<<<<<<<<<<<<<<<<<<<<<<<<<<<<<<<eD                  @<<<<<<<<<<<<<<<<<<<<<<<<<<<<<<<<<<E  ",
"  F<<<<<<<<<<<<<<<<<<<<<<<<<<<<<<<<<<eD                y<<<<<<<<<<<<<<<<<<<<<<<<<<<<<<<<<<<G  ",
"  &<<<<<<<<<<<<<<<<<<<<<<<<<<<<<<<<<<<eD              y<<<<<<<<<<<<<<<<<<<<<<<<<<<<<<<<<<<<H  ",
"  <<<<<<<<<<<<<<<<<<<<<<<<<<<<<<<<<<<<<eD            y<<<<<<<<<<<<<<<<<<<<<<<<<<<<<<<<<<<<<I  ",
"  <<<<<<<<<<<<<<<<<<<<<<<<<<<<<<<<<<<<<<eD          y<<<<<<<<<<<<<<<<<<<<<<<<<<<<<<<<<<<<<<I  ",
"  <<<<<<<<<<<<<<<<<<<<<<<<<<<<<<<<<<<<<<<eD        J<<<<<<<<<<<<<<<<<<<<<<<<<<<<<<<<<<<<<<<I  ",
"  <<<<<<<<<<<<<<<<<<<<<<<<<<<<<<<<<<<<<<<<eD      K<<<<<<<<<<<<<<<<<<<<<<<<<<<<<<<<<<<<<<<<I  ",
"  <<<<<<<<<<<<<<<<<<<<<<<<<<<<<<<<<<<<<<<<<eD    K<<<<<<<<<<<<<<<<<<<<<<<<<<<<<<<<<<<<<<<<<I  ",
"  <<<<<<<<<<<<<<<<<<<<<<<<<<<<<<<<<<<<<<<<<<eD  L<<<<<<<<<<<<<<<<<<<<<<<<<<<<<<<<<<<<<<<<<<I  ",
"  <<<<<<<<<<<<<<<<<<<<<<<<<<<<<<<<<<<<<<<<<<<eDL<<<<<<<<<<<<<<<<<<<<<<<<<<<<<<<<<<<<<<<<<<<I  ",
"  <<<<<<<<<<<<<<<<<<<<<<<<<<<<<<<<<<<<<<<<<<<<k<<<<<<<<<<<<<<<<<<<<<<<<<<<<<<<<<<<<<<<<<<<<I  ",
"  <<<<<<<<<<<<<<<<<<<<<<<<<<<<<<<<<<<<<<<<<<<<<<<<<<<<<<<<<<<<<<<<<<<<<<<<<<<<<<<<<<<<<<<<<I  ",
"  <<<<<<<<<<<<<<<<<<<<<<<<<<<<<<<<<<<<<<<<<<<<<<<<<<<<<<<<<<<<<<<<<<<<<<<<<<<<<<<<<<<<<<<<<I  ",
"  <<<<<<<<<<<<<<<<<<<<<<<<<<<<<<<<<<<<<<<<<<<<<<<<<<<<<<<<<<<<<<<<<<<<<<<<<<<<<<<<<<<<<<<<<I  ",
"  <<<<<<<<<<<<<<<<<<<<<<<<<<<<<<<<<<<<<<<<<<<<<<<<<<<<<<<<<<<<<<<<<<<<<<<<<<<<<<<<<<<<<<<<<I  ",
"  <<<<<<<<<<<<<<<<<<<<<<<<<<<<<<<<<<<<<<<<<<<<<<<<<<<<<<<<<<<<<<<<<<<<<<<<<<<<<<<<<<<<<<<<<I  ",
"  <<<<<<<<<<<<<<<<<<<<<<<<<<<<<<<<<<<<<<<<<<<<<<<<<<<<<<<<<<<<<<<<<<<<<<<<<<<<<<<<<<<<<<<<<I  ",
"  <<<<<<<<<<<<<<<<<<<<<<<<<<<<<<<<<<<<<<<<<<<<<<<<<<<<<<<<<<<<<<<<<<<<<<<<<<<<<<<<<<<<<<<<<I  ",
"  <<<<<<<<<<<<<<<<<<<<<<<<<<<<<<<<<<<<<<<<<<<<<<<<<<<<<<<<<<<<<<<<<<<<<<<<<<<<<<<<<<<<<<<<<I  ",
"  <<<<<<<<<<<<<<<<<<<<<<<<<MN<<<<<<<<<<<<<<<<<<<<<<<<<<<<<<<<<<<<@<<<<<<<<<<<<<<<<<<<<<<<<<I  ",
"  <<<<<<<<<<<<<<<<<<<<<<<<<IzN<<<<<<<<<<<<<<<<<<<<<<<<<<<<<<<<<<@ <<<<<<<<<<<<<<<<<<<<<<<<<I  ",
"  <<<<<<<<<<<<<<<<<<<<<<<<<I zN<<<<<<<<<<<<<<<<<<<<<<<<<<<<<<<<@  <<<<<<<<<<<<<<<<<<<<<<<<<I  ",
"  <<<<<<<<<<<<<<<<<<<<<<<<<I  zN<<<<<<<<<<<<<<<<<<<<<<<<<<<<<<@   <<<<<<<<<<<<<<<<<<<<<<<<<I  ",
"  <<<<<<<<<<<<<<<<<<<<<<<<<I   zN<<<<<<<<<<<<<<<<<<<<<<<<<<<<@    <<<<<<<<<<<<<<<<<<<<<<<<<I  ",
"  <<<<<<<<<<<<<<<<<<<<<<<<<I    zN<<<<<<<<<<<<<<<<<<<<<<<<<<@     <<<<<<<<<<<<<<<<<<<<<<<<<I  ",
"  <<<<<<<<<<<<<<<<<<<<<<<<<I     zN<<<<<<<<<<<<<<<<<<<<<<<<@      <<<<<<<<<<<<<<<<<<<<<<<<<I  ",
"  <<<<<<<<<<<<<<<<<<<<<<<<<I      zN<<<<<<<<<<<<<<<<<<<<<<@       <<<<<<<<<<<<<<<<<<<<<<<<<I  ",
"  <<<<<<<<<<<<<<<<<<<<<<<<<I       zN<<<<<<<<<<<<<<<<<<<<@        <<<<<<<<<<<<<<<<<<<<<<<<<I  ",
"  <<<<<<<<<<<<<<<<<<<<<<<<<I        zN<<<<<<<<<<<<<<<<<<@         <<<<<<<<<<<<<<<<<<<<<<<<<I  ",
"  <<<<<<<<<<<<<<<<<<<<<<<<<I         zN<<<<<<<<<<<<<<<<@          <<<<<<<<<<<<<<<<<<<<<<<<<I  ",
"  <<<<<<<<<<<<<<<<<<<<<<<<<I          zN<<<<<<<<<<<<<<@           <<<<<<<<<<<<<<<<<<<<<<<<<I  ",
"  <<<<<<<<<<<<<<<<<<<<<<<<<I           zN<<<<<<<<<<<<@            <<<<<<<<<<<<<<<<<<<<<<<<<I  ",
"  <<<<<<<<<<<<<<<<<<<<<<<<<I            zN<<<<<<<<<<@             <<<<<<<<<<<<<<<<<<<<<<<<<I  ",
"  <<<<<<<<<<<<<<<<<<<<<<<<<I             zN<<<<<<<<@              <<<<<<<<<<<<<<<<<<<<<<<<<I  ",
"  <<<<<<<<<<<<<<<<<<<<<<<<<I              zN<<<<<<@               <<<<<<<<<<<<<<<<<<<<<<<<<I  ",
"  <<<<<<<<<<<<<<<<<<<<<<<<<I               zN<<<<@                <<<<<<<<<<<<<<<<<<<<<<<<<I  ",
"  <<<<<<<<<<<<<<<<<<<<<<<<<I                zN<<@                 <<<<<<<<<<<<<<<<<<<<<<<<<I  ",
"  <<<<<<<<<<<<<<<<<<<<<<<<<I                 zN@                  <<<<<<<<<<<<<<<<<<<<<<<<<I  ",
"  <<<<<<<<<<<<<<<<<<<<<<<<<I                  }                   <<<<<<<<<<<<<<<<<<<<<<<<<I  ",
"  <<<<<<<<<<<<<<<<<<<<<<<<<I                                      <<<<<<<<<<<<<<<<<<<<<<<<<I  ",
"  <<<<<<<<<<<<<<<<<<<<<<<<<I                                      <<<<<<<<<<<<<<<<<<<<<<<<<I  ",
"  <<<<<<<<<<<<<<<<<<<<<<<<<I                                      <<<<<<<<<<<<<<<<<<<<<<<<<I  ",
"  <<<<<<<<<<<<<<<<<<<<<<<<<I                                      <<<<<<<<<<<<<<<<<<<<<<<<<I  ",
"  <<<<<<<<<<<<<<<<<<<<<<<<<I                                      <<<<<<<<<<<<<<<<<<<<<<<<<I  ",
"  <<<<<<<<<<<<<<<<<<<<<<<<<I                                      <<<<<<<<<<<<<<<<<<<<<<<<<I  ",
"  <<<<<<<<<<<<<<<<<<<<<<<<<I                                      <<<<<<<<<<<<<<<<<<<<<<<<<I  ",
"  <<<<<<<<<<<<<<<<<<<<<<<<<I                                      <<<<<<<<<<<<<<<<<<<<<<<<<I  ",
"  <<<<<<<<<<<<<<<<<<<<<<<<<I                                      <<<<<<<<<<<<<<<<<<<<<<<<<I  ",
"  <<<<<<<<<<<<<<<<<<<<<<<<<I                                      <<<<<<<<<<<<<<<<<<<<<<<<<I  ",
"  <<<<<<<<<<<<<<<<<<<<<<<<<I                                      <<<<<<<<<<<<<<<<<<<<<<<<<I  ",
"  <<<<<<<<<<<<<<<<<<<<<<<<<I                                      <<<<<<<<<<<<<<<<<<<<<<<<<I  ",
"                                                                                              ",
"                                                                                              ",
"                                                                                              ",
"                                                                                              ",
"                                                                                              ",
"                                                                                              ",
"                                                                                              ",
"                                                                                              ",
"                                                                                              ",
"                                                                                              ",
"                                                                                              ",
"                                                                                              ",
"                                                                                              "};
