/* XPM */
static char * o_xpm[] = {
"100 80 113 2",
"  	c #000000",
". 	c #636363",
"+ 	c #9D9D9D",
"@ 	c #BCBCBC",
"# 	c #CFCFCF",
"$ 	c #E1E1E1",
"% 	c #EEEEEE",
"& 	c #F3F3F3",
"* 	c #F8F8F8",
"= 	c #FCFCFC",
"- 	c #FFFFFF",
"; 	c #FDFDFD",
"> 	c #F9F9F9",
", 	c #F4F4F4",
"' 	c #EFEFEF",
") 	c #E4E4E4",
"! 	c #D3D3D3",
"~ 	c #C1C1C1",
"{ 	c #A7A7A7",
"] 	c #747474",
"^ 	c #1C1C1C",
"/ 	c #454545",
"( 	c #A0A0A0",
"_ 	c #D5D5D5",
": 	c #F5F5F5",
"< 	c #DEDEDE",
"[ 	c #AEAEAE",
"} 	c #5E5E5E",
"| 	c #898989",
"1 	c #D7D7D7",
"2 	c #E3E3E3",
"3 	c #9F9F9F",
"4 	c #262626",
"5 	c #989898",
"6 	c #E9E9E9",
"7 	c #F2F2F2",
"8 	c #B1B1B1",
"9 	c #2A2A2A",
"0 	c #797979",
"a 	c #B9B9B9",
"b 	c #585858",
"c 	c #7E7E7E",
"d 	c #6B6B6B",
"e 	c #FAFAFA",
"f 	c #939393",
"g 	c #7C7C7C",
"h 	c #A4A4A4",
"i 	c #858585",
"j 	c #545454",
"k 	c #BABABA",
"l 	c #DBDBDB",
"m 	c #0D0D0D",
"n 	c #7A7A7A",
"o 	c #AAAAAA",
"p 	c #474747",
"q 	c #999999",
"r 	c #C3C3C3",
"s 	c #949494",
"t 	c #4B4B4B",
"u 	c #3A3A3A",
"v 	c #838383",
"w 	c #4F4F4F",
"x 	c #8A8A8A",
"y 	c #CBCBCB",
"z 	c #222222",
"A 	c #FEFEFE",
"B 	c #B8B8B8",
"C 	c #DADADA",
"D 	c #161616",
"E 	c #F6F6F6",
"F 	c #535353",
"G 	c #E5E5E5",
"H 	c #8D8D8D",
"I 	c #B3B3B3",
"J 	c #878787",
"K 	c #C9C9C9",
"L 	c #EAEAEA",
"M 	c #E2E2E2",
"N 	c #666666",
"O 	c #D0D0D0",
"P 	c #ADADAD",
"Q 	c #A1A1A1",
"R 	c #9E9E9E",
"S 	c #CACACA",
"T 	c #A5A5A5",
"U 	c #C6C6C6",
"V 	c #BEBEBE",
"W 	c #DFDFDF",
"X 	c #676767",
"Y 	c #7F7F7F",
"Z 	c #9C9C9C",
"` 	c #C7C7C7",
" .	c #616161",
"..	c #404040",
"+.	c #FBFBFB",
"@.	c #383838",
"#.	c #828282",
"$.	c #D4D4D4",
"%.	c #515151",
"&.	c #919191",
"*.	c #6F6F6F",
"=.	c #ABABAB",
"-.	c #B2B2B2",
";.	c #DCDCDC",
">.	c #4D4D4D",
",.	c #ECECEC",
"'.	c #868686",
").	c #727272",
"!.	c #F0F0F0",
"~.	c #AFAFAF",
"{.	c #606060",
"].	c #C2C2C2",
"^.	c #767676",
"                                                                                                                                                                                                        ",
"                                                                                                                                                                                                        ",
"                                                                                                                                                                                                        ",
"                                                  . + @ # $ % & * = - - - - - - - - - - - - - - - - - - - - - - - - - - - - - - - ; > , ' ) ! ~ { ] ^                                                   ",
"                                          / ( _ : - - - - - - - - - - - - - - - - - - - - - - - - - - - - - - - - - - - - - - - - - - - - - - - - - > < [ }                                             ",
"                                      | 1 = - - - - - - - - - - - - - - - - - - - - - - - - - - - - - - - - - - - - - - - - - - - - - - - - - - - - - - - - 2 3 4                                       ",
"                                  5 6 - - - - - - - - - - - - - - - - - - - - - - - - - - - - - - - - - - - - - - - - - - - - - - - - - - - - - - - - - - - - - 7 8 9                                   ",
"                              0 $ - - - - - - - - - - - - - - - - - - - - - - - - - - - - - - - - - - - - - - - - - - - - - - - - - - - - - - - - - - - - - - - - - % 5                                 ",
"                          ^ a = - - - - - - - - - - - - - - - - - - - - - - - - - - - - - - - - - - - - - - - - - - - - - - - - - - - - - - - - - - - - - - - - - - - - ! /                             ",
"                        b $ - - - - - - - - - - - - - - - - - - - - - - - - - - - - - - - - - - - - - - - - - - - - - - - - - - - - - - - - - - - - - - - - - - - - - - - ' c                           ",
"                      d ' - - - - - - - - - - - - - - - - - - - - - - - - - - - - - - - - - - - - - - - - - - - - - - - - - - - - - - - - - - - - - - - - - - - - - - - - - e f                         ",
"                    g : - - - - - - - - - - - - - - - - - - - - - - - - - - - - - - - - - - - - - - - - - - - - - - - - - - - - - - - - - - - - - - - - - - - - - - - - - - - = h                       ",
"                  d : - - - - - - - - - - - - - - - - - - - - - - - - - - - - - - - - - - - - - - - - - - - - - - - - - - - - - - - - - - - - - - - - - - - - - - - - - - - - - ; 5                     ",
"                b ' - - - - - - - - - - - - - - - - - - - - - - - - - - - - - - - - - - - - - - - - - - - - - - - - - - - - - - - - - - - - - - - - - - - - - - - - - - - - - - - e i                   ",
"              ^ $ - - - - - - - - - - - - - - - - - - - - - - - - - - - - - - - - - - - - - - - - - - - - - - - - - - - - - - - - - - - - - - - - - - - - - - - - - - - - - - - - - , j                 ",
"              k - - - - - - - - - - - - - - - - - - - - - - - - - - - - - - - - - - - - - - - - - - - - - - - - - - - - - - - - - - - - - - - - - - - - - - - - - - - - - - - - - - - l m               ",
"            n = - - - - - - - - - - - - - - - - - - - - - - - - - - - - - - - - - - - - - - - - - - - - - - - - - - - - - - - - - - - - - - - - - - - - - - - - - - - - - - - - - - - - o               ",
"            $ - - - - - - - - - - - - - - - - - - - - - - - - - - - - - - - - - - - - - - - - - - - - - - - - - - - - - - - - - - - - - - - - - - - - - - - - - - - - - - - - - - - - - : p             ",
"          q - - - - - - - - - - - - - - - - - - - - - - - - - - - - - - - - - - - - - - - - - - - - - - - - - - - - - - - - - - - - - - - - - - - - - - - - - - - - - - - - - - - - - - - r             ",
"          6 - - - - - - - - - - - - - - - - - - - - - - - - - ) s t                                                               u v _ - - - - - - - - - - - - - - - - - - - - - - - - - e w           ",
"        x - - - - - - - - - - - - - - - - - - - - - - - - - y z                                                                         o A - - - - - - - - - - - - - - - - - - - - - - - - B           ",
"        1 - - - - - - - - - - - - - - - - - - - - - - - - C D                                                                             @ - - - - - - - - - - - - - - - - - - - - - - - - 7 z         ",
"      / = - - - - - - - - - - - - - - - - - - - - - - - E F                                                                               D G - - - - - - - - - - - - - - - - - - - - - - - - H         ",
"      ( - - - - - - - - - - - - - - - - - - - - - - - - I                                                                                   J - - - - - - - - - - - - - - - - - - - - - - - - K         ",
"      _ - - - - - - - - - - - - - - - - - - - - - - - = p                                                                                     L - - - - - - - - - - - - - - - - - - - - - - - 7 m       ",
"      : - - - - - - - - - - - - - - - - - - - - - - - M                                                                                       r - - - - - - - - - - - - - - - - - - - - - - - - d       ",
"    N - - - - - - - - - - - - - - - - - - - - - - - - O                                                                                       P - - - - - - - - - - - - - - - - - - - - - - - - Q       ",
"    R - - - - - - - - - - - - - - - - - - - - - - - - S                                                                                       T - - - - - - - - - - - - - - - - - - - - - - - - U       ",
"    V - - - - - - - - - - - - - - - - - - - - - - - - S                                                                                       T - - - - - - - - - - - - - - - - - - - - - - - - W       ",
"    O - - - - - - - - - - - - - - - - - - - - - - - - S                                                                                       T - - - - - - - - - - - - - - - - - - - - - - - - %       ",
"    $ - - - - - - - - - - - - - - - - - - - - - - - - S                                                                                       T - - - - - - - - - - - - - - - - - - - - - - - - = D     ",
"    % - - - - - - - - - - - - - - - - - - - - - - - - S                                                                                       T - - - - - - - - - - - - - - - - - - - - - - - - - j     ",
"    , - - - - - - - - - - - - - - - - - - - - - - - - S                                                                                       T - - - - - - - - - - - - - - - - - - - - - - - - - X     ",
"    * - - - - - - - - - - - - - - - - - - - - - - - - S                                                                                       T - - - - - - - - - - - - - - - - - - - - - - - - - ]     ",
"    = - - - - - - - - - - - - - - - - - - - - - - - - S                                                                                       T - - - - - - - - - - - - - - - - - - - - - - - - - Y     ",
"    = - - - - - - - - - - - - - - - - - - - - - - - - S                                                                                       T - - - - - - - - - - - - - - - - - - - - - - - - - c     ",
"    * - - - - - - - - - - - - - - - - - - - - - - - - S                                                                                       T - - - - - - - - - - - - - - - - - - - - - - - - - ]     ",
"    , - - - - - - - - - - - - - - - - - - - - - - - - S                                                                                       T - - - - - - - - - - - - - - - - - - - - - - - - - X     ",
"    % - - - - - - - - - - - - - - - - - - - - - - - - S                                                                                       T - - - - - - - - - - - - - - - - - - - - - - - - - j     ",
"    $ - - - - - - - - - - - - - - - - - - - - - - - - S                                                                                       T - - - - - - - - - - - - - - - - - - - - - - - - = D     ",
"    O - - - - - - - - - - - - - - - - - - - - - - - - S                                                                                       T - - - - - - - - - - - - - - - - - - - - - - - - %       ",
"    @ - - - - - - - - - - - - - - - - - - - - - - - - S                                                                                       T - - - - - - - - - - - - - - - - - - - - - - - - W       ",
"    Z - - - - - - - - - - - - - - - - - - - - - - - - S                                                                                       T - - - - - - - - - - - - - - - - - - - - - - - - `       ",
"     .- - - - - - - - - - - - - - - - - - - - - - - - O                                                                                       P - - - - - - - - - - - - - - - - - - - - - - - - Q       ",
"      , - - - - - - - - - - - - - - - - - - - - - - - M                                                                                       r - - - - - - - - - - - - - - - - - - - - - - - - d       ",
"      ! - - - - - - - - - - - - - - - - - - - - - - - = p                                                                                     L - - - - - - - - - - - - - - - - - - - - - - - 7 m       ",
"      + - - - - - - - - - - - - - - - - - - - - - - - - I                                                                                   J - - - - - - - - - - - - - - - - - - - - - - - - K         ",
"      ..+.- - - - - - - - - - - - - - - - - - - - - - - E F                                                                               D G - - - - - - - - - - - - - - - - - - - - - - - - H         ",
"        ! - - - - - - - - - - - - - - - - - - - - - - - - C D                                                                             @ - - - - - - - - - - - - - - - - - - - - - - - - 7 4         ",
"        v - - - - - - - - - - - - - - - - - - - - - - - - - y z                                                                         o A - - - - - - - - - - - - - - - - - - - - - - - - B           ",
"          G - - - - - - - - - - - - - - - - - - - - - - - - - ) s t                                                               @.#.$.- - - - - - - - - - - - - - - - - - - - - - - - - +.%.          ",
"          &.- - - - - - - - - - - - - - - - - - - - - - - - - - - - - - - - - - - - - - - - - - - - - - - - - - - - - - - - - - - - - - - - - - - - - - - - - - - - - - - - - - - - - - - r             ",
"            l - - - - - - - - - - - - - - - - - - - - - - - - - - - - - - - - - - - - - - - - - - - - - - - - - - - - - - - - - - - - - - - - - - - - - - - - - - - - - - - - - - - - - : p             ",
"            *.+.- - - - - - - - - - - - - - - - - - - - - - - - - - - - - - - - - - - - - - - - - - - - - - - - - - - - - - - - - - - - - - - - - - - - - - - - - - - - - - - - - - - - =.              ",
"              -.- - - - - - - - - - - - - - - - - - - - - - - - - - - - - - - - - - - - - - - - - - - - - - - - - - - - - - - - - - - - - - - - - - - - - - - - - - - - - - - - - - - ;.m               ",
"              m ;.- - - - - - - - - - - - - - - - - - - - - - - - - - - - - - - - - - - - - - - - - - - - - - - - - - - - - - - - - - - - - - - - - - - - - - - - - - - - - - - - - , j                 ",
"                >.,.- - - - - - - - - - - - - - - - - - - - - - - - - - - - - - - - - - - - - - - - - - - - - - - - - - - - - - - - - - - - - - - - - - - - - - - - - - - - - - - e '.                  ",
"                   .7 - - - - - - - - - - - - - - - - - - - - - - - - - - - - - - - - - - - - - - - - - - - - - - - - - - - - - - - - - - - - - - - - - - - - - - - - - - - - - ; 5                     ",
"                    ).7 - - - - - - - - - - - - - - - - - - - - - - - - - - - - - - - - - - - - - - - - - - - - - - - - - - - - - - - - - - - - - - - - - - - - - - - - - - - ; T                       ",
"                       .,.- - - - - - - - - - - - - - - - - - - - - - - - - - - - - - - - - - - - - - - - - - - - - - - - - - - - - - - - - - - - - - - - - - - - - - - - - e s                         ",
"                        >.;.- - - - - - - - - - - - - - - - - - - - - - - - - - - - - - - - - - - - - - - - - - - - - - - - - - - - - - - - - - - - - - - - - - - - - - - !.Y                           ",
"                          m -.+.- - - - - - - - - - - - - - - - - - - - - - - - - - - - - - - - - - - - - - - - - - - - - - - - - - - - - - - - - - - - - - - - - - - - ! /                             ",
"                              *.l - - - - - - - - - - - - - - - - - - - - - - - - - - - - - - - - - - - - - - - - - - - - - - - - - - - - - - - - - - - - - - - - - % q                                 ",
"                                  &.G - - - - - - - - - - - - - - - - - - - - - - - - - - - - - - - - - - - - - - - - - - - - - - - - - - - - - - - - - - - - - & -.9                                   ",
"                                      v ! +.- - - - - - - - - - - - - - - - - - - - - - - - - - - - - - - - - - - - - - - - - - - - - - - - - - - - - - - - ) ( 4                                       ",
"                                          ..+ ! , - - - - - - - - - - - - - - - - - - - - - - - - - - - - - - - - - - - - - - - - - - - - - - - - - > < ~.{.                                            ",
"                                                   .Z @ O $ % , * = - - - - - - - - - - - - - - - - - - - - - - - - - - - - - - - ; > : !.G _ ].{ ^.^                                                   ",
"                                                                                                                                                                                                        ",
"                                                                                                                                                                                                        ",
"                                                                                                                                                                                                        ",
"                                                                                                                                                                                                        ",
"                                                                                                                                                                                                        ",
"                                                                                                                                                                                                        ",
"                                                                                                                                                                                                        ",
"                                                                                                                                                                                                        ",
"                                                                                                                                                                                                        ",
"                                                                                                                                                                                                        ",
"                                                                                                                                                                                                        ",
"                                                                                                                                                                                                        ",
"                                                                                                                                                                                                        "};
