/* XPM */
static char * p_xpm[] = {
"88 80 67 1",
" 	c #000000",
".	c #FFFFFF",
"+	c #FDFDFD",
"@	c #F8F8F8",
"#	c #F2F2F2",
"$	c #E3E3E3",
"%	c #D0D0D0",
"&	c #AFAFAF",
"*	c #7A7A7A",
"=	c #F0F0F0",
"-	c #C1C1C1",
";	c #5E5E5E",
">	c #FCFCFC",
",	c #CACACA",
"'	c #515151",
")	c #F6F6F6",
"!	c #9A9A9A",
"~	c #C3C3C3",
"{	c #0D0D0D",
"]	c #161616",
"^	c #C6C6C6",
"/	c #A5A5A5",
"(	c #F9F9F9",
"_	c #666666",
":	c #D7D7D7",
"<	c #7E7E7E",
"[	c #D3D3D3",
"}	c #FBFBFB",
"|	c #404040",
"1	c #9D9D9D",
"2	c #C9C9C9",
"3	c #E7E7E7",
"4	c #2A2A2A",
"5	c #6B6B6B",
"6	c #B6B6B6",
"7	c #F7F7F7",
"8	c #606060",
"9	c #EFEFEF",
"0	c #4D4D4D",
"a	c #969696",
"b	c #696969",
"c	c #3D3D3D",
"d	c #757575",
"e	c #676767",
"f	c #585858",
"g	c #EEEEEE",
"h	c #494949",
"i	c #262626",
"j	c #B2B2B2",
"k	c #F5F5F5",
"l	c #E5E5E5",
"m	c #323232",
"n	c #CCCCCC",
"o	c #FEFEFE",
"p	c #707070",
"q	c #CECECE",
"r	c #565656",
"s	c #BABABA",
"t	c #C5C5C5",
"u	c #B8B8B8",
"v	c #F4F4F4",
"w	c #8E8E8E",
"x	c #454545",
"y	c #BCBCBC",
"z	c #E4E4E4",
"A	c #AEAEAE",
"B	c #767676",
"                                                                                        ",
"                                                                                        ",
"                                                                                        ",
"  ...............................................................+@#$%&*                ",
"  ......................................................................=-;             ",
"  ........................................................................>,'           ",
"  ..........................................................................)!          ",
"  ............................................................................~{        ",
"  .............................................................................%]       ",
"  ..............................................................................^       ",
"  .............................................................................../      ",
"  ...............................................................................(_     ",
"  ................................................................................:     ",
"  .................................................................................<    ",
"  .................................................................................[    ",
"  .................................................................................}|   ",
"  ..................................................................................1   ",
"  ..................................................................................2   ",
"  ..................................................................................3   ",
"                                                     4567...........................(   ",
"                                                        89...........................0  ",
"                                                         a...........................b  ",
"                                                         c...........................d  ",
"                                                         |...........................d  ",
"                                                         a...........................e  ",
"                                                        fg...........................h  ",
"                                                     ibjk...........................@   ",
"  ..................................................................................l   ",
"  ..................................................................................^   ",
"  ..................................................................................a   ",
"  .................................................................................(m   ",
"  .................................................................................n    ",
"  ................................................................................op    ",
"  ................................................................................q     ",
"  ...............................................................................)r     ",
"  ...............................................................................a      ",
"  ..............................................................................s       ",
"  .............................................................................t        ",
"  ...........................................................................ou         ",
"  ..........................................................................vw          ",
"  ........................................................................}tx           ",
"  ......................................................................gyr             ",
"  ...............................................................+(#z%AB                ",
"  .........................,                                                            ",
"  .........................,                                                            ",
"  .........................,                                                            ",
"  .........................,                                                            ",
"  .........................,                                                            ",
"  .........................,                                                            ",
"  .........................,                                                            ",
"  .........................,                                                            ",
"  .........................,                                                            ",
"  .........................,                                                            ",
"  .........................,                                                            ",
"  .........................,                                                            ",
"  .........................,                                                            ",
"  .........................,                                                            ",
"  .........................,                                                            ",
"  .........................,                                                            ",
"  .........................,                                                            ",
"  .........................,                                                            ",
"  .........................,                                                            ",
"  .........................,                                                            ",
"  .........................,                                                            ",
"  .........................,                                                            ",
"  .........................,                                                            ",
"  .........................,                                                            ",
"                                                                                        ",
"                                                                                        ",
"                                                                                        ",
"                                                                                        ",
"                                                                                        ",
"                                                                                        ",
"                                                                                        ",
"                                                                                        ",
"                                                                                        ",
"                                                                                        ",
"                                                                                        ",
"                                                                                        ",
"                                                                                        "};
