/* XPM */
static char * q_xpm[] = {
"100 80 119 2",
"  	c #000000",
". 	c #636363",
"+ 	c #9D9D9D",
"@ 	c #BCBCBC",
"# 	c #CFCFCF",
"$ 	c #E1E1E1",
"% 	c #EEEEEE",
"& 	c #F3F3F3",
"* 	c #F8F8F8",
"= 	c #FCFCFC",
"- 	c #FFFFFF",
"; 	c #FDFDFD",
"> 	c #F9F9F9",
", 	c #F4F4F4",
"' 	c #EFEFEF",
") 	c #E4E4E4",
"! 	c #D3D3D3",
"~ 	c #C1C1C1",
"{ 	c #A7A7A7",
"] 	c #747474",
"^ 	c #1C1C1C",
"/ 	c #454545",
"( 	c #A0A0A0",
"_ 	c #D5D5D5",
": 	c #F5F5F5",
"< 	c #DEDEDE",
"[ 	c #AFAFAF",
"} 	c #606060",
"| 	c #898989",
"1 	c #D7D7D7",
"2 	c #A1A1A1",
"3 	c #2A2A2A",
"4 	c #989898",
"5 	c #E9E9E9",
"6 	c #B3B3B3",
"7 	c #2E2E2E",
"8 	c #797979",
"9 	c #9B9B9B",
"0 	c #B9B9B9",
"a 	c #494949",
"b 	c #585858",
"c 	c #F1F1F1",
"d 	c #838383",
"e 	c #6B6B6B",
"f 	c #FAFAFA",
"g 	c #7C7C7C",
"h 	c #AAAAAA",
"i 	c #FEFEFE",
"j 	c #FBFBFB",
"k 	c #8B8B8B",
"l 	c #595959",
"m 	c #BABABA",
"n 	c #DFDFDF",
"o 	c #161616",
"p 	c #7A7A7A",
"q 	c #B0B0B0",
"r 	c #F7F7F7",
"s 	c #4D4D4D",
"t 	c #999999",
"u 	c #C8C8C8",
"v 	c #949494",
"w 	c #4B4B4B",
"x 	c #3A3A3A",
"y 	c #8A8A8A",
"z 	c #CBCBCB",
"A 	c #222222",
"B 	c #DADADA",
"C 	c #F6F6F6",
"D 	c #535353",
"E 	c #E5E5E5",
"F 	c #939393",
"G 	c #878787",
"H 	c #CCCCCC",
"I 	c #474747",
"J 	c #EAEAEA",
"K 	c #E2E2E2",
"L 	c #C3C3C3",
"M 	c #707070",
"N 	c #666666",
"O 	c #D0D0D0",
"P 	c #ADADAD",
"Q 	c #A5A5A5",
"R 	c #9E9E9E",
"S 	c #CACACA",
"T 	c #C9C9C9",
"U 	c #BEBEBE",
"V 	c #F0F0F0",
"W 	c #696969",
"X 	c #757575",
"Y 	c #7F7F7F",
"Z 	c #767676",
"` 	c #646464",
" .	c #353535",
"..	c #CDCDCD",
"+.	c #9C9C9C",
"@.	c #A8A8A8",
"#.	c #616161",
"$.	c #727272",
"%.	c #404040",
"&.	c #EDEDED",
"*.	c #383838",
"=.	c #828282",
"-.	c #D4D4D4",
";.	c #B2B2B2",
">.	c #919191",
",.	c #DBDBDB",
"'.	c #6F6F6F",
").	c #C6C6C6",
"!.	c #0D0D0D",
"~.	c #DCDCDC",
"{.	c #ECECEC",
"].	c #8C8C8C",
"^.	c #F2F2F2",
"/.	c #A3A3A3",
"(.	c #B6B6B6",
"_.	c #D1D1D1",
":.	c #C5C5C5",
"<.	c #262626",
"[.	c #323232",
"                                                                                                                                                                                                        ",
"                                                                                                                                                                                                        ",
"                                                                                                                                                                                                        ",
"                                                  . + @ # $ % & * = - - - - - - - - - - - - - - - - - - - - - - - - - - - - - - - ; > , ' ) ! ~ { ] ^                                                   ",
"                                          / ( _ : - - - - - - - - - - - - - - - - - - - - - - - - - - - - - - - - - - - - - - - - - - - - - - - - - > < [ }                                             ",
"                                      | 1 = - - - - - - - - - - - - - - - - - - - - - - - - - - - - - - - - - - - - - - - - - - - - - - - - - - - - - - - - ) 2 3                                       ",
"                                  4 5 - - - - - - - - - - - - - - - - - - - - - - - - - - - - - - - - - - - - - - - - - - - - - - - - - - - - - - - - - - - - - & 6 7                                   ",
"                              8 $ - - - - - - - - - - - - - - - - - - - - - - - - - - - - - - - - - - - - - - - - - - - - - - - - - - - - - - - - - - - - - - - - - ' 9                                 ",
"                          ^ 0 = - - - - - - - - - - - - - - - - - - - - - - - - - - - - - - - - - - - - - - - - - - - - - - - - - - - - - - - - - - - - - - - - - - - - _ a                             ",
"                        b $ - - - - - - - - - - - - - - - - - - - - - - - - - - - - - - - - - - - - - - - - - - - - - - - - - - - - - - - - - - - - - - - - - - - - - - - c d                           ",
"                      e ' - - - - - - - - - - - - - - - - - - - - - - - - - - - - - - - - - - - - - - - - - - - - - - - - - - - - - - - - - - - - - - - - - - - - - - - - - f 4                         ",
"                    g : - - - - - - - - - - - - - - - - - - - - - - - - - - - - - - - - - - - - - - - - - - - - - - - - - - - - - - - - - - - - - - - - - - - - - - - - - - - ; h                       ",
"                  e : - - - - - - - - - - - - - - - - - - - - - - - - - - - - - - - - - - - - - - - - - - - - - - - - - - - - - - - - - - - - - - - - - - - - - - - - - - - - - i +                     ",
"                b ' - - - - - - - - - - - - - - - - - - - - - - - - - - - - - - - - - - - - - - - - - - - - - - - - - - - - - - - - - - - - - - - - - - - - - - - - - - - - - - - j k                   ",
"              ^ $ - - - - - - - - - - - - - - - - - - - - - - - - - - - - - - - - - - - - - - - - - - - - - - - - - - - - - - - - - - - - - - - - - - - - - - - - - - - - - - - - - : l                 ",
"              m - - - - - - - - - - - - - - - - - - - - - - - - - - - - - - - - - - - - - - - - - - - - - - - - - - - - - - - - - - - - - - - - - - - - - - - - - - - - - - - - - - - n o               ",
"            p = - - - - - - - - - - - - - - - - - - - - - - - - - - - - - - - - - - - - - - - - - - - - - - - - - - - - - - - - - - - - - - - - - - - - - - - - - - - - - - - - - - - - q               ",
"            $ - - - - - - - - - - - - - - - - - - - - - - - - - - - - - - - - - - - - - - - - - - - - - - - - - - - - - - - - - - - - - - - - - - - - - - - - - - - - - - - - - - - - - r s             ",
"          t - - - - - - - - - - - - - - - - - - - - - - - - - - - - - - - - - - - - - - - - - - - - - - - - - - - - - - - - - - - - - - - - - - - - - - - - - - - - - - - - - - - - - - - u             ",
"          5 - - - - - - - - - - - - - - - - - - - - - - - - - ) v w                                                               x d _ - - - - - - - - - - - - - - - - - - - - - - - - - = b           ",
"        y - - - - - - - - - - - - - - - - - - - - - - - - - z A                                                                         h i - - - - - - - - - - - - - - - - - - - - - - - - @           ",
"        1 - - - - - - - - - - - - - - - - - - - - - - - - B o                                                                             @ - - - - - - - - - - - - - - - - - - - - - - - - : 7         ",
"      / = - - - - - - - - - - - - - - - - - - - - - - - C D                                                                               o E - - - - - - - - - - - - - - - - - - - - - - - - F         ",
"      ( - - - - - - - - - - - - - - - - - - - - - - - - 6                                                                                   G - - - - - - - - - - - - - - - - - - - - - - - - H         ",
"      _ - - - - - - - - - - - - - - - - - - - - - - - = I                                                                                     J - - - - - - - - - - - - - - - - - - - - - - - , o       ",
"      : - - - - - - - - - - - - - - - - - - - - - - - K                                                                                       L - - - - - - - - - - - - - - - - - - - - - - - - M       ",
"    N - - - - - - - - - - - - - - - - - - - - - - - - O                                                                                       P - - - - - - - - - - - - - - - - - - - - - - - - Q       ",
"    R - - - - - - - - - - - - - - - - - - - - - - - - S                                                                                       Q - - - - - - - - - - - - - - - - - - - - - - - - T       ",
"    U - - - - - - - - - - - - - - - - - - - - - - - - S                                                                                       Q - - - - - - - - - - - - - - - - - - - - - - - - $       ",
"    O - - - - - - - - - - - - - - - - - - - - - - - - S                                                                                       Q - - - - - - - - - - - - - - - - - - - - - - - - V       ",
"    $ - - - - - - - - - - - - - - - - - - - - - - - - S                                                                                       Q - - - - - - - - - - - - - - - - - - - - - - - - = ^     ",
"    % - - - - - - - - - - - - - - - - - - - - - - - - S                                                                                       Q - - - - - - - - - - - - - - - - - - - - - - - - - b     ",
"    , - - - - - - - - - - - - - - - - - - - - - - - - S                                                                                       Q - - - - - - - - - - - - - - - - - - - - - - - - - W     ",
"    * - - - - - - - - - - - - - - - - - - - - - - - - S                                                                                       Q - - - - - - - - - - - - - - - - - - - - - - - - - X     ",
"    = - - - - - - - - - - - - - - - - - - - - - - - - S                                                                                       Q - - - - - - - - - - - - - - - - - - - - - - - - - Y     ",
"    = - - - - - - - - - - - - - - - - - - - - - - - - S                                                                                       Q - - - - - - - - - - - - - - - - - - - - - - - - - Y     ",
"    * - - - - - - - - - - - - - - - - - - - - - - - - S                                                                                       Q - - - - - - - - - - - - - - - - - - - - - - - - - Z     ",
"    , - - - - - - - - - - - - - - - - - - - - - - - - S                                                                                       Q - - - - - - - - - - - - - - - - - - - - - - - - - `     ",
"    % - - - - - - - - - - - - - - - - - - - - - - - - S                                                                                       Q - - - - - - - - - - - - - - - - - - - - - - - - -  .    ",
"    $ - - - - - - - - - - - - - - - - - - - - - - - - S                                                                                       Q - - - - - - - - - - - - - - - - - - - - - - - - C       ",
"    O - - - - - - - - - - - - - - - - - - - - - - - - S                                                                                       Q - - - - - - - - - - - - - - - - - - - - - - - - )       ",
"    @ - - - - - - - - - - - - - - - - - - - - - - - - S                                                                                       Q - - - - - - - - - - - - - - - - - - - - - - - - ..      ",
"    +.- - - - - - - - - - - - - - - - - - - - - - - - S                                                                                       Q - - - - - - - - - - - - - - - - - - - - - - - - @.      ",
"    #.- - - - - - - - - - - - - - - - - - - - - - - - O                                                                                       P - - - - - - - - - - - - - - - - - - - - - - - - $.      ",
"      , - - - - - - - - - - - - - - - - - - - - - - - K                                                                                       L - - - - - - - - - - - - - - - - - - - - - - - V         ",
"      ! - - - - - - - - - - - - - - - - - - - - - - - = I                                                                                     J - - - - - - - - - - - - - - - - - - - - - - - u         ",
"      + - - - - - - - - - - - - - - - - - - - - - - - - 6                                                                                   G - - - - - - - - - - - - - - - - - - - - - - - - d         ",
"      %.j - - - - - - - - - - - - - - - - - - - - - - - C D                                                                               o E - - - - - - - - - - - - - - - - - - - - - - - &.          ",
"        ! - - - - - - - - - - - - - - - - - - - - - - - - B o                                                                             @ - - - - - - - - - - - - - - - - - - - - - - - - P           ",
"        d - - - - - - - - - - - - - - - - - - - - - - - - - z A                                                                         h i - - - - - - - - - - - - - - - - - - - - - - - : *.          ",
"          E - - - - - - - - - - - - - - - - - - - - - - - - - ) v w                                                               *.=.-.- - - - - - - - - - - - - - - - - - - - - - - - - ;.            ",
"          >.- - - - - - - - - - - - - - - - - - - - - - - - - - - - - - - - - - - - - - - - - - - - - - - - - - - - - - - - - - - - - - - - - - - - - - - - - - - - - - - - - - - - - - ' 7             ",
"            ,.- - - - - - - - - - - - - - - - - - - - - - - - - - - - - - - - - - - - - - - - - - - - - - - - - - - - - - - - - - - - - - - - - - - - - - - - - - - - - - - - - - - - i |               ",
"            '.j - - - - - - - - - - - - - - - - - - - - - - - - - - - - - - - - - - - - - - - - - - - - - - - - - - - - - - - - - - - - - - - - - - - - - - - - - - - - - - - - - - - ).                ",
"              ;.- - - - - - - - - - - - - - - - - - - - - - - - - - - - - - - - - - - - - - - - - - - - - - - - - - - - - - - - - - - - - - - - - - - - - - - - - - - - - - - - - - % *.                ",
"              !.~.- - - - - - - - - - - - - - - - - - - - - - - - - - - - - - - - - - - - - - - - - - - - - - - - - - - - - - - - - - - - - - - - - - - - - - - - - - - - - - - - * p                   ",
"                s {.- - - - - - - - - - - - - - - - - - - - - - - - - - - - - - - - - - - - - - - - - - - - - - - - - - - - - - - - - - - - - - - - - - - - - - - - - - - - - - j ].                    ",
"                  #.^.- - - - - - - - - - - - - - - - - - - - - - - - - - - - - - - - - - - - - - - - - - - - - - - - - - - - - - - - - - - - - - - - - - - - - - - - - - - - ; +.                      ",
"                    $.^.- - - - - - - - - - - - - - - - - - - - - - - - - - - - - - - - - - - - - - - - - - - - - - - - - - - - - - - - - - - - - - - - - - - - - - - - - - j /.                        ",
"                      #.{.- - - - - - - - - - - - - - - - - - - - - - - - - - - - - - - - - - - - - - - - - - - - - - - - - - - - - - - - - - - - - - - - - - - - - - - - & =.                          ",
"                        s ~.- - - - - - - - - - - - - - - - - - - - - - - - - - - - - - - - - - - - - - - - - - - - - - - - - - - - - - - - - - - - - - - - - - - - - - ) l                             ",
"                          !.;.j - - - - - - - - - - - - - - - - - - - - - - - - - - - - - - - - - - - - - - - - - - - - - - - - - - - - - - - - - - - - - - - - - - > (.3                               ",
"                              '.,.- - - - - - - - - - - - - - - - - - - - - - - - - - - - - - - - - - - - - - - - - - - - - - - - - - - - - - - - - - - - - - - - _.l                                   ",
"                                  >.E - - - - - - - - - - - - - - - - - - - - - - - - - - - - - - - - - - - - - - - - - - - - - - - - - - - - - - - - - - - - - ,.                                      ",
"                                      d ! j - - - - - - - - - - - - - - - - - - - - - - - - - - - - - - - - - - - - - - - - - - - - - - - - - - - - - - - - - - - :.                                    ",
"                                          %.+ ! , - - - - - - - - - - - - - - - - - - - - - - - - - - - - - - - - - - - - - - - - - - - - - - - - - - - - - - - - - @                                   ",
"                                                  #.+.@ O $ % , * = - - - - - - - - - - - - - - - - - - - - - - - - - - - - - - - - - - - - - - - - - - - - - - - - - 6                                 ",
"                                                                                                            <._ - - - - - - - - - - - - - - - - - - - - - - - - - - - - h                               ",
"                                                                                                              ^ _.- - - - - - - - - - - - - - - - - - - - - - - - - - - ; (                             ",
"                                                                                                                o H - - - - - - - - - - - - - - - - - - - - - - - - - - - = 3                           ",
"                                                                                                                  !.u - - - - - - - - - - - - - - - - - - - - - - - - - - - [.                          ",
"                                                                                                                      L - - - - - - - - - - - - - - - - - - - - - - - - - - [.                          ",
"                                                                                                                        U - - - - - - - - - - - - - - - - - - - - - - - - - [.                          ",
"                                                                                                                          0 - - - - - - - - - - - - - - - - - - - - - - - - [.                          ",
"                                                                                                                                                                                                        ",
"                                                                                                                                                                                                        ",
"                                                                                                                                                                                                        ",
"                                                                                                                                                                                                        ",
"                                                                                                                                                                                                        ",
"                                                                                                                                                                                                        "};
