/* XPM */
static char * s_xpm[] = {
"87 80 89 1",
" 	c #000000",
".	c #636363",
"+	c #A5A5A5",
"@	c #C9C9C9",
"#	c #DFDFDF",
"$	c #EEEEEE",
"%	c #F7F7F7",
"&	c #FCFCFC",
"*	c #FFFFFF",
"=	c #7C7C7C",
"-	c #3D3D3D",
";	c #AEAEAE",
">	c #E7E7E7",
",	c #2A2A2A",
"'	c #B4B4B4",
")	c #F8F8F8",
"!	c #767676",
"~	c #EBEBEB",
"{	c #A0A0A0",
"]	c #FBFBFB",
"^	c #AFAFAF",
"/	c #FEFEFE",
"(	c #A2A2A2",
"_	c #7A7A7A",
":	c #2E2E2E",
"<	c #EDEDED",
"[	c #B7B7B7",
"}	c #424242",
"|	c #B2B2B2",
"1	c #E9E9E9",
"2	c #696969",
"3	c #A7A7A7",
"4	c #CCCCCC",
"5	c #E1E1E1",
"6	c #FDFDFD",
"7	c #7F7F7F",
"8	c #383838",
"9	c #F0F0F0",
"0	c #8E8E8E",
"a	c #C1C1C1",
"b	c #8A8A8A",
"c	c #8B8B8B",
"d	c #C3C3C3",
"e	c #EFEFEF",
"f	c #8D8D8D",
"g	c #C7C7C7",
"h	c #323232",
"i	c #CACACA",
"j	c #F2F2F2",
"k	c #E3E3E3",
"l	c #D0D0D0",
"m	c #5E5E5E",
"n	c #515151",
"o	c #F6F6F6",
"p	c #9A9A9A",
"q	c #0D0D0D",
"r	c #161616",
"s	c #C6C6C6",
"t	c #F9F9F9",
"u	c #666666",
"v	c #9F9F9F",
"w	c #D7D7D7",
"x	c #ADADAD",
"y	c #7E7E7E",
"z	c #D3D3D3",
"A	c #404040",
"B	c #9D9D9D",
"C	c #6B6B6B",
"D	c #B6B6B6",
"E	c #606060",
"F	c #4D4D4D",
"G	c #969696",
"H	c #757575",
"I	c #676767",
"J	c #585858",
"K	c #494949",
"L	c #262626",
"M	c #F5F5F5",
"N	c #E5E5E5",
"O	c #707070",
"P	c #CECECE",
"Q	c #565656",
"R	c #BABABA",
"S	c #C5C5C5",
"T	c #B8B8B8",
"U	c #F4F4F4",
"V	c #454545",
"W	c #BCBCBC",
"X	c #E4E4E4",
"                                                                                       ",
"                                                                                       ",
"                                                                                       ",
"               .+@#$%&***************************************************************= ",
"            -;>**********************************************************************= ",
"          ,')************************************************************************= ",
"         !~**************************************************************************= ",
"        {]***************************************************************************= ",
"       ^/****************************************************************************= ",
"      (/*****************************************************************************= ",
"     _]******************************************************************************= ",
"    :<*******************************************************************************= ",
"    [********************************************************************************= ",
"   })********************************************************************************= ",
"   |*********************************************************************************= ",
"   1*********************************************************************************= ",
"  2**********************************************************************************= ",
"  3**********************************************************************************= ",
"  4**********************************************************************************= ",
"  5***************************6478                                                     ",
"  9**************************]0                                                        ",
"  )**************************a                                                         ",
"  &**************************b                                                         ",
"  &**************************c                                                         ",
"  )**************************d                                                         ",
"  e**************************]f                                                        ",
"  5***************************6g_h                                                     ",
"  i**************************************************************6)jkl^_               ",
"  +*********************************************************************9am            ",
"  .***********************************************************************&in          ",
"   >************************************************************************op         ",
"   ;**************************************************************************dq       ",
"   -%**************************************************************************lr      ",
"    '***************************************************************************s      ",
"    ,~***************************************************************************+     ",
"     !]**************************************************************************tu    ",
"      v/**************************************************************************w    ",
"       x/**************************************************************************y   ",
"        v]*************************************************************************z   ",
"         !~************************************************************************]A  ",
"          ,'%***********************************************************************B  ",
"            -;>*********************************************************************@  ",
"               .+i5e)&**************************************************************>  ",
"                                                     ,CD%***************************t  ",
"                                                        Ee***************************F ",
"                                                         G***************************2 ",
"                                                         -***************************H ",
"                                                         A***************************H ",
"                                                         G***************************I ",
"                                                        J$***************************K ",
"                                                     L2|M***************************)  ",
"  **********************************************************************************N  ",
"  **********************************************************************************s  ",
"  **********************************************************************************G  ",
"  *********************************************************************************th  ",
"  *********************************************************************************4   ",
"  ********************************************************************************/O   ",
"  ********************************************************************************P    ",
"  *******************************************************************************oQ    ",
"  *******************************************************************************G     ",
"  ******************************************************************************R      ",
"  *****************************************************************************S       ",
"  ***************************************************************************/T        ",
"  **************************************************************************U0         ",
"  ************************************************************************]SV          ",
"  **********************************************************************$WQ            ",
"  ***************************************************************6tjXl;!               ",
"                                                                                       ",
"                                                                                       ",
"                                                                                       ",
"                                                                                       ",
"                                                                                       ",
"                                                                                       ",
"                                                                                       ",
"                                                                                       ",
"                                                                                       ",
"                                                                                       ",
"                                                                                       ",
"                                                                                       ",
"                                                                                       "};
