/* XPM */
static char * t_xpm[] = {
"68 80 3 1",
" 	c #000000",
".	c #FFFFFF",
"+	c #E7E7E7",
"                                                                    ",
"                                                                    ",
"                                                                    ",
"  ................................................................  ",
"  ................................................................  ",
"  ................................................................  ",
"  ................................................................  ",
"  ................................................................  ",
"  ................................................................  ",
"  ................................................................  ",
"  ................................................................  ",
"  ................................................................  ",
"  ................................................................  ",
"  ................................................................  ",
"  ................................................................  ",
"  ................................................................  ",
"  ................................................................  ",
"  ................................................................  ",
"  ................................................................  ",
"                     +........................+                     ",
"                     +........................+                     ",
"                     +........................+                     ",
"                     +........................+                     ",
"                     +........................+                     ",
"                     +........................+                     ",
"                     +........................+                     ",
"                     +........................+                     ",
"                     +........................+                     ",
"                     +........................+                     ",
"                     +........................+                     ",
"                     +........................+                     ",
"                     +........................+                     ",
"                     +........................+                     ",
"                     +........................+                     ",
"                     +........................+                     ",
"                     +........................+                     ",
"                     +........................+                     ",
"                     +........................+                     ",
"                     +........................+                     ",
"                     +........................+                     ",
"                     +........................+                     ",
"                     +........................+                     ",
"                     +........................+                     ",
"                     +........................+                     ",
"                     +........................+                     ",
"                     +........................+                     ",
"                     +........................+                     ",
"                     +........................+                     ",
"                     +........................+                     ",
"                     +........................+                     ",
"                     +........................+                     ",
"                     +........................+                     ",
"                     +........................+                     ",
"                     +........................+                     ",
"                     +........................+                     ",
"                     +........................+                     ",
"                     +........................+                     ",
"                     +........................+                     ",
"                     +........................+                     ",
"                     +........................+                     ",
"                     +........................+                     ",
"                     +........................+                     ",
"                     +........................+                     ",
"                     +........................+                     ",
"                     +........................+                     ",
"                     +........................+                     ",
"                     +........................+                     ",
"                                                                    ",
"                                                                    ",
"                                                                    ",
"                                                                    ",
"                                                                    ",
"                                                                    ",
"                                                                    ",
"                                                                    ",
"                                                                    ",
"                                                                    ",
"                                                                    ",
"                                                                    ",
"                                                                    "};
