/* XPM */
static char * u_xpm[] = {
"88 80 84 1",
" 	c #000000",
".	c #FFFFFF",
"+	c #CACACA",
"@	c #AAAAAA",
"#	c #7C7C7C",
"$	c #FCFCFC",
"%	c #757575",
"&	c #F8F8F8",
"*	c #6A6A6A",
"=	c #F4F4F4",
"-	c #5B5B5B",
";	c #EEEEEE",
">	c #454545",
",	c #E1E1E1",
"'	c #F9F9F9",
")	c #D0D0D0",
"!	c #EBEBEB",
"~	c #BCBCBC",
"{	c #DBDBDB",
"]	c #9C9C9C",
"^	c #C2C2C2",
"/	c #616161",
"(	c #B3B3B3",
"_	c #9B9B9B",
":	c #E2E2E2",
"<	c #C8C8C8",
"[	c #606060",
"}	c #D3D3D3",
"|	c #474747",
"1	c #EDEDED",
"2	c #EFEFEF",
"3	c #9D9D9D",
"4	c #8E8E8E",
"5	c #C4C4C4",
"6	c #404040",
"7	c #FBFBFB",
"8	c #F6F6F6",
"9	c #535353",
"0	c #222222",
"a	c #E8E8E8",
"b	c #868686",
"c	c #DADADA",
"d	c #161616",
"e	c #C1C1C1",
"f	c #838383",
"g	c #CBCBCB",
"h	c #B0B0B0",
"i	c #E5E5E5",
"j	c #E4E4E4",
"k	c #949494",
"l	c #4B4B4B",
"m	c #3A3A3A",
"n	c #858585",
"o	c #D7D7D7",
"p	c #919191",
"q	c #BEBEBE",
"r	c #F3F3F3",
"s	c #3D3D3D",
"t	c #6F6F6F",
"u	c #A5A5A5",
"v	c #B2B2B2",
"w	c #D8D8D8",
"x	c #0D0D0D",
"y	c #DCDCDC",
"z	c #F2F2F2",
"A	c #4D4D4D",
"B	c #ECECEC",
"C	c #FAFAFA",
"D	c #7F7F7F",
"E	c #929292",
"F	c #727272",
"G	c #9F9F9F",
"H	c #7A7A7A",
"I	c #959595",
"J	c #262626",
"K	c #FEFEFE",
"L	c #DDDDDD",
"M	c #ADADAD",
"N	c #FDFDFD",
"O	c #F5F5F5",
"P	c #F0F0F0",
"Q	c #D4D4D4",
"R	c #A7A7A7",
"S	c #747474",
"                                                                                        ",
"                                                                                        ",
"                                                                                        ",
"  .........................+                               @.........................#  ",
"  .........................+                               @.........................#  ",
"  .........................+                               @.........................#  ",
"  .........................+                               @.........................#  ",
"  .........................+                               @.........................#  ",
"  .........................+                               @.........................#  ",
"  .........................+                               @.........................#  ",
"  .........................+                               @.........................#  ",
"  .........................+                               @.........................#  ",
"  .........................+                               @.........................#  ",
"  .........................+                               @.........................#  ",
"  .........................+                               @.........................#  ",
"  .........................+                               @.........................#  ",
"  .........................+                               @.........................#  ",
"  .........................+                               @.........................#  ",
"  .........................+                               @.........................#  ",
"  .........................+                               @.........................#  ",
"  .........................+                               @.........................#  ",
"  .........................+                               @.........................#  ",
"  .........................+                               @.........................#  ",
"  .........................+                               @.........................#  ",
"  .........................+                               @.........................#  ",
"  .........................+                               @.........................#  ",
"  .........................+                               @.........................#  ",
"  .........................+                               @.........................#  ",
"  .........................+                               @.........................#  ",
"  .........................+                               @.........................#  ",
"  .........................+                               @.........................#  ",
"  .........................+                               @.........................#  ",
"  .........................+                               @.........................#  ",
"  .........................+                               @.........................#  ",
"  .........................+                               @.........................#  ",
"  $........................+                               @.........................%  ",
"  &........................+                               @.........................*  ",
"  =........................+                               @.........................-  ",
"  ;........................+                               @.........................>  ",
"  ,........................+                               @........................'   ",
"  )........................+                               @........................!   ",
"  ~........................+                               @........................{   ",
"  ]........................+                               @........................^   ",
"  /........................)                               (........................_   ",
"   =.......................:                               <........................[   ",
"   }.......................$|                              1.......................2    ",
"   3........................(                             4........................5    ",
"   67.......................89                           0a........................b    ",
"    }........................cd                          e........................2d    ",
"    f.........................g0                        h.........................(     ",
"     i.........................jkl                   mno.........................'|     ",
"     p...........................................................................q      ",
"      {.........................................................................rs      ",
"      t7........................................................................u       ",
"       v.......................................................................w        ",
"       xy.....................................................................zA        ",
"        AB...................................................................CD         ",
"         /z.................................................................$E          ",
"          Fz...............................................................$G           ",
"           /B.............................................................'4            ",
"            Ay...........................................................;H             ",
"             xv7........................................................)6              ",
"               t{.....................................................1I                ",
"                 pi.................................................zhJ                 ",
"                   f}7...........................................K:30                   ",
"                     63}=.....................................'LM-                      ",
"                         /]~),;=&$...................N'OPjQeRSd                         ",
"                                                                                        ",
"                                                                                        ",
"                                                                                        ",
"                                                                                        ",
"                                                                                        ",
"                                                                                        ",
"                                                                                        ",
"                                                                                        ",
"                                                                                        ",
"                                                                                        ",
"                                                                                        ",
"                                                                                        ",
"                                                                                        "};
