/* XPM */
static char * v_xpm[] = {
"94 80 93 2",
"  	c #000000",
". 	c #FFFFFF",
"+ 	c #F0F0F0",
"@ 	c #353535",
"# 	c #8B8B8B",
"$ 	c #CACACA",
"% 	c #BABABA",
"& 	c #1C1C1C",
"* 	c #EAEAEA",
"= 	c #FAFAFA",
"- 	c #5D5D5D",
"; 	c #ADADAD",
"> 	c #D2D2D2",
", 	c #4B4B4B",
"' 	c #F6F6F6",
") 	c #848484",
"! 	c #C8C8C8",
"~ 	c #E7E7E7",
"{ 	c #161616",
"] 	c #747474",
"^ 	c #FDFDFD",
"/ 	c #A7A7A7",
"( 	c #DFDFDF",
"_ 	c #F4F4F4",
": 	c #424242",
"< 	c #9A9A9A",
"[ 	c #DBDBDB",
"} 	c #C3C3C3",
"| 	c #323232",
"1 	c #EFEFEF",
"2 	c #969696",
"3 	c #6F6F6F",
"4 	c #FCFCFC",
"5 	c #6B6B6B",
"6 	c #B9B9B9",
"7 	c #DEDEDE",
"8 	c #C7C7C7",
"9 	c #DADADA",
"0 	c #909090",
"a 	c #C9C9C9",
"b 	c #AFAFAF",
"c 	c #ECECEC",
"d 	c #262626",
"e 	c #F8F8F8",
"f 	c #515151",
"g 	c #222222",
"h 	c #B1B1B1",
"i 	c #B2B2B2",
"j 	c #919191",
"k 	c #EDEDED",
"l 	c #2A2A2A",
"m 	c #CBCBCB",
"n 	c #454545",
"o 	c #797979",
"p 	c #C4C4C4",
"q 	c #E1E1E1",
"r 	c #6D6D6D",
"s 	c #9D9D9D",
"t 	c #949494",
"u 	c #5E5E5E",
"v 	c #B4B4B4",
"w 	c #D3D3D3",
"x 	c #545454",
"y 	c #868686",
"z 	c #CECECE",
"A 	c #7D7D7D",
"B 	c #FEFEFE",
"C 	c #A8A8A8",
"D 	c #0D0D0D",
"E 	c #E3E3E3",
"F 	c #F5F5F5",
"G 	c #A2A2A2",
"H 	c #3A3A3A",
"I 	c #F2F2F2",
"J 	c #BFBFBF",
"K 	c #666666",
"L 	c #FBFBFB",
"M 	c #929292",
"N 	c #D8D8D8",
"O 	c #8D8D8D",
"P 	c #535353",
"Q 	c #CCCCCC",
"R 	c #4D4D4D",
"S 	c #7A7A7A",
"T 	c #E2E2E2",
"U 	c #757575",
"V 	c #9F9F9F",
"W 	c #E0E0E0",
"X 	c #F1F1F1",
"Y 	c #383838",
"Z 	c #9C9C9C",
"` 	c #C1C1C1",
" .	c #EEEEEE",
"                                                                                                                                                                                            ",
"                                                                                                                                                                                            ",
"                                                                                                                                                                                            ",
"    . . . . . . . . . . . . . . . . . . . . . + @                                                                                         # . . . . . . . . . . . . . . . . . . . . . $     ",
"    . . . . . . . . . . . . . . . . . . . . . . %                                                                                       & * . . . . . . . . . . . . . . . . . . . . . $     ",
"    . . . . . . . . . . . . . . . . . . . . . . = -                                                                                     ; . . . . . . . . . . . . . . . . . . . . . . $     ",
"    . . . . . . . . . . . . . . . . . . . . . . . >                                                                                   , ' . . . . . . . . . . . . . . . . . . . . . . $     ",
"    . . . . . . . . . . . . . . . . . . . . . . . . )                                                                                 ! . . . . . . . . . . . . . . . . . . . . . . . $     ",
"    . . . . . . . . . . . . . . . . . . . . . . . . ~ {                                                                             ] ^ . . . . . . . . . . . . . . . . . . . . . . . $     ",
"    . . . . . . . . . . . . . . . . . . . . . . . . . /                                                                             ( . . . . . . . . . . . . . . . . . . . . . . . . $     ",
"    . . . . . . . . . . . . . . . . . . . . . . . . . _ :                                                                         < . . . . . . . . . . . . . . . . . . . . . . . . . $     ",
"    [ . . . . . . . . . . . . . . . . . . . . . . . . . }                                                                       | 1 . . . . . . . . . . . . . . . . . . . . . . . . . 2     ",
"    3 4 . . . . . . . . . . . . . . . . . . . . . . . . 4 5                                                                     6 . . . . . . . . . . . . . . . . . . . . . . . . . 7       ",
"      8 . . . . . . . . . . . . . . . . . . . . . . . . . 9                                                                   - = . . . . . . . . . . . . . . . . . . . . . . . . ^ ]       ",
"      , ' . . . . . . . . . . . . . . . . . . . . . . . . . 0                                                                 > . . . . . . . . . . . . . . . . . . . . . . . . . a         ",
"        b . . . . . . . . . . . . . . . . . . . . . . . . . c d                                                             ) . . . . . . . . . . . . . . . . . . . . . . . . . e f         ",
"        g c . . . . . . . . . . . . . . . . . . . . . . . . . h                                                           { ~ . . . . . . . . . . . . . . . . . . . . . . . . . i           ",
"          j . . . . . . . . . . . . . . . . . . . . . . . . . e f                                                         / . . . . . . . . . . . . . . . . . . . . . . . . . k l           ",
"            [ . . . . . . . . . . . . . . . . . . . . . . . . . m                                                       n _ . . . . . . . . . . . . . . . . . . . . . . . . . 2             ",
"            3 4 . . . . . . . . . . . . . . . . . . . . . . . . ^ o                                                     p . . . . . . . . . . . . . . . . . . . . . . . . . 7               ",
"              8 . . . . . . . . . . . . . . . . . . . . . . . . . q                                                   r 4 . . . . . . . . . . . . . . . . . . . . . . . . ^ ]               ",
"              , ' . . . . . . . . . . . . . . . . . . . . . . . . . s                                                 [ . . . . . . . . . . . . . . . . . . . . . . . . . a                 ",
"                b . . . . . . . . . . . . . . . . . . . . . . . . . + @                                             t . . . . . . . . . . . . . . . . . . . . . . . . . e f                 ",
"                g c . . . . . . . . . . . . . . . . . . . . . . . . . %                                           l k . . . . . . . . . . . . . . . . . . . . . . . . . i                   ",
"                  j . . . . . . . . . . . . . . . . . . . . . . . . . = u                                         v . . . . . . . . . . . . . . . . . . . . . . . . . k l                   ",
"                    [ . . . . . . . . . . . . . . . . . . . . . . . . . w                                       x e . . . . . . . . . . . . . . . . . . . . . . . . . 2                     ",
"                    3 4 . . . . . . . . . . . . . . . . . . . . . . . . . y                                     z . . . . . . . . . . . . . . . . . . . . . . . . . 7                       ",
"                      8 . . . . . . . . . . . . . . . . . . . . . . . . . ~ {                                 A B . . . . . . . . . . . . . . . . . . . . . . . . ^ ]                       ",
"                      , ' . . . . . . . . . . . . . . . . . . . . . . . . . C                               D E . . . . . . . . . . . . . . . . . . . . . . . . . a                         ",
"                        b . . . . . . . . . . . . . . . . . . . . . . . . . F n                             G . . . . . . . . . . . . . . . . . . . . . . . . . e f                         ",
"                        g c . . . . . . . . . . . . . . . . . . . . . . . . . p                           H I . . . . . . . . . . . . . . . . . . . . . . . . . i                           ",
"                          j . . . . . . . . . . . . . . . . . . . . . . . . . 4 r                         J . . . . . . . . . . . . . . . . . . . . . . . . . k l                           ",
"                            [ . . . . . . . . . . . . . . . . . . . . . . . . . [                       K L . . . . . . . . . . . . . . . . . . . . . . . . . 2                             ",
"                            3 4 . . . . . . . . . . . . . . . . . . . . . . . . . M                     N . . . . . . . . . . . . . . . . . . . . . . . . . 7                               ",
"                              8 . . . . . . . . . . . . . . . . . . . . . . . . . k d                 O . . . . . . . . . . . . . . . . . . . . . . . . . ^ ]                               ",
"                              , ' . . . . . . . . . . . . . . . . . . . . . . . . . i               g * . . . . . . . . . . . . . . . . . . . . . . . . . a                                 ",
"                                b . . . . . . . . . . . . . . . . . . . . . . . . . e P             b . . . . . . . . . . . . . . . . . . . . . . . . . e f                                 ",
"                                g c . . . . . . . . . . . . . . . . . . . . . . . . . Q           R ' . . . . . . . . . . . . . . . . . . . . . . . . . i                                   ",
"                                  j . . . . . . . . . . . . . . . . . . . . . . . . . ^ S         a . . . . . . . . . . . . . . . . . . . . . . . . . k l                                   ",
"                                    [ . . . . . . . . . . . . . . . . . . . . . . . . . T       U ^ . . . . . . . . . . . . . . . . . . . . . . . . . 2                                     ",
"                                    3 4 . . . . . . . . . . . . . . . . . . . . . . . . . V     W . . . . . . . . . . . . . . . . . . . . . . . . . 7                                       ",
"                                      8 . . . . . . . . . . . . . . . . . . . . . . . . . X Y Z . . . . . . . . . . . . . . . . . . . . . . . . . ^ ]                                       ",
"                                      , ' . . . . . . . . . . . . . . . . . . . . . . . . . ` + . . . . . . . . . . . . . . . . . . . . . . . . . a                                         ",
"                                        b . . . . . . . . . . . . . . . . . . . . . . . . . . . . . . . . . . . . . . . . . . . . . . . . . . . e f                                         ",
"                                        g c . . . . . . . . . . . . . . . . . . . . . . . . . . . . . . . . . . . . . . . . . . . . . . . . . . i                                           ",
"                                          j . . . . . . . . . . . . . . . . . . . . . . . . . . . . . . . . . . . . . . . . . . . . . . . . . k l                                           ",
"                                            [ . . . . . . . . . . . . . . . . . . . . . . . . . . . . . . . . . . . . . . . . . . . . . . . . 2                                             ",
"                                            3 4 . . . . . . . . . . . . . . . . . . . . . . . . . . . . . . . . . . . . . . . . . . . . . . 7                                               ",
"                                              8 . . . . . . . . . . . . . . . . . . . . . . . . . . . . . . . . . . . . . . . . . . . . . ^ ]                                               ",
"                                              , ' . . . . . . . . . . . . . . . . . . . . . . . . . . . . . . . . . . . . . . . . . . . . a                                                 ",
"                                                b . . . . . . . . . . . . . . . . . . . . . . . . . . . . . . . . . . . . . . . . . . . e f                                                 ",
"                                                g c . . . . . . . . . . . . . . . . . . . . . . . . . . . . . . . . . . . . . . . . . . i                                                   ",
"                                                  j . . . . . . . . . . . . . . . . . . . . . . . . . . . . . . . . . . . . . . . . . k l                                                   ",
"                                                    [ . . . . . . . . . . . . . . . . . . . . . . . . . . . . . . . . . . . . . . . . 2                                                     ",
"                                                    3 4 . . . . . . . . . . . . . . . . . . . . . . . . . . . . . . . . . . . . . . 7                                                       ",
"                                                      8 . . . . . . . . . . . . . . . . . . . . . . . . . . . . . . . . . . . . . ^ ]                                                       ",
"                                                      , ' . . . . . . . . . . . . . . . . . . . . . . . . . . . . . . . . . . . . a                                                         ",
"                                                        b . . . . . . . . . . . . . . . . . . . . . . . . . . . . . . . . . . . e f                                                         ",
"                                                        g c . . . . . . . . . . . . . . . . . . . . . . . . . . . . . . . . . . i                                                           ",
"                                                          j . . . . . . . . . . . . . . . . . . . . . . . . . . . . . . . . . k l                                                           ",
"                                                            [ . . . . . . . . . . . . . . . . . . . . . . . . . . . . . . . . 2                                                             ",
"                                                            3 4 . . . . . . . . . . . . . . . . . . . . . . . . . . . . . . 7                                                               ",
"                                                              8 . . . . . . . . . . . . . . . . . . . . . . . . . . . . . ^ ]                                                               ",
"                                                              , ' . . . . . . . . . . . . . . . . . . . . . . . . . . . . a                                                                 ",
"                                                                b . . . . . . . . . . . . . . . . . . . . . . . . . . . e f                                                                 ",
"                                                                g c . . . . . . . . . . . . . . . . . . . . . . . . . . i                                                                   ",
"                                                                  j . . . . . . . . . . . . . . . . . . . . . . . . .  .l                                                                   ",
"                                                                                                                                                                                            ",
"                                                                                                                                                                                            ",
"                                                                                                                                                                                            ",
"                                                                                                                                                                                            ",
"                                                                                                                                                                                            ",
"                                                                                                                                                                                            ",
"                                                                                                                                                                                            ",
"                                                                                                                                                                                            ",
"                                                                                                                                                                                            ",
"                                                                                                                                                                                            ",
"                                                                                                                                                                                            ",
"                                                                                                                                                                                            ",
"                                                                                                                                                                                            "};
