/* XPM */
static char * w_xpm[] = {
"94 80 74 1",
" 	c #000000",
".	c #FFFFFF",
"+	c #C9C9C9",
"@	c #383838",
"#	c #515151",
"$	c #E9E9E9",
"%	c #BABABA",
"&	c #D5D5D5",
"*	c #F8F8F8",
"=	c #F3F3F3",
"-	c #6E6E6E",
";	c #B6B6B6",
">	c #F4F4F4",
",	c #6F6F6F",
"'	c #707070",
")	c #727272",
"!	c #F5F5F5",
"~	c #737373",
"{	c #FCFCFC",
"]	c #747474",
"^	c #C6C6C6",
"/	c #C0C0C0",
"(	c #ECECEC",
"_	c #757575",
":	c #AEAEAE",
"<	c #DADADA",
"[	c #767676",
"}	c #939393",
"|	c #BCBCBC",
"1	c #535353",
"2	c #858585",
"3	c #F6F6F6",
"4	c #787878",
"5	c #161616",
"6	c #F2F2F2",
"7	c #797979",
"8	c #B9B9B9",
"9	c #B8B8B8",
"0	c #FBFBFB",
"a	c #545454",
"b	c #424242",
"c	c #7A7A7A",
"d	c #C3C3C3",
"e	c #A0A0A0",
"f	c #7C7C7C",
"g	c #F0F0F0",
"h	c #454545",
"i	c #CECECE",
"j	c #F7F7F7",
"k	c #828282",
"l	c #262626",
"m	c #EEEEEE",
"n	c #AAAAAA",
"o	c #999999",
"p	c #D2D2D2",
"q	c #7D7D7D",
"r	c #8F8F8F",
"s	c #F1F1F1",
"t	c #9A9A9A",
"u	c #3A3A3A",
"v	c #C5C5C5",
"w	c #FDFDFD",
"x	c #DDDDDD",
"y	c #616161",
"z	c #FEFEFE",
"A	c #DFDFDF",
"B	c #919191",
"C	c #FAFAFA",
"D	c #9C9C9C",
"E	c #2E2E2E",
"F	c #606060",
"G	c #E5E5E5",
"H	c #D0D0D0",
"I	c #5B5B5B",
"                                                                                              ",
"                                                                                              ",
"                                                                                              ",
"  .........................+                                      .........................+  ",
"  .........................+                                      .........................+  ",
"  .........................+                                      .........................+  ",
"  .........................+                                      .........................+  ",
"  .........................+                                      .........................+  ",
"  .........................+                                      .........................+  ",
"  .........................+                                      .........................+  ",
"  .........................+                                      .........................+  ",
"  .........................+                                      .........................+  ",
"  .........................+                                      .........................+  ",
"  .........................+                                      .........................+  ",
"  .........................+                                      .........................+  ",
"  .........................+                  @                   .........................+  ",
"  .........................+                 #$%                  .........................+  ",
"  .........................+                #$..%                 .........................+  ",
"  .........................+               #$....%                .........................+  ",
"  .........................+              #$......%               .........................+  ",
"  .........................+             #$........%              .........................+  ",
"  .........................+            #$..........%             .........................+  ",
"  .........................+           #$............%            .........................+  ",
"  .........................+          #$..............%           .........................+  ",
"  .........................+         #$................%          .........................+  ",
"  .........................+        #$..................%         .........................+  ",
"  .........................+       #$....................%        .........................+  ",
"  .........................+      #$......................%       .........................+  ",
"  .........................+     #$........................%      .........................+  ",
"  .........................+    #$..........................%     .........................+  ",
"  .........................+   #$............................%    .........................+  ",
"  .........................+  #$..............................%   .........................+  ",
"  .........................+ #$................................%  .........................+  ",
"  .........................+#$..................................% .........................+  ",
"  .........................&$....................................%.........................+  ",
"  .........................................................................................+  ",
"  .........................................................................................+  ",
"  .........................................................................................+  ",
"  .........................................................................................+  ",
"  .........................................................................................+  ",
"  .........................................................................................+  ",
"  .........................................................................................+  ",
"  .........................................................................................+  ",
"  ............................................*............................................+  ",
"  ...........................................=-;...........................................+  ",
"  ..........................................>,  ;..........................................+  ",
"  .........................................>'    ;.........................................+  ",
"  ........................................>'      ;........................................+  ",
"  .......................................>)        ;.......................................+  ",
"  ......................................!)          ;......................................+  ",
"  .....................................!~            ;.....................................+  ",
"  {...................................!]              ;....................................^  ",
"  *..................................!]                ;.................................../  ",
"  (.................................!_                  ;..................................:  ",
"  <................................![                    ;.................................}  ",
"  |...............................![                      ;................................1  ",
"  2..............................34                        ;..............................$   ",
"  56............................37                          ;.............................8   ",
"   9...........................37                            ;...........................0a   ",
"   b>.........................3c                              ;..........................d    ",
"    e........................3f                                ;........................gh    ",
"     i......................jf                                  ;......................0k     ",
"     l<....................m_                                    n0...................{o      ",
"      li..................ph                                      qm.................jr       ",
"        e>..............st                                         uvw..............xy        ",
"         b96..........!;u                                            '&w.........zAB          ",
"           52|<(*{CmpDE                                                F;A!wC>GHnI            ",
"                                                                                              ",
"                                                                                              ",
"                                                                                              ",
"                                                                                              ",
"                                                                                              ",
"                                                                                              ",
"                                                                                              ",
"                                                                                              ",
"                                                                                              ",
"                                                                                              ",
"                                                                                              ",
"                                                                                              ",
"                                                                                              "};
