/* XPM */
static char * x_xpm[] = {
"94 80 119 2",
"  	c #000000",
". 	c #FFFFFF",
"+ 	c #FDFDFD",
"@ 	c #AAAAAA",
"# 	c #383838",
"$ 	c #D9D9D9",
"% 	c #EAEAEA",
"& 	c #BFBFBF",
"* 	c #0D0D0D",
"= 	c #535353",
"- 	c #E5E5E5",
"; 	c #D0D0D0",
"> 	c #262626",
", 	c #6B6B6B",
"' 	c #EEEEEE",
") 	c #DFDFDF",
"! 	c #454545",
"~ 	c #848484",
"{ 	c #F5F5F5",
"] 	c #E9E9E9",
"^ 	c #5D5D5D",
"/ 	c #9B9B9B",
"( 	c #FAFAFA",
"_ 	c #F1F1F1",
": 	c #747474",
"< 	c #B0B0B0",
"[ 	c #E7E7E7",
"} 	c #F8F8F8",
"| 	c #8B8B8B",
"1 	c #161616",
"2 	c #C5C5C5",
"3 	c #3D3D3D",
"4 	c #DCDCDC",
"5 	c #FCFCFC",
"6 	c #A1A1A1",
"7 	c #323232",
"8 	c #D6D6D6",
"9 	c #FEFEFE",
"0 	c #B2B2B2",
"a 	c #222222",
"b 	c #B7B7B7",
"c 	c #4D4D4D",
"d 	c #E3E3E3",
"e 	c #FBFBFB",
"f 	c #A0A0A0",
"g 	c #BEBEBE",
"h 	c #CACACA",
"i 	c #1C1C1C",
"j 	c #666666",
"k 	c #EDEDED",
"l 	c #7E7E7E",
"m 	c #F4F4F4",
"n 	c #F2F2F2",
"o 	c #969696",
"p 	c #808080",
"q 	c #ACACAC",
"r 	c #E0E0E0",
"s 	c #474747",
"t 	c #EFEFEF",
"u 	c #828282",
"v 	c #C1C1C1",
"w 	c #D3D3D3",
"x 	c #2E2E2E",
"y 	c #545454",
"z 	c #989898",
"A 	c #C3C3C3",
"B 	c #AEAEAE",
"C 	c #E1E1E1",
"D 	c #616161",
"E 	c #EBEBEB",
"F 	c #F3F3F3",
"G 	c #F6F6F6",
"H 	c #858585",
"I 	c #F0F0F0",
"J 	c #6F6F6F",
"K 	c #E8E8E8",
"L 	c #585858",
"M 	c #DDDDDD",
"N 	c #404040",
"O 	c #CFCFCF",
"P 	c #959595",
"Q 	c #7F7F7F",
"R 	c #6A6A6A",
"S 	c #DADADA",
"T 	c #3A3A3A",
"U 	c #CBCBCB",
"V 	c #BABABA",
"W 	c #DBDBDB",
"X 	c #A5A5A5",
"Y 	c #CCCCCC",
"Z 	c #BDBDBD",
"` 	c #838383",
" .	c #CECECE",
"..	c #ADADAD",
"+.	c #C2C2C2",
"@.	c #D2D2D2",
"#.	c #2A2A2A",
"$.	c #5E5E5E",
"%.	c #757575",
"&.	c #8C8C8C",
"*.	c #696969",
"=.	c #B6B6B6",
"-.	c #999999",
";.	c #E2E2E2",
">.	c #C9C9C9",
",.	c #353535",
"'.	c #D8D8D8",
").	c #E4E4E4",
"!.	c #515151",
"~.	c #E6E6E6",
"{.	c #B5B5B5",
"].	c #A6A6A6",
"^.	c #B8B8B8",
"/.	c #888888",
"(.	c #787878",
"_.	c #676767",
":.	c #565656",
"<.	c #D1D1D1",
"[.	c #C0C0C0",
"                                                                                                                                                                                            ",
"                                                                                                                                                                                            ",
"                                                                                                                                                                                            ",
"    . . . . . . . . . . . . . . . . . . . . . . . . + @                                                                           # $ . . . . . . . . . . . . . . . . . . . . . . . %       ",
"    . . . . . . . . . . . . . . . . . . . . . . . . . . & *                                                                     = - . . . . . . . . . . . . . . . . . . . . . . . . %       ",
"    . . . . . . . . . . . . . . . . . . . . . . . . . . . ; >                                                                 , ' . . . . . . . . . . . . . . . . . . . . . . . . . %       ",
"    . . . . . . . . . . . . . . . . . . . . . . . . . . . . ) !                                                             ~ { . . . . . . . . . . . . . . . . . . . . . . . . . . %       ",
"    . . . . . . . . . . . . . . . . . . . . . . . . . . . . . ] ^                                                         / ( . . . . . . . . . . . . . . . . . . . . . . . . . . . %       ",
"    . . . . . . . . . . . . . . . . . . . . . . . . . . . . . . _ :                                                     < + . . . . . . . . . . . . . . . . . . . . . . . . . . . . %       ",
"    [ . . . . . . . . . . . . . . . . . . . . . . . . . . . . . . } |                                               1 2 . . . . . . . . . . . . . . . . . . . . . . . . . . . . . . %       ",
"    3 4 . . . . . . . . . . . . . . . . . . . . . . . . . . . . . . 5 6                                           7 8 . . . . . . . . . . . . . . . . . . . . . . . . . . . . . . 9 0       ",
"      a ; . . . . . . . . . . . . . . . . . . . . . . . . . . . . . . . b                                       c d . . . . . . . . . . . . . . . . . . . . . . . . . . . . . . e f         ",
"          g . . . . . . . . . . . . . . . . . . . . . . . . . . . . . . . h i                                 j k . . . . . . . . . . . . . . . . . . . . . . . . . . . . . . } |           ",
"            @ + . . . . . . . . . . . . . . . . . . . . . . . . . . . . . . $ #                             l m . . . . . . . . . . . . . . . . . . . . . . . . . . . . . . n :             ",
"              o ( . . . . . . . . . . . . . . . . . . . . . . . . . . . . . . - =                         o ( . . . . . . . . . . . . . . . . . . . . . . . . . . . . . . % ^               ",
"                p { . . . . . . . . . . . . . . . . . . . . . . . . . . . . . . ' ,                     q + . . . . . . . . . . . . . . . . . . . . . . . . . . . . . . r s                 ",
"                  , t . . . . . . . . . . . . . . . . . . . . . . . . . . . . . . { u               * v . . . . . . . . . . . . . . . . . . . . . . . . . . . . . . . w x                   ",
"                    y [ . . . . . . . . . . . . . . . . . . . . . . . . . . . . . . ( z           x w . . . . . . . . . . . . . . . . . . . . . . . . . . . . . . . A *                     ",
"                      3 4 . . . . . . . . . . . . . . . . . . . . . . . . . . . . . . + B       s C . . . . . . . . . . . . . . . . . . . . . . . . . . . . . . + <                         ",
"                        a ; . . . . . . . . . . . . . . . . . . . . . . . . . . . . . . . A * D E . . . . . . . . . . . . . . . . . . . . . . . . . . . . . . ( /                           ",
"                            g . . . . . . . . . . . . . . . . . . . . . . . . . . . . . . . $ F . . . . . . . . . . . . . . . . . . . . . . . . . . . . . . G H                             ",
"                              @ + . . . . . . . . . . . . . . . . . . . . . . . . . . . . . . . . . . . . . . . . . . . . . . . . . . . . . . . . . . . . I J                               ",
"                                o ( . . . . . . . . . . . . . . . . . . . . . . . . . . . . . . . . . . . . . . . . . . . . . . . . . . . . . . . . . . K L                                 ",
"                                  p { . . . . . . . . . . . . . . . . . . . . . . . . . . . . . . . . . . . . . . . . . . . . . . . . . . . . . . . . M N                                   ",
"                                    , t . . . . . . . . . . . . . . . . . . . . . . . . . . . . . . . . . . . . . . . . . . . . . . . . . . . . . . O >                                     ",
"                                      y [ . . . . . . . . . . . . . . . . . . . . . . . . . . . . . . . . . . . . . . . . . . . . . . . . . . . . g                                         ",
"                                        3 4 . . . . . . . . . . . . . . . . . . . . . . . . . . . . . . . . . . . . . . . . . . . . . . . . . + @                                           ",
"                                          a ; . . . . . . . . . . . . . . . . . . . . . . . . . . . . . . . . . . . . . . . . . . . . . . . ( P                                             ",
"                                              g . . . . . . . . . . . . . . . . . . . . . . . . . . . . . . . . . . . . . . . . . . . . . { Q                                               ",
"                                                @ + . . . . . . . . . . . . . . . . . . . . . . . . . . . . . . . . . . . . . . . . . . ' R                                                 ",
"                                                  o ( . . . . . . . . . . . . . . . . . . . . . . . . . . . . . . . . . . . . . . . . - =                                                   ",
"                                                    p { . . . . . . . . . . . . . . . . . . . . . . . . . . . . . . . . . . . . . . S T                                                     ",
"                                                      , t . . . . . . . . . . . . . . . . . . . . . . . . . . . . . . . . . . . . U i                                                       ",
"                                                        y [ . . . . . . . . . . . . . . . . . . . . . . . . . . . . . . . . . . V                                                           ",
"                                                          3 W . . . . . . . . . . . . . . . . . . . . . . . . . . . . . . . 5 X                                                             ",
"                                                          3 W . . . . . . . . . . . . . . . . . . . . . . . . . . . . . . . 5 X                                                             ",
"                                                        y [ . . . . . . . . . . . . . . . . . . . . . . . . . . . . . . . . . . V                                                           ",
"                                                      , t . . . . . . . . . . . . . . . . . . . . . . . . . . . . . . . . . . . . Y a                                                       ",
"                                                    p { . . . . . . . . . . . . . . . . . . . . . . . . . . . . . . . . . . . . . . W T                                                     ",
"                                                  o ( . . . . . . . . . . . . . . . . . . . . . . . . . . . . . . . . . . . . . . . . [ y                                                   ",
"                                                @ + . . . . . . . . . . . . . . . . . . . . . . . . . . . . . . . . . . . . . . . . . . t ,                                                 ",
"                                              Z . . . . . . . . . . . . . . . . . . . . . . . . . . . . . . . . . . . . . . . . . . . . . { `                                               ",
"                                          a  .. . . . . . . . . . . . . . . . . . . . . . . . . . . . . . . . . . . . . . . . . . . . . . . ( z                                             ",
"                                        3 W . . . . . . . . . . . . . . . . . . . . . . . . . . . . . . . . . . . . . . . . . . . . . . . . . + ..                                          ",
"                                      y [ . . . . . . . . . . . . . . . . . . . . . . . . . . . . . . . . . . . . . . . . . . . . . . . . . . . . +.*                                       ",
"                                    , t . . . . . . . . . . . . . . . . . . . . . . . . . . . . . . . . . . . . . . . . . . . . . . . . . . . . . . @.#.                                    ",
"                                  p { . . . . . . . . . . . . . . . . . . . . . . . . . . . . . . . . . . . . . . . . . . . . . . . . . . . . . . . . r s                                   ",
"                                o ( . . . . . . . . . . . . . . . . . . . . . . . . . . . . . . . . . . . . . . . . . . . . . . . . . . . . . . . . . . % $.                                ",
"                              @ + . . . . . . . . . . . . . . . . . . . . . . . . . . . . . . . . . . . . . . . . . . . . . . . . . . . . . . . . . . . . n %.                              ",
"                            Z . . . . . . . . . . . . . . . . . . . . . . . . . . . . . . . $ m . . . . . . . . . . . . . . . . . . . . . . . . . . . . . . } &.                            ",
"                        a  .. . . . . . . . . . . . . . . . . . . . . . . . . . . . . . . A * *.t . . . . . . . . . . . . . . . . . . . . . . . . . . . . . . 5 6                           ",
"                      3 4 . . . . . . . . . . . . . . . . . . . . . . . . . . . . . . + B       L ] . . . . . . . . . . . . . . . . . . . . . . . . . . . . . . 9 =.                        ",
"                    y [ . . . . . . . . . . . . . . . . . . . . . . . . . . . . . . ( -.          s ;.. . . . . . . . . . . . . . . . . . . . . . . . . . . . . . . >.i                     ",
"                  , t . . . . . . . . . . . . . . . . . . . . . . . . . . . . . . { u               ,.$ . . . . . . . . . . . . . . . . . . . . . . . . . . . . . . . '.#                   ",
"                p { . . . . . . . . . . . . . . . . . . . . . . . . . . . . . . ' ,                   a O . . . . . . . . . . . . . . . . . . . . . . . . . . . . . . . ).!.                ",
"              o ( . . . . . . . . . . . . . . . . . . . . . . . . . . . . . . ~.=                       * A . . . . . . . . . . . . . . . . . . . . . . . . . . . . . . . ' *.              ",
"            @ + . . . . . . . . . . . . . . . . . . . . . . . . . . . . . . $ T                             {.. . . . . . . . . . . . . . . . . . . . . . . . . . . . . . . { l             ",
"          g . . . . . . . . . . . . . . . . . . . . . . . . . . . . . . . U i                                 ].+ . . . . . . . . . . . . . . . . . . . . . . . . . . . . . . ( P           ",
"      a ; . . . . . . . . . . . . . . . . . . . . . . . . . . . . . . . ^.                                      o ( . . . . . . . . . . . . . . . . . . . . . . . . . . . . . . + @         ",
"    3 4 . . . . . . . . . . . . . . . . . . . . . . . . . . . . . . 5 6                                           /.} . . . . . . . . . . . . . . . . . . . . . . . . . . . . . . . V       ",
"    [ . . . . . . . . . . . . . . . . . . . . . . . . . . . . . . } &.                                              (.m . . . . . . . . . . . . . . . . . . . . . . . . . . . . . . %       ",
"    . . . . . . . . . . . . . . . . . . . . . . . . . . . . . . n :                                                   _.' . . . . . . . . . . . . . . . . . . . . . . . . . . . . . %       ",
"    . . . . . . . . . . . . . . . . . . . . . . . . . . . . . % ^                                                       :.] . . . . . . . . . . . . . . . . . . . . . . . . . . . . %       ",
"    . . . . . . . . . . . . . . . . . . . . . . . . . . . . ) !                                                           ! C . . . . . . . . . . . . . . . . . . . . . . . . . . . %       ",
"    . . . . . . . . . . . . . . . . . . . . . . . . . . . <.#.                                                              ,.$ . . . . . . . . . . . . . . . . . . . . . . . . . . %       ",
"    . . . . . . . . . . . . . . . . . . . . . . . . . . [.*                                                                   i  .. . . . . . . . . . . . . . . . . . . . . . . . . %       ",
"    . . . . . . . . . . . . . . . . . . . . . . . . + @                                                                         * +.. . . . . . . . . . . . . . . . . . . . . . . . %       ",
"                                                                                                                                                                                            ",
"                                                                                                                                                                                            ",
"                                                                                                                                                                                            ",
"                                                                                                                                                                                            ",
"                                                                                                                                                                                            ",
"                                                                                                                                                                                            ",
"                                                                                                                                                                                            ",
"                                                                                                                                                                                            ",
"                                                                                                                                                                                            ",
"                                                                                                                                                                                            ",
"                                                                                                                                                                                            ",
"                                                                                                                                                                                            ",
"                                                                                                                                                                                            "};
