/* XPM */
static char * y_xpm[] = {
"93 80 22 1",
" 	c #000000",
".	c #FFFFFF",
"+	c #FDFDFD",
"@	c #9C9C9C",
"#	c #1C1C1C",
"$	c #D3D3D3",
"%	c #EAEAEA",
"&	c #222222",
"*	c #D4D4D4",
"=	c #D5D5D5",
"-	c #515151",
";	c #D6D6D6",
">	c #B8B8B8",
",	c #262626",
"'	c #BABABA",
")	c #D7D7D7",
"!	c #D8D8D8",
"~	c #2A2A2A",
"{	c #D9D9D9",
"]	c #DADADA",
"^	c #A3A3A3",
"/	c #CACACA",
"                                                                                             ",
"                                                                                             ",
"                                                                                             ",
"  ........................+@                                     #$.......................%  ",
"  .........................+@                                   &*........................%  ",
"  ..........................+@                                 &*.........................%  ",
"  ...........................+@                               &=..........................%  ",
"  ............................+@                             &=...........................%  ",
"  .............................+@                           &=............................%  ",
"  %.............................+@                         &=.............................%  ",
"  -%.............................+@                       &;..............................>  ",
"   -%.............................+@                     ,;..............................'   ",
"    -%.............................+@                   ,)..............................'    ",
"     -%.............................+@                 ,)..............................'     ",
"      -%.............................+@               ,)..............................'      ",
"       -%.............................+@             ,!..............................'       ",
"        -%.............................+@           ~!..............................'        ",
"         -%.............................+@         ~!..............................'         ",
"          -%.............................+@       ~{..............................'          ",
"           -%.............................+@     ~{..............................'           ",
"            -%.............................+@   ~{..............................'            ",
"             -%.............................+@ ~]..............................'             ",
"              -%.............................+^]..............................'              ",
"               -%............................................................'               ",
"                -%..........................................................'                ",
"                 -%........................................................'                 ",
"                  -%......................................................'                  ",
"                   -%....................................................'                   ",
"                    -%..................................................'                    ",
"                     -%................................................'                     ",
"                      -%..............................................'                      ",
"                       -%............................................'                       ",
"                        -%..........................................'                        ",
"                         -%........................................'                         ",
"                          -%......................................'                          ",
"                           -%....................................'                           ",
"                            -%..................................'                            ",
"                             -%................................'                             ",
"                              -%..............................'                              ",
"                               -%............................'                               ",
"                                -%..........................'                                ",
"                                 -.........................=                                 ",
"                                  ........................./                                 ",
"                                  ........................./                                 ",
"                                  ........................./                                 ",
"                                  ........................./                                 ",
"                                  ........................./                                 ",
"                                  ........................./                                 ",
"                                  ........................./                                 ",
"                                  ........................./                                 ",
"                                  ........................./                                 ",
"                                  ........................./                                 ",
"                                  ........................./                                 ",
"                                  ........................./                                 ",
"                                  ........................./                                 ",
"                                  ........................./                                 ",
"                                  ........................./                                 ",
"                                  ........................./                                 ",
"                                  ........................./                                 ",
"                                  ........................./                                 ",
"                                  ........................./                                 ",
"                                  ........................./                                 ",
"                                  ........................./                                 ",
"                                  ........................./                                 ",
"                                  ........................./                                 ",
"                                  ........................./                                 ",
"                                  ........................./                                 ",
"                                                                                             ",
"                                                                                             ",
"                                                                                             ",
"                                                                                             ",
"                                                                                             ",
"                                                                                             ",
"                                                                                             ",
"                                                                                             ",
"                                                                                             ",
"                                                                                             ",
"                                                                                             ",
"                                                                                             ",
"                                                                                             "};
