/* XPM */
static char * a_xpm[] = {
"46 40 76 1",
" 	c #000000",
".	c #696969",
"+	c #A8A8A8",
"@	c #D0D0D0",
"#	c #E7E7E7",
"$	c #F1F1F1",
"%	c #FAFAFA",
"&	c #FFFFFF",
"*	c #FEFEFE",
"=	c #F7F7F7",
"-	c #EEEEEE",
";	c #DDDDDD",
">	c #B9B9B9",
",	c #797979",
"'	c #161616",
")	c #969696",
"!	c #E1E1E1",
"~	c #DCDCDC",
"{	c #707070",
"]	c #6E6E6E",
"^	c #E5E5E5",
"/	c #F8F8F8",
"(	c #929292",
"_	c #ACACAC",
":	c #E3E3E3",
"<	c #BCBCBC",
"[	c #7C7C7C",
"}	c #B3B3B3",
"|	c #636363",
"1	c #C5C5C5",
"2	c #DEDEDE",
"3	c #CECECE",
"4	c #787878",
"5	c #CCCCCC",
"6	c #959595",
"7	c #D6D6D6",
"8	c #222222",
"9	c #ECECEC",
"0	c #545454",
"a	c #A0A0A0",
"b	c #E4E4E4",
"c	c #7D7D7D",
"d	c #A7A7A7",
"e	c #7A7A7A",
"f	c #EDEDED",
"g	c #353535",
"h	c #666666",
"i	c #9E9E9E",
"j	c #DBDBDB",
"k	c #ABABAB",
"l	c #FDFDFD",
"m	c #FCFCFC",
"n	c #4D4D4D",
"o	c #B1B1B1",
"p	c #D8D8D8",
"q	c #E8E8E8",
"r	c #9C9C9C",
"s	c #737373",
"t	c #323232",
"u	c #C1C1C1",
"v	c #CDCDCD",
"w	c #F2F2F2",
"x	c #8A8A8A",
"y	c #8E8E8E",
"z	c #3D3D3D",
"A	c #F9F9F9",
"B	c #747474",
"C	c #A4A4A4",
"D	c #E9E9E9",
"E	c #B4B4B4",
"F	c #5D5D5D",
"G	c #5B5B5B",
"H	c #B6B6B6",
"I	c #DFDFDF",
"J	c #EBEBEB",
"K	c #A5A5A5",
"                                              ",
"                                              ",
"                                              ",
"                    .+@#$%&&&&&&&*=-;>,       ",
"                 ')!&&&&&&&&&&&&&&&&&&&~{     ",
"                ]^&&&&&&&&&&&&&&&&&&&&&&/(    ",
"               _%&&&&&&&&&&&&&&&&&&&&&&&&%,   ",
"              >&&&&&&&&&&&&&&&&&&&&&&&&&&&:   ",
"             <&&&&&&&&&&&&&&&&&&&&&&&&&&&&&[  ",
"            )&&&&&&&&&&&&&&&&&&&&&&&&&&&&&&}  ",
"           |=&&&&&&&&&&&&&&&&&&&&&&&&&&&&&&1  ",
"           2&&&&&&&&&&&&3|    4&&&&&&&&&&&&5  ",
"          6&&&&&&&&&&&&7      4&&&&&&&&&&&&5  ",
"         89&&&&&&&&&&&%0      4&&&&&&&&&&&&5  ",
"         a&&&&&&&&&&&&5       4&&&&&&&&&&&&5  ",
"         b&&&&&&&&&&&&cd&&&&&&&&&&&&&&&&&&&5  ",
"        e&&&&&&&&&&&&f d&&&&&&&&&&&&&&&&&&&5  ",
"        5&&&&&&&&&&&&> d&&&&&&&&&&&&&&&&&&&5  ",
"       g/&&&&&&&&&&&&h d&&&&&&&&&&&&&&&&&&&5  ",
"       i&&&&&&&&&&&&:  d&&&&&&&&&&&&&&&&&&&5  ",
"       j&&&&&&&&&&&&k  d&&&&&&&&&&&&&&&&&&&5  ",
"      0l&&&&&&&&&&&mn  d&&&&&&&&&&&&&&&&&&&5  ",
"      o&&&&&&&&&&&&p   d&&&&&&&&&&&&&&&&&&&5  ",
"      q&&&&&&&&&&&&r          4&&&&&&&&&&&&5  ",
"     s&&&&&&&&&&&&/t          4&&&&&&&&&&&&5  ",
"     u&&&&&&&&&&&&v           4&&&&&&&&&&&&5  ",
"    'w&&&&&&&&&&&&x           4&&&&&&&&&&&&5  ",
"    y&&&&&&&&&&&&$'           4&&&&&&&&&&&&5  ",
"    @&&&&&&&&&&&&u            4&&&&&&&&&&&&5  ",
"   zA&&&&&&&&&&&&B            4&&&&&&&&&&&&5  ",
"   C&&&&&&&&&&&&D             4&&&&&&&&&&&&5  ",
"   2&&&&&&&&&&&&E             4&&&&&&&&&&&&5  ",
"  Fl&&&&&&&&&&&lG             4&&&&&&&&&&&&5  ",
"  H&&&&&&&&&&&&I              4&&&&&&&&&&&&5  ",
"  J&&&&&&&&&&&&K              4&&&&&&&&&&&&5  ",
"                                              ",
"                                              ",
"                                              ",
"                                              ",
"                                              "};
