/* XPM */
static char * b_xpm[] = {
"46 40 43 1",
" 	c #000000",
".	c #FFFFFF",
"+	c #FEFEFE",
"@	c #F6F6F6",
"#	c #ECECEC",
"$	c #CECECE",
"%	c #9D9D9D",
"&	c #222222",
"*	c #EFEFEF",
"=	c #999999",
"-	c #BEBEBE",
";	c #B2B2B2",
">	c #FDFDFD",
",	c #767676",
"'	c #D7D7D7",
")	c #494949",
"!	c #9A9A9A",
"~	c #1C1C1C",
"{	c #757575",
"]	c #E1E1E1",
"^	c #B6B6B6",
"/	c #5E5E5E",
"(	c #C3C3C3",
"_	c #C1C1C1",
":	c #161616",
"<	c #727272",
"[	c #E0E0E0",
"}	c #B0B0B0",
"|	c #747474",
"1	c #E6E6E6",
"2	c #FCFCFC",
"3	c #7C7C7C",
"4	c #E7E7E7",
"5	c #C2C2C2",
"6	c #989898",
"7	c #474747",
"8	c #D5D5D5",
"9	c #F3F3F3",
"0	c #A3A3A3",
"a	c #FAFAFA",
"b	c #D8D8D8",
"c	c #A8A8A8",
"d	c #3A3A3A",
"                                              ",
"                                              ",
"                                              ",
"  ...............................+@#$%&       ",
"  ....................................*=      ",
"  ......................................-     ",
"  .......................................;    ",
"  .......................................>,   ",
"  ........................................'   ",
"  ........................................>)  ",
"  .........................................!  ",
"                           ~{].............^  ",
"                             /.............(  ",
"                             /............._  ",
"                           :<[.............}  ",
"  .........................................|  ",
"  ........................................1   ",
"  .......................................23   ",
"  ......................................2!    ",
"  ......................................2=    ",
"  .......................................23   ",
"  ........................................1   ",
"  .........................................{  ",
"  ............4            ~{].............}  ",
"  ............4              /.............5  ",
"  ............4              /.............(  ",
"  ............4            :<[.............^  ",
"  .........................................6  ",
"  ........................................>7  ",
"  ........................................8   ",
"  .......................................2{   ",
"  .......................................;    ",
"  ......................................_     ",
"  ....................................90      ",
"  ................................a*bcd       ",
"                                              ",
"                                              ",
"                                              ",
"                                              ",
"                                              "};
