/* XPM */
static char * c_xpm[] = {
"43 40 37 1",
" 	c #000000",
".	c #1C1C1C",
"+	c #898989",
"@	c #BCBCBC",
"#	c #DADADA",
"$	c #ECECEC",
"%	c #F8F8F8",
"&	c #FCFCFC",
"*	c #FFFFFF",
"=	c #AAAAAA",
"-	c #4F4F4F",
";	c #BDBDBD",
">	c #F5F5F5",
",	c #ACACAC",
"'	c #F7F7F7",
")	c #353535",
"!	c #D7D7D7",
"~	c #E2E2E2",
"{	c #ADADAD",
"]	c #515151",
"^	c #BEBEBE",
"/	c #CBCBCB",
"(	c #545454",
"_	c #222222",
":	c #D8D8D8",
"<	c #8B8B8B",
"[	c #6B6B6B",
"}	c #F1F1F1",
"|	c #DBDBDB",
"1	c #E7E7E7",
"2	c #EDEDED",
"3	c #F4F4F4",
"4	c #CACACA",
"5	c #4D4D4D",
"6	c #D5D5D5",
"7	c #323232",
"8	c #E1E1E1",
"                                           ",
"                                           ",
"                                           ",
"           .+@#$%&**********************=  ",
"         -;>****************************=  ",
"        ,'******************************=  ",
"      )!********************************=  ",
"     )~*********************************=  ",
"     !**********************************=  ",
"    {***********************************=  ",
"   ]%***********************************=  ",
"   ^************/(                         ",
"  _>***********:                           ",
"  <************[                           ",
"  ^***********}                            ",
"  |***********1                            ",
"  2***********1                            ",
"  %***********1                            ",
"  &***********1                            ",
"  &***********1                            ",
"  %***********1                            ",
"  2***********1                            ",
"  |***********1                            ",
"  ;***********}                            ",
"  +************[                           ",
"  .3***********:                           ",
"   @************4(                         ",
"   5'***********************************=  ",
"    =***********************************=  ",
"     6**********************************=  ",
"     78*********************************=  ",
"      76********************************=  ",
"        ='******************************=  ",
"         5@3****************************=  ",
"           .+;|2%&**********************=  ",
"                                           ",
"                                           ",
"                                           ",
"                                           ",
"                                           "};
