/* XPM */
static char * D_xpm[] = {
"46 40 51 1",
" 	c #000000",
".	c #FFFFFF",
"+	c #FEFEFE",
"@	c #FAFAFA",
"#	c #F4F4F4",
"$	c #E6E6E6",
"%	c #D0D0D0",
"&	c #ACACAC",
"*	c #636363",
"=	c #E2E2E2",
"-	c #999999",
";	c #E3E3E3",
">	c #6E6E6E",
",	c #9C9C9C",
"'	c #FDFDFD",
")	c #A6A6A6",
"!	c #8F8F8F",
"~	c #535353",
"{	c #CBCBCB",
"]	c #1C1C1C",
"^	c #848484",
"/	c #EEEEEE",
"(	c #606060",
"_	c #666666",
":	c #BEBEBE",
"<	c #C4C4C4",
"[	c #ECECEC",
"}	c #939393",
"|	c #585858",
"1	c #E7E7E7",
"2	c #7C7C7C",
"3	c #959595",
"4	c #B0B0B0",
"5	c #C0C0C0",
"6	c #C6C6C6",
"7	c #BCBCBC",
"8	c #161616",
"9	c #838383",
"0	c #FCFCFC",
"a	c #5E5E5E",
"b	c #C9C9C9",
"c	c #F3F3F3",
"d	c #4F4F4F",
"e	c #8D8D8D",
"f	c #A4A4A4",
"g	c #F9F9F9",
"h	c #9A9A9A",
"i	c #6B6B6B",
"j	c #989898",
"k	c #FBFBFB",
"l	c #616161",
"                                              ",
"                                              ",
"                                              ",
"  .........................+@#$%&*            ",
"  ................................=-          ",
"  ..................................;>        ",
"  ...................................@,       ",
"  ....................................')      ",
"  .....................................'!     ",
"  ......................................#~    ",
"  .......................................{    ",
"                           ]^/...........'(   ",
"                             _@...........:   ",
"                              <...........[   ",
"                              }............|  ",
"  ............1               2............3  ",
"  ............1               2............4  ",
"  ............1               2............5  ",
"  ............1               2............6  ",
"  ............1               2............6  ",
"  ............1               2............5  ",
"  ............1               2............4  ",
"  ............1               2............3  ",
"  ............1               }............|  ",
"  ............1               <...........[   ",
"  ............1              _@...........7   ",
"  ............1            89/...........0a   ",
"  .......................................b    ",
"  ......................................cd    ",
"  .....................................0e     ",
"  ....................................'f      ",
"  ...................................gh       ",
"  ..................................=i        ",
"  ................................=j          ",
"  ..........................k#1%&l            ",
"                                              ",
"                                              ",
"                                              ",
"                                              ",
"                                              "};
