/* XPM */
static char * f_xpm[] = {
"36 40 29 1",
" 	c #000000",
".	c #1C1C1C",
"+	c #898989",
"@	c #BCBCBC",
"#	c #DADADA",
"$	c #ECECEC",
"%	c #F8F8F8",
"&	c #FCFCFC",
"*	c #FFFFFF",
"=	c #4F4F4F",
"-	c #BDBDBD",
";	c #F5F5F5",
">	c #ACACAC",
",	c #F7F7F7",
"'	c #353535",
")	c #D7D7D7",
"!	c #E2E2E2",
"~	c #ADADAD",
"{	c #515151",
"]	c #BEBEBE",
"^	c #FDFDFD",
"/	c #B2B2B2",
"(	c #494949",
"_	c #222222",
":	c #8B8B8B",
"<	c #EEEEEE",
"[	c #DBDBDB",
"}	c #EDEDED",
"|	c #E7E7E7",
"                                    ",
"                                    ",
"                                    ",
"           .+@#$%&****************  ",
"         =-;**********************  ",
"        >,************************  ",
"      ')**************************  ",
"     '!***************************  ",
"     )****************************  ",
"    ~*****************************  ",
"   {%*****************************  ",
"   ]***********^/(                  ",
"  _;***********@                    ",
"  :***********&(                    ",
"  ]***********<                     ",
"  [***********************          ",
"  }***********************          ",
"  %***********************          ",
"  &***********************          ",
"  ************************          ",
"  ************************          ",
"  ************************          ",
"  ************************          ",
"  ************|                     ",
"  ************|                     ",
"  ************|                     ",
"  ************|                     ",
"  ************|                     ",
"  ************|                     ",
"  ************|                     ",
"  ************|                     ",
"  ************|                     ",
"  ************|                     ",
"  ************|                     ",
"  ************|                     ",
"                                    ",
"                                    ",
"                                    ",
"                                    ",
"                                    "};
