/* XPM */
static char * g_xpm[] = {
"46 40 39 1",
" 	c #000000",
".	c #1C1C1C",
"+	c #898989",
"@	c #BCBCBC",
"#	c #DADADA",
"$	c #ECECEC",
"%	c #F8F8F8",
"&	c #FCFCFC",
"*	c #FFFFFF",
"=	c #CACACA",
"-	c #4F4F4F",
";	c #BDBDBD",
">	c #F5F5F5",
",	c #ACACAC",
"'	c #F7F7F7",
")	c #353535",
"!	c #D7D7D7",
"~	c #E2E2E2",
"{	c #ADADAD",
"]	c #515151",
"^	c #BEBEBE",
"/	c #CBCBCB",
"(	c #545454",
"_	c #222222",
":	c #D8D8D8",
"<	c #8B8B8B",
"[	c #6B6B6B",
"}	c #F1F1F1",
"|	c #DBDBDB",
"1	c #E7E7E7",
"2	c #EDEDED",
"3	c #161616",
"4	c #7C7C7C",
"5	c #F4F4F4",
"6	c #4D4D4D",
"7	c #AAAAAA",
"8	c #D5D5D5",
"9	c #323232",
"0	c #E1E1E1",
"                                              ",
"                                              ",
"                                              ",
"           .+@#$%&*************************=  ",
"         -;>*******************************=  ",
"        ,'*********************************=  ",
"      )!***********************************=  ",
"     )~************************************=  ",
"     !*************************************=  ",
"    {**************************************=  ",
"   ]%**************************************=  ",
"   ^************/(                            ",
"  _>***********:                              ",
"  <************[                              ",
"  ^***********}                               ",
"  |***********1                               ",
"  2***********1                ____________3  ",
"  %***********1               4************=  ",
"  &***********1               4************=  ",
"  &***********1               4************=  ",
"  %***********1               4************=  ",
"  2***********1               4************=  ",
"  |***********1               4************=  ",
"  ;***********}               4************=  ",
"  +************[              4************=  ",
"  .5***********:              4************=  ",
"   @************=(            4************=  ",
"   6'**************************************=  ",
"    7**************************************=  ",
"     8*************************************=  ",
"     90************************************=  ",
"      98***********************************=  ",
"        7'*********************************=  ",
"         6@5*******************************=  ",
"           .+;|2%&*************************=  ",
"                                              ",
"                                              ",
"                                              ",
"                                              ",
"                                              "};
