/* XPM */
static char * h_xpm[] = {
"46 40 10 1",
" 	c #000000",
".	c #FBFBFB",
"+	c #FCFCFC",
"@	c #FDFDFD",
"#	c #FEFEFE",
"$	c #E6E6E6",
"%	c #7C7C7C",
"&	c #FFFFFF",
"*	c #CACACA",
"=	c #E7E7E7",
"                                              ",
"                                              ",
"                                              ",
"  ....+++@@@##$               %&&&&&&&&&&&&*  ",
"  &&&&&&&&&&&&=               %&&&&&&&&&&&&*  ",
"  &&&&&&&&&&&&=               %&&&&&&&&&&&&*  ",
"  &&&&&&&&&&&&=               %&&&&&&&&&&&&*  ",
"  &&&&&&&&&&&&=               %&&&&&&&&&&&&*  ",
"  &&&&&&&&&&&&=               %&&&&&&&&&&&&*  ",
"  &&&&&&&&&&&&=               %&&&&&&&&&&&&*  ",
"  &&&&&&&&&&&&=               %&&&&&&&&&&&&*  ",
"  &&&&&&&&&&&&=               %&&&&&&&&&&&&*  ",
"  &&&&&&&&&&&&=               %&&&&&&&&&&&&*  ",
"  &&&&&&&&&&&&=               %&&&&&&&&&&&&*  ",
"  &&&&&&&&&&&&=               %&&&&&&&&&&&&*  ",
"  &&&&&&&&&&&&&&&&&&&&&&&&&&&&&&&&&&&&&&&&&*  ",
"  &&&&&&&&&&&&&&&&&&&&&&&&&&&&&&&&&&&&&&&&&*  ",
"  &&&&&&&&&&&&&&&&&&&&&&&&&&&&&&&&&&&&&&&&&*  ",
"  &&&&&&&&&&&&&&&&&&&&&&&&&&&&&&&&&&&&&&&&&*  ",
"  &&&&&&&&&&&&&&&&&&&&&&&&&&&&&&&&&&&&&&&&&*  ",
"  &&&&&&&&&&&&&&&&&&&&&&&&&&&&&&&&&&&&&&&&&*  ",
"  &&&&&&&&&&&&&&&&&&&&&&&&&&&&&&&&&&&&&&&&&*  ",
"  &&&&&&&&&&&&&&&&&&&&&&&&&&&&&&&&&&&&&&&&&*  ",
"  &&&&&&&&&&&&=               %&&&&&&&&&&&&*  ",
"  &&&&&&&&&&&&=               %&&&&&&&&&&&&*  ",
"  &&&&&&&&&&&&=               %&&&&&&&&&&&&*  ",
"  &&&&&&&&&&&&=               %&&&&&&&&&&&&*  ",
"  &&&&&&&&&&&&=               %&&&&&&&&&&&&*  ",
"  &&&&&&&&&&&&=               %&&&&&&&&&&&&*  ",
"  &&&&&&&&&&&&=               %&&&&&&&&&&&&*  ",
"  &&&&&&&&&&&&=               %&&&&&&&&&&&&*  ",
"  &&&&&&&&&&&&=               %&&&&&&&&&&&&*  ",
"  &&&&&&&&&&&&=               %&&&&&&&&&&&&*  ",
"  &&&&&&&&&&&&=               %&&&&&&&&&&&&*  ",
"  &&&&&&&&&&&&=               %&&&&&&&&&&&&*  ",
"                                              ",
"                                              ",
"                                              ",
"                                              ",
"                                              "};
