/* XPM */
static char * i_xpm[] = {
"17 40 11 1",
" 	c #000000",
".	c #F8F8F8",
"+	c #F9F9F9",
"@	c #FAFAFA",
"#	c #FBFBFB",
"$	c #FCFCFC",
"%	c #FDFDFD",
"&	c #FEFEFE",
"*	c #E6E6E6",
"=	c #FFFFFF",
"-	c #E7E7E7",
"                 ",
"                 ",
"                 ",
"  ...+@@@#$$%&*  ",
"  ============-  ",
"  ============-  ",
"  ============-  ",
"  ============-  ",
"  ============-  ",
"  ============-  ",
"  ============-  ",
"  ============-  ",
"  ============-  ",
"  ============-  ",
"  ============-  ",
"  ============-  ",
"  ============-  ",
"  ============-  ",
"  ============-  ",
"  ============-  ",
"  ============-  ",
"  ============-  ",
"  ============-  ",
"  ============-  ",
"  ============-  ",
"  ============-  ",
"  ============-  ",
"  ============-  ",
"  ============-  ",
"  ============-  ",
"  ============-  ",
"  ============-  ",
"  ============-  ",
"  ============-  ",
"  ============-  ",
"                 ",
"                 ",
"                 ",
"                 ",
"                 "};
