/* XPM */
static char * j_xpm[] = {
"33 40 30 1",
" 	c #000000",
".	c #FFFFFF",
"+	c #E7E7E7",
"@	c #535353",
"#	c #A0A0A0",
"$	c #E6E6E6",
"%	c #383838",
"&	c #EEEEEE",
"*	c #E1E1E1",
"=	c #6B6B6B",
"-	c #DFDFDF",
";	c #D5D5D5",
">	c #BDBDBD",
",	c #878787",
"'	c #FEFEFE",
")	c #EDEDED",
"!	c #1C1C1C",
"~	c #FDFDFD",
"{	c #9D9D9D",
"]	c #CCCCCC",
"^	c #FCFCFC",
"/	c #D2D2D2",
"(	c #2A2A2A",
"_	c #F5F5F5",
":	c #AEAEAE",
"<	c #FBFBFB",
"[	c #F8F8F8",
"}	c #D6D6D6",
"|	c #A8A8A8",
"1	c #3D3D3D",
"                                 ",
"                                 ",
"                                 ",
"                  ............+  ",
"                  ............+  ",
"                  ............+  ",
"                  ............+  ",
"                  ............+  ",
"                  ............+  ",
"                  ............+  ",
"                  ............+  ",
"                  ............+  ",
"                  ............+  ",
"                  ............+  ",
"                  ............+  ",
"                  ............+  ",
"                  ............+  ",
"                  ............+  ",
"                  ............+  ",
"                  ............+  ",
"                  ............+  ",
"                  ............+  ",
"                  ............+  ",
"                 @............+  ",
"                 #............$  ",
"                %&............*  ",
"               =-.............;  ",
"  ............................>  ",
"  ............................,  ",
"  '..........................)!  ",
"  ~..........................{   ",
"  ~.........................]    ",
"  ^......................../(    ",
"  ^......................_:      ",
"  <..................[&}|1       ",
"                                 ",
"                                 ",
"                                 ",
"                                 ",
"                                 "};
