/* XPM */
static char * k_xpm[] = {
"49 40 52 1",
" 	c #000000",
".	c #FFFFFF",
"+	c #E7E7E7",
"@	c #595959",
"#	c #EBEBEB",
"$	c #F2F2F2",
"%	c #707070",
"&	c #676767",
"*	c #EFEFEF",
"=	c #737373",
"-	c #F3F3F3",
";	c #ECECEC",
">	c #5B5B5B",
",	c #7E7E7E",
"'	c #F6F6F6",
")	c #E8E8E8",
"!	c #515151",
"~	c #8A8A8A",
"{	c #F9F9F9",
"]	c #E3E3E3",
"^	c #474747",
"/	c #969696",
"(	c #FAFAFA",
"_	c #DEDEDE",
":	c #3A3A3A",
"<	c #A0A0A0",
"[	c #FCFCFC",
"}	c #D8D8D8",
"|	c #2E2E2E",
"1	c #ABABAB",
"2	c #FEFEFE",
"3	c #D2D2D2",
"4	c #222222",
"5	c #B6B6B6",
"6	c #CBCBCB",
"7	c #161616",
"8	c #C1C1C1",
"9	c #C3C3C3",
"0	c #CACACA",
"a	c #BABABA",
"b	c #B1B1B1",
"c	c #FDFDFD",
"d	c #A7A7A7",
"e	c #9E9E9E",
"f	c #9C9C9C",
"g	c #E9E9E9",
"h	c #D7D7D7",
"i	c #262626",
"j	c #9B9B9B",
"k	c #9A9A9A",
"l	c #999999",
"m	c #989898",
"                                                 ",
"                                                 ",
"                                                 ",
"  ............+           @#..............$%     ",
"  ............+          &*..............*&      ",
"  ............+         =-..............;>       ",
"  ............+        ,'..............)!        ",
"  ............+       ~{..............]^         ",
"  ............+      /(.............._:          ",
"  ............+     <[..............}|           ",
"  ............+    12..............34            ",
"  ............+   5...............67             ",
"  ............+  8...............9               ",
"  ............+70...............a                ",
"  ............)3...............b                 ",
"  ...........................cd                  ",
"  ..........................[e                   ",
"  ..........................cf                   ",
"  ...........................cf                  ",
"  ............gh..............cf                 ",
"  ............+ih..............[f                ",
"  ............+ ih..............[f               ",
"  ............+  ih..............[f              ",
"  ............+   ih..............[j             ",
"  ............+    ih..............[j            ",
"  ............+     ih..............[j           ",
"  ............+      ih..............[k          ",
"  ............+       ih..............[k         ",
"  ............+        ih..............[k        ",
"  ............+         ih..............[l       ",
"  ............+          ih..............[l      ",
"  ............+           ih..............[l     ",
"  ............+            ih..............[m    ",
"  ............+             ih..............[m   ",
"  ............+              ih..............[m  ",
"                                                 ",
"                                                 ",
"                                                 ",
"                                                 ",
"                                                 "};
