/* XPM */
static char * l_xpm[] = {
"33 40 17 1",
" 	c #000000",
".	c #FFFFFF",
"+	c #E7E7E7",
"@	c #F1F1F1",
"#	c #6B6B6B",
"$	c #FAFAFA",
"%	c #D8D8D8",
"&	c #F0F0F0",
"*	c #CACACA",
"=	c #545454",
"-	c #DCDCDC",
";	c #B4B4B4",
">	c #5B5B5B",
",	c #FBFBFB",
"'	c #C5C5C5",
")	c #353535",
"!	c #585858",
"                                 ",
"                                 ",
"                                 ",
"  ............+                  ",
"  ............+                  ",
"  ............+                  ",
"  ............+                  ",
"  ............+                  ",
"  ............+                  ",
"  ............+                  ",
"  ............+                  ",
"  ............+                  ",
"  ............+                  ",
"  ............+                  ",
"  ............+                  ",
"  ............+                  ",
"  ............+                  ",
"  ............+                  ",
"  ............+                  ",
"  ............+                  ",
"  ............+                  ",
"  ............+                  ",
"  ............+                  ",
"  ............@                  ",
"  .............#                 ",
"  $............%                 ",
"  &.............*=               ",
"  -...........................+  ",
"  ;...........................+  ",
"  >,..........................+  ",
"   '..........................+  ",
"   )+.........................+  ",
"    !+........................+  ",
"     )',......................+  ",
"       >;-&$..................+  ",
"                                 ",
"                                 ",
"                                 ",
"                                 ",
"                                 "};
