/* XPM */
static char * m_xpm[] = {
"49 40 49 1",
" 	c #000000",
".	c #0D0D0D",
"+	c #989898",
"@	c #D2D2D2",
"#	c #EFEFEF",
"$	c #FAFAFA",
"%	c #F7F7F7",
"&	c #DCDCDC",
"*	c #9C9C9C",
"=	c #2E2E2E",
"-	c #ADADAD",
";	c #E4E4E4",
">	c #F9F9F9",
",	c #F8F8F8",
"'	c #EBEBEB",
")	c #CACACA",
"!	c #808080",
"~	c #636363",
"{	c #E6E6E6",
"]	c #FFFFFF",
"^	c #E5E5E5",
"/	c #6E6E6E",
"(	c #8A8A8A",
"_	c #D3D3D3",
":	c #3D3D3D",
"<	c #F5F5F5",
"[	c #999999",
"}	c #B5B5B5",
"|	c #FDFDFD",
"1	c #323232",
"2	c #E7E7E7",
"3	c #FCFCFC",
"4	c #9A9A9A",
"5	c #B9B9B9",
"6	c #C9C9C9",
"7	c #BABABA",
"8	c #646464",
"9	c #B2B2B2",
"0	c #BCBCBC",
"a	c #D5D5D5",
"b	c #E1E1E1",
"c	c #BDBDBD",
"d	c #BEBEBE",
"e	c #BFBFBF",
"f	c #D7D7D7",
"g	c #E9E9E9",
"h	c #262626",
"i	c #D6D6D6",
"j	c #222222",
"                                                 ",
"                                                 ",
"                                                 ",
"     .+@#$%&*.                     =-;>,')!      ",
"    ~{]]]]]]]^/                   (#]]]]]]]_:    ",
"   ~<]]]]]]]]]$[                 }|]]]]]]]]]^1   ",
"  .2]]]]]]]]]]]34               5]]]]]]]]]]]]6   ",
"  []]]]]]]]]]]]]34             7]]]]]]]]]]]]]38  ",
"  _]]]]]]]]]]]]]]34           7]]]]]]]]]]]]]]]9  ",
"  #]]]]]]]]]]]]]]]34         0]]]]]]]]]]]]]]]]a  ",
"  $]]]]]]]]]]]]]]]]34       0]]]]]]]]]]]]]]]]]b  ",
"  ]]]]]]]]]]]]]]]]]]34     c]]]]]]]]]]]]]]]]]]2  ",
"  ]]]]]]]]]]]]]]]]]]]34   d]]]]]]]]]]]]]]]]]]]2  ",
"  ]]]]]]]]]]]]]]]]]]]]34 e]]]]]]]]]]]]]]]]]]]]2  ",
"  ]]]]]]]]]]]]]]]]]]]]]3f]]]]]]]]]]]]]]]]]]]]]2  ",
"  ]]]]]]]]]]]]]]]]]]]]]]]]]]]]]]]]]]]]]]]]]]]]2  ",
"  ]]]]]]]]]]]]]]]]]]]]]]]]]]]]]]]]]]]]]]]]]]]]2  ",
"  ]]]]]]]]]]]]]]]]]]]]]]]]]]]]]]]]]]]]]]]]]]]]2  ",
"  ]]]]]]]]]]]]]]]]]]]]]]]]]]]]]]]]]]]]]]]]]]]]2  ",
"  ]]]]]]]]]]]]gf]]]]]]]]]]]]]]]]]7]]]]]]]]]]]]2  ",
"  ]]]]]]]]]]]]2hf]]]]]]]]]]]]]]]7 ]]]]]]]]]]]]2  ",
"  ]]]]]]]]]]]]2 hf]]]]]]]]]]]]]7  ]]]]]]]]]]]]2  ",
"  ]]]]]]]]]]]]2  hi]]]]]]]]]]]7   ]]]]]]]]]]]]2  ",
"  ]]]]]]]]]]]]2   hi]]]]]]]]]7    ]]]]]]]]]]]]2  ",
"  ]]]]]]]]]]]]2    ji]]]]]]]7     ]]]]]]]]]]]]2  ",
"  ]]]]]]]]]]]]2     ji]]]]]7      ]]]]]]]]]]]]2  ",
"  ]]]]]]]]]]]]2      ja]]]7       ]]]]]]]]]]]]2  ",
"  ]]]]]]]]]]]]2       ja]7        ]]]]]]]]]]]]2  ",
"  ]]]]]]]]]]]]2        j*         ]]]]]]]]]]]]2  ",
"  ]]]]]]]]]]]]2                   ]]]]]]]]]]]]2  ",
"  ]]]]]]]]]]]]2                   ]]]]]]]]]]]]2  ",
"  ]]]]]]]]]]]]2                   ]]]]]]]]]]]]2  ",
"  ]]]]]]]]]]]]2                   ]]]]]]]]]]]]2  ",
"  ]]]]]]]]]]]]2                   ]]]]]]]]]]]]2  ",
"  ]]]]]]]]]]]]2                   ]]]]]]]]]]]]2  ",
"                                                 ",
"                                                 ",
"                                                 ",
"                                                 ",
"                                                 "};
