/* XPM */
static char * n_xpm[] = {
"49 40 57 1",
" 	c #000000",
".	c #0D0D0D",
"+	c #989898",
"@	c #D2D2D2",
"#	c #EFEFEF",
"$	c #FAFAFA",
"%	c #ECECEC",
"&	c #C9C9C9",
"*	c #757575",
"=	c #FFFFFF",
"-	c #E7E7E7",
";	c #636363",
">	c #E6E6E6",
",	c #FEFEFE",
"'	c #383838",
")	c #F5F5F5",
"!	c #EBEBEB",
"~	c #707070",
"{	c #A4A4A4",
"]	c #999999",
"^	c #CECECE",
"/	c #D3D3D3",
"(	c #EAEAEA",
"_	c #6F6F6F",
":	c #F9F9F9",
"<	c #A2A2A2",
"[	c #CDCDCD",
"}	c #353535",
"|	c #E9E9E9",
"1	c #6D6D6D",
"2	c #A0A0A0",
"3	c #CCCCCC",
"4	c #323232",
"5	c #6B6B6B",
"6	c #9F9F9F",
"7	c #CBCBCB",
"8	c #E8E8E8",
"9	c #6A6A6A",
"0	c #F8F8F8",
"a	c #9E9E9E",
"b	c #C1C1C1",
"c	c #919191",
"d	c #5D5D5D",
"e	c #E2E2E2",
"f	c #222222",
"g	c #E1E1E1",
"h	c #D5D5D5",
"i	c #B2B2B2",
"j	c #FCFCFC",
"k	c #646464",
"l	c #CACACA",
"m	c #DCDCDC",
"n	c #404040",
"o	c #8E8E8E",
"p	c #F0F0F0",
"q	c #FBFBFB",
"r	c #838383",
"                                                 ",
"                                                 ",
"                                                 ",
"     .+@#$$%&*                    ============-  ",
"    ;>=======,&'                  ============-  ",
"   ;)==========!~                 ============-  ",
"  .-============${                ============-  ",
"  ]===============^'              ============-  ",
"  /================(_             ============-  ",
"  #=================:<            ============-  ",
"  $===================[}          ============-  ",
"  =====================|1         ============-  ",
"  ======================:2        ============-  ",
"  ========================34      ============-  ",
"  =========================|5     ============-  ",
"  ==========================:6    ============-  ",
"  ============================74  ============-  ",
"  =============================89 ============-  ",
"  ==============================0a============-  ",
"  ============8b,=============================-  ",
"  ============- c)============================-  ",
"  ============-  de===========================-  ",
"  ============-   fb,=========================-  ",
"  ============-     c)========================-  ",
"  ============-      de=======================-  ",
"  ============-       fb,=====================-  ",
"  ============8         c)====================-  ",
"  ============8          de===================g  ",
"  ============8           fb,=================h  ",
"  ============8             c)================i  ",
"  ============|              de==============jk  ",
"  ============|               fb,============l   ",
"  ============|                 c)==========-'   ",
"  ============|                  dm========hn    ",
"  ============(                    o@pq0%7r      ",
"                                                 ",
"                                                 ",
"                                                 ",
"                                                 ",
"                                                 "};
