/* XPM */
static char * o_xpm[] = {
"52 40 77 1",
" 	c #000000",
".	c #1C1C1C",
"+	c #898989",
"@	c #BCBCBC",
"#	c #DADADA",
"$	c #ECECEC",
"%	c #F8F8F8",
"&	c #FCFCFC",
"*	c #FFFFFF",
"=	c #FAFAFA",
"-	c #F4F4F4",
";	c #E6E6E6",
">	c #D0D0D0",
",	c #ADADAD",
"'	c #646464",
")	c #4F4F4F",
"!	c #BDBDBD",
"~	c #F5F5F5",
"{	c #E3E3E3",
"]	c #9B9B9B",
"^	c #0D0D0D",
"/	c #ACACAC",
"(	c #F7F7F7",
"_	c #E4E4E4",
":	c #707070",
"<	c #353535",
"[	c #D7D7D7",
"}	c #9F9F9F",
"|	c #E2E2E2",
"1	c #FEFEFE",
"2	c #AAAAAA",
"3	c #FDFDFD",
"4	c #929292",
"5	c #565656",
"6	c #515151",
"7	c #CECECE",
"8	c #BEBEBE",
"9	c #CBCBCB",
"0	c #545454",
"a	c #161616",
"b	c #828282",
"c	c #EDEDED",
"d	c #222222",
"e	c #D8D8D8",
"f	c #636363",
"g	c #C1C1C1",
"h	c #8B8B8B",
"i	c #6B6B6B",
"j	c #EEEEEE",
"k	c #F1F1F1",
"l	c #8F8F8F",
"m	c #606060",
"n	c #DBDBDB",
"o	c #E7E7E7",
"p	c #787878",
"q	c #989898",
"r	c #B2B2B2",
"s	c #C2C2C2",
"t	c #C9C9C9",
"u	c #C3C3C3",
"v	c #CACACA",
"w	c #808080",
"x	c #666666",
"y	c #4D4D4D",
"z	c #585858",
"A	c #D5D5D5",
"B	c #959595",
"C	c #323232",
"D	c #E1E1E1",
"E	c #ABABAB",
"F	c #A1A1A1",
"G	c #747474",
"H	c #9E9E9E",
"I	c #FBFBFB",
"J	c #D1D1D1",
"K	c #AEAEAE",
"L	c #676767",
"                                                    ",
"                                                    ",
"                                                    ",
"           .+@#$%&****************=-;>,'            ",
"         )!~****************************{]^         ",
"        /(********************************_:        ",
"      <[***********************************=}       ",
"     <|*************************************12      ",
"     [***************************************34     ",
"    ,*****************************************~5    ",
"   6%******************************************7    ",
"   8************90               abc***********3'   ",
"  d~***********e                   f=***********g   ",
"  h************i                    g***********j   ",
"  8***********k                     l************m  ",
"  n***********o                     p************q  ",
"  c***********o                     p************r  ",
"  %***********o                     p************s  ",
"  &***********o                     p************t  ",
"  &***********o                     p************t  ",
"  %***********o                     p************u  ",
"  c***********o                     p************r  ",
"  n***********o                     p************q  ",
"  !***********k                     l************m  ",
"  +************i                    g***********j   ",
"  .-***********e                   f=***********g   ",
"   @************v0               awc***********3x   ",
"   y(******************************************7    ",
"    2*****************************************~z    ",
"     A***************************************3B     ",
"     CD*************************************1E      ",
"      CA***********************************=F       ",
"        2(********************************;G        ",
"         y@-****************************_H^         ",
"           .+!nc%&****************I~oJKL            ",
"                                                    ",
"                                                    ",
"                                                    ",
"                                                    ",
"                                                    "};
