/* XPM */
static char * p_xpm[] = {
"46 40 38 1",
" 	c #000000",
".	c #FFFFFF",
"+	c #FEFEFE",
"@	c #F6F6F6",
"#	c #ECECEC",
"$	c #CECECE",
"%	c #9D9D9D",
"&	c #222222",
"*	c #EFEFEF",
"=	c #999999",
"-	c #BEBEBE",
";	c #B2B2B2",
">	c #FDFDFD",
",	c #767676",
"'	c #D7D7D7",
")	c #494949",
"!	c #9A9A9A",
"~	c #1C1C1C",
"{	c #757575",
"]	c #E1E1E1",
"^	c #B6B6B6",
"/	c #5E5E5E",
"(	c #C3C3C3",
"_	c #161616",
":	c #727272",
"<	c #E0E0E0",
"[	c #B5B5B5",
"}	c #969696",
"|	c #FCFCFC",
"1	c #424242",
"2	c #D3D3D3",
"3	c #6E6E6E",
"4	c #AAAAAA",
"5	c #B8B8B8",
"6	c #EDEDED",
"7	c #939393",
"8	c #9B9B9B",
"9	c #E7E7E7",
"                                              ",
"                                              ",
"                                              ",
"  ...............................+@#$%&       ",
"  ....................................*=      ",
"  ......................................-     ",
"  .......................................;    ",
"  .......................................>,   ",
"  ........................................'   ",
"  ........................................>)  ",
"  .........................................!  ",
"                           ~{].............^  ",
"                             /.............(  ",
"                             /.............(  ",
"                           _:<.............[  ",
"  .........................................}  ",
"  ........................................|1  ",
"  ........................................2   ",
"  .......................................|3   ",
"  .......................................4    ",
"  .....................................+5     ",
"  ....................................67      ",
"  ...............................+@#$8~       ",
"  ............9                               ",
"  ............9                               ",
"  ............9                               ",
"  ............9                               ",
"  ............9                               ",
"  ............9                               ",
"  ............9                               ",
"  ............9                               ",
"  ............9                               ",
"  ............9                               ",
"  ............9                               ",
"  ............9                               ",
"                                              ",
"                                              ",
"                                              ",
"                                              ",
"                                              "};
