/* XPM */
static char * q_xpm[] = {
"52 40 84 1",
" 	c #000000",
".	c #1C1C1C",
"+	c #898989",
"@	c #BCBCBC",
"#	c #DADADA",
"$	c #ECECEC",
"%	c #F8F8F8",
"&	c #FCFCFC",
"*	c #FFFFFF",
"=	c #FAFAFA",
"-	c #F4F4F4",
";	c #E6E6E6",
">	c #CFCFCF",
",	c #ABABAB",
"'	c #616161",
")	c #4F4F4F",
"!	c #BDBDBD",
"~	c #F5F5F5",
"{	c #E2E2E2",
"]	c #989898",
"^	c #ACACAC",
"/	c #F7F7F7",
"(	c #E1E1E1",
"_	c #6A6A6A",
":	c #353535",
"<	c #D7D7D7",
"[	c #F9F9F9",
"}	c #FDFDFD",
"|	c #A0A0A0",
"1	c #ADADAD",
"2	c #F2F2F2",
"3	c #4B4B4B",
"4	c #515151",
"5	c #C6C6C6",
"6	c #BEBEBE",
"7	c #CBCBCB",
"8	c #545454",
"9	c #161616",
"0	c #828282",
"a	c #EDEDED",
"b	c #595959",
"c	c #222222",
"d	c #D8D8D8",
"e	c #636363",
"f	c #BABABA",
"g	c #8B8B8B",
"h	c #6B6B6B",
"i	c #C1C1C1",
"j	c #EAEAEA",
"k	c #F1F1F1",
"l	c #8F8F8F",
"m	c #DBDBDB",
"n	c #E7E7E7",
"o	c #787878",
"p	c #939393",
"q	c #B0B0B0",
"r	c #C8C8C8",
"s	c #C9C9C9",
"t	c #C0C0C0",
"u	c #B2B2B2",
"v	c #8D8D8D",
"w	c #FEFEFE",
"x	c #AEAEAE",
"y	c #CACACA",
"z	c #808080",
"A	c #F6F6F6",
"B	c #3D3D3D",
"C	c #4D4D4D",
"D	c #B6B6B6",
"E	c #AAAAAA",
"F	c #E9E9E9",
"G	c #2A2A2A",
"H	c #D5D5D5",
"I	c #323232",
"J	c #949494",
"K	c #E5E5E5",
"L	c #6F6F6F",
"M	c #C3C3C3",
"N	c #0D0D0D",
"O	c #6E6E6E",
"P	c #7A7A7A",
"Q	c #606060",
"R	c #FBFBFB",
"S	c #9E9E9E",
"                                                    ",
"                                                    ",
"                                                    ",
"                                                    ",
"           .+@#$%&****************=-;>,'            ",
"         )!~****************************{]          ",
"        ^/********************************(_        ",
"      :<***********************************[]       ",
"     :{*************************************}|      ",
"     <***************************************&+     ",
"    1*****************************************23    ",
"   4%******************************************5    ",
"   6************78               90a***********&b   ",
"  c~***********d                   e=***********f   ",
"  g************h                    i***********j   ",
"  6***********k                     l************8  ",
"  m***********n                     o************p  ",
"  a***********n                     o************q  ",
"  %***********n                     o************i  ",
"  &***********n                     o************r  ",
"  &***********n                     o************s  ",
"  %***********n                     o************t  ",
"  a***********n                     o************u  ",
"  m***********n                     o************v  ",
"  !***********k                     l***********w)  ",
"  +************h                    i***********{   ",
"  .-***********d                   e=***********x   ",
"   @************y8               9za***********AB   ",
"   C/******************************************D    ",
"    E*****************************************FG    ",
"     H***************************************=o     ",
"     I(*************************************&p      ",
"      IH***********************************%J       ",
"        E/********************************KL        ",
"         C@-*****************************MN         ",
"           .+!ma%&***********************~O         ",
"                            P%************kQ        ",
"                             vR************aN       ",
"                              Sw************c       ",
"                               q************c       "};
