/* XPM */
static char * s_xpm[] = {
"46 40 58 1",
" 	c #000000",
".	c #5D5D5D",
"+	c #B3B3B3",
"@	c #DCDCDC",
"#	c #F0F0F0",
"$	c #FAFAFA",
"%	c #FFFFFF",
"&	c #CACACA",
"*	c #353535",
"=	c #C6C6C6",
"-	c #FBFBFB",
";	c #5B5B5B",
">	c #E7E7E7",
",	c #383838",
"'	c #5E5E5E",
")	c #B4B4B4",
"!	c #DEDEDE",
"~	c #F1F1F1",
"{	c #BABABA",
"]	c #4F4F4F",
"^	c #DBDBDB",
"/	c #B8B8B8",
"(	c #4B4B4B",
"_	c #FEFEFE",
":	c #F6F6F6",
"<	c #ECECEC",
"[	c #CECECE",
"}	c #9D9D9D",
"|	c #222222",
"1	c #EFEFEF",
"2	c #999999",
"3	c #BEBEBE",
"4	c #C5C5C5",
"5	c #B2B2B2",
"6	c #FDFDFD",
"7	c #767676",
"8	c #585858",
"9	c #D7D7D7",
"0	c #494949",
"a	c #9A9A9A",
"b	c #1C1C1C",
"c	c #757575",
"d	c #E1E1E1",
"e	c #B6B6B6",
"f	c #C3C3C3",
"g	c #161616",
"h	c #727272",
"i	c #E0E0E0",
"j	c #B5B5B5",
"k	c #969696",
"l	c #FCFCFC",
"m	c #424242",
"n	c #D3D3D3",
"o	c #6E6E6E",
"p	c #AAAAAA",
"q	c #EDEDED",
"r	c #939393",
"s	c #9B9B9B",
"                                              ",
"                                              ",
"                                              ",
"       .+@#$%%%%%%%%%%%%%%%%%%%%%%%%%%%%%%%&  ",
"     *=-%%%%%%%%%%%%%%%%%%%%%%%%%%%%%%%%%%%&  ",
"    ;>%%%%%%%%%%%%%%%%%%%%%%%%%%%%%%%%%%%%%&  ",
"   ,>%%%%%%%%%%%%%%%%%%%%%%%%%%%%%%%%%%%%%%&  ",
"   =%%%%%%%%%%%%%%%%%%%%%%%%%%%%%%%%%%%%%%%&  ",
"  '-%%%%%%%%%%%%%%%%%%%%%%%%%%%%%%%%%%%%%%%&  ",
"  )%%%%%%%%%%%%%%%%%%%%%%%%%%%%%%%%%%%%%%%%&  ",
"  !%%%%%%%%%%%%%%%%%%%%%%%%%%%%%%%%%%%%%%%%&  ",
"  ~%%%%%%%%%%%%%{]                            ",
"  $%%%%%%%%%%%%^                              ",
"  $%%%%%%%%%%%%@                              ",
"  #%%%%%%%%%%%%%/(                            ",
"  @%%%%%%%%%%%%%%%%%%%%%%%%%%%%%%_:<[}|       ",
"  )%%%%%%%%%%%%%%%%%%%%%%%%%%%%%%%%%%%12      ",
"  ;-%%%%%%%%%%%%%%%%%%%%%%%%%%%%%%%%%%%%3     ",
"   4%%%%%%%%%%%%%%%%%%%%%%%%%%%%%%%%%%%%%5    ",
"   *>%%%%%%%%%%%%%%%%%%%%%%%%%%%%%%%%%%%%67   ",
"    8>%%%%%%%%%%%%%%%%%%%%%%%%%%%%%%%%%%%%9   ",
"     *4-%%%%%%%%%%%%%%%%%%%%%%%%%%%%%%%%%%60  ",
"       ;)@#$%%%%%%%%%%%%%%%%%%%%%%%%%%%%%%%a  ",
"                           bcd%%%%%%%%%%%%%e  ",
"                             '%%%%%%%%%%%%%f  ",
"                             '%%%%%%%%%%%%%f  ",
"                           ghi%%%%%%%%%%%%%j  ",
"  %%%%%%%%%%%%%%%%%%%%%%%%%%%%%%%%%%%%%%%%%k  ",
"  %%%%%%%%%%%%%%%%%%%%%%%%%%%%%%%%%%%%%%%%lm  ",
"  %%%%%%%%%%%%%%%%%%%%%%%%%%%%%%%%%%%%%%%%n   ",
"  %%%%%%%%%%%%%%%%%%%%%%%%%%%%%%%%%%%%%%%lo   ",
"  %%%%%%%%%%%%%%%%%%%%%%%%%%%%%%%%%%%%%%%p    ",
"  %%%%%%%%%%%%%%%%%%%%%%%%%%%%%%%%%%%%%_/     ",
"  %%%%%%%%%%%%%%%%%%%%%%%%%%%%%%%%%%%%qr      ",
"  %%%%%%%%%%%%%%%%%%%%%%%%%%%%%%%_:<[sb       ",
"                                              ",
"                                              ",
"                                              ",
"                                              ",
"                                              "};
