/* XPM */
static char * t_xpm[] = {
"36 40 3 1",
" 	c #000000",
".	c #FFFFFF",
"+	c #AAAAAA",
"                                    ",
"                                    ",
"                                    ",
"  ................................  ",
"  ................................  ",
"  ................................  ",
"  ................................  ",
"  ................................  ",
"  ................................  ",
"  ................................  ",
"  ................................  ",
"           +............+           ",
"           +............+           ",
"           +............+           ",
"           +............+           ",
"           +............+           ",
"           +............+           ",
"           +............+           ",
"           +............+           ",
"           +............+           ",
"           +............+           ",
"           +............+           ",
"           +............+           ",
"           +............+           ",
"           +............+           ",
"           +............+           ",
"           +............+           ",
"           +............+           ",
"           +............+           ",
"           +............+           ",
"           +............+           ",
"           +............+           ",
"           +............+           ",
"           +............+           ",
"           +............+           ",
"                                    ",
"                                    ",
"                                    ",
"                                    ",
"                                    "};
