/* XPM */
static char * u_xpm[] = {
"46 40 54 1",
" 	c #000000",
".	c #FFFFFF",
"+	c #E7E7E7",
"@	c #7C7C7C",
"#	c #CACACA",
"$	c #FCFCFC",
"%	c #C6C6C6",
"&	c #F8F8F8",
"*	c #C1C1C1",
"=	c #EDEDED",
"-	c #B0B0B0",
";	c #DBDBDB",
">	c #959595",
",	c #BDBDBD",
"'	c #F1F1F1",
")	c #939393",
"!	c #595959",
"~	c #898989",
"{	c #6B6B6B",
"]	c #C4C4C4",
"^	c #ECECEC",
"/	c #1C1C1C",
"(	c #F4F4F4",
"_	c #D8D8D8",
":	c #666666",
"<	c #FAFAFA",
"[	c #BEBEBE",
"}	c #BCBCBC",
"|	c #545454",
"1	c #161616",
"2	c #838383",
"3	c #EEEEEE",
"4	c #FDFDFD",
"5	c #616161",
"6	c #4D4D4D",
"7	c #F7F7F7",
"8	c #CCCCCC",
"9	c #AAAAAA",
"0	c #F5F5F5",
"a	c #D5D5D5",
"b	c #929292",
"c	c #323232",
"d	c #E1E1E1",
"e	c #FEFEFE",
"f	c #A8A8A8",
"g	c #9F9F9F",
"h	c #E5E5E5",
"i	c #727272",
"j	c #E3E3E3",
"k	c #9C9C9C",
"l	c #0D0D0D",
"m	c #FBFBFB",
"n	c #D0D0D0",
"o	c #ADADAD",
"                                              ",
"                                              ",
"                                              ",
"  ............+               @............#  ",
"  ............+               @............#  ",
"  ............+               @............#  ",
"  ............+               @............#  ",
"  ............+               @............#  ",
"  ............+               @............#  ",
"  ............+               @............#  ",
"  ............+               @............#  ",
"  ............+               @............#  ",
"  ............+               @............#  ",
"  ............+               @............#  ",
"  ............+               @............#  ",
"  ............+               @............#  ",
"  ............+               @............#  ",
"  ............+               @............#  ",
"  ............+               @............#  ",
"  $...........+               @............%  ",
"  &...........+               @............*  ",
"  =...........+               @............-  ",
"  ;...........+               @............>  ",
"  ,...........'               )............!  ",
"  ~............{              ]...........^   ",
"  /(..........._             :<...........[   ",
"   }............#|         123...........45   ",
"   67....................................8    ",
"    9...................................0|    ",
"     a.................................4b     ",
"     cd...............................ef      ",
"      ca.............................<g       ",
"        97..........................hi        ",
"         6}(......................jkl         ",
"           /~,;=&$..........m(+no:            ",
"                                              ",
"                                              ",
"                                              ",
"                                              ",
"                                              "};
