/* XPM */
static char * v_xpm[] = {
"49 40 63 1",
" 	c #000000",
".	c #FFFFFF",
"+	c #FBFBFB",
"@	c #646464",
"#	c #8E8E8E",
"$	c #E7E7E7",
"%	c #D7D7D7",
"&	c #222222",
"*	c #EBEBEB",
"=	c #8B8B8B",
"-	c #B0B0B0",
";	c #E9E9E9",
">	c #1C1C1C",
",	c #515151",
"'	c #F7F7F7",
")	c #DBDBDB",
"!	c #ACACAC",
"~	c #CBCBCB",
"{	c #BCBCBC",
"]	c #6F6F6F",
"^	c #FCFCFC",
"/	c #F5F5F5",
"(	c #494949",
"_	c #787878",
":	c #FDFDFD",
"<	c #F2F2F2",
"[	c #3A3A3A",
"}	c #C7C7C7",
"|	c #E1E1E1",
"1	c #A3A3A3",
"2	c #4B4B4B",
"3	c #F6F6F6",
"4	c #727272",
"5	c #9E9E9E",
"6	c #E5E5E5",
"7	c #0D0D0D",
"8	c #AFAFAF",
"9	c #DEDEDE",
"0	c #383838",
"a	c #F1F1F1",
"b	c #838383",
"c	c #ECECEC",
"d	c #969696",
"e	c #D3D3D3",
"f	c #919191",
"g	c #EEEEEE",
"h	c #2E2E2E",
"i	c #616161",
"j	c #FAFAFA",
"k	c #606060",
"l	c #B6B6B6",
"m	c #D5D5D5",
"n	c #F9F9F9",
"o	c #585858",
"p	c #898989",
"q	c #D0D0D0",
"r	c #FEFEFE",
"s	c #7D7D7D",
"t	c #E4E4E4",
"u	c #A2A2A2",
"v	c #737373",
"w	c #BEBEBE",
"x	c #B2B2B2",
"                                                 ",
"                                                 ",
"                                                 ",
"  ..........+@                     #..........$  ",
"  ...........%                    &*..........$  ",
"  ............=                   -...........$  ",
"  ............;>                 ,'...........$  ",
"  )............!                 ~............{  ",
"  ]^.........../(               _:...........<[  ",
"   }............}               |............1   ",
"   23...........^4             5............67   ",
"    8............9            0a............b    ",
"    &c............d           {............e     ",
"     f............gh         ij...........jk     ",
"      )............l         m............{      ",
"      ]^...........no       p............<[      ",
"       }............q      >;............1       ",
"       23...........rs     !............67       ",
"        8............t7   (/............b        ",
"        &c............u   }............e         ",
"         f............<[ v:...........jk         ",
"          )............w 9............{          ",
"          ]^...........jx............<[          ",
"           }.........................1           ",
"           23.......................67           ",
"            8.......................b            ",
"            &c.....................e             ",
"             f....................jk             ",
"              )...................{              ",
"              ]^.................<[              ",
"               }.................1               ",
"               23...............67               ",
"                8...............b                ",
"                &c.............e                 ",
"                 f............jk                 ",
"                                                 ",
"                                                 ",
"                                                 ",
"                                                 ",
"                                                 "};
