/* XPM */
static char * w_xpm[] = {
"49 40 45 1",
" 	c #000000",
".	c #FFFFFF",
"+	c #E6E6E6",
"@	c #222222",
"#	c #9C9C9C",
"$	c #D5D5D5",
"%	c #BABABA",
"&	c #D6D6D6",
"*	c #262626",
"=	c #D7D7D7",
"-	c #E9E9E9",
";	c #FBFBFB",
">	c #D3D3D3",
",	c #FCFCFC",
"'	c #969696",
")	c #989898",
"!	c #FAFAFA",
"~	c #E1E1E1",
"{	c #EFEFEF",
"]	c #999999",
"^	c #B1B1B1",
"/	c #9A9A9A",
"(	c #B9B9B9",
"_	c #646464",
":	c #0D0D0D",
"<	c #E7E7E7",
"[	c #CACACA",
"}	c #666666",
"|	c #F5F5F5",
"1	c #B5B5B5",
"2	c #FDFDFD",
"3	c #353535",
"4	c #E5E5E5",
"5	c #6E6E6E",
"6	c #8C8C8C",
"7	c #F0F0F0",
"8	c #404040",
"9	c #F7F7F7",
"0	c #DDDDDD",
"a	c #2E2E2E",
"b	c #AEAEAE",
"c	c #F8F8F8",
"d	c #ECECEC",
"e	c #CBCBCB",
"f	c #838383",
"                                                 ",
"                                                 ",
"                                                 ",
"  ............+                   ............+  ",
"  ............+                   ............+  ",
"  ............+                   ............+  ",
"  ............+                   ............+  ",
"  ............+                   ............+  ",
"  ............+                   ............+  ",
"  ............+        @#         ............+  ",
"  ............+       @$.%        ............+  ",
"  ............+      @$...%       ............+  ",
"  ............+     @$.....%      ............+  ",
"  ............+    @$.......%     ............+  ",
"  ............+   @&.........%    ............+  ",
"  ............+  @&...........%   ............+  ",
"  ............+ *&.............%  ............+  ",
"  ............+*=...............% ............+  ",
"  ............-=.................%............+  ",
"  ............................................+  ",
"  ............................................+  ",
"  ............................................+  ",
"  ............................................+  ",
"  .....................;>.....................+  ",
"  ....................,' %....................+  ",
"  ...................,'   %...................+  ",
"  ..................,)     %..................+  ",
"  !................,)       %.................~  ",
"  {...............,)         %................$  ",
"  >..............,]           %...............^  ",
"  /.............,]             (.............,_  ",
"  :<...........,/               (............[   ",
"   }|.........!]                 12.........<3   ",
"    }<.......45                   67.......$8    ",
"     :/>{!90#:                     ab4!cdef      ",
"                                                 ",
"                                                 ",
"                                                 ",
"                                                 ",
"                                                 "};
