/* XPM */
static char * x_xpm[] = {
"49 40 92 2",
"  	c #000000",
". 	c #FFFFFF",
"+ 	c #EDEDED",
"@ 	c #666666",
"# 	c #828282",
"$ 	c #F5F5F5",
"% 	c #ADADAD",
"& 	c #F4F4F4",
"* 	c #7D7D7D",
"= 	c #999999",
"- 	c #FAFAFA",
"; 	c #949494",
"> 	c #B0B0B0",
", 	c #FDFDFD",
"' 	c #D1D1D1",
") 	c #AAAAAA",
"! 	c #0D0D0D",
"~ 	c #C3C3C3",
"{ 	c #C1C1C1",
"] 	c #BFBFBF",
"^ 	c #323232",
"/ 	c #D5D5D5",
"( 	c #A8A8A8",
"_ 	c #AEAEAE",
": 	c #D0D0D0",
"< 	c #262626",
"[ 	c #4B4B4B",
"} 	c #E2E2E2",
"| 	c #939393",
"1 	c #DFDFDF",
"2 	c #424242",
"3 	c #646464",
"4 	c #ECECEC",
"5 	c #858585",
"6 	c #F6F6F6",
"7 	c #E9E9E9",
"8 	c #5D5D5D",
"9 	c #7C7C7C",
"0 	c #EEEEEE",
"a 	c #676767",
"b 	c #6F6F6F",
"c 	c #F0F0F0",
"d 	c #F1F1F1",
"e 	c #F9F9F9",
"f 	c #E5E5E5",
"g 	c #515151",
"h 	c #585858",
"i 	c #E8E8E8",
"j 	c #D9D9D9",
"k 	c #383838",
"l 	c #DEDEDE",
"m 	c #CBCBCB",
"n 	c #1C1C1C",
"o 	c #B8B8B8",
"p 	c #FCFCFC",
"q 	c #A4A4A4",
"r 	c #8F8F8F",
"s 	c #989898",
"t 	c #F3F3F3",
"u 	c #797979",
"v 	c #848484",
"w 	c #636363",
"x 	c #838383",
"y 	c #7A7A7A",
"z 	c #ACACAC",
"A 	c #C0C0C0",
"B 	c #A5A5A5",
"C 	c #BABABA",
"D 	c #404040",
"E 	c #CCCCCC",
"F 	c #222222",
"G 	c #DBDBDB",
"H 	c #3A3A3A",
"I 	c #6E6E6E",
"J 	c #F2F2F2",
"K 	c #E7E7E7",
"L 	c #545454",
"M 	c #878787",
"N 	c #F8F8F8",
"O 	c #EFEFEF",
"P 	c #6B6B6B",
"Q 	c #454545",
"R 	c #767676",
"S 	c #2A2A2A",
"T 	c #565656",
"U 	c #E1E1E1",
"V 	c #9C9C9C",
"W 	c #959595",
"X 	c #D8D8D8",
"Y 	c #7E7E7E",
"Z 	c #CECECE",
"` 	c #C2C2C2",
"                                                                                                  ",
"                                                                                                  ",
"                                                                                                  ",
"    . . . . . . . . . . . . + @                                   # $ . . . . . . . . . . . %     ",
"    . . . . . . . . . . . . . & *                               = - . . . . . . . . . . . . %     ",
"    . . . . . . . . . . . . . . - ;                           > , . . . . . . . . . . . . . %     ",
"    ' . . . . . . . . . . . . . . , )                     ! ~ . . . . . . . . . . . . . . . =     ",
"    ! { . . . . . . . . . . . . . . . ]                 ^ / . . . . . . . . . . . . . . , (       ",
"        _ , . . . . . . . . . . . . . . : <           [ } . . . . . . . . . . . . . . - |         ",
"          = - . . . . . . . . . . . . . . 1 2       3 4 . . . . . . . . . . . . . . $ *           ",
"            5 6 . . . . . . . . . . . . . . 7 8   9 & . . . . . . . . . . . . . . 0 a             ",
"              b c . . . . . . . . . . . . . . d _ e . . . . . . . . . . . . . . f g               ",
"                h i . . . . . . . . . . . . . . . . . . . . . . . . . . . . . j k                 ",
"                  2 l . . . . . . . . . . . . . . . . . . . . . . . . . . . m n                   ",
"                    < : . . . . . . . . . . . . . . . . . . . . . . . . . o                       ",
"                      ! { . . . . . . . . . . . . . . . . . . . . . . p q                         ",
"                          % , . . . . . . . . . . . . . . . . . . . e r                           ",
"                            s - . . . . . . . . . . . . . . . . . t u                             ",
"                              v 6 . . . . . . . . . . . . . . . 4 w                               ",
"                              x 6 . . . . . . . . . . . . . . . 4 w                               ",
"                            s - . . . . . . . . . . . . . . . . . t y                             ",
"                          z , . . . . . . . . . . . . . . . . . . . e r                           ",
"                      ! A . . . . . . . . . . . . . . . . . . . . . . p B                         ",
"                    < : . . . . . . . . . . . . . . . . . . . . . . . . . C                       ",
"                  D l . . . . . . . . . . . . . . . . . . . . . . . . . . . E F                   ",
"                h i . . . . . . . . . . . . . . . . . . . . . . . . . . . . . G H                 ",
"              I c . . . . . . . . . . . . . . J > - . . . . . . . . . . . . . . K L               ",
"            v 6 . . . . . . . . . . . . . . 7 8   M N . . . . . . . . . . . . . . O P             ",
"          = - . . . . . . . . . . . . . . 1 Q       R t . . . . . . . . . . . . . . $ #           ",
"        % , . . . . . . . . . . . . . . ' S           a 0 . . . . . . . . . . . . . . - s         ",
"    ! { . . . . . . . . . . . . . . . A !               T i . . . . . . . . . . . . . . , %       ",
"    ' . . . . . . . . . . . . . . , )                     Q U . . . . . . . . . . . . . . . V     ",
"    . . . . . . . . . . . . . . - W                         ^ X . . . . . . . . . . . . . . %     ",
"    . . . . . . . . . . . . . & Y                             n Z . . . . . . . . . . . . . %     ",
"    . . . . . . . . . . . . + @                                 ! ` . . . . . . . . . . . . %     ",
"                                                                                                  ",
"                                                                                                  ",
"                                                                                                  ",
"                                                                                                  ",
"                                                                                                  "};
