/* XPM */
static char * y_xpm[] = {
"49 40 18 1",
" 	c #000000",
".	c #FFFFFF",
"+	c #EAEAEA",
"@	c #535353",
"#	c #727272",
"$	c #F4F4F4",
"%	c #ADADAD",
"&	c #D7D7D7",
"*	c #737373",
"=	c #F5F5F5",
"-	c #9C9C9C",
";	c #262626",
">	c #747474",
",	c #BABABA",
"'	c #757575",
")	c #8D8D8D",
"!	c #E9E9E9",
"~	c #E7E7E7",
"                                                 ",
"                                                 ",
"                                                 ",
"  ............+@                 #$...........%  ",
"  .............+@               #$............%  ",
"  ..............+@             #$.............%  ",
"  &..............+@           *=..............-  ",
"  ;&..............+@         >=..............,   ",
"   ;&..............+@       >=..............,    ",
"    ;&..............+@     '=..............,     ",
"     ;&..............+@   '=..............,      ",
"      ;&..............+@ '=..............,       ",
"       ;&..............+)=..............,        ",
"        ;&.............................,         ",
"         ;&...........................,          ",
"          ;&.........................,           ",
"           ;&.......................,            ",
"            ;&.....................,             ",
"             ;&...................,              ",
"              ;&.................,               ",
"               ;&...............,                ",
"                ;&.............,                 ",
"                 ;............!                  ",
"                  ............~                  ",
"                  ............~                  ",
"                  ............~                  ",
"                  ............~                  ",
"                  ............~                  ",
"                  ............~                  ",
"                  ............~                  ",
"                  ............~                  ",
"                  ............~                  ",
"                  ............~                  ",
"                  ............~                  ",
"                  ............~                  ",
"                                                 ",
"                                                 ",
"                                                 ",
"                                                 ",
"                                                 "};
