/* XPM */
static char * z_xpm[] = {
"49 40 57 1",
" 	c #000000",
".	c #FFFFFF",
"+	c #E7E7E7",
"@	c #161616",
"#	c #A6A6A6",
"$	c #F3F3F3",
"%	c #8B8B8B",
"&	c #E8E8E8",
"*	c #D2D2D2",
"=	c #6D6D6D",
"-	c #D9D9D9",
";	c #EEEEEE",
">	c #9A9A9A",
",	c #4B4B4B",
"'	c #C6C6C6",
")	c #FCFCFC",
"!	c #F7F7F7",
"~	c #B3B3B3",
"{	c #2A2A2A",
"]	c #B1B1B1",
"^	c #F6F6F6",
"/	c #C8C8C8",
"(	c #4D4D4D",
"_	c #989898",
":	c #DADADA",
"<	c #6E6E6E",
"[	c #7C7C7C",
"}	c #E1E1E1",
"|	c #E9E9E9",
"1	c #8C8C8C",
"2	c #5B5B5B",
"3	c #CFCFCF",
"4	c #FEFEFE",
"5	c #A7A7A7",
"6	c #3A3A3A",
"7	c #BCBCBC",
"8	c #FAFAFA",
"9	c #BEBEBE",
"0	c #3D3D3D",
"a	c #A5A5A5",
"b	c #F2F2F2",
"c	c #5E5E5E",
"d	c #898989",
"e	c #E2E2E2",
"f	c #7D7D7D",
"g	c #6A6A6A",
"h	c #D8D8D8",
"i	c #9C9C9C",
"j	c #C5C5C5",
"k	c #F8F8F8",
"l	c #B4B4B4",
"m	c #262626",
"n	c #B0B0B0",
"o	c #4F4F4F",
"p	c #EDEDED",
"q	c #6F6F6F",
"r	c #8D8D8D",
"                                                 ",
"                                                 ",
"                                                 ",
"  ............................................+  ",
"  ............................................+  ",
"  ............................................+  ",
"  ............................................+  ",
"  ............................................+  ",
"  ............................................+  ",
"  ............................................+  ",
"  ............................................+  ",
"                         @#$..................+  ",
"                        %&....................*  ",
"                      =-....................;>   ",
"                    ,')...................!~{    ",
"                  {]^...................)/(      ",
"                 _;....................:<        ",
"               [}....................|1          ",
"             234...................$5@           ",
"           678...................890             ",
"         @ab...................4*c               ",
"        d+....................ef                 ",
"      gh....................;i                   ",
"    ,j)...................kl{                    ",
"  mn^...................)/o                      ",
"  p....................:q                        ",
"  ...................|r                          ",
"  ............................................+  ",
"  ............................................+  ",
"  ............................................+  ",
"  ............................................+  ",
"  ............................................+  ",
"  ............................................+  ",
"  ............................................+  ",
"  ............................................+  ",
"                                                 ",
"                                                 ",
"                                                 ",
"                                                 ",
"                                                 "};
