/* XPM */
static char * frame16_xpm[] = {
"64 64 30 1",
" 	c #510000",
".	c #242424",
"+	c #444444",
"@	c #5B0000",
"#	c #720000",
"$	c #900000",
"%	c #B40000",
"&	c #E20000",
"*	c #0C0C0C",
"=	c #161616",
"-	c #0B0B0B",
";	c #0D0D0D",
">	c #0E0E0E",
",	c #111111",
"'	c #0A0A0A",
")	c #060606",
"!	c #050505",
"~	c #040404",
"{	c #131313",
"]	c #070707",
"^	c #080808",
"/	c #090909",
"(	c #121212",
"_	c #151515",
":	c #030303",
"<	c #0F0F0F",
"[	c #141414",
"}	c #101010",
"|	c #020202",
"1	c #171717",
" .............................................................. ",
" .++++++.+++++++++++++++++.+++++++++++.++++++++++.+++++++.++++. ",
" .++++++.+++++++++++++++++.+++++++++++.++++++++++.+++++++.++++. ",
" .++++++.+++++++++++++++++.+++++++++++.++++++++++.+++++++.++++. ",
"@.++++++.+++++++++++++++++.+++++++++++.++++++++++.+++++++.++++.@",
"#.++++++.......+++++++++++.+++++++.....++++++++++.+++++++.++++.#",
"$.++++++.+++++.+++++++++++.+++++++.++++++++++++++...+++++.++++.$",
"%.++++++.+++++.+++++++++++.+++++++.++++++++++++++++.+++++.++++.%",
"&.++++++.+++++.+++++++++++.+++++++.++++++++++++++++.+++++.++++.&",
"&.++++++.+++++.+++++++.....+++++++.++++++++++++++++.+++++...++.&",
"&.++++++.+++++......++.+++++++++++.++++++++++++++++.+++++++.++.&",
"%.++++++.++++++++++.++.+++++++++++.++++++++++.......+++++++.++.%",
"$.++++++.++++++++++.++.+++++++++++....+++++++.+++++++++++++.++.$",
"#.++++++.++++++++++.++.+++++++++++.++.+++++++.+++++++++++++.++.#",
"@.++++++.++++++++++.++.+++++++++++.++.+++++......++++++++++.++.@",
" .++++++.++++++++++.......++++++++.++.+++++.++++.++++++++++.++. ",
" .++++++...++++++++++++++.++++.....++.+++++.++++.++++++++++.++. ",
" .++++++++.++++++++++++++.++++.++++++.+++++...++.++++++++++.++. ",
" .++++++++.++++++++++++++.++++.++++++.+++++++.++.++++++++++.++. ",
" .++++++++.+++.....................................++++++++.++. ",
" .++++++++.+++.*=-;*>*,')!)~*{;*'*-*,!])~!>;^-/^-(.++++++++.++. ",
" .++++++++.+++.*_/'/**,':~!:-{;**>;;,~!~~!>>'>;>*{.++++++++.++. ",
" .++++++++.+++.*,!!~^^</))):'<])!]^/<:)!!!;-]'//*{.+++......++. ",
" .++++++++.+++.*[!!~)!>-~:)!'}'!~)]/<~!~:~*'!]!!',.+++.+++++++. ",
" .++++++++.+++.*{~!~]]};^]/]-<]|:!!/(^-''/}*)])!',.+++.+++++++. ",
" .++++++++.+++.*(!!~]],>>*<*<{-)!!!/{->;;-,-!]!)'}.+++.+++++++. ",
" .++++++++.+++.*{))~)]<-]!/]*,/!]]!^(/'^/^>'~)!!'}.....+++++++. ",
" .++++++++.+++.*())~)]>/:|!~/</~!)!^}!):!~*/~)!!-}.+++.+++++++. ",
" .++++++++.+++.*,)^)^/}/]!])',-]:!)^<~!:~~;-]/))*,.+++.+++++++. ",
" .++++++++.+++.*{'*/-*,/!:!:^<']]''-}:)!~!>;/*''>(.+++.+++++++. ",
" .+++++....+++.*1;};>;(/)~)!-[,>>}<>}|!)~!>>->>><{.+++.+++++++. ",
" .+++++.++++++.*()]!]^<'|:!:-}^)!]~->)!):~;')^))'(.+++....++++. ",
" .+++++.++++++.*,~!:)]<']^/)*,^!)]~';!~!)!*/:)~!'(.++++++.++++. ",
" .+++++.++++++.*(!!:]^,;**;'<{/)!):*,-'-*'}-~)!)/,.++++++.++++. ",
" .+++++.++++++.*{))~]^,;''-^>(/)!):*{;*;;-,*)]))/,.++++++.++++. ",
" .+++++.++++++.*}~!:)],;'-*'<(^~~))'{'*-;-,*!]))',.++++++.++++. ",
" .+++++.++++++.*}~)~]]<'~!)~-<)~~!!]<!])^]>'!]!!'(.++++++.++++. ",
" .+++++.++++++.*{]/^-/</))):'}^]~))^<~])!!;'~!:|-(.++++++.++++. ",
" .+++++.++++++.*=-;*>*,')!)~*{;*'*-*,!])~!>;^-/^-(.++++++.++++. ",
" .+++++.++++++.*_/'/**,':~!:-{;**>;;,~!~~!>>'>;>*{.++++++.++++. ",
" .+++++..+++++.*,!!~^^</))):'<])!]^/<:)!!!;-]'//*{.++++++.++++. ",
" .++++++.+++++.*}~!:)],;'-*'<(^~~))'{'*-;-,*!]))',.++++++.++++. ",
" .++++++.+++++.*}~)~]]<'~!)~-<)~~!!]<!])^]>'!]!!'(.++++++.++++. ",
" .++++++.+++++.*{]/^-/</))):'}^]~))^<~])!!;'~!:|-(.++++++.++++. ",
" .++++++.+++++.*=-;*>*,')!)~*{;*'*-*,!])~!>;^-/^-(.++++++.++++. ",
" .++++++.+++++.....................................++++++....+. ",
" ...........+++++++++++.+++++++++++++.++++++++++++.+++++++++.+. ",
" .+++++++++.+++++++++++.+++++++++++++.++++++++++++.+++++++++.+. ",
" .+++++++++.+++++++++++.+++++++++++++.++++++++++++.+++++++++... ",
" .+++++++++.+++++++++++.+++++++++++++.+++++++++....+++++++++.+. ",
" .+++++++++.+++++++++++.+++++++++++++....++++++.++++++++++++.+. ",
" .+++++++++.+++++++++++.++++++++++++++++.++++++.++++++++++++.+. ",
" .+++++++++.+++++++++++....+++++++++++++.++++++.++++++++++++.+. ",
" .+++++++++.++++++++++++++.+++++++++++++.++++++.++++++++++++.+. ",
" .+++++++++.++++++++++++++.+++++++++++++.....++....+++++.....+. ",
" .+++++++++.++......++++++.+++++++++++++++++.+++++.+++++.+++++. ",
" .+++++++++.++.++++.+++++..+++++++++++++++++.+++++.+++++.+++++. ",
" .+++++++++.++.++++.+++++.++++++++++++++++++.+++++.+++++.+++++. ",
" .+++++++......++++.......++++++++++++++++++.+++++.+++++.+++++. ",
" .+++++++.+++++++++++++++.++++++.....+++++++.+++++.+++++.+++++. ",
" .+++++++.+++++++++++++++.++++++.+++.+++++++.+++++.+++++.+++++. ",
" .+++++++.+++++++++++++++.+++....+++.+++++++.+++++.+++++.+++++. ",
" .+++++++.+++++++++++++++.+++.++++++.+++++++.+++++.+++++.+++++. ",
" .............................................................. "};
