/* XPM */
static char * wall_34x34_xpm[] = {
"34 34 306 2",
"  	c #3E3E3E",
". 	c #393939",
"+ 	c #363434",
"@ 	c #393738",
"# 	c #2F2D2D",
"$ 	c #302E2F",
"% 	c #171415",
"& 	c #262324",
"* 	c #3F3D3E",
"= 	c #383637",
"- 	c #3A3537",
"; 	c #B1B1B1",
"> 	c #C6C4C5",
", 	c #B0AEAF",
"' 	c #A09E9E",
") 	c #696768",
"! 	c #2A2829",
"~ 	c #403E3F",
"{ 	c #B1AFB0",
"] 	c #B3AEB0",
"^ 	c #B0B0B0",
"/ 	c #BBB8B9",
"( 	c #ACA9AA",
"_ 	c #686666",
": 	c #4E4C4D",
"< 	c #252223",
"[ 	c #312F30",
"} 	c #B7B5B6",
"| 	c #ADAAAB",
"1 	c #AEAAAB",
"2 	c #B8B6B7",
"3 	c #B4B4B4",
"4 	c #A7A5A5",
"5 	c #706E6F",
"6 	c #575455",
"7 	c #525050",
"8 	c #3E3C3D",
"9 	c #B3B0B1",
"0 	c #B6B4B4",
"a 	c #B8B3B4",
"b 	c #B5B2B3",
"c 	c #B4B1B2",
"d 	c #898989",
"e 	c #8B8989",
"f 	c #737071",
"g 	c #555354",
"h 	c #585556",
"i 	c #514E4F",
"j 	c #282425",
"k 	c #383334",
"l 	c #BAB5B7",
"m 	c #B4AFB1",
"n 	c #BFBABB",
"o 	c #989395",
"p 	c #807B7D",
"q 	c #868182",
"r 	c #8A8587",
"s 	c #8B8788",
"t 	c #8C8A8B",
"u 	c #7A7A7A",
"v 	c #7C797A",
"w 	c #BBB6B8",
"x 	c #948F90",
"y 	c #7C7779",
"z 	c #817C7E",
"A 	c #7D797A",
"B 	c #7B7879",
"C 	c #747474",
"D 	c #767474",
"E 	c #B5B1B2",
"F 	c #8E898B",
"G 	c #757273",
"H 	c #7A7778",
"I 	c #7E7C7D",
"J 	c #797979",
"K 	c #787878",
"L 	c #7B7B7B",
"M 	c #7D7B7B",
"N 	c #B2ADAF",
"O 	c #716F70",
"P 	c #777576",
"Q 	c #7D7D7D",
"R 	c #7F7A7B",
"S 	c #746F71",
"T 	c #575254",
"U 	c #595556",
"V 	c #524E4F",
"W 	c #767978",
"X 	c #787A79",
"Y 	c #8F8A8C",
"Z 	c #766E71",
"` 	c #595154",
" .	c #5B5456",
"..	c #544D4F",
"+.	c #767B79",
"@.	c #5C5557",
"#.	c #554E50",
"$.	c #737373",
"%.	c #767273",
"&.	c #676264",
"*.	c #5D585A",
"=.	c #565153",
"-.	c #1A1617",
";.	c #3F3A3B",
">.	c #9D989A",
",.	c #6D6A6B",
"'.	c #6B6B6B",
").	c #6A6C6B",
"!.	c #6A6A6A",
"~.	c #555555",
"{.	c #585355",
"].	c #2D282A",
"^.	c #342F31",
"/.	c #BCB7B9",
"(.	c #9F9A9C",
"_.	c #726D6F",
":.	c #5F5A5C",
"<.	c #565656",
"[.	c #555756",
"}.	c #575757",
"|.	c #595757",
"1.	c #5B5657",
"2.	c #544F50",
"3.	c #211D1E",
"4.	c #ADA8AA",
"5.	c #656062",
"6.	c #4F4A4C",
"7.	c #545454",
"8.	c #525554",
"9.	c #535353",
"0.	c #505050",
"a.	c #2A2526",
"b.	c #201B1D",
"c.	c #6B6668",
"d.	c #484345",
"e.	c #5F5C5D",
"f.	c #1B1B1B",
"g.	c #252525",
"h.	c #2D2D2D",
"i.	c #242424",
"j.	c #1F1F1F",
"k.	c #212121",
"l.	c #222021",
"m.	c #211F1F",
"n.	c #231E1F",
"o.	c #1E1B1C",
"p.	c #201D1E",
"q.	c #1C1C1C",
"r.	c #1E1E1E",
"s.	c #282828",
"t.	c #2C2C2C",
"u.	c #262626",
"v.	c #21211F",
"w.	c #222220",
"x.	c #303030",
"y.	c #2F2F2F",
"z.	c #323232",
"A.	c #313131",
"B.	c #333031",
"C.	c #343132",
"D.	c #353233",
"E.	c #363233",
"F.	c #373536",
"G.	c #333333",
"H.	c #363636",
"I.	c #404040",
"J.	c #2B2B29",
"K.	c #171815",
"L.	c #A1A1A1",
"M.	c #A7A6A7",
"N.	c #B3B3B3",
"O.	c #B9B4B6",
"P.	c #B2B2B2",
"Q.	c #AFAFAF",
"R.	c #A9A9A9",
"S.	c #9E9E9E",
"T.	c #646562",
"U.	c #1E1F1C",
"V.	c #3D3D3D",
"W.	c #ABABAB",
"X.	c #B6B6B6",
"Y.	c #ACACAC",
"Z.	c #AEACAC",
"`.	c #AFADAD",
" +	c #B7B2B3",
".+	c #C0C0C0",
"++	c #A5A5A5",
"@+	c #6D6D6D",
"#+	c #545452",
"$+	c #252623",
"%+	c #B8B8B8",
"&+	c #BDBDBD",
"*+	c #B9B9B9",
"=+	c #BDBBBB",
"-+	c #636162",
";+	c #585654",
">+	c #262422",
",+	c #969696",
"'+	c #929292",
")+	c #8C8C8C",
"!+	c #8D8B8C",
"~+	c #8E8C8D",
"{+	c #939192",
"]+	c #868485",
"^+	c #514F4D",
"/+	c #7E7E7E",
"(+	c #717171",
"_+	c #747172",
":+	c #767472",
"<+	c #747270",
"[+	c #7D7B79",
"}+	c #7A7776",
"|+	c #53514F",
"1+	c #848484",
"2+	c #7F7F7F",
"3+	c #777777",
"4+	c #7C7A78",
"5+	c #7A7874",
"6+	c #75736F",
"7+	c #74726E",
"8+	c #555450",
"9+	c #54534F",
"0+	c #858384",
"a+	c #7B7977",
"b+	c #7B7975",
"c+	c #7B7973",
"d+	c #767470",
"e+	c #595753",
"f+	c #272521",
"g+	c #575551",
"h+	c #76756E",
"i+	c #75746D",
"j+	c #57554F",
"k+	c #55544E",
"l+	c #73716B",
"m+	c #585750",
"n+	c #54534D",
"o+	c #585652",
"p+	c #262420",
"q+	c #2C292A",
"r+	c #BAB7B8",
"s+	c #BEBCBD",
"t+	c #7F7D7E",
"u+	c #817E7F",
"v+	c #807B7B",
"w+	c #7F7A79",
"x+	c #807979",
"y+	c #7C7A76",
"z+	c #7C7B74",
"A+	c #6C6A66",
"B+	c #5A5854",
"C+	c #53514D",
"D+	c #25231F",
"E+	c #A6A3A4",
"F+	c #736F6E",
"G+	c #716C6B",
"H+	c #726B6B",
"I+	c #6F6D6B",
"J+	c #6E6B6C",
"K+	c #6E6C6A",
"L+	c #6E6C68",
"M+	c #6E6D66",
"N+	c #696864",
"O+	c #63625E",
"P+	c #4D4B4C",
"Q+	c #585453",
"R+	c #5B5655",
"S+	c #5C5555",
"T+	c #595755",
"U+	c #595851",
"V+	c #5B5A56",
"W+	c #656263",
"X+	c #615F5F",
"Y+	c #504D4E",
"Z+	c #514D4C",
"`+	c #534C4C",
" @	c #504E4C",
".@	c #4E4C4B",
"+@	c #4E4D49",
"@@	c #4E4D47",
"#@	c #504E4A",
"$@	c #514F4B",
"%@	c #282622",
"&@	c #4C4A4B",
"*@	c #545253",
"=@	c #4E494B",
"-@	c #55504F",
";@	c #514D4A",
">@	c #524E4B",
",@	c #52504E",
"'@	c #50514E",
")@	c #50514C",
"!@	c #454342",
"~@	c #1A1818",
"{@	c #282626",
"]@	c #2D2A2B",
"^@	c #262123",
"/@	c #272224",
"(@	c #2D2928",
"_@	c #2A2524",
":@	c #2A2622",
"<@	c #272523",
"[@	c #242422",
"}@	c #242520",
"|@	c #302E2D",
"1@	c #1B1918",
"                      . + @ # $ % & * = - - - - - - - - = = = = = = ",
"; ; ; ; ; ; ; ; ; ; ; ; > , ' ) ! ~ { { ] ] ] ] ] ] ] ] { { { { { { ",
"^ ^ ^ ^ ^ ^ ^ ^ ^ ^ ^ ^ / ( _ : < [ } | 1 1 1 1 1 1 1 1 | | | | 2 2 ",
"3 3 3 3 3 3 3 3 3 3 3 3 4 5 6 7 < 8 9 0 a a a a a a a a 0 b b c c 9 ",
"d d d d d d d d e e e e f g h i j k l m n o p q r r s s e e t t t t ",
"u u u u u u u u v v v v f g h i j k l m w x y z A A A v B B B B B B ",
"C C C C C C C C D D D D f g h i j k l m E F G H I I I u J K K K K K ",
"L L L L L L L L M M M M f g h i j k l m N s O P I I Q u J K K K K K ",
"L L L L M M M M M M R R S T U V j k l m ] F f H K K K W X X X X J J ",
"L L L L M M M M M M R R S T U V j k l m E Y G B J J X X X X X X J J ",
"L L L L M M M M M M R R Z `  ...j k l m E Y G J J X X +.X X X X X X ",
"L L L L M M M M M M R R Z @. .#.j k l m E Y G J X X X X X X X X X X ",
"$.$.$.$.G G G G G G %.%.&.*.U =.-.;.a l >.y ,.'.'.'.).).'.'.'.'.!.!.",
"~.~.~.~.6 6 6 6 6 6 {.{.U {.T =.].^./.(._.:.7 <.<.<.[.[.<.<.<.<.~.~.",
"}.}.}.}.|.|.|.|.|.|.1.U {.=.2.2.3.k 4.5.6.=.6 7.7.7.8.8.7.7.7.7.9.9.",
"0.0.0.0.7 7 7 7 7 7 2.2.2.2.2.2.a.b.c.{.d.|.e.7.7.7.8.8.7.7.7.7.9.9.",
"f.g.h.i.j.k.k.k.l.l.l.l.l.l.m.m.n.n.3.b.o.p.p.o.q.q.q.f.r.s.t.u.v.w.",
"j.x.y.z.A.A.A.A.B.B.B.B.B.C.C.D.E.k k k D.F.F.D.G.G.G.z.A.y.H.I.J.K.",
". L.3 M.N.N.N.N.b b b b b b 0 0 a a O.a b } } b N.N.N.P.Q.Q.R.S.T.U.",
"V.W.X.3 Y.Y.Y.Y.Z.Z.Z.Z.Z.`., { E  +a a b } } b N.N.N.N.^ .+++@+#+$+",
". P.Q.%+&+*+N.^ 9 b b b b b b b b b b c 9 b b 9 9 9 9 9 =+' -+7 ;+>+",
". P.Q.%+,+'+)+d !+~+~+~+~+~+~+~+~+~+~+!+t ~+~+t t t t t {+]+h ^+;+>+",
". P.Q.%+/+u C (+_+D D D D D D D D D D G _+D :+<+<+<+<+<+[+}+;+|+;+>+",
". P.Q.%+1+2+J 3+B v v v v v v v v v v B H v 4+}+}+}+5+5+6+7+8+9+;+>+",
". P.Q.%+0+H B v v v A A A A A A v v v v B B a+a+b+b+b+c+d+6+8+8+e+f+",
". P.Q.%+0+H B v v v A A A A A A v v v v B B a+a+b+b+c+c+d+6+g+8+e+f+",
". P.Q.%+0+H B v v v A A A A A A A A A A B B a+b+b+c+c+c+h+i+j+k+e+f+",
". P.Q.%+0+H B v v A A A A A A A A A A A B B a+b+c+c+c+c+h+l+m+n+o+p+",
"q+r+| s+e t+u+u+v+w+x+x+x+x+x+w+w+[+[+[+v v 4+y+y+y+z+z+7+A+B+C+g+D+",
"~ { c E+t+_+G _+F+G+H+H+H+H+H+H+G+I+I+I+J+J+K+L+L+L+M+M+N+O+B+C+g+D+",
"F.} 4 J+|.P+: 7 Q+R+S+S+S+S+S+S+R+T+T+T+h h ;+o+o+o+m+U+V+B+o+8+e+f+",
"* ' W+X+|.P+: Y+Z+Z+`+`+`+`+`+Z+ @ @ @ @: .@.@+@+@+@@@#@$@C+8+g+B+%@",
"B.W+&@*@=@6.-@Z+Z+Z+;@;@;@;@>@$@^+^+,@,@'@'@'@'@)@)@)@)@,@,@,@,@!@>+",
"~@B.{@]@^@/@(@_@_@_@:@:@%@%@f+f+<@<@>+>+[@[@[@[@}@}@}@}@>+>+>+>+|@1@"};
