/* XPM */
static char * wall_32x32_xpm[] = {
"32 32 213 2",
"  	c #3D3D3D",
". 	c #423F40",
"+ 	c #474546",
"@ 	c #353233",
"# 	c #1C1A1B",
"$ 	c #262422",
"% 	c #444240",
"& 	c #3C3A38",
"* 	c #403E3D",
"= 	c #423E3D",
"- 	c #ACACAC",
"; 	c #BAB7B8",
"> 	c #A3A1A2",
", 	c #6C696A",
"' 	c #262324",
") 	c #3E3C3B",
"! 	c #B5B3B1",
"~ 	c #AFADAB",
"{ 	c #B3B1AF",
"] 	c #B4B0AF",
"^ 	c #B4B4B4",
"/ 	c #A19FA0",
"( 	c #4C4A4B",
"_ 	c #252223",
": 	c #3F3D3C",
"< 	c #B0AEAD",
"[ 	c #B7B5B4",
"} 	c #B2ADAD",
"| 	c #AFAFAF",
"1 	c #6E6B6C",
"2 	c #4E4C4D",
"3 	c #535152",
"4 	c #312F30",
"5 	c #454342",
"6 	c #B4B2B0",
"7 	c #7B7B7B",
"8 	c #7D7B7B",
"9 	c #555354",
"0 	c #525050",
"a 	c #514E4F",
"b 	c #292728",
"c 	c #393434",
"d 	c #B8B3B2",
"e 	c #B1ACAB",
"f 	c #7F7A79",
"g 	c #7D7B79",
"h 	c #7A7A7A",
"i 	c #7C797A",
"j 	c #7D7978",
"k 	c #7C7A78",
"l 	c #585355",
"m 	c #555052",
"n 	c #544F50",
"o 	c #2C2729",
"p 	c #3A3535",
"q 	c #B5B1B0",
"r 	c #B9B4B4",
"s 	c #7A7B78",
"t 	c #797979",
"u 	c #7B7879",
"v 	c #7C7877",
"w 	c #7B7977",
"x 	c #797977",
"y 	c #787A77",
"z 	c #7C7779",
"A 	c #595757",
"B 	c #5B5657",
"C 	c #5B5456",
"D 	c #575053",
"E 	c #564F52",
"F 	c #2F272A",
"G 	c #3C3837",
"H 	c #BAB6B5",
"I 	c #A7A3A2",
"J 	c #6B6666",
"K 	c #5A5856",
"L 	c #585956",
"M 	c #575254",
"N 	c #5E575A",
"O 	c #5A5355",
"P 	c #322B2D",
"Q 	c #44403F",
"R 	c #A5A1A0",
"S 	c #736F6E",
"T 	c #4E4948",
"U 	c #514F4D",
"V 	c #4F504D",
"W 	c #5A5858",
"X 	c #5C5758",
"Y 	c #595154",
"Z 	c #554E50",
"` 	c #544D4F",
" .	c #2C2528",
"..	c #353130",
"+.	c #6F6B6A",
"@.	c #565151",
"#.	c #53514F",
"$.	c #52524F",
"%.	c #232122",
"&.	c #252022",
"*.	c #282425",
"=.	c #271F22",
"-.	c #251E21",
";.	c #181315",
">.	c #191514",
",.	c #262221",
"'.	c #2C2827",
").	c #2F2B2A",
"!.	c #232120",
"~.	c #222220",
"{.	c #211F1F",
"].	c #434041",
"^.	c #3D3B3B",
"/.	c #3C3739",
"(.	c #3B3638",
"_.	c #393436",
":.	c #3F3A3B",
"<.	c #363434",
"[.	c #393736",
"}.	c #3B3937",
"|.	c #393937",
"1.	c #3E3E3C",
"2.	c #3A3B38",
"3.	c #2C2D2A",
"4.	c #181916",
"5.	c #A9A7A8",
"6.	c #BCB9BA",
"7.	c #B3B0B1",
"8.	c #B5B1B2",
"9.	c #B4AFB1",
"0.	c #B0AEAF",
"a.	c #B6B4B4",
"b.	c #AFADAD",
"c.	c #B8B6B5",
"d.	c #B2B3B0",
"e.	c #AFAFAD",
"f.	c #A5A6A3",
"g.	c #666764",
"h.	c #292927",
"i.	c #ADAAAB",
"j.	c #BAB5B7",
"k.	c #B9B4B6",
"l.	c #B5B2B3",
"m.	c #BBB8B9",
"n.	c #B4B1B2",
"o.	c #BAB8B6",
"p.	c #BDBBB9",
"q.	c #B7B7B5",
"r.	c #A3A3A1",
"s.	c #636361",
"t.	c #4C4C4A",
"u.	c #282826",
"v.	c #BFBDBE",
"w.	c #B0ABAC",
"x.	c #AEAAAB",
"y.	c #AAA8A9",
"z.	c #ADABA9",
"A.	c #AEACAA",
"B.	c #ACADAA",
"C.	c #535351",
"D.	c #4E4E4C",
"E.	c #323230",
"F.	c #423D3F",
"G.	c #B3AEB0",
"H.	c #807B7D",
"I.	c #7F7A7B",
"J.	c #817E7F",
"K.	c #7A7778",
"L.	c #7B7C79",
"M.	c #595755",
"N.	c #545251",
"O.	c #555352",
"P.	c #282624",
"Q.	c #7F7D7E",
"R.	c #7D797A",
"S.	c #7E7C7D",
"T.	c #7A7776",
"U.	c #787876",
"V.	c #7B7678",
"W.	c #494446",
"X.	c #ACA7A9",
"Y.	c #ADA8AA",
"Z.	c #6A6566",
"`.	c #5D585A",
" +	c #5C5A5B",
".+	c #575553",
"++	c #555553",
"@+	c #585654",
"#+	c #4E4C4B",
"$+	c #4E494B",
"%+	c #A29D9E",
"&+	c #736E70",
"*+	c #595556",
"=+	c #585556",
"-+	c #575455",
";+	c #2A2526",
">+	c #4D4849",
",+	c #504B4D",
"'+	c #514C4E",
")+	c #52504E",
"!+	c #2C2928",
"~+	c #201B1D",
"{+	c #312C2D",
"]+	c #332E30",
"^+	c #2F2B2C",
"/+	c #2D282A",
"(+	c #2E292B",
"_+	c #2E2B2C",
":+	c #252221",
"<+	c #232321",
"[+	c #272523",
"}+	c #292726",
"|+	c #1A1816",
"                        . + @ # $ % & * = = = = = = = = = = = = ",
"- - - - - - - - - - - - ; > , ' ) ! ~ { ] ] ] ] ] ] ] ] ] ] ] ] ",
"^ ^ ^ ^ ^ ^ ^ ^ ^ ^ ^ ^ / , ( _ : < [ < } } } } } } } } } } } } ",
"| | | | | | | | | | | | 1 2 3 4 5 ! 6 { ] ] ] ] ] ] ] ] ] ] ] ] ",
"7 7 7 7 7 7 7 7 8 8 8 8 9 0 a b c ] d e f f f f f f f f f f f f ",
"7 7 7 7 7 7 7 7 8 8 8 8 9 0 a b c ] d e f f f f f f f f f f f f ",
"7 7 7 7 7 7 7 7 8 8 8 8 9 0 a b c ] d e f f f f g g g g g g g g ",
"h h h h h h h h i i i i 9 0 a b c ] d e j j j j k k k k k k k k ",
"h h h h i i i i i i i i l m n o p q r } j j k k k k s s s s s s ",
"t t t t u u u u u u u u l m n o p q r } v v w w w w x x x x x x ",
"t t t t u u u u u u u u l m n o p q r } v v w w x x x y y y y y ",
"t t t t u u u u u u u z l m n o p q r } v v w w x x y y y y y y ",
"A A A A A A A A B B B B C D E F G H I J K K K K L L L L L L L L ",
"9 9 9 9 9 9 9 9 M M M M N C O P Q R S T U U U U V V V V V V V V ",
"W W W W W W W W X X X X Y Z `  ...+.@.@.#.#.#.#.$.$.$.$.$.$.$.$.",
"%.%.%.%.%.%.%.%.&.&.&.&.*.=.-.;.>.,.'.).!.!.!.!.~.~.~.~.~.~.~.~.",
"{.].^.@ /././././././.(._._.:.<.[.& }.: }.}.|.|.}.}.|.|.1.2.3.4.",
"].5.6.7.8.8.8.8.8.8.8.9.0.0.a.b.{ ! 6 c.6 6 d.d.6 6 d.d.e.f.g.h.",
"^.6.; i.j.j.j.j.j.j.j.k.l.l.m.n.[ o.c.p.c.c.q.q.c.c.q.q.r.s.t.u.",
"@ 7.i.v.w.w.w.w.w.w.w.x.y.y.0.5.z.~ A.{ A.A.B.B.A.A.B.B.g.C.D.E.",
"F.w.G.8.H.H.H.H.H.H.H.I.u u J.K.g g g g L.L.L.s k w w w M.N.O.P.",
"F.w.G.8.H.H.H.H.H.H.H.I.u u J.K.g g g g L.L.L.s k w w w M.N.O.P.",
"F.w.G.8.H.H.H.H.H.H.H.I.u u Q.K.g g g g L.L.L.s k w w w M.N.O.P.",
"F.w.G.8.H.H.H.I.I.R.R.R.u u S.K.g g g g L.L.L.x k w w w M.N.O.P.",
"F.w.G.8.H.H.H.I.R.z z z u u 8 u T.T.T.T.U.U.U.x w w w w M.N.O.P.",
"F.w.G.8.H.H.H.R.z V.V.V.u u i u T.T.T.T.U.U.U.U.w w w w M.N.O.P.",
"F.w.G.8.H.H.H.R.z V.V.V.u u u u T.T.T.T.U.U.U.U.w w w w M.N.O.P.",
"F.w.G.8.H.H.H.R.z V.V.V.u u u u T.T.T.T.U.U.U.U.w w w w M.N.O.P.",
"W.X.Y.Z.X X X X `.`.`.`. + + + +.+.+.+.+++++++++@+@+@+@+U #+#.P.",
"$+%+&+$+l l l l *+*+*+*+A =+=+-+.+O.O.N.C.C.C.C.O.O.O.O.U #+#.P.",
";+Z.$+>+,+,+,+,+'+'+'+'+a a 0 0 #.#.N.N.C.C.C.C.O.O.O.O.N.)+.+!+",
"~+{+]+^+/+/+/+/+(+(+(+(+_+_+_+_+:+:+:+:+<+<+<+<+$ $ $ $ [+:+}+|+"};
