/* XPM */
static char * wall_38x38_xpm[] = {
"38 38 278 2",
"  	c #2A2A2A",
". 	c #292929",
"+ 	c #282828",
"@ 	c #262626",
"# 	c #2F2F2F",
"$ 	c #1D1D1D",
"% 	c #151515",
"& 	c #282626",
"* 	c #292728",
"= 	c #2A2829",
"- 	c #2C292A",
"; 	c #2D282A",
"> 	c #ADADAD",
", 	c #A9A9A9",
"' 	c #A3A3A3",
") 	c #B1B1B1",
"! 	c #B0B0B0",
"~ 	c #A7A6A7",
"{ 	c #5B5B5B",
"] 	c #171717",
"^ 	c #B1AFB0",
"/ 	c #B0AEAF",
"( 	c #AFADAD",
"_ 	c #AEACAC",
": 	c #B0ABAC",
"< 	c #ABABAB",
"[ 	c #BEBEBE",
"} 	c #B7B7B7",
"| 	c #9E9E9E",
"1 	c #626262",
"2 	c #505050",
"3 	c #222222",
"4 	c #232323",
"5 	c #B6B6B6",
"6 	c #B7B5B6",
"7 	c #B6B4B4",
"8 	c #B5B2B3",
"9 	c #B4B1B2",
"0 	c #B5B1B2",
"a 	c #B8B8B8",
"b 	c #999999",
"c 	c #656565",
"d 	c #5E5E5E",
"e 	c #474747",
"f 	c #1C1C1C",
"g 	c #B3B3B3",
"h 	c #B8B6B7",
"i 	c #BAB5B7",
"j 	c #A0A0A0",
"k 	c #666666",
"l 	c #525152",
"m 	c #535152",
"n 	c #545253",
"o 	c #1C1A1B",
"p 	c #232122",
"q 	c #ADAAAB",
"r 	c #A5A2A3",
"s 	c #A6A3A4",
"t 	c #A7A5A5",
"u 	c #A8A6A7",
"v 	c #A9A7A8",
"w 	c #ABA6A8",
"x 	c #787878",
"y 	c #535353",
"z 	c #4C4C4C",
"A 	c #1E1B1C",
"B 	c #252223",
"C 	c #7A7778",
"D 	c #7B7879",
"E 	c #7C797A",
"F 	c #7D797A",
"G 	c #7B7B7B",
"H 	c #797979",
"I 	c #7F7F7F",
"J 	c #616161",
"K 	c #7A7A7A",
"L 	c #7C7779",
"M 	c #585858",
"N 	c #525050",
"O 	c #7F7D7E",
"P 	c #7E7E7E",
"Q 	c #7E7C7D",
"R 	c #7D7B7B",
"S 	c #7D7D7D",
"T 	c #817E7F",
"U 	c #5A5858",
"V 	c #1F1A1C",
"W 	c #262123",
"X 	c #AEAAAB",
"Y 	c #5C5758",
"Z 	c #544F50",
"` 	c #5E595B",
" .	c #555052",
"..	c #808080",
"+.	c #7F7A7B",
"@.	c #746F71",
"#.	c #625D5E",
"$.	c #585355",
"%.	c #565151",
"&.	c #575352",
"*.	c #201C1B",
"=.	c #272322",
"-.	c #B2ADAD",
";.	c #C1BDBC",
">.	c #B7B2B1",
",.	c #B3AFAE",
"'.	c #7B7C79",
").	c #7A7B78",
"!.	c #7C7A78",
"~.	c #757072",
"{.	c #6C6769",
"].	c #635E5F",
"^.	c #5B5657",
"/.	c #585453",
"(.	c #211D1C",
"_.	c #282423",
":.	c #C2BEBD",
"<.	c #ABA6A6",
"[.	c #B4B0AF",
"}.	c #ADA9A8",
"|.	c #787876",
"1.	c #7A7776",
"2.	c #575757",
"3.	c #565656",
"4.	c #555555",
"5.	c #575455",
"6.	c #585556",
"7.	c #595556",
"8.	c #575254",
"9.	c #544F4E",
"0.	c #55504F",
"a.	c #1E1A19",
"b.	c #252120",
"c.	c #B8B3B2",
"d.	c #A7A3A2",
"e.	c #6D6968",
"f.	c #595757",
"g.	c #5D5E5B",
"h.	c #5F5D5B",
"i.	c #545454",
"j.	c #565153",
"k.	c #656160",
"l.	c #4A4645",
"m.	c #535351",
"n.	c #545452",
"o.	c #555352",
"p.	c #555354",
"q.	c #595554",
"r.	c #514D4C",
"s.	c #1A1615",
"t.	c #241F1F",
"u.	c #A49F9F",
"v.	c #726D6D",
"w.	c #575553",
"x.	c #555553",
"y.	c #1D1818",
"z.	c #1F1B1A",
"A.	c #53514F",
"B.	c #52504E",
"C.	c #252525",
"D.	c #1E191B",
"E.	c #191514",
"F.	c #1C1716",
"G.	c #22201F",
"H.	c #21211F",
"I.	c #211F1D",
"J.	c #201E1C",
"K.	c #1F1D1B",
"L.	c #1E1C1A",
"M.	c #1C1A19",
"N.	c #242424",
"O.	c #262324",
"P.	c #2D2A2B",
"Q.	c #2E292B",
"R.	c #2C2827",
"S.	c #2E2A29",
"T.	c #2F2B2A",
"U.	c #332E2E",
"V.	c #2B2626",
"W.	c #262221",
"X.	c #282624",
"Y.	c #252623",
"Z.	c #262422",
"`.	c #B2ADAF",
" +	c #B3AEB0",
".+	c #B4AFB1",
"++	c #B5B1B0",
"@+	c #B0AEAD",
"#+	c #B4B2B0",
"$+	c #B1AFAE",
"%+	c #AFAFAD",
"&+	c #B3B1AF",
"*+	c #A7A5A3",
"=+	c #A6A4A2",
"-+	c #B7B2B3",
";+	c #B8B3B4",
">+	c #B9B4B6",
",+	c #B9B4B4",
"'+	c #BAB6B5",
")+	c #B5B3B1",
"!+	c #B8B6B5",
"~+	c #B6B4B2",
"{+	c #B3B4B1",
"]+	c #B7B5B4",
"^+	c #BCBAB8",
"/+	c #AAA8A7",
"(+	c #666462",
"_+	c #B3B0B1",
":+	c #ACAAA8",
"<+	c #A09E9C",
"[+	c #686664",
"}+	c #585654",
"|+	c #ACA9AA",
"1+	c #AAA8A9",
"2+	c #AAA5A7",
"3+	c #A6A2A1",
"4+	c #A9A4A3",
"5+	c #AAA5A4",
"6+	c #A5A3A1",
"7+	c #A8A6A4",
"8+	c #A3A3A1",
"9+	c #A19F9D",
"0+	c #656361",
"a+	c #4C4A48",
"b+	c #2A2526",
"c+	c #A6A1A3",
"d+	c #7B7678",
"e+	c #797476",
"f+	c #817C7E",
"g+	c #787677",
"h+	c #777576",
"i+	c #7B7977",
"j+	c #7E7C7B",
"k+	c #4E4C4B",
"l+	c #545251",
"m+	c #272523",
"n+	c #514F4D",
"o+	c #777777",
"p+	c #5F5C5D",
"q+	c #4E4C4D",
"r+	c #514E4F",
"s+	c #272425",
"t+	c #504D4E",
"u+	c #BAB7B8",
"v+	c #BEBCBD",
"w+	c #A09E9E",
"x+	c #848282",
"y+	c #848484",
"z+	c #6C696A",
"A+	c #615F5F",
"B+	c #333031",
"C+	c #BCB9BA",
"D+	c #A19FA0",
"E+	c #737071",
"F+	c #5D5D5D",
"G+	c #5C5C5A",
"H+	c #5C5A59",
"I+	c #5B5958",
"J+	c #5A5A58",
"K+	c #5A5A5A",
"L+	c #ACACAC",
"M+	c #4E4E4E",
"N+	c #4F4F4F",
"O+	c #52524F",
"P+	c #313131",
"Q+	c #9A9A9A",
"R+	c #484848",
"S+	c #424242",
"T+	c #4B4B4B",
"U+	c #4B4B48",
"V+	c #464646",
"W+	c #1B1B1B",
"X+	c #1E1E1E",
"Y+	c #212121",
"Z+	c #232321",
"`+	c #252221",
" @	c #232120",
".@	c #1A1818",
"                      . + @   #   $ % $ @ @ @ @ @ @ @ @ & & * * = = - - ; ; ",
"> > > > > > > > > > > , ' , ) ! ~ { ] + ! ! ! ! ! ! ! ! ^ ^ / / ( ( _ _ : : ",
"< < < < < < < < < < < < ! [ } | 1 2 3 4 5 5 5 5 5 5 5 5 6 6 7 7 8 8 9 9 0 0 ",
") ) ) ) ) ) ) ) ) ) ) ) ) a b c d e f 3 g g g g g g g g 8 8 7 7 6 6 h h i i ",
"~ ~ ~ ~ ~ ~ ~ ~ ~ ~ ~ ~ < j k l m n o p q h h q ' ' ' ' r s s t t u u v w w ",
"x x x x x x x x x x x x x x y z m n A B q h h q x x x x C C D D D D E E F F ",
"G G G G G G G G G G G G H I J d m n A B q h h q K K K K E E E E D D D D L L ",
"I I I I I I I I I I I I I I M N m n A B q h h q O P P P O Q Q R R E E D L L ",
"S S S G K H H H H H D D T T U N m n V W X i i X D D H H H H H H H H H D D D ",
"S S S G K H H H H H D D T T Y Z m n V W X i i X D D H H H H H H H H H H D D ",
"S S S G K H H H H H D D T T Y Z m n V W X i i X D D H H H H H H H H H H D D ",
"S S S G K H H H H H D D T T `  .m n V W X i i X D D H H H H H H H H H H D D ",
"......I P S S S Q Q Q Q +.@.#.$.%.&.*.=.-.;.>.,.Q Q S S S S G G '.'.).).!.!.",
"P P P S G K K K E E E D ~.{.].^.&./.(._.:.<.[.}.O O P P P P P P |.|.|.|.1.1.",
"M M M 2.3.4.4.4.5.5.5.6.Y Y 7.8.9.0.a.b.,.c.d.e.f.f.2.2.2.2.2.2.g.g.g.g.h.h.",
"3.3.3.4.i.y y y n n n m Z Z j.8.9.0.a.b.>.d.k.l.m m l l l l y y m.m.n.n.o.o.",
"y y i.i.p.p.5.5.5.5.$.8.%.%./.q.r.0.s.t.u.v.r.%.w.x.x.x.x.x.x.x.o.o.w.w.w.w.",
"l l l l n n n n n n j. .9.9.%.&.0.r.y.z./.0.%./.o.m.m.m.m.m.m.m.A.A.A.A.B.B.",
"C.C.C.C.A A A A A A V D.y.y.z.*.z.(.E.F.*.t.t.a.G.H.H.H.H.H.H.H.I.I.J.K.L.M.",
"N.N.N.O.P.P.P.P.P.P.Q.; R.R.S.T.U.T.b.=.U.V.W.X.Y.Y.Y.Y.Y.Y.Y.Y.Z.Z.Z.Z.L.L.",
"& _ 9 9 X X _ ( `. +.+ +-.-.[.++,.,.}.,.@+#+#+$+%+%+%+%+%+%+%+%+&+&+*+=+o.Z.",
"& _ 9 9 -+-+7 7 ;+;+>+;+>.>.,+'+c.c.-.c.)+!+!+~+{+{+{+{+{+{+{+{+]+^+/+(+o.Z.",
"& _ 9 9 -+-+8 9 0 .+_+^ -.-.[.++$+$+:+$+@+#+#+$+%+%+%+%+%+%+%+%+~+<+[+}+o.Z.",
"& _ 9 9 X X |+1+w 2+t s 3+3+4+5+=+=+<+=+6+7+7+=+8+8+8+8+8+8+8+8+9+0+a+o.A.Z.",
"b+: 0 0 c+d+e+f+C C C g+h+h+C D i+i+i+i+i+i+i+i+H H H H H H H H j+h.k+l+B.m+",
"b+: 0 0 c+d+e+f+C C C g+h+h+C D i+i+i+i+i+i+i+i+H H H H H H H H j+h.k+l+n+m+",
"& _ 9 9 r C e+f+C C x o+o+o+x H i+i+i+i+i+i+i+i+H H H H H H H H j+h.k+l+n+m+",
"& _ 9 9 r C e+f+C C x o+o+o+x H i+i+i+i+i+i+i+i+H H H H H H H H j+h.k+l+n+m+",
"b+: 0 0 c+d+h+O C C x x o+o+x x D D D D D D D D H H H H H H H H Q p+q+n r+s+",
"b+: 0 0 c+d+h+O C C x x o+o+x x D D D D D D D D H H H H H H H H Q p+q+n r+s+",
"& _ 9 9 r C h+O C C x x x x x x D D D D D D D D H H H H H H H H Q p+q+n t+O.",
"& _ 9 9 r C h+O C C x x x x x x D D D D D D D D H H H H H H H H Q p+q+n t+O.",
"o u+8 v+w+x+K y+K K K K ).).).).!.!.!.!.!.!.!.!.).).).).K K K K z+A+6.p.t+O.",
"B+( C+D+E+A+3.J F+F+F+F+g.g.G+G+H+H+I+I+I+I+I+I+J+J+J+J+K+K+K+M 6.p.n p.t+O.",
"+ 5 L+J M+y y N+2 l l l O+O+O+O+A.A.A.A.A.A.A.A.O+O+O+O+l l l l n p.p.p.q+B ",
"P+Q+J y R+3.4.S+T+T+T+T+U+U+U+U+o.o.o.o.o.o.o.o.n.n.n.n.i.i.i.i.p.p.p.p.q+B ",
"3 M+i.V+N+2 N+z N+l l l O+O+O+O+l+l+l+A.A.B.B.B.B.B.B.B.N N N N N N N N m & ",
"W+X+4 X+X+3 Y+$ Y+4 4 4 Z+Z+Z+Z+Z.Z.Z.`+`+ @ @ @ @ @ @ @p p p p p p p p & .@"};
