/* XPM */
static char * wall_30x30_xpm[] = {
"30 30 190 2",
"  	c #444444",
". 	c #484848",
"+ 	c #4E4E4E",
"@ 	c #4C4C4C",
"# 	c #4A4748",
"$ 	c #393738",
"% 	c #120F10",
"& 	c #2D2A2B",
"* 	c #484345",
"= 	c #494446",
"- 	c #4A4547",
"; 	c #4D4648",
"> 	c #4E4749",
", 	c #4E494B",
"' 	c #4C4A4B",
") 	c #4B4B4B",
"! 	c #B1B1B1",
"~ 	c #AFAFAF",
"{ 	c #B6B6B6",
"] 	c #B9B9B9",
"^ 	c #9F9C9D",
"/ 	c #747172",
"( 	c #2A2829",
"_ 	c #444242",
": 	c #B5B1B2",
"< 	c #B7B2B3",
"[ 	c #B8B1B3",
"} 	c #B8B3B4",
"| 	c #B6B4B4",
"1 	c #B4B4B4",
"2 	c #B2B2B2",
"3 	c #AAAAAA",
"4 	c #BABABA",
"5 	c #B7B7B7",
"6 	c #A1A1A1",
"7 	c #716F70",
"8 	c #5E5B5C",
"9 	c #201D1E",
"0 	c #3E3C3D",
"a 	c #B4AFB1",
"b 	c #B6AFB1",
"c 	c #B5ADB0",
"d 	c #B3AEB0",
"e 	c #B1AFB0",
"f 	c #B0B0B0",
"g 	c #A3A3A3",
"h 	c #A8A8A8",
"i 	c #9E9E9E",
"j 	c #717171",
"k 	c #4E4C4D",
"l 	c #555354",
"m 	c #292728",
"n 	c #403E3F",
"o 	c #B0ABAC",
"p 	c #AEAAAB",
"q 	c #ADA8AA",
"r 	c #AEA6A9",
"s 	c #ACA5A8",
"t 	c #AAA5A7",
"u 	c #A8A6A7",
"v 	c #A7A6A7",
"w 	c #7A7A7A",
"x 	c #787878",
"y 	c #777777",
"z 	c #7F7F7F",
"A 	c #5C5C5C",
"B 	c #BAB5B7",
"C 	c #A29D9E",
"D 	c #7D797A",
"E 	c #7D7578",
"F 	c #7B7678",
"G 	c #7A7778",
"H 	c #B8B6B7",
"I 	c #A09E9E",
"J 	c #7C797A",
"K 	c #747474",
"L 	c #767676",
"M 	c #5D5D5D",
"N 	c #535353",
"O 	c #262626",
"P 	c #3E3E3E",
"Q 	c #B5B2B3",
"R 	c #B7B5B6",
"S 	c #B0AEAF",
"T 	c #767474",
"U 	c #787677",
"V 	c #7D7D7D",
"W 	c #7E7E7E",
"X 	c #797979",
"Y 	c #656565",
"Z 	c #4D4D4D",
"` 	c #545454",
" .	c #282828",
"..	c #3F3F3F",
"+.	c #AAA8A9",
"@.	c #A6A3A4",
"#.	c #7E7C7D",
"$.	c #777576",
"%.	c #808080",
"&.	c #727272",
"*.	c #5E5E5E",
"=.	c #B3B3B3",
"-.	c #999999",
";.	c #636363",
">.	c #646464",
",.	c #616161",
"'.	c #ADADAD",
").	c #A4A4A4",
"!.	c #707070",
"~.	c #5B5B5B",
"{.	c #565656",
"].	c #525152",
"^.	c #575757",
"/.	c #1D1D1D",
"(.	c #323232",
"_.	c #9B9B9B",
":.	c #555555",
"<.	c #575455",
"[.	c #2C2C2C",
"}.	c #3B3B3B",
"|.	c #6B6B6B",
"1.	c #505050",
"2.	c #282626",
"3.	c #292929",
"4.	c #242424",
"5.	c #212121",
"6.	c #111111",
"7.	c #181818",
"8.	c #252525",
"9.	c #222222",
"0.	c #434041",
"a.	c #414141",
"b.	c #454545",
"c.	c #373737",
"d.	c #393939",
"e.	c #3D3D3D",
"f.	c #1E1E1E",
"g.	c #4B4949",
"h.	c #ADAAAB",
"i.	c #BAB7B8",
"j.	c #B8B8B8",
"k.	c #B3B0B1",
"l.	c #A3A1A2",
"m.	c #686666",
"n.	c #373536",
"o.	c #AFADAD",
"p.	c #626061",
"q.	c #302E2F",
"r.	c #A2A0A1",
"s.	c #A2A2A2",
"t.	c #A5A5A5",
"u.	c #A5A2A3",
"v.	c #A19FA0",
"w.	c #5A5858",
"x.	c #312F30",
"y.	c #7B7B7B",
"z.	c #7B7879",
"A.	c #7F7D7E",
"B.	c #5F5C5D",
"C.	c #464445",
"D.	c #545253",
"E.	c #2E2B2C",
"F.	c #4B4748",
"G.	c #A49FA1",
"H.	c #7C7779",
"I.	c #525050",
"J.	c #2F2D2D",
"K.	c #494647",
"L.	c #7D7B7B",
"M.	c #5C5A5B",
"N.	c #4D4B4C",
"O.	c #B4B1B2",
"P.	c #595757",
"Q.	c #333031",
"R.	c #474747",
"S.	c #A9A9A9",
"T.	c #5B595A",
"U.	c #666364",
"V.	c #686868",
"W.	c #535152",
"X.	c #585556",
"Y.	c #2C292A",
"Z.	c #404040",
"`.	c #585355",
" +	c #353233",
".+	c #1B1B1B",
"++	c #2A2A2A",
"@+	c #2D282A",
"#+	c #272425",
"$+	c #1E1B1C",
"              . + @ . . # $ % & * * = - ; > , , ' ' ) ) ) ) ",
"! ! ! ! ! ! ! ~ ~ { ] { ^ / ( _ : : < < [ [ } } | | 1 1 1 1 ",
"2 2 2 2 2 2 2 2 3 4 5 6 7 8 9 0 : : : a b c d d e e f f f f ",
"g g g g g g g g h 1 i j k l m n o o p q r s t t u u v v v v ",
"w w w w w w w w x y z A k l m n B B C D E E F F G G x x x x ",
"w w w w w w w w x y z A k l m n B B C D E E F F G G x x x x ",
"w w w w w w w w x y z A k l m n H H I D F F F G G G x x x x ",
"w w w w w w w w x y z A k l m n H H I J F F G G G G x x x x ",
"w w w w w w w w K L j M @ N O P Q R S T U U U U y y y y y y ",
"L L L L L L L L V W X Y Z `  ...+.S @.#.$.$.$.$.L L L L L L ",
"%.%.%.%.%.%.%.%.L y &.*.Z `  ...=.1 -.%.X X X X X X X X X X ",
";.;.;.;.;.;.;.;.>.Y ,.Z Z `  ...'.).!.~.M M M M M M M M M M ",
"l l l l l l ` {.{.].` ].N ^./.(._.j :.{.:.:.:.:.:.:.:.` ` N ",
"<.<.<.<.<.<.:.^.^.N :.N :.:.[.}.|.:.@ ].1.1.1.1.1.1.1.1.].].",
"2.2.2.2.2.2.O 3.3.4.O 4.3.5.6.7.8.9.9.8.O 8.8.8.8.8.O O  . .",
"0.0.0.0.0.0.a.    ..a...b.c.d.e.  b.  ..P P P P P P P P f.f.",
"g.Q | h.i.i.i.i.i.| 4 4 5 j.{ ] i.i.H Q Q | | | H k.i.l.m.n.",
"g.Q | h.| | | | | k.5 5 =.1 2 { | | Q e e k.k.k.| | o.p.<.q.",
"g.| | h.@.@.@.@.@.r.v v g ).s.t.@.@.u.v.v.r.r.r.^ r.m.l w.x.",
"# | | h.J J J J J U V V X w x y.J J z.$.$.U U U z.A.B.C.D.E.",
"F.} < G.H.H.z.z.J J w w J J J J z.z.z.z.G G G G z.G 8 I.l J.",
"- } < G.H.H.z.z.J J w w J J J J z.z.z.z.G G G G z.G 8 I.l J.",
"K.R Q r.H.H.z.z.J J w w J J J J z.z.z.z.G G G G z.G 8 I.l J.",
"K.R Q r.H.H.z.z.J J w w J J J J z.z.z.z.G G G G z.G 8 I.D.E.",
"# k.R l.L.L.L.L.#.#.#.#.#.#.#.#.L.L.L.L.J J J J #.z.M.k l J.",
"N.R O.I L.L.L.L.#.#.#.#.#.#.#.#.L.L.L.L.J J J J / T B.<.P.Q.",
"R.'.S.!.M.M.M.M.8 8 8 8 8 8 8 8 M.M.M.M.T.T.T.T.M.U.w.P.<.q.",
". ).V.{.W.W.W.W.D.D.D.D.D.D.D.D.W.W.W.W.I.I.I.I.K.X.W.X.I.Y.",
"Z.V.N :.l l l l <.<.<.<.`.`.`.`.l l l l D.D.D.D.W.<.P.I.D. +",
".+3.O ++( ( ( ( Y.Y.Y.Y.@+@+@+@+( ( ( ( m m m m 2.Y.E.#+Q.$+"};
