/* XPM */
static char * frame4_xpm[] = {
"64 64 28 1",
" 	c #900000",
".	c #242424",
"+	c #720000",
"@	c #444444",
"#	c #5B0000",
"$	c #510000",
"%	c #0C0C0C",
"&	c #111111",
"*	c #060606",
"=	c #040404",
"-	c #070707",
";	c #0D0D0D",
">	c #0E0E0E",
",	c #0A0A0A",
"'	c #0F0F0F",
")	c #121212",
"!	c #080808",
"~	c #050505",
"{	c #090909",
"]	c #131313",
"^	c #0B0B0B",
"/	c #101010",
"(	c #030303",
"_	c #020202",
":	c #161616",
"<	c #151515",
"[	c #141414",
"}	c #171717",
" .............................................................. ",
"+.@@@@@@.@@@@@@@@@@@@@@@@@.@@@@@@@@@@@.@@@@@@@@@@.@@@@@@@.@@@@.+",
"#.@@@@@@.@@@@@@@@@@@@@@@@@.@@@@@@@@@@@.@@@@@@@@@@.@@@@@@@.@@@@.#",
"$.@@@@@@.@@@@@@@@@@@@@@@@@.@@@@@@@@@@@.@@@@@@@@@@.@@@@@@@.@@@@.$",
"$.@@@@@@.@@@@@@@@@@@@@@@@@.@@@@@@@@@@@.@@@@@@@@@@.@@@@@@@.@@@@.$",
"$.@@@@@@.......@@@@@@@@@@@.@@@@@@@.....@@@@@@@@@@.@@@@@@@.@@@@.$",
"$.@@@@@@.@@@@@.@@@@@@@@@@@.@@@@@@@.@@@@@@@@@@@@@@...@@@@@.@@@@.$",
"$.@@@@@@.@@@@@.@@@@@@@@@@@.@@@@@@@.@@@@@@@@@@@@@@@@.@@@@@.@@@@.$",
"$.@@@@@@.@@@@@.@@@@@@@@@@@.@@@@@@@.@@@@@@@@@@@@@@@@.@@@@@.@@@@.$",
"$.@@@@@@.@@@@@.@@@@@@@.....@@@@@@@.@@@@@@@@@@@@@@@@.@@@@@...@@.$",
"$.@@@@@@.@@@@@......@@.@@@@@@@@@@@.@@@@@@@@@@@@@@@@.@@@@@@@.@@.$",
"$.@@@@@@.@@@@@@@@@@.@@.@@@@@@@@@@@.@@@@@@@@@@.......@@@@@@@.@@.$",
"$.@@@@@@.@@@@@@@@@@.@@.@@@@@@@@@@@....@@@@@@@.@@@@@@@@@@@@@.@@.$",
"$.@@@@@@.@@@@@@@@@@.@@.@@@@@@@@@@@.@@.@@@@@@@.@@@@@@@@@@@@@.@@.$",
"$.@@@@@@.@@@@@@@@@@.@@.@@@@@@@@@@@.@@.@@@@@......@@@@@@@@@@.@@.$",
"$.@@@@@@.@@@@@@@@@@.......@@@@@@@@.@@.@@@@@.@@@@.@@@@@@@@@@.@@.$",
"$.@@@@@@...@@@@@@@@@@@@@@.@@@@.....@@.@@@@@.@@@@.@@@@@@@@@@.@@.$",
"$.@@@@@@@@.@@@@@@@@@@@@@@.@@@@.@@@@@@.@@@@@...@@.@@@@@@@@@@.@@.$",
"$.@@@@@@@@.@@@@@@@@@@@@@@.@@@@.@@@@@@.@@@@@@@.@@.@@@@@@@@@@.@@.$",
"$.@@@@@@@@.@@@.....................................@@@@@@@@.@@.$",
"$.@@@@@@@@.@@@.%&**=*-&;%;>,')!==~~{],;^^,/^=*=({&.@@@@@@@@.@@.$",
"$.@@@@@@@@.@@@.%/=~(*-&;,^%,')!==**,],%^;^&%~-**,&.@@@@@@@@.@@.$",
"$.@@@@@@@@.@@@.%/=*=--',=~*=^'*==~~-'~-*!->,~-~~,).@@@......@@.$",
"$.@@@@@@@@.@@@.%]-{!^{'{***(,/!-=**!'=-*~~;,=~(_^).@@@.@@@@@@@.$",
"$.@@@@@@@@.@@@.%:^;%>%&,*~*=%];%,%^%&~-*=~>;!^{!^).@@@.@@@@@@@.$",
"$.@@@@@@@@.@@@.%<{,{%%&,(=~(^];%%>;;&=~==~>>,>;>%].@@@.@@@@@@@.$",
"$.@@@@@@@@.@@@.%&~~=!!'{***(,'-*~-!{'(*~~~;^-,{{%].....@@@@@@@.$",
"$.@@@@@@@@.@@@.%[~~=*~>^=(*~,/,~=*-{'=~=(=%,~-~~,&.@@@.@@@@@@@.$",
"$.@@@@@@@@.@@@.%]=~=--/;!-{-^'-_(~~{)!^,,{/%*-*~,&.@@@.@@@@@@@.$",
"$.@@@@@@@@.@@@.%)~~=--&>>%'%']^*~~~{]^>;;^&^~-~*,/.@@@.@@@@@@@.$",
"$.@@@@@....@@@.%]**=*-'^-~{-%&{~--~!){,!{!>,=*~~,/.@@@.@@@@@@@.$",
"$.@@@@@.@@@@@@.%)**=*->{(_~={'{=~*~!/~*(~=%{=*~~^/.@@@....@@@@.$",
"$.@@@@@.@@@@@@.%&*!*!{/{-~-*,&^-(~*!'=~(==;^-{**%&.@@@@@@.@@@@.$",
"$.@@@@@.@@@@@@.%],%{^%&{~(~(!',--,,^/(*~=~>;{%,,>).@@@@@@.@@@@.$",
"$.@@@@@.@@@@@@.%};/;>;){*=*~^[&>>/'>/_~*=~>>^>>>'].@@@@@@.@@@@.$",
"$.@@@@@.@@@@@@.%)*-~-!',_(~(^/!*~-=^>*~*(=;,*!**,).@@@@@@.@@@@.$",
"$.@@@@@.@@@@@@.%&=~(*-',-!{*%&!~*-=,;~=~*~%{(*=~,).@@@@@@.@@@@.$",
"$.@@@@@.@@@@@@.%)~~(-!&;%%;,']{*~*(%&^,^%,/^=*~*{&.@@@@@@.@@@@.$",
"$.@@@@@.@@@@@@.%]**=-!&;,,^!>){*~*(%];%;;^&%*-**{&.@@@@@@.@@@@.$",
"$.@@@@@.@@@@@@.%)~~(**',=~*(,'-~*-(,'-~*-->,=*=({&.@@@@@@.@@@@.$",
"$.@@@@@..@@@@@.%]-!*!!',~~~_{'!**!=^;=(=(=;^*!~~^).@@@@@@.@@@@.$",
"$.@@@@@@.@@@@@.%<{%,%^&^***(^)%^!^!>'~~-=~>;{%,,;].@@@@@@.@@@@.$",
"$.@@@@@@.@@@@@.%[{%^;%&,===_,);;%'%/'=(*~*'>^>;;'[.@@@@@@.@@@@.$",
"$.@@@@@@.@@@@@.%)~~(~*>{~~*=,/-~(~~!/~*=~~;,=-~~,].@@@@@@.@@@@.$",
"$.@@@@@@.@@@@@.%)**=-!/^~*-=^/-~**~-'=~(==^{=-**,).@@@@@@.@@@@.$",
"$.@@@@@@.@@@@@.....................................@@@@@@....@.$",
"$...........@@@@@@@@@@@.@@@@@@@@@@@@@.@@@@@@@@@@@@.@@@@@@@@@.@.$",
"$.@@@@@@@@@.@@@@@@@@@@@.@@@@@@@@@@@@@.@@@@@@@@@@@@.@@@@@@@@@.@.$",
"$.@@@@@@@@@.@@@@@@@@@@@.@@@@@@@@@@@@@.@@@@@@@@@@@@.@@@@@@@@@...$",
"$.@@@@@@@@@.@@@@@@@@@@@.@@@@@@@@@@@@@.@@@@@@@@@....@@@@@@@@@.@.$",
"$.@@@@@@@@@.@@@@@@@@@@@.@@@@@@@@@@@@@....@@@@@@.@@@@@@@@@@@@.@.$",
"$.@@@@@@@@@.@@@@@@@@@@@.@@@@@@@@@@@@@@@@.@@@@@@.@@@@@@@@@@@@.@.$",
"$.@@@@@@@@@.@@@@@@@@@@@....@@@@@@@@@@@@@.@@@@@@.@@@@@@@@@@@@.@.$",
"$.@@@@@@@@@.@@@@@@@@@@@@@@.@@@@@@@@@@@@@.@@@@@@.@@@@@@@@@@@@.@.$",
"$.@@@@@@@@@.@@@@@@@@@@@@@@.@@@@@@@@@@@@@.....@@....@@@@@.....@.$",
"$.@@@@@@@@@.@@......@@@@@@.@@@@@@@@@@@@@@@@@.@@@@@.@@@@@.@@@@@.$",
"$.@@@@@@@@@.@@.@@@@.@@@@@..@@@@@@@@@@@@@@@@@.@@@@@.@@@@@.@@@@@.$",
"$.@@@@@@@@@.@@.@@@@.@@@@@.@@@@@@@@@@@@@@@@@@.@@@@@.@@@@@.@@@@@.$",
"$.@@@@@@@......@@@@.......@@@@@@@@@@@@@@@@@@.@@@@@.@@@@@.@@@@@.$",
"$.@@@@@@@.@@@@@@@@@@@@@@@.@@@@@@.....@@@@@@@.@@@@@.@@@@@.@@@@@.$",
"$.@@@@@@@.@@@@@@@@@@@@@@@.@@@@@@.@@@.@@@@@@@.@@@@@.@@@@@.@@@@@.$",
"$.@@@@@@@.@@@@@@@@@@@@@@@.@@@....@@@.@@@@@@@.@@@@@.@@@@@.@@@@@.$",
"$.@@@@@@@.@@@@@@@@@@@@@@@.@@@.@@@@@@.@@@@@@@.@@@@@.@@@@@.@@@@@.$",
"$..............................................................$"};
