/* XPM */
static char * a_xpm[] = {
"57 50 94 2",
"  	c #000000",
". 	c #0D0D0D",
"+ 	c #7D7D7D",
"@ 	c #B4B4B4",
"# 	c #D3D3D3",
"$ 	c #E7E7E7",
"% 	c #F4F4F4",
"& 	c #FAFAFA",
"* 	c #FEFEFE",
"= 	c #FFFFFF",
"- 	c #F2F2F2",
"; 	c #EAEAEA",
"> 	c #D8D8D8",
", 	c #B3B3B3",
"' 	c #7E7E7E",
") 	c #676767",
"! 	c #C1C1C1",
"~ 	c #F3F3F3",
"{ 	c #E9E9E9",
"] 	c #9E9E9E",
"^ 	c #161616",
"/ 	c #595959",
"( 	c #CECECE",
"_ 	c #FDFDFD",
": 	c #DEDEDE",
"< 	c #494949",
"[ 	c #A8A8A8",
"} 	c #F8F8F8",
"| 	c #EDEDED",
"1 	c #2E2E2E",
"2 	c #D2D2D2",
"3 	c #E3E3E3",
"4 	c #262626",
"5 	c #454545",
"6 	c #E1E1E1",
"7 	c #ABABAB",
"8 	c #3A3A3A",
"9 	c #E2E2E2",
"0 	c #F0F0F0",
"a 	c #747474",
"b 	c #BABABA",
"c 	c #A6A6A6",
"d 	c #828282",
"e 	c #B6B6B6",
"f 	c #2A2A2A",
"g 	c #E5E5E5",
"h 	c #7F7F7F",
"i 	c #222222",
"j 	c #B8B8B8",
"k 	c #BEBEBE",
"l 	c #383838",
"m 	c #515151",
"n 	c #F9F9F9",
"o 	c #FCFCFC",
"p 	c #707070",
"q 	c #C5C5C5",
"r 	c #4D4D4D",
"s 	c #7A7A7A",
"t 	c #F1F1F1",
"u 	c #929292",
"v 	c #5B5B5B",
"w 	c #D5D5D5",
"x 	c #DFDFDF",
"y 	c #474747",
"z 	c #FBFBFB",
"A 	c #A5A5A5",
"B 	c #AAAAAA",
"C 	c #424242",
"D 	c #646464",
"E 	c #949494",
"F 	c #F5F5F5",
"G 	c #C8C8C8",
"H 	c #808080",
"I 	c #C9C9C9",
"J 	c #EEEEEE",
"K 	c #F6F6F6",
"L 	c #999999",
"M 	c #696969",
"N 	c #D7D7D7",
"O 	c #E4E4E4",
"P 	c #4B4B4B",
"Q 	c #ADADAD",
"R 	c #ACACAC",
"S 	c #4F4F4F",
"T 	c #D9D9D9",
"U 	c #6A6A6A",
"V 	c #9C9C9C",
"W 	c #BCBCBC",
"X 	c #323232",
"Y 	c #EFEFEF",
"Z 	c #868686",
"` 	c #8B8B8B",
" .	c #CCCCCC",
"..	c #757575",
"                                                                                                                  ",
"                                                                                                                  ",
"                                                                                                                  ",
"                                                  . + @ # $ % & * = = = = = = = = = & - ; > , '                   ",
"                                              ) ! ~ = = = = = = = = = = = = = = = = = = = = = = { ] ^             ",
"                                          / ( _ = = = = = = = = = = = = = = = = = = = = = = = = = = : <           ",
"                                        [ } = = = = = = = = = = = = = = = = = = = = = = = = = = = = = | /         ",
"                                    1 2 = = = = = = = = = = = = = = = = = = = = = = = = = = = = = = = = 3 4       ",
"                                  5 6 = = = = = = = = = = = = = = = = = = = = = = = = = = = = = = = = = = 7       ",
"                                8 9 = = = = = = = = = = = = = = = = = = = = = = = = = = = = = = = = = = = 0       ",
"                              . > = = = = = = = = = = = = = = = = = = = = = = = = = = = = = = = = = = = = = a     ",
"                              b = = = = = = = = = = = = = = = = = = = = = = = = = = = = = = = = = = = = = = c     ",
"                            d _ = = = = = = = = = = = = = = = = = = = = = = = = = = = = = = = = = = = = = = e     ",
"                          f | = = = = = = = = = = = = = = = g h i           j = = = = = = = = = = = = = = = k     ",
"                          j = = = = = = = = = = = = = = = $ l               j = = = = = = = = = = = = = = = k     ",
"                        m n = = = = = = = = = = = = = = o p                 j = = = = = = = = = = = = = = = k     ",
"                        q = = = = = = = = = = = = = = = (                   j = = = = = = = = = = = = = = = k     ",
"                      r & = = = = = = = = = = = = = = = s                   j = = = = = = = = = = = = = = = k     ",
"                      j = = = = = = = = = = = = = = = {   j = = = = = = = = = = = = = = = = = = = = = = = = k     ",
"                    ^ t = = = = = = = = = = = = = = = @   j = = = = = = = = = = = = = = = = = = = = = = = = k     ",
"                    u = = = = = = = = = = = = = = = _ v   j = = = = = = = = = = = = = = = = = = = = = = = = k     ",
"                    w = = = = = = = = = = = = = = = x     j = = = = = = = = = = = = = = = = = = = = = = = = k     ",
"                  y z = = = = = = = = = = = = = = = A     j = = = = = = = = = = = = = = = = = = = = = = = = k     ",
"                  B = = = = = = = = = = = = = = = & C     j = = = = = = = = = = = = = = = = = = = = = = = = k     ",
"                  9 = = = = = = = = = = = = = = = #       j = = = = = = = = = = = = = = = = = = = = = = = = k     ",
"                D * = = = = = = = = = = = = = = = E       j = = = = = = = = = = = = = = = = = = = = = = = = k     ",
"                b = = = = = = = = = = = = = = = F 4       j = = = = = = = = = = = = = = = = = = = = = = = = k     ",
"                | = = = = = = = = = = = = = = = G         j = = = = = = = = = = = = = = = = = = = = = = = = k     ",
"              d = = = = = = = = = = = = = = = = H                           j = = = = = = = = = = = = = = = k     ",
"              I = = = = = = = = = = = = = = = J                             j = = = = = = = = = = = = = = = k     ",
"            f K = = = = = = = = = = = = = = = b                             j = = = = = = = = = = = = = = = k     ",
"            L = = = = = = = = = = = = = = = = M                             j = = = = = = = = = = = = = = = k     ",
"            N = = = = = = = = = = = = = = = O                               j = = = = = = = = = = = = = = = k     ",
"          P z = = = = = = = = = = = = = = = Q                               j = = = = = = = = = = = = = = = k     ",
"          R = = = = = = = = = = = = = = = o S                               j = = = = = = = = = = = = = = = k     ",
"          O = = = = = = = = = = = = = = = T                                 j = = = = = = = = = = = = = = = k     ",
"        U = = = = = = = = = = = = = = = = V                                 j = = = = = = = = = = = = = = = k     ",
"        W = = = = = = = = = = = = = = = } X                                 j = = = = = = = = = = = = = = = k     ",
"      . Y = = = = = = = = = = = = = = = (                                   j = = = = = = = = = = = = = = = k     ",
"      Z = = = = = = = = = = = = = = = = `                                   j = = = = = = = = = = = = = = = k     ",
"       .= = = = = = = = = = = = = = = - ^                                   j = = = = = = = = = = = = = = = k     ",
"    1 } = = = = = = = = = = = = = = = !                                     j = = = = = = = = = = = = = = = k     ",
"    V = = = = = = = = = = = = = = = = ..                                    j = = = = = = = = = = = = = = = k     ",
"                                                                                                                  ",
"                                                                                                                  ",
"                                                                                                                  ",
"                                                                                                                  ",
"                                                                                                                  ",
"                                                                                                                  ",
"                                                                                                                  "};
