/* XPM */
static char * b_xpm[] = {
"56 50 46 1",
" 	c #000000",
".	c #FFFFFF",
"+	c #FDFDFD",
"@	c #F5F5F5",
"#	c #EBEBEB",
"$	c #D9D9D9",
"%	c #AFAFAF",
"&	c #6A6A6A",
"*	c #FEFEFE",
"=	c #D5D5D5",
"-	c #737373",
";	c #FCFCFC",
">	c #ADADAD",
",	c #C6C6C6",
"'	c #4D4D4D",
")	c #A0A0A0",
"!	c #8E8E8E",
"~	c #404040",
"{	c #F3F3F3",
"]	c #4B4B4B",
"^	c #9F9F9F",
"/	c #F4F4F4",
"(	c #E5E5E5",
"_	c #BEBEBE",
":	c #757575",
"<	c #D0D0D0",
"[	c #F0F0F0",
"}	c #515151",
"|	c #646464",
"1	c #767676",
"2	c #BFBFBF",
"3	c #E6E6E6",
"4	c #D7D7D7",
"5	c #666666",
"6	c #D3D3D3",
"7	c #FBFBFB",
"8	c #727272",
"9	c #ACACAC",
"0	c #C8C8C8",
"a	c #B8B8B8",
"b	c #E2E2E2",
"c	c #808080",
"d	c #FAFAFA",
"e	c #EFEFEF",
"f	c #BCBCBC",
"g	c #7E7E7E",
"                                                        ",
"                                                        ",
"                                                        ",
"  .......................................+@#$%&         ",
"  ............................................*=-       ",
"  ..............................................;>      ",
"  ................................................,     ",
"  .................................................>    ",
"  .................................................;-   ",
"  ..................................................=   ",
"  ..................................................*&  ",
"  ...................................................%  ",
"  ...................................................$  ",
"                                  ')@................#  ",
"                                    !................@  ",
"                                    ~................;  ",
"                                    !................{  ",
"                                  ]^/................(  ",
"  ..................................................._  ",
"  ...................................................:  ",
"  ..................................................<   ",
"  .................................................[}   ",
"  ................................................[|    ",
"  ................................................[|    ",
"  .................................................[}   ",
"  ..................................................<   ",
"  ...................................................1  ",
"  ...................................................2  ",
"  ................                ')@................3  ",
"  ................                  !................{  ",
"  ................                  ~................;  ",
"  ................                  !................@  ",
"  ................                ]^/................#  ",
"  ...................................................4  ",
"  ...................................................>  ",
"  ..................................................+5  ",
"  ..................................................6   ",
"  .................................................78   ",
"  .................................................9    ",
"  ................................................0     ",
"  ...............................................a      ",
"  .............................................bc       ",
"  ........................................debfg         ",
"                                                        ",
"                                                        ",
"                                                        ",
"                                                        ",
"                                                        ",
"                                                        ",
"                                                        "};
