/* XPM */
static char * d_xpm[] = {
"56 50 43 1",
" 	c #000000",
".	c #FFFFFF",
"+	c #FCFCFC",
"@	c #F8F8F8",
"#	c #F0F0F0",
"$	c #E1E1E1",
"%	c #CECECE",
"&	c #ABABAB",
"*	c #747474",
"=	c #EFEFEF",
"-	c #BEBEBE",
";	c #5B5B5B",
">	c #C9C9C9",
",	c #515151",
"'	c #F6F6F6",
")	c #9A9A9A",
"!	c #C1C1C1",
"~	c #0D0D0D",
"{	c #4F4F4F",
"]	c #B8B8B8",
"^	c #A7A7A7",
"/	c #DBDBDB",
"(	c #8D8D8D",
"_	c #3D3D3D",
":	c #AAAAAA",
"<	c #737373",
"[	c #DADADA",
"}	c #EEEEEE",
"|	c #A6A6A6",
"1	c #BCBCBC",
"2	c #B7B7B7",
"3	c #585858",
"4	c #C6C6C6",
"5	c #F5F5F5",
"6	c #4B4B4B",
"7	c #959595",
"8	c #CACACA",
"9	c #969696",
"0	c #C7C7C7",
"a	c #4D4D4D",
"b	c #F1F1F1",
"c	c #E2E2E2",
"d	c #ACACAC",
"                                                        ",
"                                                        ",
"                                                        ",
"  ................................+@#$%&*               ",
"  .......................................=-;            ",
"  .........................................+>,          ",
"  ...........................................')         ",
"  .............................................!~       ",
"  ..............................................%~      ",
"  ...............................................!      ",
"  ................................................)     ",
"  ................................................',    ",
"  .................................................>    ",
"                                  {]+..............+;   ",
"                                    ^...............-   ",
"                                     /..............=   ",
"                                     (...............*  ",
"                                     _...............&  ",
"  ................                    ...............%  ",
"  ................                    ...............$  ",
"  ................                    ...............#  ",
"  ................                    ...............@  ",
"  ................                    ...............+  ",
"  ................                    ...............+  ",
"  ................                    ...............@  ",
"  ................                    ...............#  ",
"  ................                    ...............$  ",
"  ................                    ...............%  ",
"  ................                   _...............:  ",
"  ................                   (...............<  ",
"  ................                   [..............}   ",
"  ................                  |...............1   ",
"  ................                {2+..............+3   ",
"  .................................................4    ",
"  ................................................56    ",
"  ................................................7     ",
"  ...............................................-      ",
"  ..............................................8       ",
"  .............................................-        ",
"  ...........................................59         ",
"  .........................................+0a          ",
"  .......................................}13            ",
"  ................................+@bc%d*               ",
"                                                        ",
"                                                        ",
"                                                        ",
"                                                        ",
"                                                        ",
"                                                        ",
"                                                        "};
