/* XPM */
static char * f_xpm[] = {
"44 50 34 1",
" 	c #000000",
".	c #747474",
"+	c #ABABAB",
"@	c #CECECE",
"#	c #E1E1E1",
"$	c #F0F0F0",
"%	c #F8F8F8",
"&	c #FCFCFC",
"*	c #FFFFFF",
"=	c #5B5B5B",
"-	c #BEBEBE",
";	c #EFEFEF",
">	c #515151",
",	c #C9C9C9",
"'	c #9B9B9B",
")	c #F6F6F6",
"!	c #0D0D0D",
"~	c #C2C2C2",
"{	c #D0D0D0",
"]	c #C3C3C3",
"^	c #CACACA",
"/	c #5D5D5D",
"(	c #F3F3F3",
"_	c #9E9E9E",
":	c #424242",
"<	c #FAFAFA",
"[	c #6D6D6D",
"}	c #C6C6C6",
"|	c #757575",
"1	c #7D7D7D",
"2	c #ADADAD",
"3	c #494949",
"4	c #E2E2E2",
"5	c #F1F1F1",
"                                            ",
"                                            ",
"                                            ",
"               .+@#$%&********************  ",
"            =-;***************************  ",
"          >,&*****************************  ",
"         ')*******************************  ",
"       !~*********************************  ",
"      !{**********************************  ",
"      ]***********************************  ",
"     '************************************  ",
"    >)************************************  ",
"    ^*************************************  ",
"   /&**************(_:                      ",
"   -**************<[                        ",
"   ;**************}                         ",
"  |***************1                         ",
"  2***************3                         ",
"  {*****************************            ",
"  4*****************************            ",
"  5*****************************            ",
"  %*****************************            ",
"  &*****************************            ",
"  ******************************            ",
"  ******************************            ",
"  ******************************            ",
"  ******************************            ",
"  ******************************            ",
"  ****************                          ",
"  ****************                          ",
"  ****************                          ",
"  ****************                          ",
"  ****************                          ",
"  ****************                          ",
"  ****************                          ",
"  ****************                          ",
"  ****************                          ",
"  ****************                          ",
"  ****************                          ",
"  ****************                          ",
"  ****************                          ",
"  ****************                          ",
"  ****************                          ",
"                                            ",
"                                            ",
"                                            ",
"                                            ",
"                                            ",
"                                            ",
"                                            "};
