/* XPM */
static char * g_xpm[] = {
"56 50 43 1",
" 	c #000000",
".	c #747474",
"+	c #ABABAB",
"@	c #CECECE",
"#	c #E1E1E1",
"$	c #F0F0F0",
"%	c #F8F8F8",
"&	c #FCFCFC",
"*	c #FFFFFF",
"=	c #5B5B5B",
"-	c #BEBEBE",
";	c #EFEFEF",
">	c #515151",
",	c #C9C9C9",
"'	c #9B9B9B",
")	c #F6F6F6",
"!	c #0D0D0D",
"~	c #C2C2C2",
"{	c #D0D0D0",
"]	c #C3C3C3",
"^	c #CACACA",
"/	c #5D5D5D",
"(	c #B8B8B8",
"_	c #4F4F4F",
":	c #A6A6A6",
"<	c #DADADA",
"[	c #757575",
"}	c #8C8C8C",
"|	c #ADADAD",
"1	c #3A3A3A",
"2	c #E2E2E2",
"3	c #F1F1F1",
"4	c #ACACAC",
"5	c #EEEEEE",
"6	c #BCBCBC",
"7	c #A5A5A5",
"8	c #595959",
"9	c #B7B7B7",
"0	c #4D4D4D",
"a	c #C8C8C8",
"b	c #F5F5F5",
"c	c #969696",
"d	c #CBCBCB",
"                                                        ",
"                                                        ",
"                                                        ",
"               .+@#$%&********************************  ",
"            =-;***************************************  ",
"          >,&*****************************************  ",
"         ')*******************************************  ",
"       !~*********************************************  ",
"      !{**********************************************  ",
"      ]***********************************************  ",
"     '************************************************  ",
"    >)************************************************  ",
"    ^*************************************************  ",
"   /&**************&(_                                  ",
"   -***************:                                    ",
"   ;**************<                                     ",
"  [***************}                                     ",
"  |***************1                                     ",
"  {***************                                      ",
"  2***************                                      ",
"  3***************                    ----------------  ",
"  %***************                    ****************  ",
"  &***************                    ****************  ",
"  &***************                    ****************  ",
"  %***************                    ****************  ",
"  3***************                    ****************  ",
"  2***************                    ****************  ",
"  @***************                    ****************  ",
"  4***************1                   ****************  ",
"  .***************}                   ****************  ",
"   5**************<                   ****************  ",
"   6***************7                  ****************  ",
"   8&**************&90                ****************  ",
"    a*************************************************  ",
"    0b************************************************  ",
"     c************************************************  ",
"      -***********************************************  ",
"       d**********************************************  ",
"        -*********************************************  ",
"         cb*******************************************  ",
"          0a&*****************************************  ",
"            865***************************************  ",
"               .4@23%&********************************  ",
"                                                        ",
"                                                        ",
"                                                        ",
"                                                        ",
"                                                        ",
"                                                        ",
"                                                        "};
