/* XPM */
static char * h_xpm[] = {
"56 50 8 1",
" 	c #000000",
".	c #F9F9F9",
"+	c #FAFAFA",
"@	c #FBFBFB",
"#	c #FCFCFC",
"$	c #FDFDFD",
"%	c #FEFEFE",
"&	c #FFFFFF",
"                                                        ",
"                                                        ",
"                                                        ",
"  ..++++@@@##$$$%&                    &&&&&&&&&&&&&&&&  ",
"  &&&&&&&&&&&&&&&&                    &&&&&&&&&&&&&&&&  ",
"  &&&&&&&&&&&&&&&&                    &&&&&&&&&&&&&&&&  ",
"  &&&&&&&&&&&&&&&&                    &&&&&&&&&&&&&&&&  ",
"  &&&&&&&&&&&&&&&&                    &&&&&&&&&&&&&&&&  ",
"  &&&&&&&&&&&&&&&&                    &&&&&&&&&&&&&&&&  ",
"  &&&&&&&&&&&&&&&&                    &&&&&&&&&&&&&&&&  ",
"  &&&&&&&&&&&&&&&&                    &&&&&&&&&&&&&&&&  ",
"  &&&&&&&&&&&&&&&&                    &&&&&&&&&&&&&&&&  ",
"  &&&&&&&&&&&&&&&&                    &&&&&&&&&&&&&&&&  ",
"  &&&&&&&&&&&&&&&&                    &&&&&&&&&&&&&&&&  ",
"  &&&&&&&&&&&&&&&&                    &&&&&&&&&&&&&&&&  ",
"  &&&&&&&&&&&&&&&&                    &&&&&&&&&&&&&&&&  ",
"  &&&&&&&&&&&&&&&&                    &&&&&&&&&&&&&&&&  ",
"  &&&&&&&&&&&&&&&&                    &&&&&&&&&&&&&&&&  ",
"  &&&&&&&&&&&&&&&&&&&&&&&&&&&&&&&&&&&&&&&&&&&&&&&&&&&&  ",
"  &&&&&&&&&&&&&&&&&&&&&&&&&&&&&&&&&&&&&&&&&&&&&&&&&&&&  ",
"  &&&&&&&&&&&&&&&&&&&&&&&&&&&&&&&&&&&&&&&&&&&&&&&&&&&&  ",
"  &&&&&&&&&&&&&&&&&&&&&&&&&&&&&&&&&&&&&&&&&&&&&&&&&&&&  ",
"  &&&&&&&&&&&&&&&&&&&&&&&&&&&&&&&&&&&&&&&&&&&&&&&&&&&&  ",
"  &&&&&&&&&&&&&&&&&&&&&&&&&&&&&&&&&&&&&&&&&&&&&&&&&&&&  ",
"  &&&&&&&&&&&&&&&&&&&&&&&&&&&&&&&&&&&&&&&&&&&&&&&&&&&&  ",
"  &&&&&&&&&&&&&&&&&&&&&&&&&&&&&&&&&&&&&&&&&&&&&&&&&&&&  ",
"  &&&&&&&&&&&&&&&&&&&&&&&&&&&&&&&&&&&&&&&&&&&&&&&&&&&&  ",
"  &&&&&&&&&&&&&&&&&&&&&&&&&&&&&&&&&&&&&&&&&&&&&&&&&&&&  ",
"  &&&&&&&&&&&&&&&&                    &&&&&&&&&&&&&&&&  ",
"  &&&&&&&&&&&&&&&&                    &&&&&&&&&&&&&&&&  ",
"  &&&&&&&&&&&&&&&&                    &&&&&&&&&&&&&&&&  ",
"  &&&&&&&&&&&&&&&&                    &&&&&&&&&&&&&&&&  ",
"  &&&&&&&&&&&&&&&&                    &&&&&&&&&&&&&&&&  ",
"  &&&&&&&&&&&&&&&&                    &&&&&&&&&&&&&&&&  ",
"  &&&&&&&&&&&&&&&&                    &&&&&&&&&&&&&&&&  ",
"  &&&&&&&&&&&&&&&&                    &&&&&&&&&&&&&&&&  ",
"  &&&&&&&&&&&&&&&&                    &&&&&&&&&&&&&&&&  ",
"  &&&&&&&&&&&&&&&&                    &&&&&&&&&&&&&&&&  ",
"  &&&&&&&&&&&&&&&&                    &&&&&&&&&&&&&&&&  ",
"  &&&&&&&&&&&&&&&&                    &&&&&&&&&&&&&&&&  ",
"  &&&&&&&&&&&&&&&&                    &&&&&&&&&&&&&&&&  ",
"  &&&&&&&&&&&&&&&&                    &&&&&&&&&&&&&&&&  ",
"  &&&&&&&&&&&&&&&&                    &&&&&&&&&&&&&&&&  ",
"                                                        ",
"                                                        ",
"                                                        ",
"                                                        ",
"                                                        ",
"                                                        ",
"                                                        "};
