/* XPM */
static char * i_xpm[] = {
"20 50 12 1",
" 	c #000000",
".	c #F5F5F5",
"+	c #F6F6F6",
"@	c #F7F7F7",
"#	c #F8F8F8",
"$	c #F9F9F9",
"%	c #FAFAFA",
"&	c #FBFBFB",
"*	c #FCFCFC",
"=	c #FDFDFD",
"-	c #FEFEFE",
";	c #FFFFFF",
"                    ",
"                    ",
"                    ",
"  .++@##$$%%&&*==-  ",
"  ;;;;;;;;;;;;;;;;  ",
"  ;;;;;;;;;;;;;;;;  ",
"  ;;;;;;;;;;;;;;;;  ",
"  ;;;;;;;;;;;;;;;;  ",
"  ;;;;;;;;;;;;;;;;  ",
"  ;;;;;;;;;;;;;;;;  ",
"  ;;;;;;;;;;;;;;;;  ",
"  ;;;;;;;;;;;;;;;;  ",
"  ;;;;;;;;;;;;;;;;  ",
"  ;;;;;;;;;;;;;;;;  ",
"  ;;;;;;;;;;;;;;;;  ",
"  ;;;;;;;;;;;;;;;;  ",
"  ;;;;;;;;;;;;;;;;  ",
"  ;;;;;;;;;;;;;;;;  ",
"  ;;;;;;;;;;;;;;;;  ",
"  ;;;;;;;;;;;;;;;;  ",
"  ;;;;;;;;;;;;;;;;  ",
"  ;;;;;;;;;;;;;;;;  ",
"  ;;;;;;;;;;;;;;;;  ",
"  ;;;;;;;;;;;;;;;;  ",
"  ;;;;;;;;;;;;;;;;  ",
"  ;;;;;;;;;;;;;;;;  ",
"  ;;;;;;;;;;;;;;;;  ",
"  ;;;;;;;;;;;;;;;;  ",
"  ;;;;;;;;;;;;;;;;  ",
"  ;;;;;;;;;;;;;;;;  ",
"  ;;;;;;;;;;;;;;;;  ",
"  ;;;;;;;;;;;;;;;;  ",
"  ;;;;;;;;;;;;;;;;  ",
"  ;;;;;;;;;;;;;;;;  ",
"  ;;;;;;;;;;;;;;;;  ",
"  ;;;;;;;;;;;;;;;;  ",
"  ;;;;;;;;;;;;;;;;  ",
"  ;;;;;;;;;;;;;;;;  ",
"  ;;;;;;;;;;;;;;;;  ",
"  ;;;;;;;;;;;;;;;;  ",
"  ;;;;;;;;;;;;;;;;  ",
"  ;;;;;;;;;;;;;;;;  ",
"  ;;;;;;;;;;;;;;;;  ",
"                    ",
"                    ",
"                    ",
"                    ",
"                    ",
"                    ",
"                    "};
