/* XPM */
static char * j_xpm[] = {
"40 50 29 1",
" 	c #000000",
".	c #FFFFFF",
"+	c #3D3D3D",
"@	c #8D8D8D",
"#	c #DADADA",
"$	c #FDFDFD",
"%	c #A6A6A6",
"&	c #F5F5F5",
"*	c #4F4F4F",
"=	c #B7B7B7",
"-	c #FCFCFC",
";	c #EAEAEA",
">	c #D7D7D7",
",	c #FEFEFE",
"'	c #ABABAB",
")	c #616161",
"!	c #D0D0D0",
"~	c #FAFAFA",
"{	c #696969",
"]	c #A2A2A2",
"^	c #FBFBFB",
"/	c #BDBDBD",
"(	c #A5A5A5",
"_	c #D2D2D2",
":	c #6B6B6B",
"<	c #ECECEC",
"[	c #D8D8D8",
"}	c #ADADAD",
"|	c #646464",
"                                        ",
"                                        ",
"                                        ",
"                      ................  ",
"                      ................  ",
"                      ................  ",
"                      ................  ",
"                      ................  ",
"                      ................  ",
"                      ................  ",
"                      ................  ",
"                      ................  ",
"                      ................  ",
"                      ................  ",
"                      ................  ",
"                      ................  ",
"                      ................  ",
"                      ................  ",
"                      ................  ",
"                      ................  ",
"                      ................  ",
"                      ................  ",
"                      ................  ",
"                      ................  ",
"                      ................  ",
"                      ................  ",
"                      ................  ",
"                      ................  ",
"                     +................  ",
"                     @................  ",
"                     #...............$  ",
"                    %................&  ",
"                  *=-................;  ",
"  ...................................>  ",
"  ,..................................'  ",
"  $.................................$)  ",
"  $.................................!   ",
"  -................................~{   ",
"  -................................]    ",
"  ^.............................../     ",
"  ~.............................^(      ",
"  ~...........................$_:       ",
"  ~......................$&<[}|         ",
"                                        ",
"                                        ",
"                                        ",
"                                        ",
"                                        ",
"                                        ",
"                                        "};
