/* XPM */
static char * k_xpm[] = {
"60 50 58 1",
" 	c #000000",
".	c #FFFFFF",
"+	c #C0C0C0",
"@	c #B6B6B6",
"#	c #161616",
"$	c #C9C9C9",
"%	c #FEFEFE",
"&	c #ADADAD",
"*	c #222222",
"=	c #D2D2D2",
"-	c #FDFDFD",
";	c #A3A3A3",
">	c #323232",
",	c #D9D9D9",
"'	c #FBFBFB",
")	c #9A9A9A",
"!	c #404040",
"~	c #E0E0E0",
"{	c #FAFAFA",
"]	c #8F8F8F",
"^	c #4D4D4D",
"/	c #E5E5E5",
"(	c #F8F8F8",
"_	c #868686",
":	c #595959",
"<	c #EAEAEA",
"[	c #F5F5F5",
"}	c #7C7C7C",
"|	c #646464",
"1	c #EEEEEE",
"2	c #F3F3F3",
"3	c #727272",
"4	c #F2F2F2",
"5	c #F0F0F0",
"6	c #676767",
"7	c #7D7D7D",
"8	c #ECECEC",
"9	c #5D5D5D",
"0	c #898989",
"a	c #E8E8E8",
"b	c #535353",
"c	c #949494",
"d	c #E3E3E3",
"e	c #474747",
"f	c #9F9F9F",
"g	c #FCFCFC",
"h	c #DEDEDE",
"i	c #3A3A3A",
"j	c #AAAAAA",
"k	c #2E2E2E",
"l	c #B5B5B5",
"m	c #D3D3D3",
"n	c #CBCBCB",
"o	c #C3C3C3",
"p	c #BFBFBF",
"q	c #BCBCBC",
"r	c #BEBEBE",
"s	c #BDBDBD",
"                                                            ",
"                                                            ",
"                                                            ",
"  ................               +...................@      ",
"  ................             #$..................%&       ",
"  ................            *=..................-;        ",
"  ................           >,..................')         ",
"  ................          !~..................{]          ",
"  ................         ^/..................(_           ",
"  ................        :<..................[}            ",
"  ................       |1..................23             ",
"  ................      34..................56              ",
"  ................     7[..................89               ",
"  ................    0(..................ab                ",
"  ................   c{..................de                 ",
"  ................  fg..................hi                  ",
"  ................ j-..................,k                   ",
"  ................l...................m*                    ",
"  ...................................n#                     ",
"  ..................................o                       ",
"  .................................d                        ",
"  ..................................p                       ",
"  ...................................p                      ",
"  ................q...................p                     ",
"  ................ q...................r                    ",
"  ................  q...................r                   ",
"  ................   q...................r                  ",
"  ................    q...................r                 ",
"  ................     q...................r                ",
"  ................      q...................s               ",
"  ................       q...................s              ",
"  ................        q...................s             ",
"  ................         q...................q            ",
"  ................          q...................q           ",
"  ................           q...................q          ",
"  ................            q...................q         ",
"  ................             q...................q        ",
"  ................              q...................q       ",
"  ................               q...................q      ",
"  ................                q...................q     ",
"  ................                 q...................q    ",
"  ................                  q...................q   ",
"  ................                   q...................q  ",
"                                                            ",
"                                                            ",
"                                                            ",
"                                                            ",
"                                                            ",
"                                                            ",
"                                                            "};
