/* XPM */
static char * m_xpm[] = {
"60 50 38 1",
" 	c #000000",
".	c #606060",
"+	c #B5B5B5",
"@	c #DEDEDE",
"#	c #F0F0F0",
"$	c #FAFAFA",
"%	c #F7F7F7",
"&	c #E3E3E3",
"*	c #B0B0B0",
"=	c #474747",
"-	c #454545",
";	c #DDDDDD",
">	c #B4B4B4",
",	c #3D3D3D",
"'	c #C9C9C9",
")	c #FBFBFB",
"!	c #FFFFFF",
"~	c #F5F5F5",
"{	c #ADADAD",
"]	c #0D0D0D",
"^	c #ACACAC",
"/	c #C8C8C8",
"(	c #3A3A3A",
"_	c #EAEAEA",
":	c #565656",
"<	c #535353",
"[	c #DBDBDB",
"}	c #E8E8E8",
"|	c #5E5E5E",
"1	c #646464",
"2	c #EFEFEF",
"3	c #616161",
"4	c #FCFCFC",
"5	c #B6B6B6",
"6	c #F1F1F1",
"7	c #636363",
"8	c #BCBCBC",
"9	c #BABABA",
"                                                            ",
"                                                            ",
"                                                            ",
"       .+@#$%&*=                            -*&%$#;>.       ",
"     ,')!!!!!!!~{]                        ]^~!!!!!!!)/(     ",
"    ._!!!!!!!!!!!;:                      <[!!!!!!!!!!!}|    ",
"   ,_!!!!!!!!!!!!!#1                    .2!!!!!!!!!!!!!}(   ",
"   '!!!!!!!!!!!!!!!#1                  .2!!!!!!!!!!!!!!!/   ",
"  34!!!!!!!!!!!!!!!!#1                32!!!!!!!!!!!!!!!!).  ",
"  5!!!!!!!!!!!!!!!!!!#1              32!!!!!!!!!!!!!!!!!!>  ",
"  @!!!!!!!!!!!!!!!!!!!#1            32!!!!!!!!!!!!!!!!!!!;  ",
"  6!!!!!!!!!!!!!!!!!!!!#1          32!!!!!!!!!!!!!!!!!!!!#  ",
"  $!!!!!!!!!!!!!!!!!!!!!#1        7#!!!!!!!!!!!!!!!!!!!!!$  ",
"  !!!!!!!!!!!!!!!!!!!!!!!#1      7#!!!!!!!!!!!!!!!!!!!!!!!  ",
"  !!!!!!!!!!!!!!!!!!!!!!!!#1    1#!!!!!!!!!!!!!!!!!!!!!!!!  ",
"  !!!!!!!!!!!!!!!!!!!!!!!!!#1  1#!!!!!!!!!!!!!!!!!!!!!!!!!  ",
"  !!!!!!!!!!!!!!!!!!!!!!!!!!#11#!!!!!!!!!!!!!!!!!!!!!!!!!!  ",
"  !!!!!!!!!!!!!!!!!!!!!!!!!!!##!!!!!!!!!!!!!!!!!!!!!!!!!!!  ",
"  !!!!!!!!!!!!!!!!!!!!!!!!!!!!!!!!!!!!!!!!!!!!!!!!!!!!!!!!  ",
"  !!!!!!!!!!!!!!!!!!!!!!!!!!!!!!!!!!!!!!!!!!!!!!!!!!!!!!!!  ",
"  !!!!!!!!!!!!!!!!!!!!!!!!!!!!!!!!!!!!!!!!!!!!!!!!!!!!!!!!  ",
"  !!!!!!!!!!!!!!!!!!!!!!!!!!!!!!!!!!!!!!!!!!!!!!!!!!!!!!!!  ",
"  !!!!!!!!!!!!!!!!!!!!!!!!!!!!!!!!!!!!!!!!!!!!!!!!!!!!!!!!  ",
"  !!!!!!!!!!!!!!!!8!!!!!!!!!!!!!!!!!!!!!!9!!!!!!!!!!!!!!!!  ",
"  !!!!!!!!!!!!!!!! 8!!!!!!!!!!!!!!!!!!!!9 !!!!!!!!!!!!!!!!  ",
"  !!!!!!!!!!!!!!!!  8!!!!!!!!!!!!!!!!!!9  !!!!!!!!!!!!!!!!  ",
"  !!!!!!!!!!!!!!!!   8!!!!!!!!!!!!!!!!9   !!!!!!!!!!!!!!!!  ",
"  !!!!!!!!!!!!!!!!    8!!!!!!!!!!!!!!9    !!!!!!!!!!!!!!!!  ",
"  !!!!!!!!!!!!!!!!     8!!!!!!!!!!!!9     !!!!!!!!!!!!!!!!  ",
"  !!!!!!!!!!!!!!!!      8!!!!!!!!!!9      !!!!!!!!!!!!!!!!  ",
"  !!!!!!!!!!!!!!!!       8!!!!!!!!9       !!!!!!!!!!!!!!!!  ",
"  !!!!!!!!!!!!!!!!        8!!!!!!9        !!!!!!!!!!!!!!!!  ",
"  !!!!!!!!!!!!!!!!         8!!!!9         !!!!!!!!!!!!!!!!  ",
"  !!!!!!!!!!!!!!!!          8!!9          !!!!!!!!!!!!!!!!  ",
"  !!!!!!!!!!!!!!!!           89           !!!!!!!!!!!!!!!!  ",
"  !!!!!!!!!!!!!!!!                        !!!!!!!!!!!!!!!!  ",
"  !!!!!!!!!!!!!!!!                        !!!!!!!!!!!!!!!!  ",
"  !!!!!!!!!!!!!!!!                        !!!!!!!!!!!!!!!!  ",
"  !!!!!!!!!!!!!!!!                        !!!!!!!!!!!!!!!!  ",
"  !!!!!!!!!!!!!!!!                        !!!!!!!!!!!!!!!!  ",
"  !!!!!!!!!!!!!!!!                        !!!!!!!!!!!!!!!!  ",
"  !!!!!!!!!!!!!!!!                        !!!!!!!!!!!!!!!!  ",
"  !!!!!!!!!!!!!!!!                        !!!!!!!!!!!!!!!!  ",
"                                                            ",
"                                                            ",
"                                                            ",
"                                                            ",
"                                                            ",
"                                                            ",
"                                                            "};
