/* XPM */
static char * n_xpm[] = {
"60 50 56 1",
" 	c #000000",
".	c #606060",
"+	c #B5B5B5",
"@	c #DEDEDE",
"#	c #F0F0F0",
"$	c #FAFAFA",
"%	c #EFEFEF",
"&	c #D3D3D3",
"*	c #9F9F9F",
"=	c #262626",
"-	c #FFFFFF",
";	c #3D3D3D",
">	c #C9C9C9",
",	c #FBFBFB",
"'	c #F1F1F1",
")	c #989898",
"!	c #EAEAEA",
"~	c #CECECE",
"{	c #383838",
"]	c #6F6F6F",
"^	c #F9F9F9",
"/	c #A2A2A2",
"(	c #616161",
"_	c #FCFCFC",
":	c #CDCDCD",
"<	c #353535",
"[	c #B6B6B6",
"}	c #E9E9E9",
"|	c #6E6E6E",
"1	c #A0A0A0",
"2	c #CCCCCC",
"3	c #6B6B6B",
"4	c #CBCBCB",
"5	c #323232",
"6	c #E8E8E8",
"7	c #6A6A6A",
"8	c #F8F8F8",
"9	c #9E9E9E",
"0	c #2E2E2E",
"a	c #E7E7E7",
"b	c #696969",
"c	c #9C9C9C",
"d	c #C8C8C8",
"e	c #676767",
"f	c #9B9B9B",
"g	c #A5A5A5",
"h	c #727272",
"i	c #EBEBEB",
"j	c #0D0D0D",
"k	c #D0D0D0",
"l	c #161616",
"m	c #1C1C1C",
"n	c #222222",
"o	c #2A2A2A",
"p	c #3A3A3A",
"q	c #D4D4D4",
"                                                            ",
"                                                            ",
"                                                            ",
"       .+@#$$%&*=                         ----------------  ",
"     ;>,--------')                        ----------------  ",
"    .!------------~{                      ----------------  ",
"   ;!--------------!]                     ----------------  ",
"   >----------------^/                    ----------------  ",
"  (_------------------:<                  ----------------  ",
"  [--------------------}|                 ----------------  ",
"  @---------------------^1                ----------------  ",
"  '-----------------------2<              ----------------  ",
"  $------------------------}3             ----------------  ",
"  --------------------------^1            ----------------  ",
"  ----------------------------45          ----------------  ",
"  -----------------------------67         ----------------  ",
"  ------------------------------89        ----------------  ",
"  -------------------------------->0      ----------------  ",
"  ---------------------------------ab     ----------------  ",
"  ----------------------------------8c    ----------------  ",
"  ------------------------------------d0  ----------------  ",
"  -------------------------------------ae ----------------  ",
"  --------------------------------------8f----------------  ",
"  ----------------g$--------------------------------------  ",
"  ---------------- hi-------------------------------------  ",
"  ----------------j {k------------------------------------  ",
"  ----------------j   g$----------------------------------  ",
"  ----------------l    hi---------------------------------  ",
"  ----------------l     {k--------------------------------  ",
"  ----------------m       g$------------------------------  ",
"  ----------------n        hi-----------------------------  ",
"  ----------------n         {k----------------------------  ",
"  ----------------=           g$--------------------------  ",
"  ----------------=            hi------------------------$  ",
"  ----------------o             {k-----------------------#  ",
"  ----------------0               g$---------------------@  ",
"  ----------------0                hi--------------------+  ",
"  ----------------5                 {k------------------,.  ",
"  ----------------5                   g$---------------->   ",
"  ----------------<                    hi--------------!;   ",
"  ----------------{                     {k------------!.    ",
"  ----------------{                       )'--------_>;     ",
"  ----------------p                        =*q%$$'@[(       ",
"                                                            ",
"                                                            ",
"                                                            ",
"                                                            ",
"                                                            ",
"                                                            ",
"                                                            "};
