/* XPM */
static char * o_xpm[] = {
"64 50 83 1",
" 	c #000000",
".	c #747474",
"+	c #ABABAB",
"@	c #CECECE",
"#	c #E1E1E1",
"$	c #F0F0F0",
"%	c #F8F8F8",
"&	c #FCFCFC",
"*	c #FFFFFF",
"=	c #FEFEFE",
"-	c #FAFAFA",
";	c #F5F5F5",
">	c #E9E9E9",
",	c #D9D9D9",
"'	c #BEBEBE",
")	c #969696",
"!	c #424242",
"~	c #5B5B5B",
"{	c #EFEFEF",
"]	c #FBFBFB",
"^	c #DBDBDB",
"/	c #161616",
"(	c #515151",
"_	c #C9C9C9",
":	c #EDEDED",
"<	c #989898",
"[	c #9B9B9B",
"}	c #F6F6F6",
"|	c #D8D8D8",
"1	c #4D4D4D",
"2	c #0D0D0D",
"3	c #C2C2C2",
"4	c #F1F1F1",
"5	c #737373",
"6	c #D0D0D0",
"7	c #F7F7F7",
"8	c #7D7D7D",
"9	c #C3C3C3",
"0	c #696969",
"a	c #E8E8E8",
"b	c #2E2E2E",
"c	c #C0C0C0",
"d	c #CACACA",
"e	c #646464",
"f	c #5D5D5D",
"g	c #B8B8B8",
"h	c #4F4F4F",
"i	c #222222",
"j	c #808080",
"k	c #E6E6E6",
"l	c #CBCBCB",
"m	c #A6A6A6",
"n	c #3D3D3D",
"o	c #4B4B4B",
"p	c #DADADA",
"q	c #7C7C7C",
"r	c #757575",
"s	c #8C8C8C",
"t	c #ADADAD",
"u	c #3A3A3A",
"v	c #C1C1C1",
"w	c #666666",
"x	c #E2E2E2",
"y	c #8E8E8E",
"z	c #A7A7A7",
"A	c #B4B4B4",
"B	c #BABABA",
"C	c #A8A8A8",
"D	c #ACACAC",
"E	c #EEEEEE",
"F	c #7A7A7A",
"G	c #BCBCBC",
"H	c #A5A5A5",
"I	c #595959",
"J	c #B7B7B7",
"K	c #7F7F7F",
"L	c #E5E5E5",
"M	c #C8C8C8",
"N	c #6A6A6A",
"O	c #F2F2F2",
"P	c #999999",
"Q	c #EAEAEA",
"R	c #454545",
"                                                                ",
"                                                                ",
"                                                                ",
"               .+@#$%&*******************=-;>,')!               ",
"            ~'{*********************************]^)/            ",
"          (_&**************************************:<           ",
"         [}******************************************|1         ",
"       23*********************************************45        ",
"      26***********************************************78       ",
"      9*************************************************;0      ",
"     [***************************************************ab     ",
"    (}****************************************************c     ",
"    d*****************************************************]e    ",
"   f&**************&gh                   ijk***************l    ",
"   '***************m                       n>**************-o   ",
"   {**************p                         q***************m   ",
"  r***************s                          #**************|   ",
"  t***************u                          v**************;   ",
"  6***************                           g***************w  ",
"  x***************                           g***************y  ",
"  4***************                           g***************z  ",
"  %***************                           g***************A  ",
"  &***************                           g***************B  ",
"  &***************                           g***************B  ",
"  %***************                           g***************A  ",
"  4***************                           g***************C  ",
"  x***************                           g***************y  ",
"  @***************                           g***************w  ",
"  D***************u                          v**************;   ",
"  .***************s                          #**************|   ",
"   E**************p                         F=**************m   ",
"   G***************H                       n>**************-o   ",
"   I&**************&J1                   iKL***************l    ",
"    M*****************************************************]w    ",
"    1;****************************************************c     ",
"     )***************************************************ab     ",
"      '*************************************************;N      ",
"       l***********************************************78       ",
"        '*********************************************O.        ",
"         );******************************************,h         ",
"          1M&**************************************:P           ",
"            IGE*********************************]^</            ",
"               .D@x4%&********************-}Qpc<R               ",
"                                                                ",
"                                                                ",
"                                                                ",
"                                                                ",
"                                                                ",
"                                                                ",
"                                                                "};
