/* XPM */
static char * p_xpm[] = {
"56 50 37 1",
" 	c #000000",
".	c #FFFFFF",
"+	c #FDFDFD",
"@	c #F5F5F5",
"#	c #EBEBEB",
"$	c #D9D9D9",
"%	c #AFAFAF",
"&	c #6A6A6A",
"*	c #FEFEFE",
"=	c #D5D5D5",
"-	c #737373",
";	c #FCFCFC",
">	c #ADADAD",
",	c #C6C6C6",
"'	c #4D4D4D",
")	c #A0A0A0",
"!	c #8E8E8E",
"~	c #404040",
"{	c #4B4B4B",
"]	c #9F9F9F",
"^	c #F4F4F4",
"/	c #EAEAEA",
"(	c #D7D7D7",
"_	c #ABABAB",
":	c #616161",
"<	c #D0D0D0",
"[	c #FAFAFA",
"}	c #696969",
"|	c #A2A2A2",
"1	c #BDBDBD",
"2	c #FBFBFB",
"3	c #A5A5A5",
"4	c #D2D2D2",
"5	c #6B6B6B",
"6	c #ECECEC",
"7	c #D8D8D8",
"8	c #646464",
"                                                        ",
"                                                        ",
"                                                        ",
"  .......................................+@#$%&         ",
"  ............................................*=-       ",
"  ..............................................;>      ",
"  ................................................,     ",
"  .................................................>    ",
"  .................................................;-   ",
"  ..................................................=   ",
"  ..................................................*&  ",
"  ...................................................%  ",
"  ...................................................$  ",
"                                  ')@................#  ",
"                                    !................@  ",
"                                    ~................;  ",
"                                    !................@  ",
"                                  {]^................/  ",
"  ...................................................(  ",
"  ..................................................._  ",
"  ..................................................+:  ",
"  ..................................................<   ",
"  .................................................[}   ",
"  .................................................|    ",
"  ................................................1     ",
"  ..............................................23      ",
"  ............................................+45       ",
"  .......................................+@67>8         ",
"  ................                                      ",
"  ................                                      ",
"  ................                                      ",
"  ................                                      ",
"  ................                                      ",
"  ................                                      ",
"  ................                                      ",
"  ................                                      ",
"  ................                                      ",
"  ................                                      ",
"  ................                                      ",
"  ................                                      ",
"  ................                                      ",
"  ................                                      ",
"  ................                                      ",
"                                                        ",
"                                                        ",
"                                                        ",
"                                                        ",
"                                                        ",
"                                                        ",
"                                                        "};
