/* XPM */
static char * q_xpm[] = {
"64 50 91 1",
" 	c #000000",
".	c #747474",
"+	c #ABABAB",
"@	c #CECECE",
"#	c #E1E1E1",
"$	c #F0F0F0",
"%	c #F8F8F8",
"&	c #FCFCFC",
"*	c #FFFFFF",
"=	c #FEFEFE",
"-	c #FAFAFA",
";	c #F5F5F5",
">	c #E9E9E9",
",	c #D9D9D9",
"'	c #BEBEBE",
")	c #959595",
"!	c #404040",
"~	c #5B5B5B",
"{	c #EFEFEF",
"]	c #FBFBFB",
"^	c #939393",
"/	c #0D0D0D",
"(	c #515151",
"_	c #C9C9C9",
":	c #EAEAEA",
"<	c #909090",
"[	c #9B9B9B",
"}	c #F6F6F6",
"|	c #D3D3D3",
"1	c #454545",
"2	c #C2C2C2",
"3	c #EEEEEE",
"4	c #696969",
"5	c #D0D0D0",
"6	c #F4F4F4",
"7	c #727272",
"8	c #C3C3C3",
"9	c #F1F1F1",
"0	c #E2E2E2",
"a	c #1C1C1C",
"b	c #B6B6B6",
"c	c #CACACA",
"d	c #F9F9F9",
"e	c #565656",
"f	c #5D5D5D",
"g	c #B8B8B8",
"h	c #4F4F4F",
"i	c #222222",
"j	c #808080",
"k	c #E6E6E6",
"l	c #C4C4C4",
"m	c #A6A6A6",
"n	c #3D3D3D",
"o	c #3A3A3A",
"p	c #DADADA",
"q	c #7C7C7C",
"r	c #9E9E9E",
"s	c #757575",
"t	c #8C8C8C",
"u	c #ADADAD",
"v	c #C1C1C1",
"w	c #F2F2F2",
"x	c #595959",
"y	c #8A8A8A",
"z	c #A4A4A4",
"A	c #B2B2B2",
"B	c #BABABA",
"C	c #B0B0B0",
"D	c #A5A5A5",
"E	c #8B8B8B",
"F	c #4B4B4B",
"G	c #ACACAC",
"H	c #C8C8C8",
"I	c #7A7A7A",
"J	c #BCBCBC",
"K	c #B7B7B7",
"L	c #4D4D4D",
"M	c #7F7F7F",
"N	c #E5E5E5",
"O	c #2E2E2E",
"P	c #969696",
"Q	c #D1D1D1",
"R	c #CBCBCB",
"S	c #636363",
"T	c #D5D5D5",
"U	c #989898",
"V	c #878787",
"W	c #6E6E6E",
"X	c #262626",
"Y	c #DCDCDC",
"Z	c #EDEDED",
"                                                                ",
"                                                                ",
"                                                                ",
"               .+@#$%&*******************=-;>,')!               ",
"            ~'{*********************************],^/            ",
"          (_&**************************************:<           ",
"         [}******************************************|1         ",
"       /2*********************************************34        ",
"      /5***********************************************67       ",
"      8*************************************************9~      ",
"     [***************************************************0a     ",
"    (}****************************************************b     ",
"    c*****************************************************de    ",
"   f&**************&gh                   ijk***************l    ",
"   '***************m                       n>**************%o   ",
"   {**************p                         q***************r   ",
"  s***************t                          #**************|   ",
"  u***************o                          v**************w   ",
"  5***************                           g***************x  ",
"  0***************                           g***************y  ",
"  9***************                           g***************z  ",
"  %***************                           g***************A  ",
"  &***************                           g***************g  ",
"  &***************                           g***************B  ",
"  %***************                           g***************C  ",
"  9***************                           g***************D  ",
"  0***************                           g***************E  ",
"  @***************                           g***************F  ",
"  G***************o                          v**************$   ",
"  .***************t                          #**************H   ",
"   3**************p                         I=**************y   ",
"   J***************D                       n>**************$a   ",
"   x&**************&KL                   iMN***************+    ",
"    H*****************************************************wO    ",
"    L;****************************************************P     ",
"     P***************************************************Q      ",
"      '*************************************************>1      ",
"       R***********************************************$x       ",
"        '*********************************************>S        ",
"         P;******************************************Tn         ",
"          LH&**************************************{U           ",
"            xJ3************************************[            ",
"               .G@09%&*****************************-V           ",
"                                   8****************%I          ",
"                                   /Q****************;W         ",
"                                    XY****************'         ",
"                                     nk***************'         ",
"                                      (Z**************'         ",
"                                                                ",
"                                                                "};
