/* XPM */
static char * s_xpm[] = {
"56 50 54 1",
" 	c #000000",
".	c #666666",
"+	c #ADADAD",
"@	c #D8D8D8",
"#	c #EBEBEB",
"$	c #F5F5F5",
"%	c #FDFDFD",
"&	c #FFFFFF",
"*	c #6F6F6F",
"=	c #D3D3D3",
"-	c #FEFEFE",
";	c #AAAAAA",
">	c #FCFCFC",
",	c #C4C4C4",
"'	c #ACACAC",
")	c #727272",
"!	c #D5D5D5",
"~	c #696969",
"{	c #AFAFAF",
"]	c #D9D9D9",
"^	c #ECECEC",
"/	c #F6F6F6",
"(	c #A6A6A6",
"_	c #4F4F4F",
":	c #939393",
"<	c #424242",
"[	c #949494",
"}	c #A1A1A1",
"|	c #4B4B4B",
"1	c #6A6A6A",
"2	c #737373",
"3	c #C6C6C6",
"4	c #6E6E6E",
"5	c #FBFBFB",
"6	c #A8A8A8",
"7	c #C1C1C1",
"8	c #4D4D4D",
"9	c #A0A0A0",
"0	c #8E8E8E",
"a	c #404040",
"b	c #9F9F9F",
"c	c #F4F4F4",
"d	c #EAEAEA",
"e	c #D7D7D7",
"f	c #ABABAB",
"g	c #616161",
"h	c #D0D0D0",
"i	c #FAFAFA",
"j	c #A2A2A2",
"k	c #BDBDBD",
"l	c #A5A5A5",
"m	c #D2D2D2",
"n	c #6B6B6B",
"o	c #646464",
"                                                        ",
"                                                        ",
"                                                        ",
"         .+@#$%&&&&&&&&&&&&&&&&&&&&&&&&&&&&&&&&&&&&&&&  ",
"       *=-&&&&&&&&&&&&&&&&&&&&&&&&&&&&&&&&&&&&&&&&&&&&  ",
"      ;>&&&&&&&&&&&&&&&&&&&&&&&&&&&&&&&&&&&&&&&&&&&&&&  ",
"     ,&&&&&&&&&&&&&&&&&&&&&&&&&&&&&&&&&&&&&&&&&&&&&&&&  ",
"    '&&&&&&&&&&&&&&&&&&&&&&&&&&&&&&&&&&&&&&&&&&&&&&&&&  ",
"   )>&&&&&&&&&&&&&&&&&&&&&&&&&&&&&&&&&&&&&&&&&&&&&&&&&  ",
"   !&&&&&&&&&&&&&&&&&&&&&&&&&&&&&&&&&&&&&&&&&&&&&&&&&&  ",
"  ~-&&&&&&&&&&&&&&&&&&&&&&&&&&&&&&&&&&&&&&&&&&&&&&&&&&  ",
"  {&&&&&&&&&&&&&&&&&&&&&&&&&&&&&&&&&&&&&&&&&&&&&&&&&&&  ",
"  ]&&&&&&&&&&&&&&&&&&&&&&&&&&&&&&&&&&&&&&&&&&&&&&&&&&&  ",
"  ^&&&&&&&&&&&&&&&&/(_                                  ",
"  $&&&&&&&&&&&&&&&&:                                    ",
"  >&&&&&&&&&&&&&&&&<                                    ",
"  $&&&&&&&&&&&&&&&&[                                    ",
"  ^&&&&&&&&&&&&&&&&/}|                                  ",
"  @&&&&&&&&&&&&&&&&&&&&&&&&&&&&&&&&&&&&&&%$#]{1         ",
"  +&&&&&&&&&&&&&&&&&&&&&&&&&&&&&&&&&&&&&&&&&&&-!2       ",
"  .%&&&&&&&&&&&&&&&&&&&&&&&&&&&&&&&&&&&&&&&&&&&&>+      ",
"   =&&&&&&&&&&&&&&&&&&&&&&&&&&&&&&&&&&&&&&&&&&&&&&3     ",
"   45&&&&&&&&&&&&&&&&&&&&&&&&&&&&&&&&&&&&&&&&&&&&&&+    ",
"    6&&&&&&&&&&&&&&&&&&&&&&&&&&&&&&&&&&&&&&&&&&&&&&>2   ",
"     7&&&&&&&&&&&&&&&&&&&&&&&&&&&&&&&&&&&&&&&&&&&&&&!   ",
"      65&&&&&&&&&&&&&&&&&&&&&&&&&&&&&&&&&&&&&&&&&&&&-1  ",
"       4=%&&&&&&&&&&&&&&&&&&&&&&&&&&&&&&&&&&&&&&&&&&&{  ",
"         .+@^$%&&&&&&&&&&&&&&&&&&&&&&&&&&&&&&&&&&&&&&]  ",
"                                  89$&&&&&&&&&&&&&&&&#  ",
"                                    0&&&&&&&&&&&&&&&&$  ",
"                                    a&&&&&&&&&&&&&&&&>  ",
"                                    0&&&&&&&&&&&&&&&&$  ",
"                                  |bc&&&&&&&&&&&&&&&&d  ",
"  &&&&&&&&&&&&&&&&&&&&&&&&&&&&&&&&&&&&&&&&&&&&&&&&&&&e  ",
"  &&&&&&&&&&&&&&&&&&&&&&&&&&&&&&&&&&&&&&&&&&&&&&&&&&&f  ",
"  &&&&&&&&&&&&&&&&&&&&&&&&&&&&&&&&&&&&&&&&&&&&&&&&&&%g  ",
"  &&&&&&&&&&&&&&&&&&&&&&&&&&&&&&&&&&&&&&&&&&&&&&&&&&h   ",
"  &&&&&&&&&&&&&&&&&&&&&&&&&&&&&&&&&&&&&&&&&&&&&&&&&i~   ",
"  &&&&&&&&&&&&&&&&&&&&&&&&&&&&&&&&&&&&&&&&&&&&&&&&&j    ",
"  &&&&&&&&&&&&&&&&&&&&&&&&&&&&&&&&&&&&&&&&&&&&&&&&k     ",
"  &&&&&&&&&&&&&&&&&&&&&&&&&&&&&&&&&&&&&&&&&&&&&&5l      ",
"  &&&&&&&&&&&&&&&&&&&&&&&&&&&&&&&&&&&&&&&&&&&&%mn       ",
"  &&&&&&&&&&&&&&&&&&&&&&&&&&&&&&&&&&&&&&&%$^@+o         ",
"                                                        ",
"                                                        ",
"                                                        ",
"                                                        ",
"                                                        ",
"                                                        ",
"                                                        "};
