/* XPM */
static char * t_xpm[] = {
"44 50 2 1",
" 	c #000000",
".	c #FFFFFF",
"                                            ",
"                                            ",
"                                            ",
"  ........................................  ",
"  ........................................  ",
"  ........................................  ",
"  ........................................  ",
"  ........................................  ",
"  ........................................  ",
"  ........................................  ",
"  ........................................  ",
"  ........................................  ",
"  ........................................  ",
"              ................              ",
"              ................              ",
"              ................              ",
"              ................              ",
"              ................              ",
"              ................              ",
"              ................              ",
"              ................              ",
"              ................              ",
"              ................              ",
"              ................              ",
"              ................              ",
"              ................              ",
"              ................              ",
"              ................              ",
"              ................              ",
"              ................              ",
"              ................              ",
"              ................              ",
"              ................              ",
"              ................              ",
"              ................              ",
"              ................              ",
"              ................              ",
"              ................              ",
"              ................              ",
"              ................              ",
"              ................              ",
"              ................              ",
"              ................              ",
"                                            ",
"                                            ",
"                                            ",
"                                            ",
"                                            ",
"                                            ",
"                                            "};
