/* XPM */
static char * u_xpm[] = {
"56 50 44 1",
" 	c #000000",
".	c #FFFFFF",
"+	c #FCFCFC",
"@	c #F8F8F8",
"#	c #F1F1F1",
"$	c #F0F0F0",
"%	c #E2E2E2",
"&	c #E1E1E1",
"*	c #CECECE",
"=	c #ACACAC",
"-	c #3A3A3A",
";	c #3D3D3D",
">	c #ABABAB",
",	c #747474",
"'	c #8C8C8C",
")	c #8D8D8D",
"!	c #EEEEEE",
"~	c #DADADA",
"{	c #EFEFEF",
"]	c #BCBCBC",
"^	c #A5A5A5",
"/	c #A6A6A6",
"(	c #BEBEBE",
"_	c #595959",
":	c #B7B7B7",
"<	c #4D4D4D",
"[	c #4F4F4F",
"}	c #5B5B5B",
"|	c #C8C8C8",
"1	c #C9C9C9",
"2	c #F5F5F5",
"3	c #F6F6F6",
"4	c #515151",
"5	c #969696",
"6	c #9B9B9B",
"7	c #C2C2C2",
"8	c #CBCBCB",
"9	c #D0D0D0",
"0	c #0D0D0D",
"a	c #C3C3C3",
"b	c #CACACA",
"c	c #5D5D5D",
"d	c #ADADAD",
"e	c #757575",
"                                                        ",
"                                                        ",
"                                                        ",
"  ................                    ................  ",
"  ................                    ................  ",
"  ................                    ................  ",
"  ................                    ................  ",
"  ................                    ................  ",
"  ................                    ................  ",
"  ................                    ................  ",
"  ................                    ................  ",
"  ................                    ................  ",
"  ................                    ................  ",
"  ................                    ................  ",
"  ................                    ................  ",
"  ................                    ................  ",
"  ................                    ................  ",
"  ................                    ................  ",
"  ................                    ................  ",
"  ................                    ................  ",
"  ................                    ................  ",
"  ................                    ................  ",
"  ................                    ................  ",
"  +...............                    ...............+  ",
"  @...............                    ...............@  ",
"  #...............                    ...............$  ",
"  %...............                    ...............&  ",
"  *...............                    ...............*  ",
"  =...............-                  ;...............>  ",
"  ,...............'                  )...............,  ",
"   !..............~                  ~..............{   ",
"   ]...............^                /...............(   ",
"   _+..............+:<            [:+..............+}   ",
"    |..............................................1    ",
"    <2............................................34    ",
"     5............................................6     ",
"      (..........................................7      ",
"       8........................................90      ",
"        (......................................a0       ",
"         52..................................36         ",
"          <|+..............................+b4          ",
"            _]!..........................{(c            ",
"               ,=*%#@+............+@#%9de               ",
"                                                        ",
"                                                        ",
"                                                        ",
"                                                        ",
"                                                        ",
"                                                        ",
"                                                        "};
