/* XPM */
static char * v_xpm[] = {
"60 50 69 1",
" 	c #000000",
".	c #FFFFFF",
"+	c #E6E6E6",
"@	c #0D0D0D",
"#	c #E3E3E3",
"$	c #A6A6A6",
"%	c #A0A0A0",
"&	c #F4F4F4",
"*	c #424242",
"=	c #3A3A3A",
"-	c #F2F2F2",
";	c #C1C1C1",
">	c #BEBEBE",
",	c #FBFBFB",
"'	c #6A6A6A",
")	c #646464",
"!	c #FAFAFA",
"~	c #DBDBDB",
"{	c #D9D9D9",
"]	c #D7D7D7",
"^	c #6F6F6F",
"/	c #FCFCFC",
"(	c #8F8F8F",
"_	c #8B8B8B",
":	c #C7C7C7",
"<	c #ECECEC",
"[	c #222222",
"}	c #1C1C1C",
"|	c #EAEAEA",
"1	c #C6C6C6",
"2	c #4B4B4B",
"3	c #F6F6F6",
"4	c #B0B0B0",
"5	c #ADADAD",
"6	c #AFAFAF",
"7	c #F7F7F7",
"8	c #4F4F4F",
"9	c #AEAEAE",
"0	c #CBCBCB",
"a	c #C8C8C8",
"b	c #EBEBEB",
"c	c #919191",
"d	c #FDFDFD",
"e	c #767676",
"f	c #747474",
"g	c #E1E1E1",
"h	c #DFDFDF",
"i	c #9C9C9C",
"j	c #9A9A9A",
"k	c #F0F0F0",
"l	c #353535",
"m	c #323232",
"n	c #EFEFEF",
"o	c #BABABA",
"p	c #B8B8B8",
"q	c #5E5E5E",
"r	c #5B5B5B",
"s	c #F9F9F9",
"t	c #D3D3D3",
"u	c #D2D2D2",
"v	c #858585",
"w	c #838383",
"x	c #E7E7E7",
"y	c #161616",
"z	c #A7A7A7",
"A	c #454545",
"B	c #C3C3C3",
"C	c #6B6B6B",
"D	c #DADADA",
"                                                            ",
"                                                            ",
"                                                            ",
"  .............+@                           #.............  ",
"  ..............$                          %..............  ",
"  ..............&*                        =-..............  ",
"  ...............;                        >...............  ",
"  ...............,'                      )!...............  ",
"  ~...............{                      ]...............~  ",
"  ^/...............(                    _.............../^  ",
"   :...............<[                  }|...............1   ",
"   23...............4                  5...............32   ",
"    6...............78                23...............9    ",
"    [<...............0                a...............b[    ",
"     c...............de              fd...............c     ",
"      ~...............g              h...............~      ",
"      ^/...............i            j.............../^      ",
"       :...............kl          mn...............1       ",
"       23...............o          p...............32       ",
"        6...............!q        rs...............9        ",
"        [<...............t        u...............b[        ",
"         c................v      w................c         ",
"          ~...............xy    yx...............~          ",
"          ^/...............z    z.............../^          ",
"           :...............&A  *&...............1           ",
"           23...............B  B...............32           ",
"            6.............../CC/...............9            ",
"            [<...............D~...............b[            ",
"             c................................c             ",
"              ~..............................~              ",
"              ^/............................/^              ",
"               :............................1               ",
"               23..........................32               ",
"                6..........................9                ",
"                [<........................b[                ",
"                 c........................c                 ",
"                  ~......................~                  ",
"                  ^/..................../^                  ",
"                   :....................1                   ",
"                   23..................32                   ",
"                    6..................9                    ",
"                    [<................b[                    ",
"                     c................c                     ",
"                                                            ",
"                                                            ",
"                                                            ",
"                                                            ",
"                                                            ",
"                                                            ",
"                                                            "};
