/* XPM */
static char * w_xpm[] = {
"60 50 34 1",
" 	c #000000",
".	c #FFFFFF",
"+	c #BCBCBC",
"@	c #BABABA",
"#	c #EFEFEF",
"$	c #606060",
"%	c #616161",
"&	c #FAFAFA",
"*	c #F0F0F0",
"=	c #DEDEDE",
"-	c #636363",
";	c #B6B6B6",
">	c #B4B4B4",
",	c #FCFCFC",
"'	c #646464",
")	c #FBFBFB",
"!	c #CBCBCB",
"~	c #C9C9C9",
"{	c #404040",
"]	c #EBEBEB",
"^	c #EAEAEA",
"/	c #3D3D3D",
"(	c #565656",
"_	c #535353",
":	c #DCDCDC",
"<	c #F5F5F5",
"[	c #ADADAD",
"}	c #0D0D0D",
"|	c #ACACAC",
"1	c #F7F7F7",
"2	c #E3E3E3",
"3	c #B0B0B0",
"4	c #474747",
"5	c #454545",
"                                                            ",
"                                                            ",
"                                                            ",
"  ................                        ................  ",
"  ................                        ................  ",
"  ................                        ................  ",
"  ................                        ................  ",
"  ................                        ................  ",
"  ................                        ................  ",
"  ................                        ................  ",
"  ................                        ................  ",
"  ................           +@           ................  ",
"  ................          +..@          ................  ",
"  ................         +....@         ................  ",
"  ................        +......@        ................  ",
"  ................       +........@       ................  ",
"  ................      +..........@      ................  ",
"  ................     +............@     ................  ",
"  ................    +..............@    ................  ",
"  ................   +................@   ................  ",
"  ................  +..................@  ................  ",
"  ................ +....................@ ................  ",
"  ................+......................@................  ",
"  ........................................................  ",
"  ........................................................  ",
"  ........................................................  ",
"  ........................................................  ",
"  ........................................................  ",
"  ...........................##...........................  ",
"  ..........................#$$#..........................  ",
"  .........................#$  $#.........................  ",
"  ........................#%    $#........................  ",
"  .......................#%      $#.......................  ",
"  &.....................#%        $#.....................&  ",
"  *....................*%          $#....................*  ",
"  =...................*-            $#...................=  ",
"  ;..................*-              $#..................>  ",
"  -,................*'                $#................)$  ",
"   !...............*'                  $#...............~   ",
"   {].............*'                    $#.............^/   ",
"    -]...........=(                      _:...........^$    ",
"     {!,.......<[}                        }|<.......,~/     ",
"       -;=*&1234                            5321&*=;%       ",
"                                                            ",
"                                                            ",
"                                                            ",
"                                                            ",
"                                                            ",
"                                                            ",
"                                                            "};
