/* XPM */
static char * x_xpm[] = {
"60 50 101 2",
"  	c #000000",
". 	c #FFFFFF",
"+ 	c #F2F2F2",
"@ 	c #767676",
"# 	c #727272",
"$ 	c #F1F1F1",
"% 	c #BEBEBE",
"& 	c #F8F8F8",
"* 	c #8D8D8D",
"= 	c #898989",
"- 	c #F7F7F7",
"; 	c #FCFCFC",
"> 	c #A4A4A4",
", 	c #A0A0A0",
"' 	c #FBFBFB",
") 	c #B9B9B9",
"! 	c #B5B5B5",
"~ 	c #FEFEFE",
"{ 	c #B2B2B2",
"] 	c #CBCBCB",
"^ 	c #1C1C1C",
"/ 	c #C9C9C9",
"( 	c #A3A3A3",
"_ 	c #9D9D9D",
": 	c #DADADA",
"< 	c #3A3A3A",
"[ 	c #383838",
"} 	c #D9D9D9",
"| 	c #A6A6A6",
"1 	c #E7E7E7",
"2 	c #545454",
"3 	c #535353",
"4 	c #E5E5E5",
"5 	c #F9F9F9",
"6 	c #919191",
"7 	c #737373",
"8 	c #EFEFEF",
"9 	c #6D6D6D",
"0 	c #6B6B6B",
"a 	c #EEEEEE",
"b 	c #F4F4F4",
"c 	c #7C7C7C",
"d 	c #5D5D5D",
"e 	c #EAEAEA",
"f 	c #F6F6F6",
"g 	c #848484",
"h 	c #838383",
"i 	c #F5F5F5",
"j 	c #EDEDED",
"k 	c #646464",
"l 	c #474747",
"m 	c #E1E1E1",
"n 	c #FAFAFA",
"o 	c #9B9B9B",
"p 	c #9A9A9A",
"q 	c #E3E3E3",
"r 	c #4D4D4D",
"s 	c #2E2E2E",
"t 	c #D4D4D4",
"u 	c #FDFDFD",
"v 	c #B0B0B0",
"w 	c #D7D7D7",
"x 	c #353535",
"y 	c #0D0D0D",
"z 	c #C4C4C4",
"A 	c #C8C8C8",
"B 	c #161616",
"C 	c #B6B6B6",
"D 	c #A1A1A1",
"E 	c #8C8C8C",
"F 	c #EBEBEB",
"G 	c #5E5E5E",
"H 	c #C5C5C5",
"I 	c #C3C3C3",
"J 	c #D3D3D3",
"K 	c #D5D5D5",
"L 	c #494949",
"M 	c #606060",
"N 	c #F3F3F3",
"O 	c #787878",
"P 	c #B1B1B1",
"Q 	c #B8B8B8",
"R 	c #B4B4B4",
"S 	c #A5A5A5",
"T 	c #969696",
"U 	c #696969",
"V 	c #6E6E6E",
"W 	c #878787",
"X 	c #7F7F7F",
"Y 	c #DBDBDB",
"Z 	c #676767",
"` 	c #ABABAB",
" .	c #CCCCCC",
"..	c #222222",
"+.	c #565656",
"@.	c #E8E8E8",
"#.	c #BABABA",
"$.	c #454545",
"%.	c #323232",
"&.	c #CECECE",
"*.	c #C2C2C2",
"                                                                                                                        ",
"                                                                                                                        ",
"                                                                                                                        ",
"    . . . . . . . . . . . . . . . + @                                             # $ . . . . . . . . . . . . . . %     ",
"    . . . . . . . . . . . . . . . . & *                                         = - . . . . . . . . . . . . . . . %     ",
"    . . . . . . . . . . . . . . . . . ; >                                     , ' . . . . . . . . . . . . . . . . %     ",
"    . . . . . . . . . . . . . . . . . . . )                                 ! ~ . . . . . . . . . . . . . . . . . %     ",
"    { ~ . . . . . . . . . . . . . . . . . . ] ^                         ^ / . . . . . . . . . . . . . . . . . . . (     ",
"      _ ' . . . . . . . . . . . . . . . . . . : <                     [ } . . . . . . . . . . . . . . . . . . ; |       ",
"        = & . . . . . . . . . . . . . . . . . . 1 2                 3 4 . . . . . . . . . . . . . . . . . . 5 6         ",
"          7 $ . . . . . . . . . . . . . . . . . . 8 9             0 a . . . . . . . . . . . . . . . . . . b c           ",
"            d e . . . . . . . . . . . . . . . . . . f g         h i . . . . . . . . . . . . . . . . . . j k             ",
"              l m . . . . . . . . . . . . . . . . . . n o     p n . . . . . . . . . . . . . . . . . . q r               ",
"                s t . . . . . . . . . . . . . . . . . . u v v u . . . . . . . . . . . . . . . . . . w x                 ",
"                  y z . . . . . . . . . . . . . . . . . . . . . . . . . . . . . . . . . . . . . . A B                   ",
"                      { ~ . . . . . . . . . . . . . . . . . . . . . . . . . . . . . . . . . . ~ C                       ",
"                        _ ' . . . . . . . . . . . . . . . . . . . . . . . . . . . . . . . . ; D                         ",
"                          = & . . . . . . . . . . . . . . . . . . . . . . . . . . . . . . & E                           ",
"                            7 $ . . . . . . . . . . . . . . . . . . . . . . . . . . . . + @                             ",
"                              d e . . . . . . . . . . . . . . . . . . . . . . . . . . F G                               ",
"                                l m . . . . . . . . . . . . . . . . . . . . . . . . m l                                 ",
"                                  s t . . . . . . . . . . . . . . . . . . . . . . t s                                   ",
"                                    y z . . . . . . . . . . . . . . . . . . . . H y                                     ",
"                                    y I . . . . . . . . . . . . . . . . . . . . z y                                     ",
"                                  s J . . . . . . . . . . . . . . . . . . . . . . K s                                   ",
"                                l m . . . . . . . . . . . . . . . . . . . . . . . . m L                                 ",
"                              d e . . . . . . . . . . . . . . . . . . . . . . . . . . F M                               ",
"                            7 $ . . . . . . . . . . . . . . . . . . . . . . . . . . . . N O                             ",
"                          = & . . . . . . . . . . . . . . . . . . . . . . . . . . . . . . & *                           ",
"                        _ ' . . . . . . . . . . . . . . . . . . . . . . . . . . . . . . . . ; >                         ",
"                      P ~ . . . . . . . . . . . . . . . . . . . . . . . . . . . . . . . . . . . Q                       ",
"                  y I . . . . . . . . . . . . . . . . . . . . . . . . . . . . . . . . . . . . . . ] ^                   ",
"                s J . . . . . . . . . . . . . . . . . . u v R . . . . . . . . . . . . . . . . . . . } [                 ",
"              l m . . . . . . . . . . . . . . . . . . n o     S u . . . . . . . . . . . . . . . . . . 4 3               ",
"            d e . . . . . . . . . . . . . . . . . . f g         T n . . . . . . . . . . . . . . . . . . a U             ",
"          7 $ . . . . . . . . . . . . . . . . . . 8 V             W & . . . . . . . . . . . . . . . . . . i X           ",
"        = & . . . . . . . . . . . . . . . . . . 1 2                 @ N . . . . . . . . . . . . . . . . . . n T         ",
"      _ ' . . . . . . . . . . . . . . . . . . Y <                     Z a . . . . . . . . . . . . . . . . . . u `       ",
"    P ~ . . . . . . . . . . . . . . . . . .  ...                        +.@.. . . . . . . . . . . . . . . . . . . S     ",
"    . . . . . . . . . . . . . . . . . . . #.                              $.m . . . . . . . . . . . . . . . . . . %     ",
"    . . . . . . . . . . . . . . . . . ; >                                   %.} . . . . . . . . . . . . . . . . . %     ",
"    . . . . . . . . . . . . . . . . & *                                       ^ &.. . . . . . . . . . . . . . . . %     ",
"    . . . . . . . . . . . . . . . + @                                           y *.. . . . . . . . . . . . . . . %     ",
"                                                                                                                        ",
"                                                                                                                        ",
"                                                                                                                        ",
"                                                                                                                        ",
"                                                                                                                        ",
"                                                                                                                        ",
"                                                                                                                        "};
