/* XPM */
static char * z_xpm[] = {
"60 50 12 1",
" 	c #000000",
".	c #FFFFFF",
"+	c #F0F0F0",
"@	c #646464",
"#	c #606060",
"$	c #EFEFEF",
"%	c #BEBEBE",
"&	c #616161",
"*	c #BCBCBC",
"=	c #A5A5A5",
"-	c #BABABA",
";	c #636363",
"                                                            ",
"                                                            ",
"                                                            ",
"  ...............+@                      #$..............%  ",
"  ................+@                    #$...............%  ",
"  .................+@                  #$................%  ",
"  ..................+@                &$.................%  ",
"  *..................+@              &$..................=  ",
"   *..................+@            &$..................-   ",
"    *..................+@          ;+..................-    ",
"     *..................+@        ;+..................-     ",
"      *..................+@      ;+..................-      ",
"       *..................+@    @+..................-       ",
"        *..................+@  @+..................-        ",
"         *..................+@@+..................-         ",
"          *..................++..................-          ",
"           *....................................-           ",
"            *..................................-            ",
"             *................................-             ",
"              *..............................-              ",
"               *............................-               ",
"                *..........................-                ",
"                 *........................-                 ",
"                  *......................-                  ",
"                   *....................-                   ",
"                    *..................-                    ",
"                     *................-                     ",
"                      ................                      ",
"                      ................                      ",
"                      ................                      ",
"                      ................                      ",
"                      ................                      ",
"                      ................                      ",
"                      ................                      ",
"                      ................                      ",
"                      ................                      ",
"                      ................                      ",
"                      ................                      ",
"                      ................                      ",
"                      ................                      ",
"                      ................                      ",
"                      ................                      ",
"                      ................                      ",
"                                                            ",
"                                                            ",
"                                                            ",
"                                                            ",
"                                                            ",
"                                                            ",
"                                                            "};
