/* XPM */
static char * z_xpm[] = {
"60 50 38 1",
" 	c #000000",
".	c #FFFFFF",
"+	c #727272",
"@	c #DBDBDB",
"#	c #535353",
"$	c #C9C9C9",
"%	c #FDFDFD",
"&	c #2E2E2E",
"*	c #B5B5B5",
"=	c #F8F8F8",
"-	c #EAEAEA",
";	c #909090",
">	c #9D9D9D",
",	c #EFEFEF",
"'	c #F4F4F4",
")	c #ABABAB",
"!	c #1C1C1C",
"~	c #808080",
"{	c #E3E3E3",
"]	c #FBFBFB",
"^	c #C1C1C1",
"/	c #424242",
"(	c #616161",
"_	c #D3D3D3",
":	c #D4D4D4",
"<	c #636363",
"[	c #C0C0C0",
"}	c #FAFAFA",
"|	c #E4E4E4",
"1	c #828282",
"2	c #AAAAAA",
"3	c #F0F0F0",
"4	c #9F9F9F",
"5	c #8F8F8F",
"6	c #B6B6B6",
"7	c #323232",
"8	c #CBCBCB",
"9	c #DCDCDC",
"                                                            ",
"                                                            ",
"                                                            ",
"  ........................................................  ",
"  ........................................................  ",
"  ........................................................  ",
"  ........................................................  ",
"  ........................................................  ",
"  ........................................................  ",
"  ........................................................  ",
"  ........................................................  ",
"  ........................................................  ",
"  ........................................................  ",
"                                +@........................  ",
"                              #$%.........................  ",
"                            &*=.........................-;  ",
"                           >,.........................')!   ",
"                         ~{.........................]^/     ",
"                       (_..........................:<       ",
"                     /[}.........................|1         ",
"                   !2'.........................34           ",
"                  5-.........................=67            ",
"                +@.........................%8#              ",
"              #$%.........................9+                ",
"            &*=.........................-;                  ",
"           >,.........................')!                   ",
"         ~{.........................]^/                     ",
"       (_..........................:<                       ",
"     /[}.........................|1                         ",
"   !2'.........................34                           ",
"  5-.........................=67                            ",
"  .........................%8#                              ",
"  ........................9+                                ",
"  ........................................................  ",
"  ........................................................  ",
"  ........................................................  ",
"  ........................................................  ",
"  ........................................................  ",
"  ........................................................  ",
"  ........................................................  ",
"  ........................................................  ",
"  ........................................................  ",
"  ........................................................  ",
"                                                            ",
"                                                            ",
"                                                            ",
"                                                            ",
"                                                            ",
"                                                            ",
"                                                            "};
