/* XPM */
static char * wall_28x28_xpm[] = {
"28 28 234 2",
"  	c #4F4F4F",
". 	c #505050",
"+ 	c #525152",
"@ 	c #545454",
"# 	c #3F3D3E",
"$ 	c #272425",
"% 	c #2A2829",
"& 	c #464445",
"* 	c #544F50",
"= 	c #514C4E",
"- 	c #4E494B",
"; 	c #4D4849",
"> 	c #50494C",
", 	c #524A4D",
"' 	c #504B4D",
") 	c #4E4C4D",
"! 	c #4D4D4D",
"~ 	c #ACACAC",
"{ 	c #ABABAB",
"] 	c #B2B2B2",
"^ 	c #B6B6B6",
"/ 	c #B1B1B1",
"( 	c #6E6B6C",
"_ 	c #2D2A2B",
": 	c #474546",
"< 	c #AFADAD",
"[ 	c #B7B2B3",
"} 	c #B9B4B6",
"| 	c #BCB7B9",
"1 	c #BDB9BA",
"2 	c #B6AFB1",
"3 	c #B4AFB1",
"4 	c #B3B0B1",
"5 	c #B7B7B7",
"6 	c #B8B8B8",
"7 	c #999999",
"8 	c #707070",
"9 	c #504D4E",
"0 	c #2C292A",
"a 	c #555354",
"b 	c #B4B1B2",
"c 	c #B2ADAF",
"d 	c #BCB4B7",
"e 	c #BAB5B7",
"f 	c #B8B6B7",
"g 	c #979797",
"h 	c #939393",
"i 	c #9C9C9C",
"j 	c #818181",
"k 	c #545253",
"l 	c #4C4A4B",
"m 	c #B0AEAF",
"n 	c #B5B1B2",
"o 	c #AAA5A7",
"p 	c #999596",
"q 	c #8D8889",
"r 	c #9A9395",
"s 	c #989395",
"t 	c #979495",
"u 	c #959595",
"v 	c #797979",
"w 	c #7A7A7A",
"x 	c #6A6A6A",
"y 	c #252223",
"z 	c #979294",
"A 	c #7C7779",
"B 	c #7B7678",
"C 	c #7D7578",
"D 	c #7A7778",
"E 	c #787878",
"F 	c #262324",
"G 	c #BBB9B7",
"H 	c #959392",
"I 	c #7B7977",
"J 	c #7B7776",
"K 	c #7A7776",
"L 	c #535152",
"M 	c #4B4949",
"N 	c #747474",
"O 	c #7D7D7D",
"P 	c #7B7B7B",
"Q 	c #50514E",
"R 	c #222220",
"S 	c #484946",
"T 	c #ACADAA",
"U 	c #B3B1AF",
"V 	c #9B9998",
"W 	c #747270",
"X 	c #817E7D",
"Y 	c #7F7F7D",
"Z 	c #777777",
"` 	c #6F6F6F",
" .	c #575757",
"..	c #BEBCBB",
"+.	c #777574",
"@.	c #787876",
"#.	c #636363",
"$.	c #6B6B6B",
"%.	c #656565",
"&.	c #535353",
"*.	c #535351",
"=.	c #242422",
"-.	c #4B4B48",
";.	c #AFAFAD",
">.	c #A2A39E",
",.	c #7A7B76",
"'.	c #696A65",
").	c #646560",
"!.	c #646562",
"~.	c #464646",
"{.	c #444444",
"].	c #555553",
"^.	c #262724",
"/.	c #4D4D4B",
"(.	c #B1B1AF",
"_.	c #71726D",
":.	c #4C4C48",
"<.	c #52524D",
"[.	c #52524F",
"}.	c #565656",
"|.	c #5E5E5E",
"1.	c #555555",
"2.	c #323232",
"3.	c #3B3B3B",
"4.	c #6B6C69",
"5.	c #545550",
"6.	c #545452",
"7.	c #565754",
"8.	c #575855",
"9.	c #2C2C2C",
"0.	c #2B2B2B",
"a.	c #232323",
"b.	c #2A2A2A",
"c.	c #282828",
"d.	c #222222",
"e.	c #212121",
"f.	c #1F1F1F",
"g.	c #1D1D1D",
"h.	c #1A1A1A",
"i.	c #1E1E1E",
"j.	c #2A2A28",
"k.	c #2A2B26",
"l.	c #2B2B29",
"m.	c #31312F",
"n.	c #323230",
"o.	c #2F2F2D",
"p.	c #585858",
"q.	c #4C4C4C",
"r.	c #4B4B4B",
"s.	c #494949",
"t.	c #484848",
"u.	c #4E4E4E",
"v.	c #414141",
"w.	c #494A47",
"x.	c #494A45",
"y.	c #4C4C4A",
"z.	c #373735",
"A.	c #1A1A18",
"B.	c #B9B9B9",
"C.	c #B4B4B4",
"D.	c #C4C4C4",
"E.	c #AFAFAF",
"F.	c #B1B2AD",
"G.	c #BABBB8",
"H.	c #A8A8A6",
"I.	c #70706E",
"J.	c #555352",
"K.	c #B1AFAE",
"L.	c #B8B6B5",
"M.	c #B7B5B4",
"N.	c #B5B2B3",
"O.	c #B4B2B0",
"P.	c #ACA9AA",
"Q.	c #747172",
"R.	c #53514F",
"S.	c #AEACAA",
"T.	c #9A9899",
"U.	c #9B999A",
"V.	c #989596",
"W.	c #959394",
"X.	c #979593",
"Y.	c #737071",
"Z.	c #514E4F",
"`.	c #353233",
" +	c #514F4D",
".+	c #B5B3B1",
"++	c #A2A09F",
"@+	c #7B7879",
"#+	c #7C797A",
"$+	c #7D7B7B",
"%+	c #7E7C7B",
"&+	c #666364",
"*+	c #525050",
"=+	c #B6B4B2",
"-+	c #999795",
";+	c #7E7C7D",
">+	c #7C7A78",
",+	c #696768",
"'+	c #312F30",
")+	c #B7B5B6",
"!+	c #4D4B4C",
"~+	c #BAB7B8",
"{+	c #AAA8A9",
"]+	c #777576",
"^+	c #686568",
"/+	c #686666",
"(+	c #686664",
"_+	c #6A6869",
":+	c #6A6867",
"<+	c #696766",
"[+	c #5F5D5B",
"}+	c #595755",
"|+	c #52504E",
"1+	c #312F2E",
"2+	c #AEACAC",
"3+	c #6D6A6B",
"4+	c #535054",
"5+	c #545251",
"6+	c #504E4C",
"7+	c #4B4947",
"8+	c #2D2B29",
"9+	c #403E3F",
"0+	c #585556",
"a+	c #4A4748",
"b+	c #504D50",
"c+	c #353331",
"d+	c #1B191A",
"e+	c #302E2F",
"f+	c #2F2C2F",
"g+	c #2F2D2D",
"h+	c #2F2D2B",
"i+	c #302E2D",
"j+	c #2E2C2A",
"k+	c #211F1D",
"              . +   . @ # $ % & * = - ; > , ' ' ) ) ! ! ",
"~ ~ ~ ~ ~ ~ ~ { ~ ] ^ / ( _ : < [ } | 1 2 2 3 3 4 4 / / ",
"5 5 5 5 5 5 5 5 6 ^ 7 8 9 0 a b } [ 3 c d d e e f f 5 5 ",
"g g g g g g g g h i j . k $ l m n o p q r r s s t t u u ",
"v v v v v v v v v w x . k y l m | z A B C C B B D D E E ",
"v v v v v v v v v w x . k F l m | z A B C C B B D D E E ",
"v v v v v v v v v w x . k F l m G H I J J J J K D D E E ",
"v v v v v v v v v w x . L y M < G H I K J J K K D D E E ",
"N N N N N N N N O P x   Q R S T U V W X X X X X Y Y Y Y ",
"Z Z Z Z Z Z Z Z E P `  .Q R S T ..V +.K K K K K @.@.@.@.",
"x x x x x x x x #.$.%.&.*.=.-.;.>.,.'.).).).).).!.!.!.!.",
"@ @ @ @ @ @ @ @ ~.&.+ {.].^./.(._.:.<.<.<.<.<.<.[.[.[.[.",
"  }.|.1.@ 1.1.@ @ &.+ . 1.2.3.4.5.5.5.5.6.6.6.7.8.].[.[.",
"9.0.a.b.c.a.a.d.d.e.f.f.g.h.i.c.j.k.k.k.j.j.j.j.l.m.n.o.",
"9.  {.p.! ! ! q.q.r.s.t.r.u.r.v.w.x.x.x.w.w.w.w./.y.z.A.",
"! ~ ~ 6 B.B.B.6 6 5 ^ C.D.C.~ E.(.F.F.F.(.(.(.(.G.H.I.n.",
"J.K.L.M.4 4 4 4 b b 4 4 b N.N.N.O.O.O.U U K.K.K.P.Q.k 0 ",
"R.U M.S.T.T.T.T.U.U.T.V.t W.W.W.X.X.X.X.V V V V Y.Z.a `.",
" +.+.+++D D D D @+@+D D #+$+$+$+%+%+%+%+K K K K &+*+a % ",
" +=+.+-+$+$+$+$+;+;+$+#+D D D D K K I I I I >+>+,+k L '+",
"Z.b )+V.#+#+#+#+$+$+#+@+@+@+@+@+@+@+@+@+#+#+#+#+,+k L '+",
"*+4 f V.#+#+#+#+$+$+#+@+@+@+@+@+@+@+@+@+#+#+#+#+,+k L '+",
"*+4 f V.#+#+#+#+$+$+#+@+@+@+@+@+I I I I #+#+#+#+,+k L '+",
"*+4 f V.#+#+#+#+$+$+#+@+@+@+@+@+I I I I #+#+#+#+,+k L '+",
"!+~+{+]+^+^+/+/+,+,+(+(+,+_+_+_+:+:+:+<+<+(+(+(+[+}+|+1+",
"L 2+3+*+4+4+L L k k R.R.k a a a J.J.J.5+5+R.R.R.|+6+7+8+",
"9+3+0+a+b+b+9 9 Z.Z.6+6+ +|+|+|+|+|+|+ + +6+6+6+|+ + +c+",
"d+e+_ `.f+f+g+g+e+e+h+h+i+1+1+1+1+1+1+i+i+h+h+h+8+j+i+k+"};
