/* XPM */
static char * wall_36x36_xpm[] = {
"36 36 294 2",
"  	c #343434",
". 	c #222222",
"+ 	c #363636",
"@ 	c #2D2D2D",
"# 	c #2A2A2A",
"$ 	c #262626",
"% 	c #1C1C1C",
"& 	c #2F2F2F",
"* 	c #302E2F",
"= 	c #312F30",
"- 	c #333031",
"; 	c #B1B1B1",
"> 	c #B2B2B2",
", 	c #AAAAAA",
"' 	c #B0B0B0",
") 	c #9A9A9A",
"! 	c #616161",
"~ 	c #2B2B2B",
"{ 	c #A8A8A8",
"] 	c #ACACAC",
"^ 	c #AEACAC",
"/ 	c #AFADAD",
"( 	c #B0AEAF",
"_ 	c #B4B4B4",
": 	c #ADADAD",
"< 	c #696969",
"[ 	c #4D4D4D",
"} 	c #1D1D1D",
"| 	c #303030",
"1 	c #A9A9A9",
"2 	c #B1AFB0",
"3 	c #B3B3B3",
"4 	c #9C9C9C",
"5 	c #666666",
"6 	c #5B5B5B",
"7 	c #5A5A5A",
"8 	c #B7B7B7",
"9 	c #B8B6B7",
"0 	c #BAB7B8",
"a 	c #BBB8B9",
"b 	c #959595",
"c 	c #979495",
"d 	c #8D8B8C",
"e 	c #716F70",
"f 	c #595757",
"g 	c #575455",
"h 	c #5A5858",
"i 	c #211F1F",
"j 	c #373536",
"k 	c #B3B0B1",
"l 	c #AAA8A9",
"m 	c #A3A1A2",
"n 	c #908D8E",
"o 	c #999797",
"p 	c #999596",
"q 	c #797979",
"r 	c #7B7879",
"s 	c #817E7F",
"t 	c #696768",
"u 	c #545253",
"v 	c #585556",
"w 	c #222021",
"x 	c #353233",
"y 	c #9F9C9D",
"z 	c #888586",
"A 	c #7A7778",
"B 	c #7A7577",
"C 	c #7B7B7B",
"D 	c #7D7B7B",
"E 	c #7E7C7D",
"F 	c #676465",
"G 	c #535152",
"H 	c #555354",
"I 	c #201D1E",
"J 	c #B5B2B3",
"K 	c #7C797A",
"L 	c #747474",
"M 	c #767474",
"N 	c #666364",
"O 	c #787677",
"P 	c #787878",
"Q 	c #807B7D",
"R 	c #686465",
"S 	c #575254",
"T 	c #565153",
"U 	c #201B1D",
"V 	c #332E30",
"W 	c #AEAAAB",
"X 	c #BCB7B9",
"Y 	c #B3AEB0",
"Z 	c #979294",
"` 	c #767273",
" .	c #6A6566",
"..	c #BBB6B8",
"+.	c #585355",
"@.	c #7B7678",
"#.	c #595556",
"$.	c #555052",
"%.	c #211D1E",
"&.	c #342F31",
"*.	c #B0ABAC",
"=.	c #787374",
"-.	c #7A7A7A",
";.	c #7D797A",
">.	c #7D7578",
",.	c #6E6669",
"'.	c #5B5456",
").	c #544D4F",
"!.	c #565151",
"~.	c #201C1B",
"{.	c #332E2E",
"].	c #AEAAA9",
"^.	c #B2ADAD",
"/.	c #BCB8B7",
"(.	c #9E9A99",
"_.	c #726D6D",
":.	c #848081",
"<.	c #838081",
"[.	c #848282",
"}.	c #827F80",
"|.	c #7F7D7E",
"1.	c #7E7E7E",
"2.	c #7D7D7D",
"3.	c #636363",
"4.	c #656263",
"5.	c #666163",
"6.	c #635C5E",
"7.	c #5C5557",
"8.	c #564F52",
"9.	c #534C4E",
"0.	c #544F4E",
"a.	c #1E1A19",
"b.	c #312C2B",
"c.	c #ACA8A7",
"d.	c #BBB7B6",
"e.	c #959090",
"f.	c #716C6B",
"g.	c #666261",
"h.	c #676264",
"i.	c #686666",
"j.	c #686868",
"k.	c #535353",
"l.	c #554E50",
"m.	c #575053",
"n.	c #5A5355",
"o.	c #A5A1A0",
"p.	c #6B6666",
"q.	c #504C4B",
"r.	c #5B5655",
"s.	c #555555",
"t.	c #525152",
"u.	c #514C4E",
"v.	c #50494C",
"w.	c #60585B",
"x.	c #55504F",
"y.	c #1F1B1A",
"z.	c #322D2D",
"A.	c #ADA9A8",
"B.	c #575352",
"C.	c #525050",
"D.	c #505050",
"E.	c #4F4F4F",
"F.	c #565656",
"G.	c #262221",
"H.	c #252120",
"I.	c #545251",
"J.	c #555352",
"K.	c #575553",
"L.	c #4E4E4E",
"M.	c #4D4B4C",
"N.	c #4C4A4B",
"O.	c #4E4C4D",
"P.	c #1E1E1E",
"Q.	c #151515",
"R.	c #2C2C2C",
"S.	c #313131",
"T.	c #272425",
"U.	c #282425",
"V.	c #272322",
"W.	c #282423",
"X.	c #2A2524",
"Y.	c #231E1D",
"Z.	c #191514",
"`.	c #120E0D",
" +	c #22201F",
".+	c #232120",
"++	c #252221",
"@+	c #1F1F1F",
"#+	c #262324",
"$+	c #333333",
"%+	c #282828",
"&+	c #363233",
"*+	c #353130",
"=+	c #363231",
"-+	c #383332",
";+	c #2D2B29",
">+	c #2E2C2A",
",+	c #2F2D2B",
"'+	c #2D2A2B",
")+	c #2C292A",
"!+	c #383637",
"~+	c #2E2B2C",
"{+	c #171415",
"]+	c #A7A6A7",
"^+	c #B1ACAD",
"/+	c #B0ABAA",
"(+	c #B1ACAB",
"_+	c #B5B1B0",
":+	c #B8B3B2",
"<+	c #B4B0AF",
"[+	c #B1AFAE",
"}+	c #B0AEAD",
"|+	c #B6B4B4",
"1+	c #AFAFAF",
"2+	c #B6B6B6",
"3+	c #B7B5B6",
"4+	c #BAB6B5",
"5+	c #BBB9B7",
"6+	c #BCBAB8",
"7+	c #BAB8B6",
"8+	c #B8B8B6",
"9+	c #B7B7B5",
"0+	c #B8B6B5",
"a+	c #B7B5B4",
"b+	c #ACA9AA",
"c+	c #A09E9E",
"d+	c #6E6B6C",
"e+	c #282626",
"f+	c #B4AFB1",
"g+	c #B3AFAE",
"h+	c #B4B2B0",
"i+	c #B5B3B1",
"j+	c #B1B1AF",
"k+	c #B0B0AE",
"l+	c #BCB9BA",
"m+	c #BEBCBD",
"n+	c #B4B1B2",
"o+	c #A19FA0",
"p+	c #4B4949",
"q+	c #9E9B9C",
"r+	c #9B9697",
"s+	c #999594",
"t+	c #9B9695",
"u+	c #9A9897",
"v+	c #9B9998",
"w+	c #979895",
"x+	c #969794",
"y+	c #989694",
"z+	c #979593",
"A+	c #949293",
"B+	c #8C8A8B",
"C+	c #514E4F",
"D+	c #252223",
"E+	c #7A7675",
"F+	c #7B7776",
"G+	c #7B7977",
"H+	c #7C7A78",
"I+	c #787876",
"J+	c #777775",
"K+	c #787675",
"L+	c #777574",
"M+	c #504D4E",
"N+	c #989596",
"O+	c #747172",
"P+	c #7C7779",
"Q+	c #6D686A",
"R+	c #232122",
"S+	c #6C6769",
"T+	c #252022",
"U+	c #706E6F",
"V+	c #757273",
"W+	c #544F50",
"X+	c #4E494B",
"Y+	c #777576",
"Z+	c #746F71",
"`+	c #504B4D",
" @	c #241F21",
".@	c #5E5B5C",
"+@	c #636162",
"@@	c #626061",
"#@	c #6A6869",
"$@	c #6C696A",
"%@	c #5E595B",
"&@	c #524E4F",
"*@	c #262123",
"=@	c #A2A0A1",
"-@	c #545454",
";@	c #5B595A",
">@	c #1E1B1C",
",@	c #2A2829",
"'@	c #615F5F",
")@	c #4C4C4C",
"!@	c #212121",
"~@	c #151314",
"                        . + @ + # $ % # & & & & & & & & * * = = = = - - ",
"; ; ; ; ; ; ; ; ; ; ; ; > , ' ) ! . ~ { ] ] ] ] ] ] ] ] ^ ^ / / / / ( ( ",
"_ _ _ _ _ _ _ _ _ _ _ _ : _ { < [ } | 1 : : : : : : : : / / ( ( ( ( 2 2 ",
"3 3 3 3 3 3 3 3 3 3 3 3 _ 4 5 6 7 % ~ > 8 8 8 8 8 8 8 8 9 9 0 0 0 0 a a ",
"b b b b b b b b c c c c d e f g h i j k l / m n o o o o o o o o p p p p ",
"q q q q q q q q r r r r s t g u v w x ( ^ / y z A A A A A A A A B B B B ",
"C C C C C C C C D D D D E F u G H I - ^ J ( o K E E E E E E E E D D D D ",
"L L L L L L L L M M M M r N u G H I - ^ 0 2 c M A A A A A A A A O O O O ",
"P P P P A A A A A A A A Q R S T T U V W X Y Z ` B B B B A A A A r r r r ",
"P P P P A A A A A A A A Q  .S T T U V W ..Y Z ` B B B B A A A A r r r r ",
"P P P P A A A A A A A A Q  .+.S T U V W ..Y Z ` B B B B A A A A q q q q ",
"P P P P A A A A A A A @.Q  .#.$.S %.&.*...Y Z =.B B B B A A A A q q q q ",
"-.-.-.-.K K K K ;.;.;.;.>.,.'.).!.~.{.].^./.(._.:.:.<.<.[.<.<.}.s |.1.2.",
"3.3.3.3.4.4.4.4.5.5.5.5.6.7.8.9.0.a.b.c.d.e.f.g.h.h.N N F F i.i.i.i.j.j.",
"k.k.k.k.u u u u T T T $.l.l.m.n.0.a.b.c.o.p.q.r.$.$.G G u u H H H H s.s.",
"t.t.t.t.G G G G $.$.$.u.v.9.n.w.x.y.z.A.f.B.q.x.S S H H g H H u G C.D.E.",
"t.F.D.s.g u u u T T T T x.!.!.B.r.G.H.r.I.I.J.J.J.J.K.J.u C.L.[ M.N.O.C.",
"P.Q.R.S.T.T.T.T.U.U.U.U.V.W.W.X.Y.Z.`.Y. + +.+.+.+.+++.+w i @+@+w T.#+i ",
"Q.| $+%+x x x x &+&+&+&+*+=+=+*+{.-+=+z.;+;+>+>+>+>+,+>+'+)+# # * !+~+{+",
"& ] ]+1 / / / / ^+^+^+^+/+(+(+^._+:+_+<+[+}+}+}+}+}+[+}+/ ^ ] ] |+m N w ",
"R.1+1+2+3+0 0 0 ........4+d.d.d.5+6+5+5+7+8+8+9+0+a+a+a+b+|+|+b+c+d+N.e+",
"R.1+1+2+k 2 k k f+f+f+f+g+<+<+<+h+i+h+h+j+j+j+k+[+}+}+}+l+m+n+o+d+C.p+i ",
"R.1+1+2+q+c o o r+r+r+r+s+t+t+t+u+v+u+u+w+w+w+x+y+z+z+z+A+c B+A C+O.G D+",
"R.1+1+2+}.A O A @.@.@.@.E+F+F+F+G+H+G+G+I+I+I+J+K+L+L+L+e K K e g O.M+= ",
"R.1+1+2+N+O+K A @.@.@.@.B @.@.P+G+G+G+G+G+G+G+G+A A A A =.@.@.Q+g H O.R+",
"R.1+1+2+N+O+K A @.@.@.@.B @.@.P+G+G+G+G+G+G+G+G+A A A A =.@.@.Q+g H M+R+",
"R.1+1+2+N+O+K A @.@.@.@.B @.@.P+G+G+G+G+G+G+G+G+A A A A =.@.@.Q+g H M+R+",
"R.1+1+2+N+O+K A @.@.@.@.B @.@.P+G+G+G+G+G+G+G+G+A A A A =.@.@.Q+v g C+D+",
"~+( ( 3+N+O+K A A A A A O A A r A A A A A A A A B B B B ` B B S++.S u.T+",
"~+( ( 3+A+U+O M M M M M V+M M O A r r r r r r r @.@.@.@.=.@.@.Q+$.W+X+%.",
"~+( ( 3+q+A }.|.|.|.|.|.E |.|.E A Y+Y+Y+Y+Y+Y+Y+=.=.=.=.Z+=.=. .S T `+ @",
"~+( ( 3+}..@N +@+@+@+@+@@@+@+@N #@$@$@$@$@$@$@$@S+S+S+S+R S+S+%@#.+.&@*@",
"x ^ =@t &@&@C+C+C+C+E.E.L.E.E.D.G G G G G G G G G G G G G G G G G H C.D+",
"= c+t g S S H H H H -@-@k.-@-@-@G C.C.C.C.C.C.C.C.C.C.C.C.C.C.C.u ;@u >@",
",@'@g C+`+`+O.O.O.O.[ [ )@[ [ E.C.G G G G G G G G G G G G G G G C+G O.i ",
"I ~+w #+T+T+R+R+R+R+. . !@. . . R+w w w w w w w w w w w w w w w ,@R+e+~@"};
