/* XPM */
static char * wall_24x24_xpm[] = {
"24 24 173 2",
"  	c #626262",
". 	c #656565",
"+ 	c #5D5D5D",
"@ 	c #535353",
"# 	c #1D1D1D",
"$ 	c #363434",
"% 	c #615F5F",
"& 	c #626061",
"* 	c #686666",
"= 	c #5A5856",
"- 	c #5C5756",
"; 	c #B1B1B1",
"> 	c #A3A3A3",
", 	c #7D7D7D",
"' 	c #282828",
") 	c #585556",
"! 	c #B5B2B3",
"~ 	c #B8B6B7",
"{ 	c #AAA8A9",
"] 	c #B8B6B5",
"^ 	c #BAB6B5",
"/ 	c #A8A8A8",
"( 	c #B8B8B8",
"_ 	c #7B7B7B",
": 	c #565656",
"< 	c #2F2F2F",
"[ 	c #5C5A5B",
"} 	c #BDBBBB",
"| 	c #B3B0B1",
"1 	c #BAB7B8",
"2 	c #AFADAB",
"3 	c #B1ACAB",
"4 	c #797979",
"5 	c #777777",
"6 	c #5B5B5B",
"7 	c #4F4F4F",
"8 	c #595757",
"9 	c #B0AEAF",
"0 	c #908D8E",
"a 	c #817E7D",
"b 	c #827E7D",
"c 	c #7A7A7A",
"d 	c #787878",
"e 	c #5C5C5C",
"f 	c #505050",
"g 	c #303030",
"h 	c #575455",
"i 	c #BFBDBE",
"j 	c #AFADAD",
"k 	c #7D7B7B",
"l 	c #7C7A78",
"m 	c #7D7978",
"n 	c #696969",
"o 	c #2C2C2C",
"p 	c #535152",
"q 	c #BBB8B9",
"r 	c #A6A3A4",
"s 	c #7C797A",
"t 	c #7A7776",
"u 	c #7B7776",
"v 	c #2B2B2B",
"w 	c #504D4E",
"x 	c #A9A7A8",
"y 	c #737071",
"z 	c #605D5E",
"A 	c #575553",
"B 	c #585453",
"C 	c #545454",
"D 	c #363636",
"E 	c #4A4748",
"F 	c #7B7879",
"G 	c #545251",
"H 	c #565151",
"I 	c #313131",
"J 	c #2D2D2D",
"K 	c #383838",
"L 	c #222222",
"M 	c #211F1F",
"N 	c #292728",
"O 	c #3E3C3D",
"P 	c #383637",
"Q 	c #33302F",
"R 	c #34302F",
"S 	c #343132",
"T 	c #636162",
"U 	c #5E5B5C",
"V 	c #525050",
"W 	c #4E4E4E",
"X 	c #525152",
"Y 	c #4D4B4C",
"Z 	c #555354",
"` 	c #555352",
" .	c #5B5655",
"..	c #656160",
"+.	c #4B4746",
"@.	c #252120",
"#.	c #B1AFB0",
"$.	c #BCB9BA",
"%.	c #BDBDBD",
"&.	c #BBBBBB",
"*.	c #C1BEBF",
"=.	c #B7B5B6",
"-.	c #B7B5B4",
";.	c #C1BDBC",
">.	c #7C7877",
",.	c #363231",
"'.	c #B6B4B4",
").	c #AEACAC",
"!.	c #B0B0B0",
"~.	c #ABABAB",
"{.	c #AFAFAF",
"].	c #B4B1B2",
"^.	c #B5B3B1",
"/.	c #AAA5A4",
"(.	c #736F6E",
"_.	c #353130",
":.	c #666364",
"<.	c #A7A5A5",
"[.	c #8D8B8C",
"}.	c #827F80",
"|.	c #838081",
"1.	c #828282",
"2.	c #7E7E7E",
"3.	c #818181",
"4.	c #868485",
"5.	c #858384",
"6.	c #837F7E",
"7.	c #524E4D",
"8.	c #5D585A",
"9.	c #BAB5B7",
"0.	c #B1ACAD",
"a.	c #837E80",
"b.	c #7B7678",
"c.	c #7A7778",
"d.	c #767474",
"e.	c #545253",
"f.	c #60585B",
"g.	c #BEB7B9",
"h.	c #AFA8AA",
"i.	c #847C7F",
"j.	c #7C7477",
"k.	c #7A7577",
"l.	c #797476",
"m.	c #777576",
"n.	c #747474",
"o.	c #767676",
"p.	c #747172",
"q.	c #5A5858",
"r.	c #4E4C4D",
"s.	c #6A6365",
"t.	c #ACA5A8",
"u.	c #797274",
"v.	c #564F52",
"w.	c #5A5355",
"x.	c #585355",
"y.	c #575254",
"z.	c #353233",
"A.	c #4E494B",
"B.	c #787374",
"C.	c #595556",
"D.	c #514C4E",
"E.	c #555555",
"F.	c #312F30",
"G.	c #282425",
"H.	c #322D2F",
"I.	c #3A3537",
"J.	c #353032",
"K.	c #383334",
"L.	c #323232",
"M.	c #333333",
"N.	c #333031",
"O.	c #3B3839",
"P.	c #282626",
"                . + @ # $ % & * = = = = - - - - ",
"; ; ; ; ; ; ; ; ; > , ' ) ! ~ { ] ] ] ] ^ ^ ^ ^ ",
"/ / / / / / / / ( _ : < [ } | 1 2 2 2 2 3 3 3 3 ",
"4 4 4 4 4 4 4 4 5 6 7 < 8 1 9 0 a a a a b b b b ",
"c c c c c c c c d e f g h i j k l l l l m m m m ",
"c c c c c c c c d e f g h i j k l l l l m m m m ",
"c c c c c c c c d e f g h i j k l l l l m m m m ",
"c c c c c c c c d e f g h i j k l l l l m m m m ",
"4 4 4 4 4 4 4 4 n + : o p q r s t t t t u u u u ",
"6 6 6 6 6 6 6 6 6 @ f v w x y z A A A A B B B B ",
"7 7 7 7 7 7 7 7 C f : D E F h p G G G G H H H H ",
"I I I I I I I I o J K L M N O P Q Q Q Q R R R R ",
"S 8 T U V V p p @ @ W X h h Y Z ` ` ` `  ...+.@.",
"U #.1 q $.$.} } %.%.( &.*.*.=.i -.-.-.-.;.3 >.,.",
"z '.j ).j j 9 9 !.!.~.{.].].{ | ^.^.^.^./.(.H _.",
":.<.=.[.}.}.|.|.1.1.2.3.4.4.k 5.a a a a 6.H 7.,.",
"8.9.0.a.b.b.c.c.F F 4 4 c c c c F F F F d.p e.S ",
"8.9.0.a.b.b.c.c.F F 4 4 c c c c F F F F d.p e.S ",
"8.9.0.a.b.b.c.c.F F 4 4 c c c c F F F F d.p e.S ",
"8.9.0.a.b.b.b.c.F F 4 4 c c c c F F F F d.p e.S ",
"f.g.h.i.j.j.k.l.m.d.n.n.o.o.o.o.d.d.d.d.p.q.r.$ ",
"s.t.u.v.w.w.x.y.Z e.@ @ C C C C e.e.e.e.q.8 h z.",
"A.B.C.D.C.C.C.h h Z C C E.E.E.E.Z Z Z Z w Z V F.",
"G.H.I.J.K.K.$ z.z.S L.L.M.M.M.M.S S S S N.z.O.P."};
