/* XPM */
static char * a_xpm[] = {
"25 20 46 1",
" 	c #000000",
".	c #8C8C8C",
"+	c #D0D0D0",
"@	c #EEEEEE",
"#	c #FAFAFA",
"$	c #FFFFFF",
"%	c #F8F8F8",
"&	c #E7E7E7",
"*	c #B7B7B7",
"=	c #383838",
"-	c #595959",
";	c #DDDDDD",
">	c #3D3D3D",
",	c #636363",
"'	c #EFEFEF",
")	c #BABABA",
"!	c #323232",
"~	c #E8E8E8",
"{	c #E1E1E1",
"]	c #BEBEBE",
"^	c #F5F5F5",
"/	c #767676",
"(	c #CACACA",
"_	c #585858",
":	c #ADADAD",
"<	c #BCBCBC",
"[	c #878787",
"}	c #161616",
"|	c #F2F2F2",
"1	c #D4D4D4",
"2	c #787878",
"3	c #8E8E8E",
"4	c #949494",
"5	c #262626",
"6	c #F9F9F9",
"7	c #C7C7C7",
"8	c #A4A4A4",
"9	c #7F7F7F",
"0	c #DEDEDE",
"a	c #EDEDED",
"b	c #5D5D5D",
"c	c #FDFDFD",
"d	c #B6B6B6",
"e	c #676767",
"f	c #EBEBEB",
"g	c #E3E3E3",
"                         ",
"                         ",
"          .+@#$$$$%&*=   ",
"        -;$$$$$$$$$$$&>  ",
"       ,'$$$$$$$$$$$$$)  ",
"      !~$$$$$$$$$$$$$${  ",
"      ]$$$$$^/  ($$$$$~  ",
"     _#$$$$$:   ($$$$$~  ",
"     <$$$$$#[$$$$$$$$$~  ",
"    }|$$$$$12$$$$$$$$$~  ",
"    3$$$$$$42$$$$$$$$$~  ",
"    +$$$$$^52$$$$$$$$$~  ",
"   >6$$$$$7     ($$$$$~  ",
"   8$$$$$$9     ($$$$$~  ",
"   0$$$$$a      ($$$$$~  ",
"  bc$$$$$)      ($$$$$~  ",
"  d$$$$$$e      ($$$$$~  ",
"  f$$$$$g       ($$$$$~  ",
"                         ",
"                         "};
