/* XPM */
static char * b_xpm[] = {
"25 20 21 1",
" 	c #000000",
".	c #FFFFFF",
"+	c #F8F8F8",
"@	c #DFDFDF",
"#	c #959595",
"$	c #BABABA",
"%	c #7F7F7F",
"&	c #CACACA",
"*	c #8B8B8B",
"=	c #E1E1E1",
"-	c #8C8C8C",
";	c #B9B9B9",
">	c #E9E9E9",
",	c #3D3D3D",
"'	c #AAAAAA",
")	c #C9C9C9",
"!	c #FEFEFE",
"~	c #7E7E7E",
"{	c #FAFAFA",
"]	c #E3E3E3",
"^	c #9B9B9B",
"                         ",
"                         ",
"  ................+@#    ",
"  ...................$   ",
"  ....................%  ",
"  ....................&  ",
"               *......=  ",
"               -......@  ",
"  ....................;  ",
"  ...................>,  ",
"  ...................>,  ",
"  ....................$  ",
"  ......'      *......@  ",
"  ......'      -......=  ",
"  ....................)  ",
"  ...................!~  ",
"  ...................$   ",
"  ................{]^    ",
"                         ",
"                         "};
