/* XPM */
static char * c_xpm[] = {
"24 20 18 1",
" 	c #000000",
".	c #161616",
"+	c #9D9D9D",
"@	c #D4D4D4",
"#	c #EFEFEF",
"$	c #FAFAFA",
"%	c #FFFFFF",
"&	c #7C7C7C",
"*	c #6D6D6D",
"=	c #E9E9E9",
"-	c #F7F7F7",
";	c #EAEAEA",
">	c #F6F6F6",
",	c #D5D5D5",
"'	c #BEBEBE",
")	c #F0F0F0",
"!	c #AAAAAA",
"~	c #9C9C9C",
"                        ",
"                        ",
"     .+@#$%%%%%%%%%%%&  ",
"    *=%%%%%%%%%%%%%%%&  ",
"   *-%%%%%%%%%%%%%%%%&  ",
"  .;%%%%%%%%%%%%%%%%%&  ",
"  +%%%%%>&              ",
"  ,%%%%%'               ",
"  )%%%%%!               ",
"  $%%%%%!               ",
"  $%%%%%!               ",
"  )%%%%%!               ",
"  ,%%%%%'               ",
"  ~%%%%%>&              ",
"  .=%%%%%%%%%%%%%%%%%&  ",
"   *-%%%%%%%%%%%%%%%%&  ",
"    *=%%%%%%%%%%%%%%%&  ",
"     .~,)$%%%%%%%%%%%&  ",
"                        ",
"                        "};
