/* XPM */
static char * d_xpm[] = {
"25 20 24 1",
" 	c #000000",
".	c #FFFFFF",
"+	c #F8F8F8",
"@	c #ECECEC",
"#	c #CCCCCC",
"$	c #898989",
"%	c #DADADA",
"&	c #494949",
"*	c #EAEAEA",
"=	c #404040",
"-	c #D0D0D0",
";	c #0D0D0D",
">	c #9A9A9A",
",	c #FDFDFD",
"'	c #6A6A6A",
")	c #B4B4B4",
"!	c #AAAAAA",
"~	c #CACACA",
"{	c #D5D5D5",
"]	c #E1E1E1",
"^	c #B3B3B3",
"/	c #F9F9F9",
"(	c #EDEDED",
"_	c #CDCDCD",
"                         ",
"                         ",
"  .............+@#$      ",
"  .................%&    ",
"  ..................*=   ",
"  ...................-   ",
"              ;>,....,'  ",
"                %.....)  ",
"  ......!       ~.....{  ",
"  ......!       ~.....]  ",
"  ......!       ~.....]  ",
"  ......!       ~.....{  ",
"  ......!       %.....^  ",
"  ......!     ;>,....,'  ",
"  ...................-   ",
"  ..................*=   ",
"  .................%&    ",
"  ............./(_$      ",
"                         ",
"                         "};
