/* XPM */
static char * f_xpm[] = {
"20 20 17 1",
" 	c #000000",
".	c #161616",
"+	c #9D9D9D",
"@	c #D4D4D4",
"#	c #EFEFEF",
"$	c #FAFAFA",
"%	c #FFFFFF",
"&	c #6D6D6D",
"*	c #E9E9E9",
"=	c #F7F7F7",
"-	c #EAEAEA",
";	c #F1F1F1",
">	c #6E6E6E",
",	c #D5D5D5",
"'	c #B8B8B8",
")	c #F0F0F0",
"!	c #AAAAAA",
"                    ",
"                    ",
"     .+@#$%%%%%%%%  ",
"    &*%%%%%%%%%%%%  ",
"   &=%%%%%%%%%%%%%  ",
"  .-%%%%%%%%%%%%%%  ",
"  +%%%%%;>          ",
"  ,%%%%%'           ",
"  )%%%%%%%%%%%      ",
"  $%%%%%%%%%%%      ",
"  %%%%%%%%%%%%      ",
"  %%%%%%%%%%%%      ",
"  %%%%%%!           ",
"  %%%%%%!           ",
"  %%%%%%!           ",
"  %%%%%%!           ",
"  %%%%%%!           ",
"  %%%%%%!           ",
"                    ",
"                    "};
