/* XPM */
static char * g_xpm[] = {
"25 20 26 1",
" 	c #000000",
".	c #161616",
"+	c #9E9E9E",
"@	c #D4D4D4",
"#	c #EFEFEF",
"$	c #FAFAFA",
"%	c #FFFFFF",
"&	c #E7E7E7",
"*	c #6E6E6E",
"=	c #EAEAEA",
"-	c #6F6F6F",
";	c #F8F8F8",
">	c #1C1C1C",
",	c #F6F6F6",
"'	c #7C7C7C",
")	c #D5D5D5",
"!	c #BEBEBE",
"~	c #F0F0F0",
"{	c #AAAAAA",
"]	c #222222",
"^	c #CACACA",
"/	c #9C9C9C",
"(	c #E9E9E9",
"_	c #6D6D6D",
":	c #F7F7F7",
"<	c #9D9D9D",
"                         ",
"                         ",
"     .+@#$%%%%%%%%%%%%&  ",
"    *=%%%%%%%%%%%%%%%%&  ",
"   -;%%%%%%%%%%%%%%%%%&  ",
"  >=%%%%%%%%%%%%%%%%%%&  ",
"  +%%%%%,'               ",
"  )%%%%%!                ",
"  ~%%%%%{       .]]]]]>  ",
"  $%%%%%{       ^%%%%%&  ",
"  $%%%%%{       ^%%%%%&  ",
"  ~%%%%%{       ^%%%%%&  ",
"  )%%%%%!       ^%%%%%&  ",
"  /%%%%%,'      ^%%%%%&  ",
"  .(%%%%%%%%%%%%%%%%%%&  ",
"   _:%%%%%%%%%%%%%%%%%&  ",
"    _=%%%%%%%%%%%%%%%%&  ",
"     .<)~$%%%%%%%%%%%%&  ",
"                         ",
"                         "};
