/* XPM */
static char * h_xpm[] = {
"25 20 7 1",
" 	c #000000",
".	c #FDFDFD",
"+	c #FEFEFE",
"@	c #FFFFFF",
"#	c #AAAAAA",
"$	c #CACACA",
"%	c #E7E7E7",
"                         ",
"                         ",
"  ....+@#       $@@@@@%  ",
"  @@@@@@#       $@@@@@%  ",
"  @@@@@@#       $@@@@@%  ",
"  @@@@@@#       $@@@@@%  ",
"  @@@@@@#       $@@@@@%  ",
"  @@@@@@#       $@@@@@%  ",
"  @@@@@@@@@@@@@@@@@@@@%  ",
"  @@@@@@@@@@@@@@@@@@@@%  ",
"  @@@@@@@@@@@@@@@@@@@@%  ",
"  @@@@@@@@@@@@@@@@@@@@%  ",
"  @@@@@@#       $@@@@@%  ",
"  @@@@@@#       $@@@@@%  ",
"  @@@@@@#       $@@@@@%  ",
"  @@@@@@#       $@@@@@%  ",
"  @@@@@@#       $@@@@@%  ",
"  @@@@@@#       $@@@@@%  ",
"                         ",
"                         "};
