/* XPM */
static char * i_xpm[] = {
"11 20 7 1",
" 	c #000000",
".	c #FBFBFB",
"+	c #FCFCFC",
"@	c #FDFDFD",
"#	c #FEFEFE",
"$	c #AAAAAA",
"%	c #FFFFFF",
"           ",
"           ",
"  ..++@#$  ",
"  %%%%%%$  ",
"  %%%%%%$  ",
"  %%%%%%$  ",
"  %%%%%%$  ",
"  %%%%%%$  ",
"  %%%%%%$  ",
"  %%%%%%$  ",
"  %%%%%%$  ",
"  %%%%%%$  ",
"  %%%%%%$  ",
"  %%%%%%$  ",
"  %%%%%%$  ",
"  %%%%%%$  ",
"  %%%%%%$  ",
"  %%%%%%$  ",
"           ",
"           "};
