/* XPM */
static char * j_xpm[] = {
"19 20 16 1",
" 	c #000000",
".	c #FFFFFF",
"+	c #AAAAAA",
"@	c #5D5D5D",
"#	c #404040",
"$	c #D6D6D6",
"%	c #A1A1A1",
"&	c #797979",
"*	c #E7E7E7",
"=	c #FEFEFE",
"-	c #F4F4F4",
";	c #6E6E6E",
">	c #FDFDFD",
",	c #F1F1F1",
"'	c #C9C9C9",
")	c #5B5B5B",
"                   ",
"                   ",
"          ......+  ",
"          ......+  ",
"          ......+  ",
"          ......+  ",
"          ......+  ",
"          ......+  ",
"          ......+  ",
"          ......+  ",
"          ......+  ",
"          ......+  ",
"         @......+  ",
"        #$......%  ",
"  ..............&  ",
"  .............*   ",
"  =...........-;   ",
"  >........>,')    ",
"                   ",
"                   "};
