/* XPM */
static char * k_xpm[] = {
"27 20 33 1",
" 	c #000000",
".	c #FFFFFF",
"+	c #AAAAAA",
"@	c #323232",
"#	c #D9D9D9",
"$	c #FAFAFA",
"%	c #949494",
"&	c #404040",
"*	c #E0E0E0",
"=	c #F9F9F9",
"-	c #8B8B8B",
";	c #4D4D4D",
">	c #E5E5E5",
",	c #F6F6F6",
"'	c #808080",
")	c #585858",
"!	c #EAEAEA",
"~	c #F4F4F4",
"{	c #757575",
"]	c #646464",
"^	c #EEEEEE",
"/	c #F1F1F1",
"(	c #6B6B6B",
"_	c #C6C6C6",
":	c #F2F2F2",
"<	c #606060",
"[	c #565656",
"}	c #535353",
"|	c #C8C8C8",
"1	c #F5F5F5",
"2	c #747474",
"3	c #515151",
"4	c #E9E9E9",
"                           ",
"                           ",
"  ......+    @#......$%    ",
"  ......+   &*......=-     ",
"  ......+  ;>......,'      ",
"  ......+ )!......~{       ",
"  ......+]^....../(        ",
"  ......_:......^<         ",
"  .............![          ",
"  .............!}          ",
"  ......|1......!}         ",
"  ......+21......!3        ",
"  ......+ 21......!3       ",
"  ......+  21......!3      ",
"  ......+   21......!3     ",
"  ......+    21......!3    ",
"  ......+     21......43   ",
"  ......+      21......43  ",
"                           ",
"                           "};
