/* XPM */
static char * l_xpm[] = {
"19 20 11 1",
" 	c #000000",
".	c #FFFFFF",
"+	c #AAAAAA",
"@	c #BEBEBE",
"#	c #FAFAFA",
"$	c #F6F6F6",
"%	c #7C7C7C",
"&	c #E6E6E6",
"*	c #ABABAB",
"=	c #161616",
"-	c #D7D7D7",
"                   ",
"                   ",
"  ......+          ",
"  ......+          ",
"  ......+          ",
"  ......+          ",
"  ......+          ",
"  ......+          ",
"  ......+          ",
"  ......+          ",
"  ......+          ",
"  ......+          ",
"  ......@          ",
"  #.....$%         ",
"  &.............+  ",
"  *.............+  ",
"  =-............+  ",
"   =*&#.........+  ",
"                   ",
"                   "};
