/* XPM */
static char * m_xpm[] = {
"27 20 30 1",
" 	c #000000",
".	c #858585",
"+	c #DFDFDF",
"@	c #F9F9F9",
"#	c #F4F4F4",
"$	c #C1C1C1",
"%	c #353535",
"&	c #919191",
"*	c #E7E7E7",
"=	c #FBFBFB",
"-	c #EEEEEE",
";	c #B8B8B8",
">	c #1C1C1C",
",	c #FCFCFC",
"'	c #FFFFFF",
")	c #E8E8E8",
"!	c #4F4F4F",
"~	c #CECECE",
"{	c #E0E0E0",
"]	c #E9E9E9",
"^	c #B9B9B9",
"/	c #6D6D6D",
"(	c #FAFAFA",
"_	c #BABABA",
":	c #A2A2A2",
"<	c #AAAAAA",
"[	c #C8C8C8",
"}	c #F5F5F5",
"|	c #747474",
"1	c #B4B4B4",
"                           ",
"                           ",
"   .+@#$%         &*=-;>   ",
"  .,'''')!       ;'''''~   ",
"  {'''''']!     ^'''''''/  ",
"  (''''''']!   _'''''''':  ",
"  ''''''''']! _'''''''''<  ",
"  '''''''''']$''''''''''<  ",
"  ''''''''''''''''''''''<  ",
"  ''''''''''''''''''''''<  ",
"  ''''''[}'''''''_''''''<  ",
"  ''''''<|}'''''_ ''''''<  ",
"  ''''''< |}'''_  ''''''<  ",
"  ''''''<  |}'_   ''''''<  ",
"  ''''''<   |1    ''''''<  ",
"  ''''''<         ''''''<  ",
"  ''''''<         ''''''<  ",
"  ''''''<         ''''''<  ",
"                           ",
"                           "};
