/* XPM */
static char * n_xpm[] = {
"27 20 44 1",
" 	c #000000",
".	c #858585",
"+	c #DFDFDF",
"@	c #F9F9F9",
"#	c #F5F5F5",
"$	c #D4D4D4",
"%	c #6D6D6D",
"&	c #FFFFFF",
"*	c #AAAAAA",
"=	c #FCFCFC",
"-	c #FAFAFA",
";	c #A5A5A5",
">	c #E0E0E0",
",	c #D0D0D0",
"'	c #383838",
")	c #EAEAEA",
"!	c #6F6F6F",
"~	c #A3A3A3",
"{	c #CDCDCD",
"]	c #353535",
"^	c #6E6E6E",
"/	c #A0A0A0",
"(	c #C1C1C1",
"_	c #E7E7E7",
":	c #2A2A2A",
"<	c #C7C7C7",
"[	c #9A9A9A",
"}	c #F8F8F8",
"|	c #ABABAB",
"1	c #666666",
"2	c #2E2E2E",
"3	c #C8C8C8",
"4	c #A1A1A1",
"5	c #ACACAC",
"6	c #9B9B9B",
"7	c #676767",
"8	c #CECECE",
"9	c #ADADAD",
"0	c #B5B5B5",
"a	c #EDEDED",
"b	c #FBFBFB",
"c	c #EEEEEE",
"d	c #B8B8B8",
"e	c #222222",
"                           ",
"                           ",
"   .+@#$%         &&&&&&*  ",
"  .=&&&&-;        &&&&&&*  ",
"  >&&&&&&&,'      &&&&&&*  ",
"  -&&&&&&&&)!     &&&&&&*  ",
"  &&&&&&&&&&@~    &&&&&&*  ",
"  &&&&&&&&&&&&{]  &&&&&&*  ",
"  &&&&&&&&&&&&&)^ &&&&&&*  ",
"  &&&&&&&&&&&&&&@/&&&&&&*  ",
"  &&&&&&(_&&&&&&&&&&&&&&*  ",
"  &&&&&&*:<&&&&&&&&&&&&&*  ",
"  &&&&&&*  [}&&&&&&&&&&&*  ",
"  &&&&&&|   1_&&&&&&&&&&*  ",
"  &&&&&&|    23&&&&&&&&&4  ",
"  &&&&&&5      6}&&&&&&&%  ",
"  &&&&&&5       7_&&&&&8   ",
"  &&&&&&9        20abcde   ",
"                           ",
"                           "};
