/* XPM */
static char * o_xpm[] = {
"28 20 44 1",
" 	c #000000",
".	c #161616",
"+	c #9D9D9D",
"@	c #D4D4D4",
"#	c #EFEFEF",
"$	c #FAFAFA",
"%	c #FFFFFF",
"&	c #F8F8F8",
"*	c #ECECEC",
"=	c #CCCCCC",
"-	c #898989",
";	c #6D6D6D",
">	c #E9E9E9",
",	c #DBDBDB",
"'	c #4B4B4B",
")	c #F7F7F7",
"!	c #EBEBEB",
"~	c #424242",
"{	c #EAEAEA",
"]	c #D1D1D1",
"^	c #F6F6F6",
"/	c #7C7C7C",
"(	c #0D0D0D",
"_	c #9A9A9A",
":	c #FDFDFD",
"<	c #6E6E6E",
"[	c #D5D5D5",
"}	c #BEBEBE",
"|	c #DADADA",
"1	c #B6B6B6",
"2	c #F0F0F0",
"3	c #AAAAAA",
"4	c #CACACA",
"5	c #D7D7D7",
"6	c #E3E3E3",
"7	c #9C9C9C",
"8	c #FEFEFE",
"9	c #6F6F6F",
"0	c #D2D2D2",
"a	c #454545",
"b	c #F9F9F9",
"c	c #EDEDED",
"d	c #CECECE",
"e	c #8A8A8A",
"                            ",
"                            ",
"     .+@#$%%%%%%%%&*=-      ",
"    ;>%%%%%%%%%%%%%%%%,'    ",
"   ;)%%%%%%%%%%%%%%%%%%!~   ",
"  .{%%%%%%%%%%%%%%%%%%%%]   ",
"  +%%%%%^/       (_:%%%%:<  ",
"  [%%%%%}          |%%%%%1  ",
"  2%%%%%3          4%%%%%5  ",
"  $%%%%%3          4%%%%%6  ",
"  $%%%%%3          4%%%%%6  ",
"  2%%%%%3          4%%%%%5  ",
"  [%%%%%}          |%%%%%1  ",
"  7%%%%%^/       (_:%%%%89  ",
"  .>%%%%%%%%%%%%%%%%%%%%0   ",
"   ;)%%%%%%%%%%%%%%%%%%*a   ",
"    ;>%%%%%%%%%%%%%%%%,'    ",
"     .7[2$%%%%%%%%bcde      ",
"                            ",
"                            "};
