/* XPM */
static char * p_xpm[] = {
"25 20 18 1",
" 	c #000000",
".	c #FFFFFF",
"+	c #F8F8F8",
"@	c #DFDFDF",
"#	c #959595",
"$	c #BABABA",
"%	c #7F7F7F",
"&	c #CACACA",
"*	c #8B8B8B",
"=	c #E1E1E1",
"-	c #8C8C8C",
";	c #C8C8C8",
">	c #FEFEFE",
",	c #7C7C7C",
"'	c #B5B5B5",
")	c #DEDEDE",
"!	c #919191",
"~	c #AAAAAA",
"                         ",
"                         ",
"  ................+@#    ",
"  ...................$   ",
"  ....................%  ",
"  ....................&  ",
"               *......=  ",
"               -......=  ",
"  ....................;  ",
"  ...................>,  ",
"  ...................'   ",
"  ................+)!    ",
"  ......~                ",
"  ......~                ",
"  ......~                ",
"  ......~                ",
"  ......~                ",
"  ......~                ",
"                         ",
"                         "};
