/* XPM */
static char * q_xpm[] = {
"28 20 52 1",
" 	c #000000",
".	c #161616",
"+	c #9D9D9D",
"@	c #D4D4D4",
"#	c #EFEFEF",
"$	c #FAFAFA",
"%	c #FFFFFF",
"&	c #F8F8F8",
"*	c #ECECEC",
"=	c #CCCCCC",
"-	c #878787",
";	c #6D6D6D",
">	c #E9E9E9",
",	c #D8D8D8",
"'	c #454545",
")	c #F7F7F7",
"!	c #3D3D3D",
"~	c #EAEAEA",
"{	c #CECECE",
"]	c #F6F6F6",
"^	c #7C7C7C",
"/	c #0D0D0D",
"(	c #9A9A9A",
"_	c #FDFDFD",
":	c #696969",
"<	c #D5D5D5",
"[	c #BEBEBE",
"}	c #DADADA",
"|	c #B4B4B4",
"1	c #F0F0F0",
"2	c #AAAAAA",
"3	c #CACACA",
"4	c #D6D6D6",
"5	c #E2E2E2",
"6	c #E5E5E5",
"7	c #D7D7D7",
"8	c #B5B5B5",
"9	c #9C9C9C",
"0	c #FCFCFC",
"a	c #616161",
"b	c #C5C5C5",
"c	c #E3E3E3",
"d	c #262626",
"e	c #D2D2D2",
"f	c #474747",
"g	c #EDEDED",
"h	c #383838",
"i	c #A0A0A0",
"j	c #FEFEFE",
"k	c #DCDCDC",
"l	c #B0B0B0",
"m	c #222222",
"                            ",
"                            ",
"     .+@#$%%%%%%%%&*=-      ",
"    ;>%%%%%%%%%%%%%%%%,'    ",
"   ;)%%%%%%%%%%%%%%%%%%>!   ",
"  .~%%%%%%%%%%%%%%%%%%%%{   ",
"  +%%%%%]^       /(_%%%%_:  ",
"  <%%%%%[          }%%%%%|  ",
"  1%%%%%2          3%%%%%4  ",
"  $%%%%%2          3%%%%%5  ",
"  $%%%%%2          3%%%%%6  ",
"  1%%%%%2          3%%%%%7  ",
"  <%%%%%[          }%%%%%8  ",
"  9%%%%%]^       /(_%%%%0a  ",
"  .>%%%%%%%%%%%%%%%%%%%%b   ",
"   ;)%%%%%%%%%%%%%%%%%%cd   ",
"    ;>%%%%%%%%%%%%%%%%ef    ",
"     .9<1$%%%%%%%%%%%gh     ",
"               ij%%%%%k     ",
"                l%%%%%%m    "};
