/* XPM */
static char * r_xpm[] = {
"25 20 16 1",
" 	c #000000",
".	c #FFFFFF",
"+	c #F8F8F8",
"@	c #DFDFDF",
"#	c #959595",
"$	c #BABABA",
"%	c #7F7F7F",
"&	c #CACACA",
"*	c #8B8B8B",
"=	c #E1E1E1",
"-	c #8C8C8C",
";	c #B9B9B9",
">	c #E9E9E9",
",	c #AAAAAA",
"'	c #808080",
")	c #E7E7E7",
"                         ",
"                         ",
"  ................+@#    ",
"  ...................$   ",
"  ....................%  ",
"  ....................&  ",
"               *......=  ",
"               -......@  ",
"  ....................;  ",
"  ...................>   ",
"  ...................>   ",
"  ....................$  ",
"  ......,      '......@  ",
"  ......,       ......)  ",
"  ......,       ......)  ",
"  ......,       ......)  ",
"  ......,       ......)  ",
"  ......,       ......)  ",
"                         ",
"                         "};
