/* XPM */
static char * s_xpm[] = {
"25 20 28 1",
" 	c #000000",
".	c #161616",
"+	c #ACACAC",
"@	c #E6E6E6",
"#	c #FAFAFA",
"$	c #FFFFFF",
"%	c #E7E7E7",
"&	c #D7D7D7",
"*	c #ADADAD",
"=	c #F6F6F6",
"-	c #696969",
";	c #727272",
">	c #F8F8F8",
",	c #DFDFDF",
"'	c #959595",
")	c #ABABAB",
"!	c #BABABA",
"~	c #7F7F7F",
"{	c #CACACA",
"]	c #8B8B8B",
"^	c #E1E1E1",
"/	c #8C8C8C",
"(	c #C8C8C8",
"_	c #FEFEFE",
":	c #7C7C7C",
"<	c #B5B5B5",
"[	c #DEDEDE",
"}	c #919191",
"                         ",
"                         ",
"   .+@#$$$$$$$$$$$$$$$%  ",
"  .&$$$$$$$$$$$$$$$$$$%  ",
"  *$$$$$$$$$$$$$$$$$$$%  ",
"  %$$$$$$$$$$$$$$$$$$$%  ",
"  #$$$$$=-               ",
"  #$$$$$=;               ",
"  @$$$$$$$$$$$$$$$>,'    ",
"  )$$$$$$$$$$$$$$$$$$!   ",
"  .&$$$$$$$$$$$$$$$$$$~  ",
"   .)@#$$$$$$$$$$$$$$${  ",
"               ]$$$$$$^  ",
"               /$$$$$$^  ",
"  $$$$$$$$$$$$$$$$$$$$(  ",
"  $$$$$$$$$$$$$$$$$$$_:  ",
"  $$$$$$$$$$$$$$$$$$$<   ",
"  $$$$$$$$$$$$$$$$>[}    ",
"                         ",
"                         "};
