/* XPM */
static char * t_xpm[] = {
"20 20 3 1",
" 	c #000000",
".	c #FFFFFF",
"+	c #7C7C7C",
"                    ",
"                    ",
"  ................  ",
"  ................  ",
"  ................  ",
"  ................  ",
"      +......+      ",
"      +......+      ",
"      +......+      ",
"      +......+      ",
"      +......+      ",
"      +......+      ",
"      +......+      ",
"      +......+      ",
"      +......+      ",
"      +......+      ",
"      +......+      ",
"      +......+      ",
"                    ",
"                    "};
