/* XPM */
static char * u_xpm[] = {
"25 20 32 1",
" 	c #000000",
".	c #FFFFFF",
"+	c #AAAAAA",
"@	c #CACACA",
"#	c #E7E7E7",
"$	c #FAFAFA",
"%	c #E1E1E1",
"&	c #F0F0F0",
"*	c #D5D5D5",
"=	c #BEBEBE",
"-	c #DADADA",
";	c #B4B4B4",
">	c #9C9C9C",
",	c #F6F6F6",
"'	c #7C7C7C",
")	c #0D0D0D",
"!	c #9A9A9A",
"~	c #FDFDFD",
"{	c #6A6A6A",
"]	c #161616",
"^	c #E9E9E9",
"/	c #CFCFCF",
"(	c #6D6D6D",
"_	c #F7F7F7",
":	c #EAEAEA",
"<	c #404040",
"[	c #494949",
"}	c #9D9D9D",
"|	c #F9F9F9",
"1	c #EDEDED",
"2	c #CDCDCD",
"3	c #898989",
"                         ",
"                         ",
"  ......+       @.....#  ",
"  ......+       @.....#  ",
"  ......+       @.....#  ",
"  ......+       @.....#  ",
"  ......+       @.....#  ",
"  ......+       @.....#  ",
"  ......+       @.....#  ",
"  ......+       @.....#  ",
"  $.....+       @.....%  ",
"  &.....+       @.....*  ",
"  *.....=       -.....;  ",
"  >.....,'    )!~....~{  ",
"  ]^................./   ",
"   (_...............:<   ",
"    (:.............-[    ",
"     ]}*&$.....|123      ",
"                         ",
"                         "};
