/* XPM */
static char * v_xpm[] = {
"27 20 40 1",
" 	c #000000",
".	c #FFFFFF",
"+	c #D8D8D8",
"@	c #8E8E8E",
"#	c #AAAAAA",
"$	c #222222",
"%	c #EBEBEB",
"&	c #DBDBDB",
"*	c #B0B0B0",
"=	c #FBFBFB",
"-	c #696969",
";	c #6F6F6F",
">	c #FCFCFC",
",	c #515151",
"'	c #F7F7F7",
")	c #C3C3C3",
"!	c #C7C7C7",
"~	c #4F4F4F",
"{	c #CBCBCB",
"]	c #F5F5F5",
"^	c #454545",
"/	c #4B4B4B",
"(	c #F6F6F6",
"_	c #C9C9C9",
":	c #787878",
"<	c #FDFDFD",
"[	c #AFAFAF",
"}	c #767676",
"|	c #E1E1E1",
"1	c #E9E9E9",
"2	c #1C1C1C",
"3	c #ECECEC",
"4	c #9E9E9E",
"5	c #8C8C8C",
"6	c #919191",
"7	c #9C9C9C",
"8	c #383838",
"9	c #F1F1F1",
"0	c #F0F0F0",
"a	c #C2C2C2",
"                           ",
"                           ",
"  .....+          @.....#  ",
"  ......@        $%.....#  ",
"  &.....%$       *.....=-  ",
"  ;>.....*      ,'.....)   ",
"   !.....'~     {.....]^   ",
"   /(....._    :<.....#    ",
"    [.....<}   |.....12    ",
"    $3.....|  4......5     ",
"     6......789.....+      ",
"      &.....0a.....=-      ",
"      ;>...........)       ",
"       !..........]^       ",
"       /(.........#        ",
"        [........12        ",
"        $3.......5         ",
"         6......+          ",
"                           ",
"                           "};
