/* XPM */
static char * w_xpm[] = {
"27 20 28 1",
" 	c #000000",
".	c #FFFFFF",
"+	c #AAAAAA",
"@	c #747474",
"#	c #B4B4B4",
"$	c #F5F5F5",
"%	c #BABABA",
"&	c #C8C8C8",
"*	c #E8E8E8",
"=	c #C0C0C0",
"-	c #E9E9E9",
";	c #4D4D4D",
">	c #B9B9B9",
",	c #FAFAFA",
"'	c #4F4F4F",
")	c #A1A1A1",
"!	c #E0E0E0",
"~	c #6D6D6D",
"{	c #868686",
"]	c #FCFCFC",
"^	c #B8B8B8",
"/	c #CECECE",
"(	c #C1C1C1",
"_	c #383838",
":	c #929292",
"<	c #E7E7E7",
"[	c #EEEEEE",
"}	c #222222",
"                           ",
"                           ",
"  ......+         ......+  ",
"  ......+         ......+  ",
"  ......+         ......+  ",
"  ......+   @#    ......+  ",
"  ......+  @$.%   ......+  ",
"  ......+ @$...%  ......+  ",
"  ......+@$.....% ......+  ",
"  ......&$.......%......+  ",
"  ......................+  ",
"  ......................+  ",
"  ..........*=..........+  ",
"  .........-; >.........+  ",
"  ,.......-'   >........)  ",
"  !......-'     >.......~  ",
"  {]....*'       ^...../   ",
"   {!,$(_         :<][^}   ",
"                           ",
"                           "};
