/* XPM */
static char * x_xpm[] = {
"27 20 54 1",
" 	c #000000",
".	c #FFFFFF",
"+	c #DBDBDB",
"@	c #3D3D3D",
"#	c #A6A6A6",
"$	c #FCFCFC",
"%	c #7C7C7C",
"&	c #F4F4F4",
"*	c #E7E7E7",
"=	c #565656",
"-	c #BABABA",
";	c #757575",
">	c #646464",
",	c #EDEDED",
"'	c #F0F0F0",
")	c #6F6F6F",
"!	c #222222",
"~	c #CDCDCD",
"{	c #FDFDFD",
"]	c #ADADAD",
"^	c #4F4F4F",
"/	c #E4E4E4",
"(	c #F6F6F6",
"_	c #868686",
":	c #FAFAFA",
"<	c #989898",
"[	c #383838",
"}	c #D9D9D9",
"|	c #FBFBFB",
"1	c #ECECEC",
"2	c #F5F5F5",
"3	c #838383",
"4	c #1C1C1C",
"5	c #CACACA",
"6	c #EFEFEF",
"7	c #6D6D6D",
"8	c #B9B9B9",
"9	c #545454",
"0	c #A5A5A5",
"a	c #DCDCDC",
"b	c #B8B8B8",
"c	c #6E6E6E",
"d	c #353535",
"e	c #D8D8D8",
"f	c #848484",
"g	c #878787",
"h	c #424242",
"i	c #E1E1E1",
"j	c #9A9A9A",
"k	c #323232",
"l	c #AFAFAF",
"m	c #585858",
"n	c #CECECE",
"o	c #C1C1C1",
"                           ",
"                           ",
"  ......+@       #$.....%  ",
"  &......*=     -.......;  ",
"  >,......')  !~......{]   ",
"   ^/......(_@+......:<    ",
"    [}......|1......23     ",
"     45............67      ",
"       8..........*9       ",
"        0$.......a@        ",
"        0$.......+@        ",
"       b..........*=       ",
"     45............6c      ",
"    de......|1......(f     ",
"   ^/......(ghi......:j    ",
"  >,......')  ke......{l   ",
"  &......*m    4n.......;  ",
"  ......a@       o......%  ",
"                           ",
"                           "};
