/* XPM */
static char * y_xpm[] = {
"27 20 17 1",
" 	c #000000",
".	c #FFFFFF",
"+	c #D7D7D7",
"@	c #262626",
"#	c #989898",
"$	c #FCFCFC",
"%	c #7C7C7C",
"&	c #F5F5F5",
"*	c #999999",
"=	c #757575",
"-	c #747474",
";	c #BABABA",
">	c #D8D8D8",
",	c #9A9A9A",
"'	c #A0A0A0",
")	c #C8C8C8",
"!	c #AAAAAA",
"                           ",
"                           ",
"  ......+@       #$.....%  ",
"  &......+@     *$......=  ",
"  -&......+@   *$......;   ",
"   -&......>@ ,$......;    ",
"    -&......>'$......;     ",
"     -&.............;      ",
"      -&...........;       ",
"       -&.........;        ",
"        -&.......;         ",
"         -......)          ",
"          ......!          ",
"          ......!          ",
"          ......!          ",
"          ......!          ",
"          ......!          ",
"          ......!          ",
"                           ",
"                           "};
