/* XPM */
static char * z_xpm[] = {
"27 20 39 1",
" 	c #000000",
".	c #FFFFFF",
"+	c #AAAAAA",
"@	c #8D8D8D",
"#	c #E9E9E9",
"$	c #A3A3A3",
"%	c #6E6E6E",
"&	c #DADADA",
"*	c #EDEDED",
"=	c #969696",
"-	c #4F4F4F",
";	c #C8C8C8",
">	c #FCFCFC",
",	c #F6F6F6",
"'	c #B0B0B0",
")	c #262626",
"!	c #2A2A2A",
"~	c #B3B3B3",
"{	c #F8F8F8",
"]	c #FBFBFB",
"^	c #C5C5C5",
"/	c #494949",
"(	c #9B9B9B",
"_	c #EEEEEE",
":	c #D7D7D7",
"<	c #696969",
"[	c #7D7D7D",
"}	c #E2E2E2",
"|	c #E7E7E7",
"1	c #878787",
"2	c #5E5E5E",
"3	c #D1D1D1",
"4	c #FEFEFE",
"5	c #F1F1F1",
"6	c #0D0D0D",
"7	c #FAFAFA",
"8	c #F9F9F9",
"9	c #BABABA",
"0	c #383838",
"                           ",
"                           ",
"  ......................+  ",
"  ......................+  ",
"  ......................+  ",
"  ......................+  ",
"             @#.........$  ",
"           %&.........*=   ",
"         -;>........,')    ",
"       !~{........]^/      ",
"      (_.........:<        ",
"    [}.........|1          ",
"  234........5$6           ",
"  7........890             ",
"  ......................+  ",
"  ......................+  ",
"  ......................+  ",
"  ......................+  ",
"                           ",
"                           "};
