/* XPM */
static char *_494649fc53149a788a6143b6adb13579VQXp590dTllL3T8[] = {
/* columns rows colors chars-per-pixel */
"40 40 7 2 ",
"   c #000000",
".  c #b30000",
",  c #660000",
"b  c #000000",
"g  c #fbe168",
"d  c #f2af42",
"s  c #cb5b31",
/* pixels */
". . . . . . . . . . . . . . . . . . . . . . . . . . . . . . . . . . . . . . . . ",
". . . . . . . . . . . . . . . . . . . . . . . . . . . . . . . . . . . . . . . . ",
". . . . . . . . . . . . . . b b b b b b b b b b b b . . . . . . . . . . . . . . ",
". . . , . . . . . . . . , . b b b b b b b b b b b b . . . . . . . . . . . . . . ",
". . . . . . . . . . b b b b g g g g g g g g g g g g b b b b . . . . . . . . . . ",
". . . . . . . . . . b b b b g g g g g g g g g g g g b b b b . . . . . . . . . . ",
". . . . . . . . b b g g g g d d d d d d d d d d d d g g g g b b . . . , . . . . ",
". . . . . . . . b b g g g g d d d d d d d d d d d d g g g g b b . . . . . . . . ",
". . . . . . b b g g d d d d d d s s s s s s s s d d d d d d g g b b . . . . . . ",
". . . . . . b b g g d d d d d d s s s s s s s s d d d d d d g g b b . . . . . . ",
". . . . b b g g d d d d s s s s d d d d d d d d s s s s d d d d g g b b . . . . ",
". . . . b b g g d d d d s s s s d d d d d d d d s s s s d d d d g g b b . . . . ",
". . . . b b g g d d s s d d d d g g g g g g g g d d d d s s d d g g b b . . . . ",
". . . . b b g g d d s s d d d d g g g g g g g g d d d d s s d d g g b b . . . . ",
". . b b g g d d d d s s d d g g d d d d d d d d g g d d s s d d d d g g b b . . ",
". . b b g g d d d d s s d d g g d d d d d d d d g g d d s s d d d d g g b b . . ",
". . b b g g d d s s d d g g d d d d d d d d d d d d g g d d s s d d g g b b . . ",
". . b b g g d d s s d d g g d d d d d d d d d d d d g g d d s s d d g g b b . . ",
". . b b g g d d s s d d g g d d d d d d d d d d d d g g d d s s d d g g b b . . ",
". . b b g g d d s s d d g g d d d d d d d d d d d d g g d d s s d d g g b b . . ",
". . b b g g d d s s d d g g d d d d d d d d d d d d g g d d s s d d g g b b . . ",
". . b b g g d d s s d d g g d d d d d d d d d d d d g g d d s s d d g g b b . . ",
". . b b g g d d s s d d g g d d d d d d d d d d d d g g d d s s d d g g b b . . ",
". . b b g g d d s s d d g g d d d d d d d d d d d d g g d d s s d d g g b b . . ",
". . b b g g d d d d s s d d g g d d d d d d d d g g d d s s d d d d g g b b . . ",
". . b b g g d d d d s s d d g g d d d d d d d d g g d d s s d d d d g g b b . . ",
". . . . b b g g d d s s d d d d g g g g g g g g d d d d s s d d g g b b . . . . ",
". . . . b b g g d d s s d d d d g g g g g g g g d d d d s s d d g g b b . . . . ",
". . . . b b g g d d d d s s s s d d d d d d d d s s s s d d d d g g b b . . . . ",
". . . . b b g g d d d d s s s s d d d d d d d d s s s s d d d d g g b b . . . . ",
". . . . . . b b g g d d d d d d s s s s s s s s d d d d d d g g b b . . . . . . ",
". . . . . . b b g g d d d d d d s s s s s s s s d d d d d d g g b b . . . . . . ",
". . . . , . . . b b g g g g d d d d d d d d d d d d g g g g b b . . . . . . . . ",
". . . . . . . . b b g g g g d d d d d d d d d d d d g g g g b b. . . . .  . . . ",
". . . . . . . . . . b b b b g g g g g g g g g g g g b b b b . . . . . . . . . . ",
". , . . . . . . . . b b b b g g g g g g g g g g g g b b b b . . , . . . . . . . ",
". . . . . . . . . . . . . . b b b b b b b b b b b b . . . . . . . . . . . . . . ",
". . . . . . . . . . . . . . b b b b b b b b b b b b . . . . . . . . . . . . . . ",
". . . . . . . . . . . . . . . . . . . . . . . . . . . . . . . . . . . . . . . . ",
". . . . . . . . . . . . . . . . . . . , . . . . . . . . . . . . . . . . . . . . ",
};
