/* XPM */
static char * 100_xpm[] = {
"80 81 121 2",
"  	g #464646",
". 	g #4C4C4C",
"+ 	g #4E4E4E",
"@ 	g #505050",
"# 	g #4F4F4F",
"$ 	g #515151",
"% 	g #4D4D4D",
"& 	g #4B4B4B",
"* 	g #535353",
"= 	g #525252",
"- 	g #404040",
"; 	g #4A4A4A",
"> 	g #484848",
", 	g #565656",
"' 	g #3F3F3F",
") 	g #545454",
"! 	g #494949",
"~ 	g #454545",
"{ 	g #6B6B6B",
"] 	g #777777",
"^ 	g #747474",
"/ 	g #7B7B7B",
"( 	g #757575",
"_ 	g #767676",
": 	g #424242",
"< 	g #444444",
"[ 	g #616161",
"} 	g #666666",
"| 	g #5F5F5F",
"1 	g #595959",
"2 	g #555555",
"3 	g #6D6D6D",
"4 	g #646464",
"5 	g #656565",
"6 	g #696969",
"7 	g #B0B0B0",
"8 	g #DADADA",
"9 	g #DEDEDE",
"0 	g #D4D4D4",
"a 	g #D8D8D8",
"b 	g #CACACA",
"c 	g #787878",
"d 	g #575757",
"e 	g #585858",
"f 	g #AFAFAF",
"g 	g #D3D3D3",
"h 	g #CDCDCD",
"i 	g #C0C0C0",
"j 	g #7E7E7E",
"k 	g #3C3C3C",
"l 	g #858585",
"m 	g #C9C9C9",
"n 	g #D6D6D6",
"o 	g #D5D5D5",
"p 	g #D1D1D1",
"q 	g #D0D0D0",
"r 	g #C4C4C4",
"s 	g #727272",
"t 	g #606060",
"u 	g #626262",
"v 	g #5C5C5C",
"w 	g #5E5E5E",
"x 	g #636363",
"y 	g #5D5D5D",
"z 	g #686868",
"A 	g #474747",
"B 	g #3E3E3E",
"C 	g #383838",
"D 	g #3D3D3D",
"E 	g #3B3B3B",
"F 	g #3A3A3A",
"G 	g #434343",
"H 	g #414141",
"I 	g #373737",
"J 	g #393939",
"K 	g #353535",
"L 	g #2B2B2B",
"M 	g #292929",
"N 	g #272727",
"O 	g #202020",
"P 	g #343434",
"Q 	g #2C2C2C",
"R 	g #2E2E2E",
"S 	g #262626",
"T 	g #252525",
"U 	g #2D2D2D",
"V 	g #2A2A2A",
"W 	g #222222",
"X 	g #303030",
"Y 	g #313131",
"Z 	g #232323",
"` 	g #2F2F2F",
" .	g #212121",
"..	g #282828",
"+.	g #242424",
"@.	g #323232",
"#.	g #363636",
"$.	g #333333",
"%.	g #737373",
"&.	g #B2B2B2",
"*.	g #BBBBBB",
"=.	g #C3C3C3",
"-.	g #B9B9B9",
";.	g #676767",
">.	g #A5A5A5",
",.	g #BCBCBC",
"'.	g #A4A4A4",
").	g #6A6A6A",
"!.	g #9B9B9B",
"~.	g #989898",
"{.	g #A3A3A3",
"].	g #9C9C9C",
"^.	g #969696",
"/.	g #939393",
"(.	g #9E9E9E",
"_.	g #A0A0A0",
":.	g #9A9A9A",
"<.	g #919191",
"[.	g #B4B4B4",
"}.	g #D2D2D2",
"|.	g #C1C1C1",
"  . + + @ # + $ $ % # . & + . % . % * # % = @ + % @ @ - ; $ + + # # = * ; + > & $   + . . = . , $ + % $ + ' ; = # @ . % ) @ ; # % % ; & + @ @ $ + @ @ % & ! ~ - ",
"= ) * = ) * $ = , + { ] ^ / ( _ _ * + ) @ % # ) $ * * : . * @ = * # % $ < [ } } | 1 | ; ' 2 2 ; $ = = 2 $ - % ) = # 1 = - ) 3 4 5 { 3 } 6 $ ! = + $ = $ = * $ . ",
"= $ @ @ = * * * % | 7 8 8 9 0 a b c . # * d 2 + * * * - ; * @ * @ e 2 ) 1 f g h h b i j -   , ) @ = = = # k . = d % * % ; l m n o h p q r s & , $ * = @ = ) $ & ",
"$ @ = * = $ = = , & t 5 t 5 [ 4 u + = e $ @ = , = $ 2 : + d # = @ % + 2 . 4 u v w 1 t , % 1 e ; $ = # @ = ' $ $ # = 2 * = d t 4 x x x y z ) # ) * ) $ + @ 2 $ ! ",
"$ @ 2 * A ' B k ' - C C D ' B D E D B F B G B - B H # H % * H - G D D ' H D I - D B ' D k F J : ' H ' ~ = ' # ~ E H E k   B K ' F E ' D ' ~ ~ E ' - B D A * = ; ",
"@ + ) # F L M N O P Q L R S M L T U U T L V W V M X > ' & + Y L Z Q `  .U R M L N Q S S X U N ` ..L V I # D ; K M L M S ..L R ` X T ..X T Z ..M M L M L F + $ ! ",
"* @ , $ C V V ..L U +.T Q Q Q V Q L L ..Q R M ` ..` . G @ $ Y V ` ..V V ` ..+.X U ` M N L M N ..V L ..P $ ' . Y N V R Q N L U S ..Q @.M N Q @.M L Q M M F @ 2 & ",
"= % * + #.M Q L @.Q K C K #.P #.I $.J #.$.C I P V ` ; ' & # X V Q V ` $.R I @.Y $.` ` P @.Y K Y $.Y M @.# k & ` M Q V V X @.Y K $.Y P L C R Y @.Y Y L M F @ ) ; ",
"$ * $ $ #.V L L @.#.D : H ' - G H ' - - ' - ' F U U ; - . @ Y V L L X C E F J J E F F F F E E k k R S P @ B & @.L L M U C k E k k k k k k k k k E F V V J ) * ; ",
"@ * $ $ #.V L Q I H ; % % % % . # . % + + # %   U U ; - . @ Y V M U C   + + . % & & & & & . . .   P N P # k ! @...V Q #.  + # # + + + + + + + + @ ; @.L C = = & ",
"@ = @ $ #.V Q Q F   + + % # # . . ; ; . . % & G Q U ; - . @ Y L U Y E > # + . . & & . . % % % %   P ..K @ E > Y Q R X J A + % % % % % % % % % % &   ` M I * * . ",
"$ * $ $ #.V L Q V ` Y R U X Y ` X R ` X ` Y X L Q Q ! - . @ Y L V ..L X Y ` R ` ` ` X X X X X ` K Q N K @ B ; ` ..M ..L Y @.R U ` ` ` ` ` ` ` ` ` @.N M F ) * ; ",
"= ) $ $ #.V L L R L M ....M M V M M L L ..V Q M Q Q ! - & @ Y L ` L M V L M V U V V V V V M M ..M M M $.+ ' . U U ` Q L U Q M L V V V V V V V V +.Q N L E ) $ ! ",
"= ) = $ #.M V V U L L R ` U Q U L V U U V Q R L L Q ! - & @ Y L V N ..Q R U U X R R R R R U U U R U L $.. B . R N M ....Q U U ` R R R R R R R R R $.M V C $ = . ",
"= ) $ $ #.M V L ` P F D B D k F k F k D D ' B C L Q ! - & @ Y L Q Q Y C k E E D D D D D D D B B F Y V P + D ; X L Q L R #.F F k E E E E E E E E F F L M I = * . ",
"$ * $ $ #.V L L #.H ; ; ; . % ! ! ~   > ; . > B L L ! - & @ Y L M V Y k H : H G H H H H : G < < : Y N I = D ! Y L V M ` E H - - B B B B B B B B H ' U L F ) = ! ",
"= ) $ @ #.V Q U D % ) = = ) = $ = ) @ @ $ ) = : L Q ! - ; # X V V U F . * # % = # # # # # @ $ $ # $...$.# ' > ` U M M #.A ; > ; ; ; ; ; ; ; ; ; & ~ ` ..I = = & ",
"= ) $ @ K M L Q $.k B E k B k k k B E k k B ' P L Q ! - & # X V Q ` P E B k E k E E E E k k D D k U V P . ' ; R M M V @.k D D - D D D D D D D D F F L V J * = ; ",
"$ * $ @ #.M V V M L ..T ..M N ..N M ..V ....U N L Q ! - & # X V M L L ....L L ..........M M V V L ..Q P ; ' & R M Q L M V M N V ..................R N L F * = & ",
"$ ) = $ #.V V V L U L V Q Q V U Q Q L ` U L X L L Q ! - & # X L L U U V L R R Q Q Q Q Q Q U U U Q ..Q P & ' & R ..L V M Q R U ` U U U U U U U U ..R S V F ) = & ",
"= ) = = I V L L ` #.J E k F J k k E J B D F k P L Q ! - & # X L L L X I F J C J F J J J F F F E D U V K % ' ; ` L Q V U I D E F k k k k k k k k E F L V J * = & ",
"= ) = = I L Q Q J < & % + . & % % % ; + + . & - L Q ; - & # X L M M $.G . ! > & ; ; ; ; ; ; & & & @.M K # B ! X U Q L P < . ! > ! ! ! ! ! ! ! ! % A X L J * = ; ",
"= ) $ $ #.L U U - % * = * * * * = ) = * * * = ~ L Q ; - & # Y L U U C ; ) = @ * = $ $ $ $ = = = & @.M P + B > ` M M Q F % ) ) , * * * * * * * * + A Y V C * = ; ",
"$ * @ @ #.V U R K H ~ - H < < G H ~ G G : < < I L Q ; - & # Y L L L $.H > ~ : : G G G : G G G G ~ Y V P % D > ` Q L U C G : - G G G G G G G G G ~ H U M C * * & ",
"@ = @ @ #.V L L V L L Q R V ..Q Q M L R Q V L M L Q ! - & @ X V L L V M M M L U L L L L L L L L L M M P % D & R M U U Q U V ..L L L L L L L L L N U Q U F ) @ . ",
"@ * $ @ #.V L L M U U Q R U Q ` R L L U Q R ` Q L Q ! - & @ X V L V Q ` X R Q L R R R R R R R R @.U V #.@ B ; R N M ..V X @.X Y R R R R R R R R X Y V ..I * $ # ",
"$ * $ @ #.V L L @.F D k B B B ' B D B D D H H F L Q ! - & @ X V U V U I B ' ' H B ' ' ' ' ' - - F ` ..P # B ; X U Q V ` E ' D k D D D D D D D D J I Q M C 2 $ . ",
"$ * $ $ #.V L L #.: > > ! ; ! > > > ; ; ; % > D L Q ! - & @ X V V ..R E : - ' G : : : : G G G < < P ..$.+ k ; Y V V L P < . & ; A A A A A A A A ; G @.L J 2 @ ; ",
"$ * $ $ #.V L L G # ) = * ) * = $ = * * = 2 @ ~ L Q ! - & @ X V U X k & $ & > ; % % % + + # # # A I V K # D ! ` N L ` J ! $ $ = = = = = = = = = $ > $.M #.) $ . ",
"$ ) $ $ #.V L L $.F E I C C C F F C C C I F F @.L Q ! - & @ X V ..V X J k J J k J J J F F F F F C R ..K @ B ; ` V R ` $.E k F E C C C C C C C C F I L ..J , $ & ",
"= ) = $ #.V L L N V V M V M ..L Q M M V M L U M L Q ! - & @ X V ` U L Q L V V L ............M M R M N $.+ B . X M V M ..L V N N M M M M M M M M V Q ..V E d @ ; ",
"= ) = $ #.V L L X $.P I F I P I #.$.K C I #.#.K L Q ! - & @ X V M L ` K F E J K C C C C C C C C P Y Q P . k & X V Q Q R K C C E C C C C C C C C #.#.U V I * $ % ",
"* = = = K V Q V P : ! < G ~   A < < ! : ~   A F L L ! - & @ Y L L M K > + ; > ! ! ! ! ! ! ! ! ! > U ..#.+ - % R V L L @.' ~ < < < < < < < < < < < - U V J ) * & ",
"* = = = K V Q V : + ) * * * = = * $ 2 @ ) * = ~ L L ! - & @ Y L M Q k @ 2 * * * * * * * * * * * @ #.U K % ' ; R ..V U I > $ $ = $ $ $ $ $ $ $ $ = & P Q J * * & ",
"* = = = K V Q V - > ; ; & ; > ! . > & > . ; ! ' L L ! - & @ Y L Q ` k ! ; ! ; ; ; ; ; ; ; ; ; ; < $.L @.. ' ! ` L R X C   . & & ! ! ! ! ! ! ! ! ! < X V C * * . ",
"* = = = K V Q V U ` U Q R U Q R X L ` U Y R X V L L ! - & @ Y L V ..Q X U U ` ` R R R R R R R R ` V M Y + - > Y ..V M L Y Y R R R R R R R R R R X @.N ..C = = & ",
"* = = = K V Q V M Q V M L V ..L Q ..U V Q V R V L L ! - & @ Y L Q N N M M V Q Q L L L L L L L L L M Q K # ' A X M L M ..L V M L L L L L L L L L ..` ..L J = $ ; ",
"* = = = K V Q V U K C C F J #.I J I E I C #.J P L L ! - & @ Y L R V R #.C C J C C C C C C C C C K Q Q K % D > Y Q R U ` K C C E C C C C C C C C P I Q Q J = = & ",
"* = = = K V Q V ` D < G G G : H G H ~ ' : : : #.L L ! - & @ Y L M ..$.:   G : G G G G G G G G G G R M P & B & X M M M X D < < ~ : : : : : : : : ~ H R V C * * . ",
"* = = = K V Q V ' # , * = * * ) = $ ) # 2 2 = : L L ! - & @ Y L U R B $ 2 $ = 2 = = = = = = = = @ @.V #.% - . U L V L #.! * * $ * * * * * * * * * ; X M J 2 * ! ",
"= ) $ $ #.V L Q ' ~     > >   > < A > < G > A k L L ! - & @ Y L X R J > ;   A ! > > > A A A     < $.Q K @ - > ` M L Q K G !   ~                   : ` L J ) = ; ",
"= ) $ $ #.V L L S V V M Q Q V L Q L Q L M Q Q N L L ! - & @ Y L L ..L ` U L L M Q Q Q Q Q L L L @.M ..@.% ' ! X U U M M R R V V L L L L L L L L M R T M F ) * & ",
"= ) = $ #.M L L Q Y Y Y P P @.$.@.R ` Y ` ` Y ` L L ! - & @ Y L L M L U R $.#.$.X X X X X X Y Y ` M V $.% B > ` M L M V X @.@.K Y Y Y Y Y Y Y Y @.I Q Q J = = . ",
"* ) = $ #.M V V Y C E k ' ' B ' - D B ' B - B J L L ! - & @ Y L Q V R K C k B E D B B B ' ' ' ' B X Q K # B A ` V L V ` J B D ' ' ' ' ' ' ' ' ' k k L M I = * % ",
"= ) $ @ K M V L E < ; & . & ; % . . % . . @ & ' L L ! - & @ Y L Q V P < ! > A   G G G < < ~ ~ ~ ; @.N $.@ B A @.Q L L $.G !   < : : : : : : : : ~ - Q V F 2 * ! ",
"= * $ @ K M L L A @ ) ) ) * = ) @ = ) $ = , $ : L L ! - & @ Y L U Q F % ) $ $ $ = = = = * * * ) . $.N $.@ B A @.V V Q I ; * @ % $ $ $ $ $ $ $ $ + A X L F 2 = > ",
"$ * @ @ #.V L Q P F F J E F C J F E D k E D k $.L L ! - & @ Y L Q L @.k k F J C J J J J J J J J D X L P # ' > ` L Q L X E B k k J J J J J J J J J C ..S #.= ) + ",
"@ = @ @ #.V L Q ..V N S V L ......S M V N N V M L L ! - & @ Y L L M L L ..M Q V V V V V V V V V ..N L $.% - ; R M L M N M ....L V V V V V V V V S ` V R E * $ & ",
"$ * $ @ #.M V V L U Q U X R Q U U Q U U Q R X U L Q ! - & # Y L ..M M V U X ` Q U U U U Q Q Q Q Q U L @.& ' . U N Q L ..L R R ` U U U Q Q Q Q Q Q ` V ..k $ ) . ",
"$ * $ $ #.M V L L I k F E E J F k F E k E D E K L Q ! - & # Y L U U Y C k k E E k k k E E E F F I R N P @ ' & R M V M Q I k E F B B B B B D D D J C Q ..E = * ; ",
"= ) $ $ #.V L L K > = # % + + % @ . . + # @ & H L Q ! - & # Y L N ..@.H A < G   ~ ~ ~ < < < < < A $.S P = B ! ` Q M ..P A @ % & ! ! ! ! ! ! ! ! & < Y ..F $ * ! ",
"= ) = $ #.V L L D % 2 * $ = $ = * # @ = = * + < L Q ! - & # Y L U @.' + 2 * $ * * * = = = = = = . I ..P @ k > X Q M V J % ) = $ * * ) ) ) ) 2 2 @ > $...J @ * ; ",
"= ) = $ #.V L L I D B D ' D k ' B k B ' B ' D I L Q ! - & # Y L N U K E B ' B k ' ' ' ' ' ' ' ' k @.V P % E ! X L V V $.' - B - k k k k D D D D B k ` M F $ * & ",
"= ) $ $ #.V L L L L ....Q V ..L M ..L L ..V L ..L Q ! - & # Y L L Q Q M M Q Q M L L L L L L L L L V M P % D & ` V L V L R L ..V M M M M M M V V M U M ..k $ * ; ",
"$ * $ $ #.M V L ..U Q V U R Q Q L L Q Q V Q R V L Q ! - & # Y L Q V M V L L L L V V V V V V V V U V ..P + B & R M Q V ..Q Q V V L L L L L L L L M U M ..E $ * & ",
"$ * $ @ #.M V V Q C k I C E F C E J F F J E k I L Q ! - & # Y L U V U I k F J E F F F E E E E E E X ..$.+ D ; ` M U L Q K E E F E E E F F F F F I C U ..F @ ) . ",
"@ * = = I V V V Q D ~ : H G G G : G G H H   G #.L Q ! - & @ Y Q U M @.- G - ' ' : : : G G G G G < R ..P + B ! Y V L ..L ~ > A > > > > > > > > > ; G U V F ) = ! ",
"$ * $ $ I V V V J A # # @ @ + + + + # + % @ % G L Q ; - & @ Y L L U F ; @ @ $ = # # # # # # # # & K Q P % B ! ` M V R P . = ) 2 = = = = = = = = 2 . @.V I = * + ",
"$ * $ $ #.V L L I ' G <   ~ G < < : < < G < : k L Q ; - & @ Y L V U I H H H G : G G G < < < < < H ` V $.. ' ; R V ..U Y ' - G - G G G G G G G G : ' R Q J = $ . ",
"= ) $ @ #.M L L ..L V M Q L V U L ..V Q V L L N L Q ; - & # Y L V V U R V M V ..M M M V V V V V X S ..$.% H & R Q ..L M U V Q N ................M R S L E * $ ; ",
"= ) $ @ #.M L L L R U Q R R U X ` Q U R U ` X U Q Q ; - & # Y L L M L U U ` X U U U U U U R R R ` ..L #.+ - ; R U ..Q V X ` $.` R R R R R R R R ` Y N V F * * % ",
"$ * $ $ #.V L L ` I E E D D F E D E E k E B B J Q Q ; - & # X L L V X J k D D J D D D D D D D B J U Q K . D ; X L ..L Q J F B k D D D D D D D D E F V V J = $ & ",
"$ * $ $ I V V V U E G : G G H H : : G : :   G F Q U ; - & # X L V L I ~ >   < G G G < < < < < < < ` M @.. B ; Y V M V Q H < < G H H H H H H H H < ' Q L F * @ > ",
"@ * = = I V V V E & ) $ @ = = = @ = * $ $ , $ < Q U ; - & # X L L U k + = # @ * = = = = = = = = % P M P # ' ! R V Q U @.% $ @ $ @ @ @ @ @ @ @ @ = > ` V J ) * . ",
"$ $ * $ k V Q V P C F F k F I F F J F E E D E $.L L ! H % # X Q M U $.I F E E E E E E E E E E E #.Y Q P . D ; R V Q U Y F D F F E E E E E E E E F J R N J # * % ",
"$ $ * $ k V Q V ..R R L Q L L U L V V ..N Q U N L L ! H % # X Q L M V Q Q V ..N ........M M M M M S T $.+ B & X V V N N L L ....V V V V V V V V T L M V B = = > ",
"$ $ * $ k V Q V V $.K X X @.@.$.P $.$.Y X P #.X L L ! H % # X Q U M V @.#.K P K @.$.$.$.P P P K I ` V C $ D ! R U U V V ` Y ` Y R R R R R ` ` ` Y @.V S J @ ) + ",
"$ $ * $ k V Q V ` D < H H G H - - ' H H H G - I L L ! H % # X Q R Q Y D : ' B H ' ' - - H : : : - Y N $.+ k ; Y Q Q V U #.F C C J J J J J J F F C I Q ..E = ) & ",
"$ $ * $ k V Q V I   % & . + & ! . ; & . % + > k L L ! H % # X Q ..M P G > ~ G A ~ ~   A A > ! ! ! #.N @.+ D ; X M V L K ~ % ; ! A A A A A A > > & < $.V k = ) ; ",
"$ $ * $ k V Q V H . @ % + # + + * @ # # # = + G L L ! H % # X Q R @.D ; # . & + & . . % % + + # > C L K $ ' ; U M V Q I > # . ; # # # # # # @ @ +   Y N J $ 2 . ",
"$ $ * $ k V Q V L Y @.` Y Y X $.X ` ` ` R Y X ..L L ! H % # X Q N M U @.$.Y ` R ` ` ` X X Y Y Y @.L S @.# ' . ` V V ..Q P #.Y ` ` ` ` ` ` ` ` ` R ` ....D * ) ! ",
"$ $ * $ k V Q V @.#.#.K I K P I $.K J J #.J J $.L L ! H % # X Q U U U X P I C I K #.#.#.#.I I I $.X U #.+ B ; R V Q L U P I #.I I I I I I I I I I C R M F # = & ",
"2 % * = F M L Q I ' ' ~ ' : < - : H - < ' -   P M Q A - + # ` Q S Q Y : H A ~ H < G :   H < : G G $.M I + H > @...U ..X ! - G A ~ '   - ~ G '   G : Q ..I = @ . ",
"= % 2 * k L U ` < . ! & ! & $ @ . % . $ @ # @ - Q R A - + # X U R Q C $ ) + % = @ = $ * @ $ @ $ $ D R I & '   X L X L $.@ $ * % # % * % + @ % # @ & @.Q F * $ . ",
"@ + ) = E V V L B ! ! ! ;   A <   > ~ > ; !   k N U A : # % R ..T ..C < ! A >   ! A < < & & A < < I ` D = G > $.N Q U K > ; .   . A ! A < >   > & ~ @.R k * = & ",
"$ @ ) $ H P @.@.L @.` U @.` P $.@.$.X X @.Y ` U @.I ; : + # #.Y @.X I R ` X K @.U $.K X @.R X P $.` X ' @ B > I ` X @.P P R Y K @.Q R P Y @.Y Y X X L ` - * ) % ",
"= $ * ) # ; ! ! # @ & # # & . & % + + % # # % $ . & @ - & * ! & & < $ @ * + % % @ $ # % % + % & % . & @ ) - * % # + % % . . & @ + # + + + + + > $ $ @ % $ ) @ ~ ",
"$ @ @ = 2 2 ) 2 , +   2 # @ $ @ % & $ = = * @ 2 2 * * - & 2 = 2 , @ , & . , = . . % % = ; ) , 2 * ) * = + C @ $ @ = = * d y @ + + 2 = > @ + d , # # ) $ = = * ; ",
"$ = # # * * = = . 2 %.&.*.=.-.7 ) ; = ) = 2 = ) @ = = H % ) $ $ $ = 2 + ;.>.,.i *.=.,.'.t # & @ # = ) 2 = k * * @ = = * @ # ; x } 6 ).5 ).G A * * @ , = = @ * ! ",
"$ ) = @ * ) $ = 2 @ t !.~.{.].^.y & $ * # ) = $ $ * = H . ) * * ) # $ $ u /.!.(.!._.:.<.2 2 ) 2 = = $ = $ k = @ * $ = e # # ).[.o h }.p |.y G ) ) # , * * @ * > ",
"k > + # @ @ # $ @ # + % % % % % # @ @ @ @ @ @ @ # = # ' ; @ @ @ @ @ $ $ @ + % + % % % + # @ @ @ # $ # @ + B & # # # $ # = # @ x ).6 z z } # % # @ @ @ # $ + G I "};
