/* XPM */
static char * 60_xpm[] = {
"60 61 105 2 ",
"   c #494949",
".  c #505050",
"+  c #525252",
"@  c #535353",
"#  c #4D4D4D",
"$  c #4A4A4A",
"%  c #515151",
"&  c #4F4F4F",
"*  c #474747",
"=  c #585858",
"-  c #4E4E4E",
";  c #454545",
">  c #4B4B4B",
",  c #595959",
"'  c #4C4C4C",
")  c #575757",
"!  c #464646",
"~  c #444444",
"{  c #545454",
"]  c #555555",
"^  c #434343",
"/  c #6F6F6F",
"(  c #ACACAC",
"_  c #ABABAB",
":  c #B2B2B2",
"<  c #B4B4B4",
"[  c #9C9C9C",
"}  c #5B5B5B",
"|  c #606060",
"1  c #939393",
"2  c #A5A5A5",
"3  c #9F9F9F",
"4  c #959595",
"5  c #707070",
"6  c #484848",
"7  c #565656",
"8  c #898989",
"9  c #A4A4A4",
"0  c #A3A3A3",
"a  c #A8A8A8",
"b  c #A2A2A2",
"c  c #8B8B8B",
"d  c #5E5E5E",
"e  c #646464",
"f  c #838383",
"g  c #808080",
"h  c #818181",
"i  c #757575",
"j  c #5C5C5C",
"k  c #797979",
"l  c #7E7E7E",
"m  c #7B7B7B",
"n  c #787878",
"o  c #666666",
"p  c #7F7F7F",
"q  c #747474",
"r  c #3A3A3A",
"s  c #3C3C3C",
"t  c #373737",
"u  c #393939",
"v  c #333333",
"w  c #404040",
"x  c #3B3B3B",
"y  c #363636",
"z  c #3E3E3E",
"A  c #383838",
"B  c #343434",
"C  c #414141",
"D  c #3D3D3D",
"E  c #323232",
"F  c #292929",
"G  c #2E2E2E",
"H  c #2B2B2B",
"I  c #272727",
"J  c #2C2C2C",
"K  c #252525",
"L  c #282828",
"M  c #262626",
"N  c #2A2A2A",
"O  c #2D2D2D",
"P  c #232323",
"Q  c #2F2F2F",
"R  c #313131",
"S  c #303030",
"T  c #424242",
"U  c #353535",
"V  c #3F3F3F",
"W  c #686868",
"X  c #656565",
"Y  c #5A5A5A",
"Z  c #BEBEBE",
"`  c #C0C0C0",
" . c #A9A9A9",
".. c #5F5F5F",
"+. c #AEAEAE",
"@. c #C2C2C2",
"#. c #BFBFBF",
"$. c #BABABA",
"%. c #676767",
"&. c #878787",
"*. c #616161",
"=. c #7A7A7A",
"-. c #8E8E8E",
";. c #8C8C8C",
">. c #888888",
"  . + @ # + $ % & @ &   + * = - & @ - %   & + & # + & * %   ; $ > ; , - ' ) + ! ~ & & . + ; + $ > > > & * { ] & - $ ' ^ ",
"@ . & ] + ] = / ( _ : < [ } + % % ) + % ~   + @ ) & ' | 1 2 3 4 5 6 > % ) + ' - ^ + { . & 7 8 9 0 a b c d & & @ 7 + + * ",
"{ + + @ - # & e f g h h i - % @ . ] % +   - { + + % @ j k l m n o   - . @ & - @ ; . @ { + % 5 h p h h q ] # + ) . . { $ ",
"- ] { ~ r s t u t u t v r t w u r s u ; 6 -   x u r x y z A t t A B C r A s ~   6 C t s z t r t r v B r A x D u x ~ % $ ",
"- 7 . E F G H I I F H H J K L M N N L s ! # w F N F H I O F J O O P F L H F t ; ; A L F N F N N Q I N O J H J K O z + ' ",
"% @ # R F N J Q v v B v B E y u E S J D 6 & T H H O v G G F Q S v H Q S R L y   C t H J H G J G R H R S Q Q B G N z { # ",
"% % & y G H E s C ^ ^ z w ; C r ^ x G x ~ # C N N H y r T w T s u D ^ w r F U ! ^ y M L O z z C ~ D C D V z w E N z { ' ",
". @ % E H O D $ % . + % & + . + + ^ Q u ; & C L H U $ . % $ & ' . # - - ! J B 6 ~ A F J B > # . . ' + - + . . z F D @ ' ",
". @ & v J J R y U U U U U U U U y E N r ; # w N O Q v y t t U B v U y A U J E $ T U O J Q U A U t U t A t A t S N z @ > ",
"% + - B G J J J H H H H H H N N H J N s ! # C J I L L F F N H J H O F I F N E ~ ^ U H N H Q Q H H F F F F J J I N z @ > ",
"+ { . v H F J S B B B B B v v v v S F r ; # w N J Q v B B B U y U t B v B S A > ; U F I N S E G y v B B B y y S N z @ > ",
"% ] + E I N u * * * * * ! ! ! ! > z J A ~ & C L I Q r C ^ T C C C w T * z L J * ; B L F R D ^ T w V C T C C z t N z @ > ",
"& { % v N G z # % . . . . . & & - w O u ; . T F O y T $ # # ' ' ' > ' . ! Q R ' ^ v F H U C 6 * 6 !   $ 6   ! z N z @ > ",
"% @ & E H H Q B E E E E E E E E U E N x ; # C H H G E B B v B B v y v E E O B ! ; y H N G v U R v R R R R v v O N z @ > ",
"@ { - E H F F N H H H H J J J J O J F r ^ > V N H J J J H N N N F J N L J J B ; ! t H F N O G N O N H H N O G F N z @ > ",
"+ { . v J G B x x x x s s D D D x y J x ; # C H H G B u s D x r u x s D u O E 6 ^ U H N Q t D D x r x s x D x U N z @ > ",
"& { + v N G z # . . . . . . . % % ^ G u * & V F N R ; # # & # # # > & &   O S 6 ; t N L U   + # # - & - - + > s N z @ > ",
"+ { & R H S s 6 * * 6 6 6 6 6 6 * z O u ; ' V J J R T   $ ' 6 * $ 6   ; C O E * T B J S u ; $ *   * 6 6 6 $ * z N z @ > ",
"+ @ & v J N J Q J J J J J J J J G O I r * # V J L K J J N O J J N H O H R F U $ ! U H H J J H L O F F J H H J F N z @ > ",
". @ % B H L N G B B B B B B B B R G I r 6 - V H R G U v R B U t t y t v U F E * ~ v F N Q U u u t B U y U y y R N z @ > ",
". { . E N Q s   ; ; ! ! ! ! ! ! - T G u ; # w J K F r C w ^ T ^ T C ^ T w O U > ! t N N E V ! ~ ; ; ! ^ ^ * ~ A N z @ > ",
". { % v N G s $ . . . . . . . . # w J t ; - w H Q B ; $ 6 $   $ # $ '   ~ O E 6 T U J G u $ + - ' - & ' > . > z N z @ > ",
". { % B H F G B S S S S S S R R U S I A * - V H N N v E G S S E Q S v E y N B   ! y H N O E B R E E B v R B E N N z @ > ",
"@ @ - E H H G R E E E E E E E E R S N x ! > z J J N v v R B E E v B v O R H U ! ~ v N O G G R B E S E B R E v R N z @ > ",
"{ { & v N H A * ; ! ! ! ! ! ! ! 6 z O A ; # w G F S ~ ' > ' $ $ 6 6 # > ~ J R   ~ U F L R C 6 ^ 6 ~ 6 ~ 6 ! ; u N z @ > ",
". ] % v H R w # % % + + + + + + # w O u ! & V N J U > + & . & + . % + ' ! E y 6 ! y O S r ! & . # ' % - . # ' C N z @ > ",
". 7 + R F G t s U U U U U U U U s U L A * & V N F J u x t A t u u x s U y N v ; ^ R L J S B u x A t s A r t u R N z @ > ",
"+ ] . E N F N F O O O O O O O O H H M r * # z J J I H N F J N L F N J N G M B $ ! U F F N H J F J F J I N N G M N z @ > ",
"% + & U O N R u x x r r r r r r x y H x * # z H G O t x x V D s x r s x x F E > ! t H F Q r V r V x D A D s z B N z @ > ",
"% @ % U H H s . - - - - - - - - & C J t ; - w H F E * & # - # & & ' & ' ! O S * ^ U F L B * . # - > - > & # > z N z @ > ",
"+ ] % v F H A ~ ; ; ; ; ; ; ~ ~ ~ r F t ; - w O J E ^ 6 ~ ; ^ ; * ; ! ^ T Q U   ! y H J B w * ; ~ C ! T ! ~ ~ u N z @ > ",
"@ ] - R J G O N J J J J J J J H J G N s * ' z J O L O J H Q G G O O J L G I B 6 ^ v N H O J O H J N G F J J R F N z @ > ",
"% { & E N N S t u u r r r x x x r E F x ! - C N H F v t t x u A A A x t t N U ' T y F H J u x r u A r r A x r E N D @ ' ",
". { % v N G D >     $ $ $ $ > > . w O u ~ & T H I G C 6 ! 6 * $ $ ; 6 6 ~ H Q ! ; A N O S C ~ ~ * ~ ~ ; * 6 T y N D @ ' ",
"% { % v H Q D   ' ' ' ' ' # # # # z J u ~ - C H O B ! > 6     ' > 6 $   * R B 6 T y N S y   # # $ 6 6     > ! s N D @ ' ",
"@ @ & v J H G S G G G G G G G Q S O L s ! ' V H H L G G O S O O J S S F G F U ! ; A F F I Q O L O G R Q J G S J N D @ ' ",
"+ @ & v H F N J J J J J J J J O O H I s * # w N G L O O O S O H H G Q L G H A $ C y N H F v E S H O S G N O G N N D @ ' ",
"% { % E F H y C C C C C C C C C * x H u ; & C N L H u V z C V V V s D D D F S ! ~ A N J J x V V ^ C C C T ^ z B N D @ ' ",
"% ] % E F G D > % % % % % . . . . w O u ; - C N J v * - ' - ' - - $ ' ' 6 Q E $ ^ U L Q A ' @ { @ . . % + @ # C N D @ ' ",
"@ { & E H Q u T w w w w V V V V w t H x ; ' V F J Q D T w C V V w C T D r F E ! 6 t M N S w C s V V w V D w z t N D @ ' ",
"% @ % R H Q H H N N N N N N N N F H I x * ' z J H I J H F J N N N J F L N N v * ^ v N J H L F H J F F N L F J H N z @ > ",
"% % % E F F N E B B B B B B B B v Q M A ! - V H Q J v E Q v B t S R E U B J B $ ! y N L H S v R B B U v E U B J N z @ > ",
"% . . B N H v ~ T T T T T T T T ! s H A ! - V N M H s T C ^ C T ~ ~ ~ ! V O Q * ^ U N F E T > 6 *   $ * ! > ! A N z @ > ",
"@ % . v J Q u   - - - - - - - -   V O u ; # V J G U 6 . . % ' > & - # # ; E B > T B N H y ; & - . % + . & @ & ^ N z @ > ",
"{ @ % R N J Q y v v v v v v v v y E F u ; ' V G H N v v S v E B R v E v R N R ! ! U N N O E y y v S R v E v E O N z @ > ",
"+ + % E N H L H O O O O O O O O O O F s 6 # z H J F G J F O O G G S Q S S J B $ ! U N F N H O O S J O S G Q Q J N z @ > ",
"% . % B J J Q r z z z z z z z z D A J s 6 - z F N O s w z V D z z z D D A N S * ~ U F F Q r V D z s s D s z s B N z @ > ",
"{ . . B N N t # > > > > > > > > & C J t ; - w H H v ! - ' # > ' # > ' - ~ G R ' ; t N I E ; - 6 > > >     - 6 r N z @ > ",
"+ % . y J O y D z z z z z z z z w A N u * - V N O G x z D w V V V V C x x J B * ; y L G v V w z V x s V V w D U N z @ ' ",
"+ + . y H L H O H H H H H N N N Q O M u * - V J N M O O J G H N L N O J S M v   C U L F K H N N N N J J F N J N N z @ ' ",
"& % + A J N R t x x x x x x x x A v L r 6 & w H O O t u t r A A D D V r r H v * ; u J G J U y y v v U B R v U R N z @ ' ",
"# + { A H O z # ' ' ' ' ' ' # # # w J r   % w N F Q T 6 ; * *   ; ; 6 ; ^ R y   ^ B K H v ; 6 ! 6 ; ; * 6 $ ; x N z @ ' ",
". @ @ y F N u ; ; ; ; ; ; ; ; ! ! x N A * . C J G E C ; ^ ~ ^ ~ 6 * 6 ~ C O R ; * A F O B ; * ^ ! ~ ~ ; *   ~ A N z @ ' ",
"@ + . y H N S B E E E E E v v v U E F u ! # V O J F S R R U E R G O R v y F B > w U L L L B B R R E B R Q v E H N z @ ' ",
"% % . y O G t D w w w C C C C T z t H r * - V H Q Q x V w ^ C w ~ T ^ C C G U > ~ u J G S V T V C ^ ~ T w ~ ^ r N z @ ' ",
". + + y N Q T + # # # # - - - - + T N y * % C N L B ' { + % & + % & + & ' B y   ; y M J t - { % . & & & . { - w N z @ ' ",
"% ) & u J R A A A y u y V A r r x E Q V ; - w H J G A t x u s y V y u x r Q s ' T u L J Q u r r x y x B z u y y G w & > ",
"- @ @ ' ! ; ; ~   * T ; ~   ! ~ 6 ; ; ' ! - ' ; 6 ! * T * ;     C ; ' ; ! 6 & 6 ; &   $ $ - * ~ * ; ' ! ; ! ; ; ~ # + $ ",
"+ % + { { + @ ] d W X W > @ % ) + @ @ { ! # @ ] { @ ] = W e e o e @ @ @ @ & @ ' w % . % % . ' Y % ' . & 6 ) = @ @ { @ $ ",
"+ . . + + + { = a Z `  ...# > ) @ + + + ! # % + @ # @ q +.@.#.$.9 %.$ - ) + @   6 { + 7 = @ 7 l b 9 b &.- ' - % @ % & 6 ",
"* # + + % % % & ] ) , j ' ] @ > + . & % ! # . & + @ + @ *., ) ..,   + ) @ ' +   T - - % { # # =.-.;.>.n $ { ] % % & > T ",
};
