/* XPM */
static char * t_20_xpm[] = {
"34 34 79 1",
" 	g #4A4A4A",
".	g #565656",
"+	g #545454",
"@	g #515151",
"#	g #6F6F6F",
"$	g #828282",
"%	g #7E7E7E",
"&	g #5E5E5E",
"*	g #4F4F4F",
"=	g #525252",
"-	g #535353",
";	g #555555",
">	g #737373",
",	g #707070",
"'	g #4B4B4B",
")	g #505050",
"!	g #686868",
"~	g #7C7C7C",
"{	g #5C5C5C",
"]	g #4E4E4E",
"^	g #464646",
"/	g #474747",
"(	g #656565",
"_	g #747474",
":	g #717171",
"<	g #595959",
"[	g #494949",
"}	g #6B6B6B",
"|	g #4D4D4D",
"1	g #4C4C4C",
"2	g #636363",
"3	g #6E6E6E",
"4	g #484848",
"5	g #363636",
"6	g #2D2D2D",
"7	g #313131",
"8	g #2B2B2B",
"9	g #2E2E2E",
"0	g #2A2A2A",
"a	g #303030",
"b	g #333333",
"c	g #434343",
"d	g #2C2C2C",
"e	g #323232",
"f	g #3E3E3E",
"g	g #3C3C3C",
"h	g #282828",
"i	g #414141",
"j	g #3A3A3A",
"k	g #3F3F3F",
"l	g #444444",
"m	g #393939",
"n	g #353535",
"o	g #3D3D3D",
"p	g #3B3B3B",
"q	g #424242",
"r	g #373737",
"s	g #292929",
"t	g #383838",
"u	g #454545",
"v	g #404040",
"w	g #2F2F2F",
"x	g #262626",
"y	g #343434",
"z	g #242424",
"A	g #666666",
"B	g #696969",
"C	g #616161",
"D	g #575757",
"E	g #5B5B5B",
"F	g #646464",
"G	g #838383",
"H	g #777777",
"I	g #606060",
"J	g #868686",
"K	g #878787",
"L	g #727272",
"M	g #8F8F8F",
"N	g #939393",
" .+@#$%&*=- *;*.>,.@=. ')*!%~{@@]*",
"+@^/(_:<[[/[]'[+,};'[''|1*23}.|4 @",
"=4567890ab7c/ade996da7fgh8b99678i*",
";c69jjfkfk7l/d7mnnoppeqrs7otpokep|",
";u9efculovac^65olvcoga/matlvcqibg]",
"=/w699d8wn8ilsdaw6w97scnxsad967sf]",
".^8nl) lcvyu/wyvquiivb^r6nqicivno1",
"-^d7njrtpnwc^88j5g5tt9qrhwmbynmwg1",
"+4dwptm5tmwql06rrrmmm9u58aj5tmgep]",
")^9n/[|| uyql9m/ [4lve/5dt '][lnp]",
";[8dre79enwu/0hwaabyndl506y9aet7p]",
"@^6bll/^lieicdyilclikb4t9t4/4liep]",
"-46aopgjjp7u/d9tnnrrr6und7p5ttpep]",
"=/dakokoqk7ql6yi/uuqke/5dyqiciiyp]",
"+ anll/uvkel/wniqiivf7/r95ciciinp]",
"-/08reew7ydqu08b77yn56u5095aee5dp]",
"@^6y^/ 4[cequ9ru'  /qeub9t44'[/jp]",
".[dwprrbebdu[695nyyby64p0wmbyy5dp]",
")udecc^l c7ki0bqqculiele8ycqucq5p]",
";[97kgopmma/ 9ajgppjma4m9yotjmp7p]",
"@u0dtn5byb0vls8nnbyby8l5h9my5nrdp]",
"+[a5^^  ]/nlu9t/^^4/ln45wm[ |'[op]",
"@^085eye6w0l4007baa9whlrh65a77y0p]",
"-49aopfoiowql8aoffkfg7^5dyikqvinp]",
";[s7fivfvf7cu9yiqfqop7l56rqfcvvrp]",
"+[h6nnbbenw^4ddb7wny5wltzd575n5wp]",
"@[65vl/ ^iakq6t^ ^4qfbln6t^c/cv5g]",
"-[s6bb7ey5a^488bb7rn5wc58andwanag*",
"+'65illlcveqldbvqkckfy^tsnqkckp7g*",
")/seokogko7ql8apgjfpjaqy8yfmfofrg*",
"-1amqcqqvkel^9ykuq/ci54m05ul4lvno*",
"=1ejivvilqyu47tuvfcivr gbguvlqcpo*",
"=])*{:A'**='|@1{B3C'*@/1|-]DE)@|;|",
"|]=@FGH+=)-']-)IJKL.++ )=)IMN2|=@["};
